<svg width="64" height="64" viewBox="0 0 64 64" fill="none" xmlns="http://www.w3.org/2000/svg">
<path opacity="0.2" d="M60 7.5V58.5C60 59.8807 58.8807 61 57.5 61H6.5C5.11929 61 4 59.8807 4 58.5V7.5C4 6.11929 5.11929 5 6.5 5H57.5C58.8807 5 60 6.11929 60 7.5Z" fill="black"/>
<path d="M60 6.5V57.5C60 58.8807 58.8807 60 57.5 60H6.5C5.11929 60 4 58.8807 4 57.5V6.5C4 5.11929 5.11929 4 6.5 4H57.5C58.8807 4 60 5.11929 60 6.5Z" fill="#8E8E8E"/>
<path opacity="0.5" d="M32 12C26.6957 12 21.6086 14.1071 17.8579 17.8579C14.1071 21.6086 12 26.6957 12 32C12 37.3043 14.1071 42.3914 17.8579 46.1421C21.6086 49.8929 26.6957 52 32 52C37.3043 52 42.3914 49.8929 46.1421 46.1421C49.8929 42.3914 52 37.3043 52 32C52 26.6957 49.8929 21.6086 46.1421 17.8579C42.3914 14.1071 37.3043 12 32 12V12ZM32 24C34.1217 24 36.1566 24.8429 37.6569 26.3431C39.1571 27.8434 40 29.8783 40 32C40 34.1217 39.1571 36.1566 37.6569 37.6569C36.1566 39.1571 34.1217 40 32 40C29.8783 40 27.8434 39.1571 26.3431 37.6569C24.8429 36.1566 24 34.1217 24 32C24 29.8783 24.8429 27.8434 26.3431 26.3431C27.8434 24.8429 29.8783 24 32 24V24Z" fill="black"/>
<path opacity="0.2" d="M6.5 4C5.115 4 4 5.115 4 6.5V7.5C4 6.115 5.115 5 6.5 5H57.5C58.89 5 60 6.115 60 7.5V6.5C60 5.115 58.89 4 57.5 4H6.5Z" fill="white"/>
<rect x="4" y="4" width="56" height="56" rx="4" fill="url(#paint0_linear)"/>
<path d="M32 12C26.6957 12 21.6086 14.1071 17.8579 17.8579C14.1071 21.6086 12 26.6957 12 32C12 37.3043 14.1071 42.3914 17.8579 46.1421C21.6086 49.8929 26.6957 52 32 52C37.3043 52 42.3914 49.8929 46.1421 46.1421C49.8929 42.3914 52 37.3043 52 32C52 26.6957 49.8929 21.6086 46.1421 17.8579C42.3914 14.1071 37.3043 12 32 12V12ZM32 24C34.1217 24 36.1566 24.8429 37.6569 26.3431C39.1571 27.8434 40 29.8783 40 32C40 34.1217 39.1571 36.1566 37.6569 37.6569C36.1566 39.1571 34.1217 40 32 40C29.8783 40 27.8434 39.1571 26.3431 37.6569C24.8429 36.1566 24 34.1217 24 32C24 29.8783 24.8429 27.8434 26.3431 26.3431C27.8434 24.8429 29.8783 24 32 24V24Z" fill="#11111b"/>
<defs>
<linearGradient id="paint0_linear" x1="-44.5" y1="98" x2="114" y2="-27.5" gradientUnits="userSpaceOnUse">
<stop stop-color="#fab387"/>

<stop offset="0.919448" stop-color="#fab387"/>
</linearGradient>
</defs>
</svg>
