<svg width="64" height="64" viewBox="0 0 64 64" fill="none" xmlns="http://www.w3.org/2000/svg">
<rect x="4" y="4" width="56" height="56" rx="4" fill="url(#paint0_linear)"/>
<path d="M32 12C20.9543 12 12 20.9543 12 32V52H32C43.0457 52 52 43.0457 52 32C52 20.9543 43.0457 12 32 12ZM32 23.4286C34.2733 23.4286 36.4535 24.3316 38.0609 25.9391C39.6684 27.5465 40.5714 29.7267 40.5714 32C40.5714 34.2733 39.6684 36.4535 38.0609 38.0609C36.4535 39.6684 34.2733 40.5714 32 40.5714C29.7267 40.5714 27.5465 39.6684 25.9391 38.0609C24.3316 36.4535 23.4286 34.2733 23.4286 32C23.4286 29.7267 24.3316 27.5465 25.9391 25.9391C27.5465 24.3316 29.7267 23.4286 32 23.4286V23.4286Z" fill="#11111b"/>
<defs>
<linearGradient id="paint0_linear" x1="-44.5" y1="98" x2="114" y2="-27.5" gradientUnits="userSpaceOnUse">
<stop stop-color="#fab387"/>

<stop offset="0.919448" stop-color="#fab387"/>
</linearGradient>
</defs>
</svg>
