<svg width="64" height="64" viewBox="0 0 64 64" fill="none" xmlns="http://www.w3.org/2000/svg">
<rect x="4" y="4" width="56" height="56" rx="4" fill="url(#paint0_linear)"/>
<path d="M36.6298 41.9728H26.6027V45.733H36.6298V41.9728Z" fill="#11111b"/>
<path d="M36.6298 48.2398H26.6027V52H36.6298V48.2398Z" fill="#11111b"/>
<path d="M31.6163 21.9185C29.2893 21.9185 27.0577 22.8429 25.4123 24.4883C23.7669 26.1337 22.8425 28.3653 22.8425 30.6923C22.8425 33.0192 23.7669 35.2509 25.4123 36.8963C27.0577 38.5417 29.2893 39.466 31.6163 39.466C33.9432 39.466 36.1748 38.5417 37.8202 36.8963C39.4656 35.2509 40.39 33.0192 40.39 30.6923C40.39 28.3653 39.4656 26.1337 37.8202 24.4883C36.1748 22.8429 33.9432 21.9185 31.6163 21.9185ZM31.6163 25.6787C32.9459 25.6787 34.2212 26.2069 35.1614 27.1471C36.1016 28.0874 36.6298 29.3626 36.6298 30.6923C36.6298 32.022 36.1016 33.2972 35.1614 34.2374C34.2212 35.1776 32.9459 35.7059 31.6163 35.7059C30.2866 35.7059 29.0113 35.1776 28.0711 34.2374C27.1309 33.2972 26.6027 32.022 26.6027 30.6923C26.6027 29.3626 27.1309 28.0874 28.0711 27.1471C29.0113 26.2069 30.2866 25.6787 31.6163 25.6787Z" fill="#11111b"/>
<path d="M36.0434 19.0903L43.1337 26.1805L50.2239 19.0903L43.1337 12L36.0434 19.0903Z" fill="#11111b"/>
<path d="M20.0903 26.1805L27.1805 19.0903L24.5217 16.4314L17.4314 23.5217L20.0903 26.1805Z" fill="#11111b"/>
<path d="M15.6589 21.7491L22.7491 14.6589L20.0903 12L13 19.0903L15.6589 21.7491Z" fill="#11111b"/>
<defs>
<linearGradient id="paint0_linear" x1="-44.5" y1="98" x2="114" y2="-27.5" gradientUnits="userSpaceOnUse">
<stop stop-color="#fab387"/>

<stop offset="0.919448" stop-color="#fab387"/>
</linearGradient>
</defs>
</svg>
