<svg width="16" height="16" viewBox="0 0 16 16" fill="none" xmlns="http://www.w3.org/2000/svg">
<rect x="1" y="1" width="14" height="14" rx="3" fill="#a6e3a1"/>
<path d="M8.4242 3.3758C8.31168 3.26332 8.1591 3.20013 8 3.20013C7.8409 3.20013 7.68832 3.26332 7.5758 3.3758L3.3758 7.5758C3.2665 7.68896 3.20603 7.84052 3.2074 7.99784C3.20876 8.15516 3.27186 8.30565 3.38311 8.41689C3.49435 8.52814 3.64484 8.59124 3.80216 8.5926C3.95948 8.59397 4.11104 8.53349 4.2242 8.4242L4.4 8.2484V12.2C4.4 12.3591 4.46321 12.5117 4.57574 12.6243C4.68826 12.7368 4.84087 12.8 5 12.8H6.2C6.35913 12.8 6.51174 12.7368 6.62426 12.6243C6.73679 12.5117 6.8 12.3591 6.8 12.2V11C6.8 10.8409 6.86321 10.6883 6.97574 10.5757C7.08826 10.4632 7.24087 10.4 7.4 10.4H8.6C8.75913 10.4 8.91174 10.4632 9.02427 10.5757C9.13679 10.6883 9.2 10.8409 9.2 11V12.2C9.2 12.3591 9.26322 12.5117 9.37574 12.6243C9.48826 12.7368 9.64087 12.8 9.8 12.8H11C11.1591 12.8 11.3117 12.7368 11.4243 12.6243C11.5368 12.5117 11.6 12.3591 11.6 12.2V8.2484L11.7758 8.4242C11.889 8.53349 12.0405 8.59397 12.1978 8.5926C12.3552 8.59124 12.5056 8.52814 12.6169 8.41689C12.7281 8.30565 12.7912 8.15516 12.7926 7.99784C12.794 7.84052 12.7335 7.68896 12.6242 7.5758L8.4242 3.3758V3.3758Z" fill="#11111b"/>
</svg>
