<svg width="24" height="24" viewBox="0 0 24 24" fill="none" xmlns="http://www.w3.org/2000/svg">
<rect x="3" y="3" width="18" height="18" rx="3" fill="#f5c2e7"/>
<path fill-rule="evenodd" clip-rule="evenodd" d="M7.1 8.50001C7.1 8.1287 7.2475 7.77261 7.51005 7.51006C7.7726 7.24751 8.1287 7.10001 8.5 7.10001H15.5C15.8713 7.10001 16.2274 7.24751 16.4899 7.51006C16.7525 7.77261 16.9 8.1287 16.9 8.50001V14.1C16.9 14.4713 16.7525 14.8274 16.4899 15.09C16.2274 15.3525 15.8713 15.5 15.5 15.5H13.946L14.0321 15.8423L14.5949 16.4051C14.6928 16.503 14.7594 16.6277 14.7864 16.7635C14.8134 16.8992 14.7995 17.04 14.7466 17.1679C14.6936 17.2958 14.6039 17.4051 14.4888 17.482C14.3737 17.5589 14.2384 17.6 14.1 17.6H9.9C9.76158 17.6 9.62627 17.5589 9.51118 17.482C9.39609 17.4051 9.30639 17.2958 9.25343 17.1679C9.20046 17.04 9.18659 16.8992 9.21359 16.7635C9.24059 16.6277 9.30723 16.503 9.4051 16.4051L9.9679 15.8423L10.054 15.5H8.5C8.1287 15.5 7.7726 15.3525 7.51005 15.09C7.2475 14.8274 7.1 14.4713 7.1 14.1V8.50001ZM11.1397 13.4H8.5V8.50001H15.5V13.4H11.1397Z" fill="#11111b"/>
</svg>
