<?xml version="1.0" encoding="utf-8"?>
<!-- Generator: Adobe Illustrator 25.2.0, SVG Export Plug-In . SVG Version: 6.00 Build 0)  -->
<svg version="1.1" id="Layer_1" xmlns="http://www.w3.org/2000/svg" xmlns:xlink="http://www.w3.org/1999/xlink" x="0px" y="0px"
	 viewBox="0 0 24 24" style="enable-background:new 0 0 24 24;" xml:space="preserve">
<style type="text/css">
	.st0{fill:#b4befe;}
	.st1{fill:#11111b;}
</style>
<g>
	<path class="st0" d="M6,3h12c1.7,0,3,1.3,3,3v12c0,1.7-1.3,3-3,3H6c-1.7,0-3-1.3-3-3V6C3,4.3,4.3,3,6,3z"/>
	<g>
		<path class="st1" d="M13.9,12c0,1.1-0.9,1.9-1.9,1.9s-1.9-0.9-1.9-1.9s0.9-1.9,1.9-1.9S13.9,10.9,13.9,12z"/>
		<path class="st1" d="M8.7,12c0,1.1-0.9,1.9-1.9,1.9S4.8,13.1,4.8,12s0.9-1.9,1.9-1.9S8.7,10.9,8.7,12z"/>
		<path class="st1" d="M19.2,12c0,1.1-0.9,1.9-1.9,1.9s-1.9-0.9-1.9-1.9s0.9-1.9,1.9-1.9S19.2,10.9,19.2,12z"/>
	</g>
</g>
</svg>
