<?xml version="1.0" encoding="utf-8"?>
<!-- Generator: Adobe Illustrator 25.2.0, SVG Export Plug-In . SVG Version: 6.00 Build 0)  -->
<svg version="1.1" id="Layer_1" xmlns="http://www.w3.org/2000/svg" xmlns:xlink="http://www.w3.org/1999/xlink" x="0px" y="0px"
	 viewBox="0 0 24 24" style="enable-background:new 0 0 24 24;" xml:space="preserve">
<style type="text/css">
	.st0{fill:#b4befe;enable-background:new    ;}
	.st1{fill:#11111b;}
</style>
<g>
	<path class="st0" d="M6,3h12c1.7,0,3,1.3,3,3v12c0,1.7-1.3,3-3,3H6c-1.7,0-3-1.3-3-3V6C3,4.3,4.3,3,6,3z"/>
	<g>
		<path class="st1" d="M8.4,8.7C8.2,8.7,8.1,8.9,8.1,9s0.2,0.3,0.3,0.3h0.3V8.7H8.4z"/>
		<path class="st1" d="M9.7,10.1H9.4v0.6h0.3c0.2,0,0.3-0.2,0.3-0.3C10.1,10.1,9.9,10.1,9.7,10.1z"/>
		<path class="st1" d="M6.1,6.1v11.7h11.7V6.1H6.1z M9.7,11.4H9.4V12H8.8v-0.6H8.5c-0.4,0-0.8-0.2-0.9-0.6h1.2v-0.6H8.5
			c-0.6,0-1-0.4-1-1c0-0.6,0.4-1,1-1h0.3V7.5h0.6v0.6h0.3c0.4,0,0.8,0.2,0.9,0.6H9.4v0.6h0.3c0.6,0,1,0.4,1,1
			C10.7,10.9,10.2,11.4,9.7,11.4z M13.9,12h-2.6v-0.6h2.6V12z"/>
	</g>
</g>
</svg>
