<?xml version="1.0" encoding="utf-8"?>
<!-- Generator: Adobe Illustrator 25.2.0, SVG Export Plug-In . SVG Version: 6.00 Build 0)  -->
<svg version="1.1" id="Layer_1" xmlns="http://www.w3.org/2000/svg" xmlns:xlink="http://www.w3.org/1999/xlink" x="0px" y="0px"
	 viewBox="0 0 24 24" style="enable-background:new 0 0 24 24;" xml:space="preserve">
<style type="text/css">
	.st0{fill:#b4befe;}
	.st1{fill:#11111b;}
</style>
<g>
	<path class="st0" d="M6,3h12c1.7,0,3,1.3,3,3v12c0,1.7-1.3,3-3,3H6c-1.7,0-3-1.3-3-3V6C3,4.3,4.3,3,6,3z"/>
	<path class="st1" d="M8.2,8.3c-0.4,0-1,0.1-1.4,0.3C6.4,8.7,6,9,5.6,9.4C5.2,9.8,5,10.1,4.8,10.6C4.7,11,4.6,11.5,4.6,12
		s0.1,1,0.3,1.4c0.2,0.4,0.4,0.9,0.8,1.2c0.4,0.4,0.7,0.6,1.2,0.8c0.4,0.1,0.9,0.3,1.3,0.3c1.1,0.1,2-0.4,2.7-1
		c0.4-0.4,0.8-1,1.1-1.5c0.3,0.5,0.7,1,1.1,1.5c0.7,0.7,1.6,1.1,2.7,1c0.4,0,0.9-0.1,1.3-0.3c0.4-0.2,0.8-0.4,1.2-0.8
		s0.6-0.7,0.8-1.2c0.1-0.4,0.3-1,0.3-1.4c0-0.5-0.1-1-0.3-1.4c-0.2-0.4-0.4-0.9-0.8-1.2c-0.4-0.4-0.7-0.6-1.2-0.8
		c-0.4-0.1-0.9-0.3-1.4-0.3c-1.2,0-2.1,0.5-2.8,1.2c-0.4,0.4-0.7,0.8-1,1.3c-0.3-0.4-0.6-0.9-1-1.3C10.3,8.8,9.3,8.3,8.2,8.3z
		 M8.1,9.3c1,0,1.6,0.4,2.1,0.9c0.4,0.4,0.8,1,1.2,1.7c-0.4,0.7-0.8,1.5-1.3,1.9c-0.5,0.5-1,0.8-1.9,0.7c-0.4,0-0.7-0.1-1-0.2
		c-0.3-0.1-0.6-0.3-0.8-0.6c-0.2-0.2-0.4-0.5-0.5-0.9c-0.1-0.3-0.2-0.7-0.2-1c0-0.4,0.1-0.7,0.2-1c0.1-0.3,0.3-0.6,0.5-0.9
		c0.2-0.2,0.5-0.4,0.8-0.6C7.5,9.4,7.8,9.3,8.1,9.3z M15.8,9.3c0.4,0,0.7,0.1,1,0.2c0.3,0.1,0.6,0.3,0.8,0.6
		c0.2,0.2,0.4,0.5,0.5,0.9c0.1,0.3,0.2,0.7,0.2,1c0,0.4-0.1,0.7-0.2,1c-0.1,0.3-0.3,0.6-0.5,0.9c-0.2,0.2-0.5,0.4-0.8,0.6
		c-0.3,0.1-0.7,0.2-1,0.2c-0.9,0.1-1.4-0.2-1.9-0.7c-0.4-0.4-0.9-1.2-1.3-1.9c0.4-0.7,0.7-1.3,1.2-1.7C14.3,9.7,14.9,9.3,15.8,9.3z
		 M15.2,10.4v1h-1v1h1v1h1v-1h1v-1h-1v-1H15.2z M6.7,11.5v1h3.2v-1H6.7z"/>
</g>
</svg>
