<?xml version="1.0" encoding="utf-8"?>
<!-- Generator: Adobe Illustrator 25.2.0, SVG Export Plug-In . SVG Version: 6.00 Build 0)  -->
<svg version="1.1" id="Layer_1" xmlns="http://www.w3.org/2000/svg" xmlns:xlink="http://www.w3.org/1999/xlink" x="0px" y="0px"
	 viewBox="0 0 24 24" style="enable-background:new 0 0 24 24;" xml:space="preserve">
<style type="text/css">
	.st0{fill:#b4befe;enable-background:new    ;}
	.st1{fill:#11111b;}
</style>
<g>
	<path class="st0" d="M6,3h12c1.7,0,3,1.3,3,3v12c0,1.7-1.3,3-3,3H6c-1.7,0-3-1.3-3-3V6C3,4.3,4.3,3,6,3z"/>
	<path class="st1" d="M13.4,7.4c-1.4,0-2.6,0.7-3.2,2C9.9,9.3,9.6,9.3,9.3,9.3c-1.2,0-2.1,0.8-2.3,2c-1.1,0.4-1.8,1.4-1.8,2.6
		c0,1.5,1.3,2.7,2.7,2.7h8.3c1.5,0,2.7-1.3,2.7-2.7c0-1.2-0.7-2.2-1.8-2.6c0-0.1,0-0.1,0-0.1C17,9.1,15.4,7.4,13.4,7.4z M13.4,9.7
		c0.8,0,1.4,0.6,1.4,1.4c-0.1,1,0.6,2,1.5,2.3c0.2,0.1,0.3,0.2,0.3,0.4c0,0.3-0.1,0.4-0.4,0.4H7.9c-0.3,0-0.4-0.1-0.4-0.4
		c0-0.2,0.1-0.4,0.3-0.4c0.8-0.3,1.4-1,1.5-1.8c1.1,0.4,2.4,0,2.9-1.1C12.4,10,12.9,9.7,13.4,9.7z"/>
</g>
</svg>
