<svg width="24" height="24" viewBox="0 0 24 24" fill="none" xmlns="http://www.w3.org/2000/svg">
<rect x="3" y="3" width="18" height="18" rx="3" fill="#CE9EF9"/>
<path d="M6.39999 9.2C6.39999 8.8287 6.54749 8.4726 6.81004 8.21005C7.0726 7.9475 7.42869 7.8 7.79999 7.8H11.3L12.7 9.2H16.2C16.5713 9.2 16.9274 9.3475 17.1899 9.61005C17.4525 9.8726 17.6 10.2287 17.6 10.6V14.8C17.6 15.1713 17.4525 15.5274 17.1899 15.7899C16.9274 16.0525 16.5713 16.2 16.2 16.2H7.79999C7.42869 16.2 7.0726 16.0525 6.81004 15.7899C6.54749 15.5274 6.39999 15.1713 6.39999 14.8V9.2Z" fill="#11111b"/>
</svg>
