<?xml version="1.0" encoding="utf-8"?>
<!-- Generator: Adobe Illustrator 25.2.0, SVG Export Plug-In . SVG Version: 6.00 Build 0)  -->
<svg version="1.1" id="Layer_1" xmlns="http://www.w3.org/2000/svg" xmlns:xlink="http://www.w3.org/1999/xlink" x="0px" y="0px"
	 viewBox="0 0 24 24" style="enable-background:new 0 0 24 24;" xml:space="preserve">
<style type="text/css">
	.st0{fill:#b4befe;}
	.st1{fill:#11111b;}
</style>
<g>
	<path class="st0" d="M6,3h12c1.7,0,3,1.3,3,3v12c0,1.7-1.3,3-3,3H6c-1.7,0-3-1.3-3-3V6C3,4.3,4.3,3,6,3z"/>
	<path class="st1" d="M7.6,7C5.1,7,5.1,8.2,5.1,8.2v5c0,0,0-1.2,2.5-1.2c2.5,0,3.7,2.5,3.7,2.5v-5C11.3,9.5,10.1,7,7.6,7z M16.4,7
		c-2.5,0-3.7,2.5-3.7,2.5v5c0,0,1.2-2.5,3.7-2.5c2.5,0,2.5,1.2,2.5,1.2v-5C18.9,8.3,18.9,7,16.4,7z M7.6,13.3
		c-2.5,0-2.5,1.2-2.5,1.2v1.2c0,0,0-1.2,2.5-1.2c2.5,0,3.7,2.5,3.7,2.5v-1.2C11.3,15.8,10.1,13.3,7.6,13.3z M16.4,13.3
		c-2.5,0-3.7,2.5-3.7,2.5V17c0,0,1.2-2.5,3.7-2.5c2.5,0,2.5,1.2,2.5,1.2v-1.2C18.9,14.6,18.9,13.3,16.4,13.3z"/>
</g>
</svg>
