<?xml version="1.0" encoding="utf-8"?>
<!-- Generator: Adobe Illustrator 25.2.0, SVG Export Plug-In . SVG Version: 6.00 Build 0)  -->
<svg version="1.1" id="Layer_1" xmlns="http://www.w3.org/2000/svg" xmlns:xlink="http://www.w3.org/1999/xlink" x="0px" y="0px"
	 viewBox="0 0 24 24" style="enable-background:new 0 0 24 24;" xml:space="preserve">
<style type="text/css">
	.st0{fill:#b4befe;enable-background:new    ;}
	.st1{fill:#11111b;}
</style>
<g>
	<path class="st0" d="M6,3h12c1.7,0,3,1.3,3,3v12c0,1.7-1.3,3-3,3H6c-1.7,0-3-1.3-3-3V6C3,4.3,4.3,3,6,3z"/>
	<path class="st1" d="M12,6c-3.4,0-6.1,2.7-6.1,6.1c0,2.7,1.8,5,4.3,5.8v-1c-1.5,0.3-1.9-0.6-1.9-0.6c-0.2-0.6-0.6-0.7-0.6-0.7
		c-0.5-0.3,0-0.3,0-0.3c0.6,0,0.9,0.6,0.9,0.6c0.5,0.9,1.4,0.6,1.6,0.5c0.1-0.4,0.2-1,0.3-1.1c-1.2-0.2-2.2-1-2.2-3
		c0-0.6,0.4-1.4,0.7-1.8c0.1-0.2-0.2-1,0.2-1.7c0,0,0,0,0.1,0c0.2,0,0.6,0.2,1.4,0.8C11.1,9.1,11.6,9,12,9c0.4,0,0.9,0.1,1.3,0.2
		c0.8-0.6,1.3-0.8,1.4-0.8c0.1,0,0.1,0,0.1,0c0.3,0.8,0.1,1.6,0.1,1.8c0.3,0.4,0.7,1.2,0.7,1.8c0,2.2-1.4,3-2.6,3
		c0.2,0.2,0.2,0.5,0.2,1c0,0.6,0,1,0,1.3V18c2.6-0.6,4.8-3,4.8-5.9C18.1,8.7,15.4,6,12,6z"/>
</g>
</svg>
