<?xml version="1.0" encoding="utf-8"?>
<!-- Generator: Adobe Illustrator 25.2.0, SVG Export Plug-In . SVG Version: 6.00 Build 0)  -->
<svg version="1.1" id="Layer_1" xmlns="http://www.w3.org/2000/svg" xmlns:xlink="http://www.w3.org/1999/xlink" x="0px" y="0px"
	 viewBox="0 0 24 24" style="enable-background:new 0 0 24 24;" xml:space="preserve">
<style type="text/css">
	.st0{fill:#b4befe;enable-background:new    ;}
	.st1{fill:#11111b;}
</style>
<g>
	<path class="st0" d="M6,3h12c1.7,0,3,1.3,3,3v12c0,1.7-1.3,3-3,3H6c-1.7,0-3-1.3-3-3V6C3,4.3,4.3,3,6,3z"/>
	<path class="st1" d="M8.3,5.7L7.4,6.5l1.3,1.3C8.6,8.1,8.6,8.4,8.6,8.6c0,0.7,0.4,1.3,1.1,1.6V15c-0.7,0.2-1.1,0.9-1.1,1.6
		c0,0.9,0.8,1.7,1.7,1.7c0.9,0,1.7-0.8,1.7-1.7c0-0.7-0.4-1.3-1.1-1.6v-4.8c0.1,0,0.1-0.1,0.1-0.1l2.3,2.3c-0.1,0.2-0.1,0.5-0.1,0.7
		c0,0.9,0.8,1.7,1.7,1.7c0.9,0,1.7-0.8,1.7-1.7c0-0.9-0.8-1.7-1.7-1.7c-0.3,0-0.5,0.1-0.7,0.1l-2.3-2.3C12,9.1,12,8.8,12,8.6
		c0-0.9-0.8-1.7-1.7-1.7c-0.3,0-0.5,0.1-0.7,0.1L8.3,5.7z"/>
</g>
</svg>
