<?xml version="1.0" encoding="utf-8"?>
<!-- Generator: Adobe Illustrator 25.2.0, SVG Export Plug-In . SVG Version: 6.00 Build 0)  -->
<svg version="1.1" id="Layer_1" xmlns="http://www.w3.org/2000/svg" xmlns:xlink="http://www.w3.org/1999/xlink" x="0px" y="0px"
	 viewBox="0 0 24 24" style="enable-background:new 0 0 24 24;" xml:space="preserve">
<style type="text/css">
	.st0{fill:#b4befe;enable-background:new    ;}
	.st1{fill:#11111b;}
</style>
<g>
	<path class="st0" d="M6,3h12c1.7,0,3,1.3,3,3v12c0,1.7-1.3,3-3,3H6c-1.7,0-3-1.3-3-3V6C3,4.3,4.3,3,6,3z"/>
	<path class="st1" d="M11.3,6.9C9.2,7.3,8,8.7,7.6,10.7H5v2.6h2.6c0.4,2,1.6,3.4,3.8,3.8V6.9z M12.7,6.9v10.2
		c2.1-0.4,3.4-1.8,3.8-3.8H19v-2.6h-2.6C16,8.7,14.8,7.3,12.7,6.9z"/>
</g>
</svg>
