<?xml version="1.0" encoding="utf-8"?>
<!-- Generator: Adobe Illustrator 25.2.0, SVG Export Plug-In . SVG Version: 6.00 Build 0)  -->
<svg version="1.1" id="Layer_1" xmlns="http://www.w3.org/2000/svg" xmlns:xlink="http://www.w3.org/1999/xlink" x="0px" y="0px"
	 viewBox="0 0 24 24" style="enable-background:new 0 0 24 24;" xml:space="preserve">
<style type="text/css">
	.st0{fill:#b4befe;enable-background:new    ;}
	.st1{fill:#11111b;}
</style>
<g>
	<path class="st0" d="M6,3h12c1.7,0,3,1.3,3,3v12c0,1.7-1.3,3-3,3H6c-1.7,0-3-1.3-3-3V6C3,4.3,4.3,3,6,3z"/>
	<path class="st1" d="M11.3,7C8.9,7,8.9,8.5,8.1,9.6c0.8-0.4,1.8-0.7,2.8-1c0.9-0.2,1.9-0.4,2.8-0.5C13.1,7.6,12.7,7,11.3,7z
		 M14.5,9.2c-1.1,0-2.2,0.1-3.3,0.4c-3.7,1-6.3,3-5.9,4.6c0.2,0.9,1.5,1.7,3.4,1.9c0,0,0,0,0-0.1c-0.1-1,0.5-1.7,1.1-2.2
		c0.7-0.5,1.5-0.9,2.4-1.1c0.5-0.1,0.9-0.1,1.3-0.1c0.7,0,1.3,0.1,1.9,0.4c0.5,0.2,0.9,0.7,1,1.3c1.7-1.1,2.5-2.4,2.3-3.4
		C18.4,9.8,16.8,9.1,14.5,9.2z M13.5,13.6c-0.4,0-0.7,0-1.1,0.1c-1.6,0.4-2.7,1.3-2.6,2.2c0.1,0.9,1.4,1.3,3,1
		c1.6-0.4,2.7-1.3,2.6-2.2C15.3,14.1,14.5,13.7,13.5,13.6z"/>
</g>
</svg>
