<?xml version="1.0" encoding="utf-8"?>
<!-- Generator: Adobe Illustrator 25.2.0, SVG Export Plug-In . SVG Version: 6.00 Build 0)  -->
<svg version="1.1" id="Layer_1" xmlns="http://www.w3.org/2000/svg" xmlns:xlink="http://www.w3.org/1999/xlink" x="0px" y="0px"
	 viewBox="0 0 24 24" style="enable-background:new 0 0 24 24;" xml:space="preserve">
<style type="text/css">
	.st0{fill:#b4befe;enable-background:new    ;}
	.st1{fill:#11111b;}
</style>
<g>
	<path class="st0" d="M6,3h12c1.7,0,3,1.3,3,3v12c0,1.7-1.3,3-3,3H6c-1.7,0-3-1.3-3-3V6C3,4.3,4.3,3,6,3z"/>
	<path class="st1" d="M12.1,5.9c-1.8,0-3.3,1.5-3.3,3.3h1.1c0-1.2,1-2.2,2.2-2.2c1.3,0,2.2,1,2.2,2.2v2.2H8.1
		c-0.3,0-0.6,0.3-0.6,0.6v5.5c0,0.3,0.3,0.6,0.6,0.6h7.7c0.3,0,0.6-0.3,0.6-0.6V12c0-0.3-0.3-0.6-0.6-0.6h-0.6V9.2
		C15.4,7.4,13.9,5.9,12.1,5.9z"/>
</g>
</svg>
