<?xml version="1.0" encoding="utf-8"?>
<!-- Generator: Adobe Illustrator 25.2.0, SVG Export Plug-In . SVG Version: 6.00 Build 0)  -->
<svg version="1.1" id="Layer_1" xmlns="http://www.w3.org/2000/svg" xmlns:xlink="http://www.w3.org/1999/xlink" x="0px" y="0px"
	 viewBox="0 0 24 24" style="enable-background:new 0 0 24 24;" xml:space="preserve">
<style type="text/css">
	.st0{fill:#b4befe;}
	.st1{fill:#11111b;}
</style>
<g>
	<path class="st0" d="M6,3h12c1.7,0,3,1.3,3,3v12c0,1.7-1.3,3-3,3H6c-1.7,0-3-1.3-3-3V6C3,4.3,4.3,3,6,3z"/>
	<path class="st1" d="M17,7l-2.5,4.2l1.6,0.9L17,7z M7.9,9.5l-2.5,1.8l3.3-0.1l1.6,5.8l0.8-0.8l7.4,0.8l-2.5-4.2l-1.1-0.6l-4,2.3
		L9.1,9.9L7.9,9.5z M12.5,11.3l-1.9,1.2l0.7,1.6l3.3-1.9l-1.1-0.9H12.5z"/>
</g>
</svg>
