<?xml version="1.0" encoding="utf-8"?>
<!-- Generator: Adobe Illustrator 25.2.0, SVG Export Plug-In . SVG Version: 6.00 Build 0)  -->
<svg version="1.1" id="Layer_1" xmlns="http://www.w3.org/2000/svg" xmlns:xlink="http://www.w3.org/1999/xlink" x="0px" y="0px"
	 viewBox="0 0 24 24" style="enable-background:new 0 0 24 24;" xml:space="preserve">
<style type="text/css">
	.st0{fill:#b4befe;enable-background:new    ;}
	.st1{fill:#b4befe;}
	.st2{fill:none;stroke:#11111b;stroke-width:0.375;stroke-miterlimit:3.75;}
</style>
<g>
	<path class="st0" d="M6,3h12c1.7,0,3,1.3,3,3v12c0,1.7-1.3,3-3,3H6c-1.7,0-3-1.3-3-3V6C3,4.3,4.3,3,6,3z"/>
	<g>
		<path class="st1" d="M16.2,11.3c0,1.2-1,2.2-2.2,2.2c-1.2,0-2.2-1-2.2-2.2c0-1.2,1-2.2,2.2-2.2C15.2,9.1,16.2,10,16.2,11.3z"/>
		<path class="st2" d="M16.2,11.3c0,1.2-1,2.2-2.2,2.2c-1.2,0-2.2-1-2.2-2.2c0-1.2,1-2.2,2.2-2.2C15.2,9.1,16.2,10,16.2,11.3z"/>
		<path class="st1" d="M19.7,15.3c0,0.7-0.6,1.3-1.3,1.3s-1.3-0.6-1.3-1.3c0-0.7,0.6-1.3,1.3-1.3S19.7,14.6,19.7,15.3z"/>
		<path class="st2" d="M19.7,15.3c0,0.7-0.6,1.3-1.3,1.3c-0.7,0-1.3-0.6-1.3-1.3c0-0.7,0.6-1.3,1.3-1.3C19.1,14,19.7,14.6,19.7,15.3
			z"/>
		<path class="st1" d="M18.2,14c0,1.4-1.1,2.5-2.5,2.5c-1.4,0-2.5-1.1-2.5-2.5c0-1.4,1.1-2.5,2.5-2.5C17.1,11.5,18.2,12.6,18.2,14z"
			/>
		<path class="st2" d="M18.2,14c0,1.4-1.1,2.5-2.5,2.5c-1.4,0-2.5-1.1-2.5-2.5c0-1.4,1.1-2.5,2.5-2.5C17.1,11.5,18.2,12.6,18.2,14z"
			/>
		<path class="st1" d="M8.7,14.2c0,1.2-1,2.2-2.2,2.2c-1.2,0-2.2-1-2.2-2.2c0-1.2,1-2.2,2.2-2.2C7.8,12,8.7,13,8.7,14.2z"/>
		<path class="st2" d="M8.7,14.2c0,1.2-1,2.2-2.2,2.2c-1.2,0-2.2-1-2.2-2.2c0-1.2,1-2.2,2.2-2.2C7.8,12,8.7,13,8.7,14.2z"/>
		<path class="st1" d="M10.2,9.5c0,0.8-0.7,1.5-1.5,1.5s-1.5-0.7-1.5-1.5C7.3,8.7,7.9,8,8.7,8S10.2,8.7,10.2,9.5z"/>
		<path class="st2" d="M10.2,9.5c0,0.8-0.7,1.5-1.5,1.5s-1.5-0.7-1.5-1.5C7.3,8.7,7.9,8,8.7,8S10.2,8.7,10.2,9.5z"/>
		<path class="st1" d="M11.7,12.3c0,1.5-1.2,2.7-2.7,2.7c-1.5,0-2.7-1.2-2.7-2.7c0-1.5,1.2-2.7,2.7-2.7
			C10.5,9.5,11.7,10.8,11.7,12.3z"/>
		<path class="st2" d="M11.7,12.3c0,1.5-1.2,2.7-2.7,2.7c-1.5,0-2.7-1.2-2.7-2.7c0-1.5,1.2-2.7,2.7-2.7
			C10.5,9.5,11.7,10.8,11.7,12.3z"/>
		<path class="st1" d="M10,15.3c0,0.7-0.6,1.3-1.3,1.3s-1.3-0.6-1.3-1.3c0-0.7,0.6-1.3,1.3-1.3S10,14.6,10,15.3z"/>
		<path class="st2" d="M10,15.3c0,0.7-0.6,1.3-1.3,1.3c-0.7,0-1.3-0.6-1.3-1.3c0-0.7,0.6-1.3,1.3-1.3C9.4,14,10,14.6,10,15.3z"/>
		<path class="st1" d="M13.8,10c0,1.4-1.1,2.5-2.5,2.5c-1.4,0-2.5-1.1-2.5-2.5c0-1.4,1.1-2.5,2.5-2.5C12.6,7.5,13.8,8.6,13.8,10z"/>
		<path class="st2" d="M13.8,10c0,1.4-1.1,2.5-2.5,2.5c-1.4,0-2.5-1.1-2.5-2.5c0-1.4,1.1-2.5,2.5-2.5C12.6,7.5,13.8,8.6,13.8,10z"/>
		<path class="st1" d="M15.2,13.2c0,1.8-1.4,3.2-3.2,3.2c-1.8,0-3.2-1.4-3.2-3.2c0-1.8,1.4-3.2,3.2-3.2C13.7,10,15.2,11.4,15.2,13.2
			z"/>
		<path class="st2" d="M15.2,13.2c0,1.8-1.4,3.2-3.2,3.2c-1.8,0-3.2-1.4-3.2-3.2c0-1.8,1.4-3.2,3.2-3.2C13.7,10,15.2,11.4,15.2,13.2
			z"/>
	</g>
</g>
</svg>
