<?xml version="1.0" encoding="utf-8"?>
<!-- Generator: Adobe Illustrator 25.2.0, SVG Export Plug-In . SVG Version: 6.00 Build 0)  -->
<svg version="1.1" id="Layer_1" xmlns="http://www.w3.org/2000/svg" xmlns:xlink="http://www.w3.org/1999/xlink" x="0px" y="0px"
	 viewBox="0 0 24 24" style="enable-background:new 0 0 24 24;" xml:space="preserve">
<style type="text/css">
	.st0{fill:#b4befe;}
	.st1{fill:#11111b;}
</style>
<g>
	<path class="st0" d="M6,3h12c1.7,0,3,1.3,3,3v12c0,1.7-1.3,3-3,3H6c-1.7,0-3-1.3-3-3V6C3,4.3,4.3,3,6,3z"/>
	<path class="st1" d="M14.5,5.7c-0.6,0-1.4,0.3-1.9,0.8c-0.4,0.4-0.8,1.1-0.7,1.7c0.7,0.1,1.4-0.4,1.9-0.8C14.2,7,14.6,6.3,14.5,5.7
		z M14.1,8.2c-0.8,0.1-1.6,0.6-2,0.6c-0.5,0-1.2-0.6-2-0.6c-1.1,0-2,0.6-2.6,1.7c-1.1,2-0.3,5.1,0.8,6.7c0.5,0.8,1.1,1.7,1.9,1.7
		c0.8,0,1.1-0.5,2-0.5s1.2,0.5,2,0.5c0.9,0,1.4-0.9,1.9-1.7c0.6-1,0.9-1.8,0.9-1.9c0,0-1.7-0.7-1.7-2.7c0-1.7,1.3-2.5,1.3-2.6
		c-0.7-1.1-1.9-1.3-2.3-1.3C14.3,8.2,14.1,8.2,14.1,8.2z"/>
</g>
</svg>
