<?xml version="1.0" encoding="utf-8"?>
<!-- Generator: Adobe Illustrator 25.2.0, SVG Export Plug-In . SVG Version: 6.00 Build 0)  -->
<svg version="1.1" id="Layer_1" xmlns="http://www.w3.org/2000/svg" xmlns:xlink="http://www.w3.org/1999/xlink" x="0px" y="0px"
	 viewBox="0 0 24 24" style="enable-background:new 0 0 24 24;" xml:space="preserve">
<style type="text/css">
	.st0{fill:#b4befe;enable-background:new    ;}
	.st1{fill:#11111b;}
</style>
<g>
	<path class="st0" d="M6,3h12c1.7,0,3,1.3,3,3v12c0,1.7-1.3,3-3,3H6c-1.7,0-3-1.3-3-3V6C3,4.3,4.3,3,6,3z"/>
	<path class="st1" d="M8.7,6.3v2.3h6.8V6.3H8.7z M7.2,9.7c-0.4,0-0.8,0.4-0.8,0.8v2.9c0,0.4,0.4,0.8,0.8,0.8h1.4v3.4h6.8v-3.4h1.4
		c0.4,0,0.8-0.4,0.8-0.8v-2.9c0-0.4-0.4-0.8-0.8-0.8H7.2z M8.7,12h6.8v1.1H8.7V12z"/>
</g>
</svg>
