<?xml version="1.0" encoding="utf-8"?>
<!-- Generator: Adobe Illustrator 25.2.0, SVG Export Plug-In . SVG Version: 6.00 Build 0)  -->
<svg version="1.1" id="Layer_1" xmlns="http://www.w3.org/2000/svg" xmlns:xlink="http://www.w3.org/1999/xlink" x="0px" y="0px"
	 viewBox="0 0 24 24" style="enable-background:new 0 0 24 24;" xml:space="preserve">
<style type="text/css">
	.st0{fill:#b4befe;enable-background:new    ;}
	.st1{fill:#11111b;}
</style>
<g>
	<path class="st0" d="M6,3h12c1.7,0,3,1.3,3,3v12c0,1.7-1.3,3-3,3H6c-1.7,0-3-1.3-3-3V6C3,4.3,4.3,3,6,3z"/>
	<path class="st1" d="M12,6.1c-3.3,0-5.9,2.6-5.9,5.9c0,3.3,2.6,5.9,5.9,5.9h3.6c0,0,0.7-0.3,0.7-1c0-0.7-0.7-0.9-0.7-0.9H12
		c-0.2,0-0.4,0-0.6-0.1c-0.7-0.1-1.2-0.3-1.6-0.7c-1-0.7-1.7-1.9-1.7-3.2c0-2.2,1.8-3.9,3.9-3.9c2.2,0,3.9,1.8,3.9,3.9
		c0,0.4-0.1,0.7-0.2,1h-0.9c0.1-0.3,0.2-0.7,0.2-1c0-1.6-1.3-2.9-2.9-2.9c-1.6,0-2.9,1.3-2.9,2.9c0,1.6,1.3,2.9,2.9,2.9h3.6
		c0.5-0.1,0.9-0.4,1.3-0.6c0.7-0.5,1-1.3,1-2.4C17.9,8.7,15.3,6.1,12,6.1z M12,11c0.5,0,1,0.4,1,1c0,0.5-0.4,1-1,1c-0.5,0-1-0.4-1-1
		C11,11.5,11.5,11,12,11z"/>
</g>
</svg>
