<?xml version="1.0" encoding="utf-8"?>
<!-- Generator: Adobe Illustrator 25.2.0, SVG Export Plug-In . SVG Version: 6.00 Build 0)  -->
<svg version="1.1" id="Layer_1" xmlns="http://www.w3.org/2000/svg" xmlns:xlink="http://www.w3.org/1999/xlink" x="0px" y="0px"
	 viewBox="0 0 24 24" style="enable-background:new 0 0 24 24;" xml:space="preserve">
<style type="text/css">
	.st0{fill:#b4befe;enable-background:new    ;}
	.st1{fill:#11111b;}
</style>
<g>
	<path class="st0" d="M6,3h12c1.7,0,3,1.3,3,3v12c0,1.7-1.3,3-3,3H6c-1.7,0-3-1.3-3-3V6C3,4.3,4.3,3,6,3z"/>
	<path class="st1" d="M8.1,6.1C7.6,6.1,7.2,6.5,7.2,7v6.8h0.6v-0.6h0.6V7.3h4.7v2.4h2.4v7.7h0.6v-0.6h0.6V9l-3-3L8.1,6.1L8.1,6.1z
		 M16.1,17.4V18h0.6v-0.6H16.1z M15.5,17.4h-0.6V18h0.6V17.4z M14.9,17.4v-0.6h-0.6v0.6H14.9z M14.3,17.4h-0.6V18h0.6V17.4z
		 M13.7,17.4v-0.6h-0.6v0.6H13.7z M13.1,17.4h-0.6V18h0.6V17.4z M12.5,17.4v-0.6h-0.6v0.6H12.5z M12,17.4h-0.6V18H12V17.4z
		 M11.3,17.4v-0.6h-0.6v0.6H11.3z M10.8,17.4h-0.6V18h0.6V17.4z M10.2,17.4v-0.6H9.5v0.6H10.2z M9.6,17.4H9V18h0.6V17.4z M9,17.4
		v-0.6H8.3v0.6H9z M8.4,17.4H7.8V18h0.6V17.4z M7.8,17.4v-0.6H7.2v0.6H7.8z M7.8,16.7h0.6v-0.6H7.8V16.7z M7.8,16.1v-0.6H7.2v0.6
		H7.8z M7.8,15.5h0.6v-0.6H7.8V15.5z M7.8,15v-0.6H7.2V15H7.8z M7.8,14.4h0.6v-0.6H7.8V14.4z"/>
</g>
</svg>
