<?xml version="1.0" encoding="utf-8"?>
<!-- Generator: Adobe Illustrator 25.2.0, SVG Export Plug-In . SVG Version: 6.00 Build 0)  -->
<svg version="1.1" id="Layer_1" xmlns="http://www.w3.org/2000/svg" xmlns:xlink="http://www.w3.org/1999/xlink" x="0px" y="0px"
	 viewBox="0 0 24 24" style="enable-background:new 0 0 24 24;" xml:space="preserve">
<style type="text/css">
	.st0{fill:#b4befe;enable-background:new    ;}
	.st1{fill:#11111b;}
</style>
<g>
	<path class="st0" d="M6,3h12c1.7,0,3,1.3,3,3v12c0,1.7-1.3,3-3,3H6c-1.7,0-3-1.3-3-3V6C3,4.3,4.3,3,6,3z"/>
	<path class="st1" d="M12.3,7.2c-1.8,0-3.4,1.1-4.1,2.8c-1.8,0.2-3.1,1.7-3.1,3.4c0,1.9,1.5,3.4,3.4,3.4h8.1c1.2,0,2.3-1,2.3-2.3
		c0-0.8-0.5-1.6-1.2-1.9c0.3-0.3,0.5-0.8,0.5-1.3c0-1.2-0.9-2.1-2.1-2.1C15.3,7.9,13.8,7.2,12.3,7.2z M12.5,8.5
		c1.7,0,3.1,1.4,3.1,3.1s-1.4,3.1-3.1,3.1s-3.1-1.4-3.1-3.1S10.9,8.5,12.5,8.5z M12.5,9.4c-0.5,0-1,0.1-1.3,0.4h1.6
		c0.6,0,1.1,0.2,1.1,1c0,1-0.4,1.2-1.1,1.2h-0.7v1.3h-0.9c0.4,0.3,0.8,0.4,1.3,0.4c1.2,0,2.2-1,2.2-2.2C14.7,10.3,13.8,9.4,12.5,9.4
		z M11.2,9.8c-0.5,0.4-0.9,1-0.9,1.8c0,0.7,0.3,1.3,0.9,1.8V9.8z M12.1,10.7v0.4h0.4c0.3,0,0.4,0,0.4-0.2c0-0.2-0.1-0.2-0.4-0.2
		H12.1z"/>
</g>
</svg>
