<?xml version="1.0" encoding="utf-8"?>
<!-- Generator: Adobe Illustrator 25.2.0, SVG Export Plug-In . SVG Version: 6.00 Build 0)  -->
<svg version="1.1" id="Layer_1" xmlns="http://www.w3.org/2000/svg" xmlns:xlink="http://www.w3.org/1999/xlink" x="0px" y="0px"
	 viewBox="0 0 24 24" style="enable-background:new 0 0 24 24;" xml:space="preserve">
<style type="text/css">
	.st0{fill:#b4befe;enable-background:new    ;}
	.st1{fill:#11111b;}
</style>
<g>
	<path class="st0" d="M6,3h12c1.7,0,3,1.3,3,3v12c0,1.7-1.3,3-3,3H6c-1.7,0-3-1.3-3-3V6C3,4.3,4.3,3,6,3z"/>
	<path class="st1" d="M9.1,9.6L9.1,9.6c-0.4,0.2-0.5,0.7-0.3,1.2c0.2,0.4,0.5,0.6,0.9,0.6c0.3,1.3,1.2,2.3,2.4,2.3
		c1.1,0,2.1-0.9,2.4-2.3c0.3,0,0.7-0.3,0.9-0.6c0.3-0.5,0.2-1-0.2-1.2h-0.1C15,8.1,13.8,7,12.2,7S9.2,8.1,9.1,9.6z M13.8,13.9
		c-0.2,0.2-0.3,0.3-0.6,0.5c-0.3,0.3-0.8,0.3-1.2,0.3c-0.7,0-1.3-0.3-1.7-0.9c-1.8,0.3-3.8,0.7-3.9,1.1v0.1v1.5
		c0,0.2,0.1,0.3,0.3,0.3h10.7c0.2,0,0.3-0.2,0.3-0.3v-1.5V15C17.5,14.6,15.6,14.3,13.8,13.9z"/>
</g>
</svg>
