<?xml version="1.0" encoding="utf-8"?>
<!-- Generator: Adobe Illustrator 25.2.0, SVG Export Plug-In . SVG Version: 6.00 Build 0)  -->
<svg version="1.1" id="Layer_1" xmlns="http://www.w3.org/2000/svg" xmlns:xlink="http://www.w3.org/1999/xlink" x="0px" y="0px"
	 viewBox="0 0 24 24" style="enable-background:new 0 0 24 24;" xml:space="preserve">
<style type="text/css">
	.st0{fill:#b4befe;enable-background:new    ;}
	.st1{fill:#11111b;}
</style>
<g>
	<path class="st0" d="M6,3h12c1.7,0,3,1.3,3,3v12c0,1.7-1.3,3-3,3H6c-1.7,0-3-1.3-3-3V6C3,4.3,4.3,3,6,3z"/>
	<path class="st1" d="M9.8,7.5L8.6,8.6H8.1c-0.9,0-1.7,0.6-1.7,1.4v5.1c0,0.8,0.8,1.4,1.7,1.4h7.9c0.9,0,1.7-0.6,1.7-1.4V10
		c0-0.8-0.8-1.4-1.7-1.4h-0.6l-1.1-1.1H9.8z M12.1,9.7c1.2,0,2.3,1,2.3,2.3s-1,2.3-2.3,2.3s-2.3-1-2.3-2.3S10.9,9.7,12.1,9.7z"/>
</g>
</svg>
