<?xml version="1.0" encoding="utf-8"?>
<!-- Generator: Adobe Illustrator 25.2.0, SVG Export Plug-In . SVG Version: 6.00 Build 0)  -->
<svg version="1.1" id="Layer_1" xmlns="http://www.w3.org/2000/svg" xmlns:xlink="http://www.w3.org/1999/xlink" x="0px" y="0px"
	 viewBox="0 0 24 24" style="enable-background:new 0 0 24 24;" xml:space="preserve">
<style type="text/css">
	.st0{fill:#b4befe;enable-background:new    ;}
	.st1{fill:#11111b;}
</style>
<g>
	<path class="st0" d="M6,3h12c1.7,0,3,1.3,3,3v12c0,1.7-1.3,3-3,3H6c-1.7,0-3-1.3-3-3V6C3,4.3,4.3,3,6,3z"/>
	<path class="st1" d="M12,5.4c-3.7,0-6.6,2.9-6.6,6.6s2.9,6.6,6.6,6.6s6.6-2.9,6.6-6.6S15.7,5.4,12,5.4z M8.7,8.7h2.2L12,9.8
		l1.1-1.1h2.2v6.6h-2.2V12L12,13.1L10.9,12v3.3H8.7V8.7z"/>
</g>
</svg>
