<svg width="24" height="24" viewBox="0 0 24 24" fill="none" xmlns="http://www.w3.org/2000/svg">
<rect x="3" y="3" width="18" height="18" rx="3" fill="#a6e3a1"/>
<path fill-rule="evenodd" clip-rule="evenodd" d="M7.80005 7.8C7.80005 7.4287 7.94755 7.0726 8.2101 6.81005C8.47265 6.5475 8.82875 6.4 9.20005 6.4H12.4102C12.7815 6.40008 13.1376 6.54763 13.4 6.8102L15.7898 9.2C16.0524 9.46249 16.2 9.81853 16.2 10.1898V16.2C16.2 16.5713 16.0525 16.9274 15.79 17.1899C15.5274 17.4525 15.1714 17.6 14.8 17.6H9.20005C8.82875 17.6 8.47265 17.4525 8.2101 17.1899C7.94755 16.9274 7.80005 16.5713 7.80005 16.2V7.8ZM9.20005 12C9.20005 11.8143 9.2738 11.6363 9.40507 11.505C9.53635 11.3737 9.7144 11.3 9.90005 11.3H14.1C14.2857 11.3 14.4637 11.3737 14.595 11.505C14.7263 11.6363 14.8 11.8143 14.8 12C14.8 12.1857 14.7263 12.3637 14.595 12.495C14.4637 12.6262 14.2857 12.7 14.1 12.7H9.90005C9.7144 12.7 9.53635 12.6262 9.40507 12.495C9.2738 12.3637 9.20005 12.1857 9.20005 12ZM9.90005 14.1C9.7144 14.1 9.53635 14.1737 9.40507 14.305C9.2738 14.4363 9.20005 14.6143 9.20005 14.8C9.20005 14.9857 9.2738 15.1637 9.40507 15.295C9.53635 15.4262 9.7144 15.5 9.90005 15.5H14.1C14.2857 15.5 14.4637 15.4262 14.595 15.295C14.7263 15.1637 14.8 14.9857 14.8 14.8C14.8 14.6143 14.7263 14.4363 14.595 14.305C14.4637 14.1737 14.2857 14.1 14.1 14.1H9.90005Z" fill="#11111b"/>
</svg>
