<?xml version="1.0" encoding="utf-8"?>
<!-- Generator: Adobe Illustrator 25.2.0, SVG Export Plug-In . SVG Version: 6.00 Build 0)  -->
<svg version="1.1" id="Layer_1" xmlns="http://www.w3.org/2000/svg" xmlns:xlink="http://www.w3.org/1999/xlink" x="0px" y="0px"
	 viewBox="0 0 24 24" style="enable-background:new 0 0 24 24;" xml:space="preserve">
<style type="text/css">
	.st0{fill:#b4befe;}
	.st1{fill:#11111b;}
</style>
<g>
	<path class="st0" d="M6,3h12c1.7,0,3,1.3,3,3v12c0,1.7-1.3,3-3,3H6c-1.7,0-3-1.3-3-3V6C3,4.3,4.3,3,6,3z"/>
	<path class="st1" d="M10.3,5.4l-0.2,1.7c-0.6,0.2-1,0.5-1.5,0.9L7.1,7.3l-1.7,2.8l1.4,0.9c-0.1,0.3-0.1,0.6-0.1,0.9
		c0,0.3,0,0.6,0.1,0.9l-1.4,0.9l1.7,2.8L8.7,16c0.5,0.4,0.9,0.6,1.5,0.9l0.2,1.7h3.3l0.2-1.7c0.6-0.2,1-0.5,1.5-0.9l1.6,0.7l1.7-2.8
		l-1.4-0.9c0.1-0.3,0.1-0.6,0.1-0.9c0-0.3,0-0.6-0.1-0.9l1.4-0.9l-1.7-2.8l-1.6,0.7c-0.5-0.4-0.9-0.6-1.5-0.9l-0.2-1.7H10.3z
		 M12,9.3c1.4,0,2.6,1.2,2.6,2.6s-1.2,2.6-2.6,2.6s-2.6-1.2-2.6-2.6S10.6,9.3,12,9.3z"/>
</g>
</svg>
