<?xml version="1.0" encoding="utf-8"?>
<!-- Generator: Adobe Illustrator 25.2.0, SVG Export Plug-In . SVG Version: 6.00 Build 0)  -->
<svg version="1.1" id="Layer_1" xmlns="http://www.w3.org/2000/svg" xmlns:xlink="http://www.w3.org/1999/xlink" x="0px" y="0px"
	 viewBox="0 0 24 24" style="enable-background:new 0 0 24 24;" xml:space="preserve">
<style type="text/css">
	.st0{fill:#b4befe;enable-background:new    ;}
	.st1{fill:#11111b;}
</style>
<g>
	<path class="st0" d="M6,3h12c1.7,0,3,1.3,3,3v12c0,1.7-1.3,3-3,3H6c-1.7,0-3-1.3-3-3V6C3,4.3,4.3,3,6,3z"/>
	<path class="st1" d="M11.5,6.5c-2,0-3.7,1.4-4.3,3.4c-1.3,0.7-2.1,2-2.1,3.6c0,2.2,1.6,4,3.7,4c0.9,0,1.8-0.3,2.4-1.1
		c0.1,0,0.2,0,0.3,0c0.7,0,1.3-0.2,2-0.5c0.6,0.3,1.1,0.5,1.7,0.5c2,0,3.7-1.8,3.7-4s-1.6-4-3.7-4C14.4,7.2,13,6.5,11.5,6.5z"/>
</g>
</svg>
