<?xml version="1.0" encoding="utf-8"?>
<!-- Generator: Adobe Illustrator 25.2.0, SVG Export Plug-In . SVG Version: 6.00 Build 0)  -->
<svg version="1.1" id="Layer_1" xmlns="http://www.w3.org/2000/svg" xmlns:xlink="http://www.w3.org/1999/xlink" x="0px" y="0px"
	 viewBox="0 0 24 24" style="enable-background:new 0 0 24 24;" xml:space="preserve">
<style type="text/css">
	.st0{fill:#b4befe;enable-background:new    ;}
	.st1{fill:#11111b;}
</style>
<g>
	<path class="st0" d="M6,3h12c1.7,0,3,1.3,3,3v12c0,1.7-1.3,3-3,3H6c-1.7,0-3-1.3-3-3V6C3,4.3,4.3,3,6,3z"/>
	<path class="st1" d="M13.1,6.1l-2.2,0.3v8.1l2.2-0.6v-3.1l2.2,3.7l2.2-0.8l-2.8-3.4l2.8-3.6l-2.1-0.5l-2.3,3.7L13.1,6.1L13.1,6.1z
		 M8.6,8.3c-0.1,0-0.1,0-0.2,0.1L7.6,9.2c-0.1,0.1-0.1,0.2,0,0.3L8.5,11c-0.1,0.2-0.2,0.3-0.2,0.5l-1.7,0.4c-0.1,0-0.2,0.1-0.2,0.2
		v1.1c0,0.1,0.1,0.2,0.2,0.2l1.7,0.4c0.1,0.2,0.1,0.3,0.2,0.4l-0.9,1.4c-0.1,0.1-0.1,0.2,0,0.3l0.8,0.8c0.1,0.1,0.2,0.1,0.3,0
		l1.4-0.9c0.2,0.1,0.3,0.2,0.5,0.2l0.4,1.7c0,0.1,0.1,0.2,0.2,0.2h1.2c0.1,0,0.2-0.1,0.2-0.2l0.4-1.7c0.2-0.1,0.3-0.2,0.5-0.2l1.4,1
		c0.1,0.1,0.2,0.1,0.3,0l0.8-0.8c0.1-0.1,0.1-0.2,0-0.3l-0.5-0.8h-0.1c-0.2,0.1-0.2,0-0.3-0.2l-0.5-0.9c-0.5,1.1-1.5,1.9-2.8,1.9
		c-1.7,0-3.1-1.4-3.1-3.1c0-1.3,0.8-2.4,2-2.8V9.2c-0.2,0.1-0.3,0.1-0.5,0.2L8.8,8.4C8.6,8.3,8.6,8.3,8.6,8.3z"/>
</g>
</svg>
