<?xml version="1.0" encoding="utf-8"?>
<!-- Generator: Adobe Illustrator 25.2.0, SVG Export Plug-In . SVG Version: 6.00 Build 0)  -->
<svg version="1.1" id="Layer_1" xmlns="http://www.w3.org/2000/svg" xmlns:xlink="http://www.w3.org/1999/xlink" x="0px" y="0px"
	 viewBox="0 0 24 24" style="enable-background:new 0 0 24 24;" xml:space="preserve">
<style type="text/css">
	.st0{fill:#b4befe;enable-background:new    ;}
	.st1{fill:#11111b;}
</style>
<g>
	<path class="st0" d="M6,3h12c1.7,0,3,1.3,3,3v12c0,1.7-1.3,3-3,3H6c-1.7,0-3-1.3-3-3V6C3,4.3,4.3,3,6,3z"/>
	<path class="st1" d="M16.9,9.8c-1.1,0-2.1,0.9-2.1,2.1s0.9,2.1,2.1,2.1s2.1-0.9,2.1-2.1S18,9.8,16.9,9.8z M16.9,11.3
		c0.4,0,0.7,0.3,0.7,0.7c0,0.3-0.3,0.7-0.7,0.7s-0.7-0.3-0.7-0.7C16.2,11.6,16.5,11.3,16.9,11.3z M7.1,9.8C6,9.8,5,10.8,5,11.9
		S6,14,7.1,14c1.1,0,2.1-0.9,2.1-2.1S8.2,9.8,7.1,9.8z M7.1,11.3c0.4,0,0.7,0.3,0.7,0.7c0,0.3-0.3,0.7-0.7,0.7s-0.7-0.3-0.7-0.7
		C6.4,11.6,6.7,11.3,7.1,11.3z M12,9.2c-1.5,0-2.8,1.3-2.8,2.8c0,1.5,1.3,2.8,2.8,2.8s2.8-1.3,2.8-2.8C14.8,10.5,13.5,9.2,12,9.2z
		 M12,10.6c0.8,0,1.4,0.6,1.4,1.4c0,0.8-0.6,1.4-1.4,1.4s-1.4-0.6-1.4-1.4C10.6,11.2,11.2,10.6,12,10.6z"/>
</g>
</svg>
