<?xml version="1.0" encoding="utf-8"?>
<!-- Generator: Adobe Illustrator 25.2.0, SVG Export Plug-In . SVG Version: 6.00 Build 0)  -->
<svg version="1.1" id="Layer_1" xmlns="http://www.w3.org/2000/svg" xmlns:xlink="http://www.w3.org/1999/xlink" x="0px" y="0px"
	 viewBox="0 0 24 24" style="enable-background:new 0 0 24 24;" xml:space="preserve">
<style type="text/css">
	.st0{fill:#b4befe;enable-background:new    ;}
	.st1{fill:#11111b;}
</style>
<g>
	<path class="st0" d="M6,3h12c1.7,0,3,1.3,3,3v12c0,1.7-1.3,3-3,3H6c-1.7,0-3-1.3-3-3V6C3,4.3,4.3,3,6,3z"/>
	<path class="st1" d="M12,5.8c-2.1,0-3.7,1.6-3.7,3.7v1.2H7.7C7.4,10.7,7,11,7,11.4v6.2c0,0.3,0.2,0.7,0.7,0.7h8.6
		c0.3,0,0.7-0.2,0.7-0.7v-6.2c0-0.3-0.2-0.7-0.7-0.7h-0.7V9.5C15.7,7.4,14.1,5.8,12,5.8z M12,7c1.4,0,2.5,1.1,2.5,2.5v1.2H9.6V9.5
		C9.6,8.1,10.6,7,12,7z"/>
</g>
</svg>
