<?xml version="1.0" encoding="utf-8"?>
<!-- Generator: Adobe Illustrator 25.2.0, SVG Export Plug-In . SVG Version: 6.00 Build 0)  -->
<svg version="1.1" id="Layer_1" xmlns="http://www.w3.org/2000/svg" xmlns:xlink="http://www.w3.org/1999/xlink" x="0px" y="0px"
	 viewBox="0 0 24 24" style="enable-background:new 0 0 24 24;" xml:space="preserve">
<style type="text/css">
	.st0{fill:#b4befe;enable-background:new    ;}
	.st1{fill:#11111b;}
</style>
<g>
	<path class="st0" d="M6,3h12c1.7,0,3,1.3,3,3v12c0,1.7-1.3,3-3,3H6c-1.7,0-3-1.3-3-3V6C3,4.3,4.3,3,6,3z"/>
	<path class="st1" d="M5.9,5.2c-0.4,0-0.7,0.5-0.7,1.1v0.7l12.2,11.8h0.7c0.4,0,0.7-0.5,0.7-1.1v-0.3L6.2,5.2H5.9z M8.5,5.2
		l10.3,9.9v-2.8l-7.3-7H8.5z M13.9,5.2l5,4.8V7.1l-2-1.9H13.9z M5.2,9.3v2.8l6.9,6.6h3L5.2,9.3z M5.2,14.4v2.8l1.6,1.5h3L5.2,14.4z"
		/>
</g>
</svg>
