<?xml version="1.0" encoding="utf-8"?>
<!-- Generator: Adobe Illustrator 25.2.0, SVG Export Plug-In . SVG Version: 6.00 Build 0)  -->
<svg version="1.1" id="Layer_1" xmlns="http://www.w3.org/2000/svg" xmlns:xlink="http://www.w3.org/1999/xlink" x="0px" y="0px"
	 viewBox="0 0 24 24" style="enable-background:new 0 0 24 24;" xml:space="preserve">
<style type="text/css">
	.st0{fill:#b4befe;enable-background:new    ;}
	.st1{fill:#11111b;}
</style>
<g>
	<path class="st0" d="M6,3h12c1.7,0,3,1.3,3,3v12c0,1.7-1.3,3-3,3H6c-1.7,0-3-1.3-3-3V6C3,4.3,4.3,3,6,3z"/>
	<path class="st1" d="M5.1,13.4l2.6,1.5c0,0.1,0,0.1,0,0.2c0,1.4,1.1,2.5,2.5,2.5s2.6-1.1,2.6-2.5c0-0.1,0-0.2,0-0.3l3.1-2.2
		c1.6-0.1,3-1.4,3-3s-1.3-3-3-3c-1.6,0-3,1.3-3,3l-1.9,3.1c-0.2-0.1-0.4-0.1-0.6-0.1c-0.4,0-0.7,0.1-1.2,0.2l-4-2.3 M15.8,7.3
		c1.1,0,2.1,1,2.1,2.1c0,1.1-1,2.1-2.1,2.1s-2.1-1-2.1-2.1C13.7,8.3,14.7,7.3,15.8,7.3z M15.8,8.2c-0.7,0-1.3,0.6-1.3,1.3
		c0,0.7,0.6,1.3,1.3,1.3c0.7,0,1.3-0.6,1.3-1.3C17.2,8.8,16.6,8.2,15.8,8.2z M10.2,13.4c1,0,1.7,0.7,1.7,1.7c0,1-0.7,1.7-1.7,1.7
		c-0.8,0-1.6-0.6-1.7-1.4l0.6,0.3c0.7,0.3,1.4,0.2,1.7-0.5c0.3-0.7,0.2-1.4-0.5-1.7L10.2,13.4z"/>
</g>
</svg>
