<?xml version="1.0" encoding="utf-8"?>
<!-- Generator: Adobe Illustrator 25.2.0, SVG Export Plug-In . SVG Version: 6.00 Build 0)  -->
<svg version="1.1" id="Layer_1" xmlns="http://www.w3.org/2000/svg" xmlns:xlink="http://www.w3.org/1999/xlink" x="0px" y="0px"
	 viewBox="0 0 24 24" style="enable-background:new 0 0 24 24;" xml:space="preserve">
<style type="text/css">
	.st0{fill:#b4befe;}
	.st1{fill:#11111b;}
</style>
<g>
	<path class="st0" d="M6,3h12c1.7,0,3,1.3,3,3v12c0,1.7-1.3,3-3,3H6c-1.7,0-3-1.3-3-3V6C3,4.3,4.3,3,6,3z"/>
	<path class="st1" d="M9,5.9L5.1,8.2l3,2.3l-3,2.3L9,15l3-2.3l-3.8-2.3L12,8.2l3.8,2.3L12,12.8l3,2.3l3.8-2.3l-3-2.3l3-2.3L15,5.9
		l-3,2.3L9,5.9z M12,13.5l-3,2.3l-0.8-0.5v0.5l3.8,2.3l3.8-2.3v-0.5L15,15.8L12,13.5z"/>
</g>
</svg>
