<?xml version="1.0" encoding="utf-8"?>
<!-- Generator: Adobe Illustrator 25.2.0, SVG Export Plug-In . SVG Version: 6.00 Build 0)  -->
<svg version="1.1" id="Layer_1" xmlns="http://www.w3.org/2000/svg" xmlns:xlink="http://www.w3.org/1999/xlink" x="0px" y="0px"
	 viewBox="0 0 24 24" style="enable-background:new 0 0 24 24;" xml:space="preserve">
<style type="text/css">
	.st0{fill:#b4befe;enable-background:new    ;}
	.st1{fill-rule:evenodd;clip-rule:evenodd;fill:#11111b;}
</style>
<g>
	<path class="st0" d="M6,3h12c1.7,0,3,1.3,3,3v12c0,1.7-1.3,3-3,3H6c-1.7,0-3-1.3-3-3V6C3,4.3,4.3,3,6,3z"/>
	<path class="st1" d="M8.2,6.6C8.1,6.6,8.1,6.7,8,6.8l-1.1,3.6h3L8.5,6.8C8.5,6.6,8.4,6.6,8.2,6.6z M9.8,10.4l2.2,7.1l2.2-7.1H9.8z
		 M14.2,10.4h3l-1.2-3.6c-0.1-0.2-0.4-0.2-0.4,0L14.2,10.4z M17.1,10.4L12,17.4l5.8-4.2c0.2-0.1,0.2-0.3,0.2-0.5L17.1,10.4z
		 M12,17.4l-5.1-7.1l-0.8,2.4c-0.1,0.2,0,0.4,0.2,0.5L12,17.4z"/>
</g>
</svg>
