<?xml version="1.0" encoding="utf-8"?>
<!-- Generator: Adobe Illustrator 25.2.0, SVG Export Plug-In . SVG Version: 6.00 Build 0)  -->
<svg version="1.1" id="Layer_1" xmlns="http://www.w3.org/2000/svg" xmlns:xlink="http://www.w3.org/1999/xlink" x="0px" y="0px"
	 viewBox="0 0 24 24" style="enable-background:new 0 0 24 24;" xml:space="preserve">
<style type="text/css">
	.st0{fill:#b4befe;enable-background:new    ;}
	.st1{fill:#11111b;}
</style>
<g>
	<path class="st0" d="M6,3h12c1.7,0,3,1.3,3,3v12c0,1.7-1.3,3-3,3H6c-1.7,0-3-1.3-3-3V6C3,4.3,4.3,3,6,3z"/>
	<path class="st1" d="M10.4,6.2c-2.8,0-5.1,2.3-5.1,5.1c0,2.8,2.3,5.1,5.1,5.1H21v-0.9H10.4c-2.4,0-4.3-1.9-4.3-4.3S8,7.1,10.4,7.1
		V6.2z M10.4,7.5c-2.1,0-3.9,1.7-3.9,3.9s1.7,3.9,3.9,3.9H21v-0.9H10.4c-1.7,0-3-1.3-3-3c0-1.7,1.3-3,3-3c0.5,0,0.9,0.1,1.3,0.3V7.7
		C11.2,7.6,10.8,7.5,10.4,7.5z M10.4,8.8c-1.4,0-2.5,1.1-2.5,2.5c0,1.4,1.1,2.5,2.5,2.5H21v-0.9H10.4c-0.9,0-1.7-0.8-1.7-1.7
		c0-0.9,0.8-1.7,1.7-1.7c0.6,0,1.2,0.3,1.5,0.9h1C12.4,9.5,11.5,8.8,10.4,8.8z"/>
</g>
</svg>
