<?xml version="1.0" encoding="utf-8"?>
<!-- Generator: Adobe Illustrator 25.2.0, SVG Export Plug-In . SVG Version: 6.00 Build 0)  -->
<svg version="1.1" id="Layer_1" xmlns="http://www.w3.org/2000/svg" xmlns:xlink="http://www.w3.org/1999/xlink" x="0px" y="0px"
	 viewBox="0 0 24 24" style="enable-background:new 0 0 24 24;" xml:space="preserve">
<style type="text/css">
	.st0{fill:#b4befe;}
	.st1{fill:#11111b;}
</style>
<g>
	<path class="st0" d="M6,3h12c1.7,0,3,1.3,3,3v12c0,1.7-1.3,3-3,3H6c-1.7,0-3-1.3-3-3V6C3,4.3,4.3,3,6,3z"/>
	<path class="st1" d="M7,8.2c-0.3,0-0.6,0.3-0.6,0.6c0,0.2,0.1,0.2,0.2,0.3L7.8,11c-1.1,1-1.9,2.5-2.1,4.1c0,0.6,0.6,0.6,0.6,0.6
		h11.2c0,0,0.6,0,0.6-0.6c-0.2-1.6-1-3-2.1-4l1.4-1.8c0.2-0.2,0.2-0.6-0.2-0.9c-0.1-0.1-0.2-0.2-0.4-0.2c-0.2,0-0.4,0.1-0.5,0.2
		l-1.3,1.9c-1-0.6-2-0.9-3.2-0.9c-1.1,0-2.2,0.3-3.2,0.9L7.4,8.6C7.4,8.3,7.2,8.2,7,8.2z"/>
</g>
</svg>
