<?xml version="1.0" encoding="utf-8"?>
<!-- Generator: Adobe Illustrator 25.2.0, SVG Export Plug-In . SVG Version: 6.00 Build 0)  -->
<svg version="1.1" id="Layer_1" xmlns="http://www.w3.org/2000/svg" xmlns:xlink="http://www.w3.org/1999/xlink" x="0px" y="0px"
	 viewBox="0 0 24 24" style="enable-background:new 0 0 24 24;" xml:space="preserve">
<style type="text/css">
	.st0{fill:#b4befe;}
	.st1{fill:#11111b;}
</style>
<g>
	<path class="st0" d="M6,3h12c1.7,0,3,1.3,3,3v12c0,1.7-1.3,3-3,3H6c-1.7,0-3-1.3-3-3V6C3,4.3,4.3,3,6,3z"/>
	<path class="st1" d="M12.9,5.8c-0.5,0-1.1,0-1.6,0.2c-2.8,0.6-4.8,3.1-4.8,6H5.3l1.9,1.9L9,12H7.7c0-2.3,1.6-4.2,3.8-4.8
		C13.7,6.7,16,7.9,17,10c1,2.1,0.4,4.6-1.5,5.9c-1.9,1.4-4.4,1.3-6.1-0.2c-0.6-0.5-1.4,0.4-0.8,1c2.2,1.9,5.4,2,7.7,0.3
		c2.3-1.8,3.1-4.9,1.9-7.4c-0.9-1.9-2.7-3.3-4.8-3.5C13.2,5.8,13,5.8,12.9,5.8z M12.6,8.2c-0.3,0-0.6,0.3-0.6,0.6v3
		c0,0.1,0,0.2,0,0.3c0,0,0,0,0,0.1c0,0.1,0.1,0.2,0.1,0.2l1.8,2.4c0.2,0.3,0.6,0.4,0.9,0.1c0.3-0.2,0.3-0.6,0.1-0.9l-1.7-2.3V8.8
		C13.2,8.6,13,8.2,12.6,8.2z"/>
</g>
</svg>
