<?xml version="1.0" encoding="utf-8"?>
<!-- Generator: Adobe Illustrator 25.2.0, SVG Export Plug-In . SVG Version: 6.00 Build 0)  -->
<svg version="1.1" id="Layer_1" xmlns="http://www.w3.org/2000/svg" xmlns:xlink="http://www.w3.org/1999/xlink" x="0px" y="0px"
	 viewBox="0 0 24 24" style="enable-background:new 0 0 24 24;" xml:space="preserve">
<style type="text/css">
	.st0{fill:#b4befe;enable-background:new    ;}
	.st1{fill:#11111b;}
</style>
<g>
	<path class="st0" d="M6,3h12c1.7,0,3,1.3,3,3v12c0,1.7-1.3,3-3,3H6c-1.7,0-3-1.3-3-3V6C3,4.3,4.3,3,6,3z"/>
	<path class="st1" d="M14,6.1c-0.2,0.1-0.5,0.2-0.7,0.4c-1,0.8-0.8,2.4,0.2,3.2c0.2,0.2,0.3,0.2,0.6,0.3v1.7
		c0.8,0.4,1.1,0.6,1.7,1.1c0.4,0.5,0.4,0.5,0.6,0.8V9.9c0.2-0.1,0.5-0.2,0.6-0.3c1-0.8,0.9-2.4,0-3.2c-0.2-0.2-0.5-0.3-0.7-0.4v1.7
		c0,0.6,0,1.1-0.6,1.1h-1.1C14,8.8,14,8.3,14,7.7V6.1z M12,11.8c-3.1,0-4.3,2.4-4.3,4.5H6.2c-0.2,0-0.2,0.2-0.2,0.2v1.4
		c0,0.2,0.2,0.2,0.2,0.2h11.5c0,0,0.2,0,0.2-0.2v-1.4c0,0,0-0.2-0.2-0.2h-1.5C16.3,14.1,15.1,11.8,12,11.8z M12,14
		c2,0,2.5,1.3,2.5,2.2H9.5C9.5,15.4,10,14.1,12,14z"/>
</g>
</svg>
