<?xml version="1.0" encoding="utf-8"?>
<!-- Generator: Adobe Illustrator 25.2.0, SVG Export Plug-In . SVG Version: 6.00 Build 0)  -->
<svg version="1.1" id="Layer_1" xmlns="http://www.w3.org/2000/svg" xmlns:xlink="http://www.w3.org/1999/xlink" x="0px" y="0px"
	 viewBox="0 0 24 24" style="enable-background:new 0 0 24 24;" xml:space="preserve">
<style type="text/css">
	.st0{fill:#b4befe;enable-background:new    ;}
	.st1{fill:#11111b;}
</style>
<g>
	<path class="st0" d="M6,3h12c1.7,0,3,1.3,3,3v12c0,1.7-1.3,3-3,3H6c-1.7,0-3-1.3-3-3V6C3,4.3,4.3,3,6,3z"/>
	<path class="st1" d="M12.5,14.7c-0.9,0.5-1.9,0.5-2.4,0.4c-0.8-0.1-1.3-0.2-1.5-0.4c-0.2-0.1-0.3-0.1-0.5,0.1
		C8,14.9,8,15.1,8.1,15.3c0.4,0.2,1.1,0.5,1.9,0.5c0.2,0,0.3,0,0.4,0c0.7,0,1.5-0.1,2.4-0.5c0.2-0.1,0.3-0.3,0.2-0.4
		C12.9,14.7,12.7,14.6,12.5,14.7z M16.4,14.2c0-3,0.3-8.6-5.4-8.2c-5.7,0.4-4.1,6.4-4.2,8.4c-0.1,1.1-0.4,2.4-0.9,3.6h1.5
		c0.2-0.6,0.2-1.1,0.3-1.6c0.1,0.1,0.2,0.1,0.3,0.2c0.2,0.1,0.3,0.3,0.5,0.3c0.3,0.3,0.8,0.7,1.6,0.8c0.1,0,0.1,0,0.2,0
		c0.8,0,1.3-0.3,1.9-0.7c0.3-0.2,0.4-0.3,0.6-0.3c0.5-0.2,0.9-0.4,1.3-0.8c0.1-0.1,0.1-0.1,0.2-0.2c0.2,0.7,0.4,1.4,0.7,2.1h3.3
		C17.1,16.9,16.4,15.7,16.4,14.2z M7.3,12.6c-0.1-1,0.4-1.8,1-1.9c0.6-0.1,1.2,0.8,1.3,1.7c0,0.1,0,0.1,0,0.2
		c-0.2,0.1-0.4,0.1-0.5,0.2c-0.1-0.5-0.3-0.9-0.7-0.9c-0.3,0-0.5,0.5-0.5,1.1c0,0.3,0.1,0.4,0.2,0.6c0,0-0.1,0.1-0.2,0.1
		c-0.1,0.1-0.2,0.1-0.3,0.2C7.4,13.5,7.4,13.1,7.3,12.6z M13.7,15c0,0.5-0.7,1-1.4,1.2c-0.3,0.1-0.5,0.3-0.8,0.4
		c-0.4,0.3-0.8,0.5-1.4,0.5h-0.1c-0.6,0-0.8-0.3-1.2-0.6c-0.2-0.2-0.3-0.3-0.6-0.4c-0.5-0.3-0.8-0.7-0.8-0.9c0-0.2,0.1-0.3,0.2-0.4
		c0.3-0.3,0.5-0.4,0.7-0.5c0.2-0.1,0.2-0.2,0.3-0.2L8.6,14c0.2-0.3,0.8-0.8,1.5-0.8c0.4,0,0.9,0.2,1.5,0.5c0.3,0.2,0.5,0.3,0.8,0.3
		c0.2,0.1,0.4,0.2,0.7,0.3C13.3,14.4,13.7,14.7,13.7,15z M13.5,13.7c-0.1,0-0.1-0.1-0.2-0.1c-0.3-0.1-0.5-0.2-0.7-0.3
		c0.1-0.2,0.2-0.4,0.2-0.7c0-0.6-0.3-1.1-0.7-1.1c-0.4,0-0.8,0.5-0.8,1.1c0,0,0,0,0,0.1c-0.2-0.1-0.5-0.2-0.8-0.3v-0.1
		c0-1.1,0.7-2,1.5-2.1c0.8,0,1.6,0.8,1.6,2C13.9,12.9,13.8,13.4,13.5,13.7z"/>
</g>
</svg>
