<?xml version="1.0" encoding="utf-8"?>
<!-- Generator: Adobe Illustrator 25.2.0, SVG Export Plug-In . SVG Version: 6.00 Build 0)  -->
<svg version="1.1" id="Layer_1" xmlns="http://www.w3.org/2000/svg" xmlns:xlink="http://www.w3.org/1999/xlink" x="0px" y="0px"
	 viewBox="0 0 24 24" style="enable-background:new 0 0 24 24;" xml:space="preserve">
<style type="text/css">
	.st0{fill:#b4befe;enable-background:new    ;}
	.st1{fill:#11111b;}
</style>
<g>
	<path class="st0" d="M6,3h12c1.7,0,3,1.3,3,3v12c0,1.7-1.3,3-3,3H6c-1.7,0-3-1.3-3-3V6C3,4.3,4.3,3,6,3z"/>
	<g>
		<path class="st1" d="M12,8.9c-1.4,0-2.4,1-2.4,2.4v4.8c0,1.4,1,2.4,2.4,2.4s2.4-1,2.4-2.4v-4.8C14.4,10,13.3,8.9,12,8.9z M12,10.2
			c0.6,0,1.2,0.5,1.2,1.2c0,0.6-0.6,1.2-1.2,1.2s-1.2-0.6-1.2-1.2C10.7,10.6,11.3,10.2,12,10.2z M12,13.7c0.6,0,1.2,0.5,1.2,1.2v1.2
			c0,0.6-0.6,1.2-1.2,1.2s-1.2-0.6-1.2-1.2v-1.2C10.7,14.2,11.3,13.7,12,13.7z"/>
		<path class="st1" d="M12,3v1.2h1.2V3H12z M12,4.1h-1.2v1.2H12V4.1z M12,5.4v1.2h1.2V5.4H12z M12,6.5h-1.2v1.2H12V6.5z M12,7.8V9
			c0.6,0,1.2-0.6,1.2-1.2H12z"/>
	</g>
</g>
</svg>
