<?xml version="1.0" encoding="utf-8"?>
<!-- Generator: Adobe Illustrator 25.2.0, SVG Export Plug-In . SVG Version: 6.00 Build 0)  -->
<svg version="1.1" id="Layer_1" xmlns="http://www.w3.org/2000/svg" xmlns:xlink="http://www.w3.org/1999/xlink" x="0px" y="0px"
	 viewBox="0 0 24 24" style="enable-background:new 0 0 24 24;" xml:space="preserve">
<style type="text/css">
	.st0{fill:#b4befe;}
	.st1{fill:#11111b;}
</style>
<g>
	<path class="st0" d="M6,3h12c1.7,0,3,1.3,3,3v12c0,1.7-1.3,3-3,3H6c-1.7,0-3-1.3-3-3V6C3,4.3,4.3,3,6,3z"/>
	<path class="st1" d="M8.6,6.9C8.5,6.9,8.3,7,8,7.1c-0.8,0.5-1.6,2-2,4c-0.4,1.7-0.5,4-0.3,4.9c0.2,0.8,0.5,1.2,1.1,1.2
		c0.8,0,1.9-1,2.6-2.3c0.5-0.8,1.6-1.1,2.6-1c1.1-0.1,2.2,0.3,2.6,1c0.7,1.3,1.7,2.3,2.6,2.3c0.5,0,0.9-0.4,1.1-1.2
		c0.2-0.9,0.1-3.3-0.3-4.9c-0.4-2-1.2-3.5-2-4c-0.2-0.2-0.5-0.2-0.6-0.2c-0.2,0-0.4,0.1-0.6,0.2c-0.4,0.3-1.3,0.7-2.9,0.7
		S9.5,7.5,9,7.1C9,7,8.8,6.9,8.6,6.9z M8.8,8.9H10v1.2h1.3v1.2h-1.2v1.3H8.9v-1.2H7.6v-1.2h1.2L8.8,8.9L8.8,8.9z M14.5,8.9
		c0.4,0,0.6,0.3,0.6,0.6c0,0.4-0.3,0.6-0.6,0.6c-0.4,0-0.6-0.3-0.6-0.6C13.9,9.1,14.2,8.9,14.5,8.9z M13.3,10.1
		c0.4,0,0.6,0.3,0.6,0.6c0,0.3-0.3,0.6-0.6,0.6c-0.4,0-0.6-0.3-0.6-0.6C12.7,10.4,12.9,10.1,13.3,10.1z M15.9,10.1
		c0.4,0,0.6,0.3,0.6,0.6c0,0.3-0.3,0.6-0.6,0.6c-0.3,0-0.6-0.3-0.6-0.6C15.2,10.4,15.5,10.1,15.9,10.1z M14.5,11.4
		c0.4,0,0.6,0.3,0.6,0.6c0,0.3-0.2,0.6-0.6,0.6s-0.6-0.3-0.6-0.6C13.9,11.7,14.2,11.4,14.5,11.4z"/>
</g>
</svg>
