<svg width="24" height="24" viewBox="0 0 24 24" fill="none" xmlns="http://www.w3.org/2000/svg">
<rect x="3" y="3" width="18" height="18" rx="3" fill="#f38ba8"/>
<path d="M6.3999 9.2C6.3999 8.8287 6.5474 8.4726 6.80995 8.21005C7.0725 7.9475 7.4286 7.8 7.7999 7.8H11.9999C12.3712 7.8 12.7273 7.9475 12.9899 8.21005C13.2524 8.4726 13.3999 8.8287 13.3999 9.2V14.8C13.3999 15.1713 13.2524 15.5274 12.9899 15.7899C12.7273 16.0525 12.3712 16.2 11.9999 16.2H7.7999C7.4286 16.2 7.0725 16.0525 6.80995 15.7899C6.5474 15.5274 6.3999 15.1713 6.3999 14.8V9.2ZM15.187 9.9742C15.0707 10.0323 14.973 10.1216 14.9046 10.2321C14.8362 10.3427 14.8 10.47 14.7999 10.6V13.4C14.8 13.53 14.8362 13.6573 14.9046 13.7679C14.973 13.8784 15.0707 13.9677 15.187 14.0258L16.587 14.7258C16.6937 14.7791 16.8122 14.8043 16.9314 14.7989C17.0506 14.7936 17.1664 14.7578 17.2678 14.6951C17.3693 14.6324 17.4531 14.5449 17.5112 14.4407C17.5693 14.3366 17.5998 14.2193 17.5999 14.1V9.9C17.5998 9.78073 17.5693 9.66345 17.5112 9.55929C17.4531 9.45513 17.3693 9.36755 17.2678 9.30486C17.1664 9.24217 17.0506 9.20645 16.9314 9.20108C16.8122 9.19572 16.6937 9.22088 16.587 9.2742L15.187 9.9742Z" fill="#11111b"/>
</svg>
