<?xml version="1.0" encoding="utf-8"?>
<!-- Generator: Adobe Illustrator 25.2.0, SVG Export Plug-In . SVG Version: 6.00 Build 0)  -->
<svg version="1.1" id="Layer_1" xmlns="http://www.w3.org/2000/svg" xmlns:xlink="http://www.w3.org/1999/xlink" x="0px" y="0px"
	 viewBox="0 0 24 24" style="enable-background:new 0 0 24 24;" xml:space="preserve">
<style type="text/css">
	.st0{fill:#b4befe;enable-background:new    ;}
	.st1{fill:#11111b;}
</style>
<g>
	<path class="st0" d="M6,3h12c1.7,0,3,1.3,3,3v12c0,1.7-1.3,3-3,3H6c-1.7,0-3-1.3-3-3V6C3,4.3,4.3,3,6,3z"/>
	<g>
		<path class="st1" d="M7.2,6.4h3.5c0.5,0,0.8,0.4,0.8,0.8v3.5c0,0.5-0.4,0.8-0.8,0.8H7.2c-0.5,0-0.8-0.4-0.8-0.8V7.2
			C6.4,6.7,6.7,6.4,7.2,6.4z"/>
		<path class="st1" d="M13.4,6.4h3.5c0.5,0,0.8,0.4,0.8,0.8v3.5c0,0.5-0.4,0.8-0.8,0.8h-3.5c-0.5,0-0.8-0.4-0.8-0.8V7.2
			C12.6,6.7,13,6.4,13.4,6.4z"/>
		<path class="st1" d="M13.4,12.6h3.5c0.5,0,0.8,0.4,0.8,0.8v3.5c0,0.5-0.4,0.8-0.8,0.8h-3.5c-0.5,0-0.8-0.4-0.8-0.8v-3.5
			C12.6,13,13,12.6,13.4,12.6z"/>
		<path class="st1" d="M7.2,12.6h3.5c0.5,0,0.8,0.4,0.8,0.8v3.5c0,0.5-0.4,0.8-0.8,0.8H7.2c-0.5,0-0.8-0.4-0.8-0.8v-3.5
			C6.4,13,6.7,12.6,7.2,12.6z"/>
	</g>
</g>
</svg>
