<?xml version="1.0" encoding="utf-8"?>
<!-- Generator: Adobe Illustrator 25.2.0, SVG Export Plug-In . SVG Version: 6.00 Build 0)  -->
<svg version="1.1" id="Layer_1" xmlns="http://www.w3.org/2000/svg" xmlns:xlink="http://www.w3.org/1999/xlink" x="0px" y="0px"
	 viewBox="0 0 24 24" style="enable-background:new 0 0 24 24;" xml:space="preserve">
<style type="text/css">
	.st0{fill:#b4befe;enable-background:new    ;}
	.st1{fill:#11111b;}
</style>
<g>
	<path class="st0" d="M6,3h12c1.7,0,3,1.3,3,3v12c0,1.7-1.3,3-3,3H6c-1.7,0-3-1.3-3-3V6C3,4.3,4.3,3,6,3z"/>
	<path class="st1" d="M10.2,5.4c0,0,0.7,0.4,0.2,1.5C9.6,8.6,11,9,11,9s-0.4-0.4,0.2-1.8C11.9,5.7,10.2,5.4,10.2,5.4z M12.7,7.8
		c0,0-1.3,0.6-0.4,2.1c0.5,1-0.1,1.5-0.1,1.5s1.5-0.5,0.8-1.9C12.4,8.2,12.7,7.8,12.7,7.8z M8.8,7.8c0,0-0.9,0.9,0,2.1
		c0.6,0.8,0.2,1.4,0.2,1.4s1.1-1,0.3-2.1C8.6,8.3,8.8,7.8,8.8,7.8z M9,11.4H6l1.8,7.2h6.6l0.4-1.2c0.2,0.1,0.4,0.1,0.6,0.1
		c1.4,0,2.6-0.9,2.6-2.3c0-1.2-0.8-2.2-1.9-2.5l0.3-1.3H9z M15.8,13.6C15.8,13.6,15.9,13.6,15.8,13.6c0.5,0.2,0.7,1,0.4,1.8
		c-0.3,0.9-0.8,1.5-1.3,1.4L15.8,13.6z"/>
</g>
</svg>
