<?xml version="1.0" encoding="UTF-8" standalone="yes"?>
<svg xmlns="http://www.w3.org/2000/svg" xmlns:xlink="http://www.w3.org/1999/xlink" width="48" height="48" viewBox="0 0 48 48">
  <defs>
    <clipPath id="clip-0">
      <path clip-rule="nonzero" d="M 24 5 L 43 5 L 43 24 L 24 24 Z M 24 5 "/>
    </clipPath>
    <clipPath id="clip-1">
      <path clip-rule="nonzero" d="M 24.75 5.25 L 38.25 5.25 C 40.726562 5.25 42.75 7.273438 42.75 9.75 L 42.75 23.25 L 30.75 23.25 C 27.449219 23.25 24.75 20.550781 24.75 17.25 Z M 24.75 5.25 "/>
    </clipPath>
    <clipPath id="clip-2">
      <path clip-rule="nonzero" d="M 37 17 L 43 17 L 43 24 L 37 24 Z M 37 17 "/>
    </clipPath>
    <clipPath id="clip-3">
      <path clip-rule="nonzero" d="M 24.75 5.25 L 38.25 5.25 C 40.726562 5.25 42.75 7.273438 42.75 9.75 L 42.75 23.25 L 30.75 23.25 C 27.449219 23.25 24.75 20.550781 24.75 17.25 Z M 24.75 5.25 "/>
    </clipPath>
    <clipPath id="clip-4">
      <path clip-rule="nonzero" d="M 28 8 L 40 8 L 40 20 L 28 20 Z M 28 8 "/>
    </clipPath>
    <clipPath id="clip-5">
      <path clip-rule="nonzero" d="M 24.75 5.25 L 38.25 5.25 C 40.726562 5.25 42.75 7.273438 42.75 9.75 L 42.75 23.25 L 30.75 23.25 C 27.449219 23.25 24.75 20.550781 24.75 17.25 Z M 24.75 5.25 "/>
    </clipPath>
  </defs>
  <path fill-rule="nonzero" fill="#11111b" fill-opacity="1" d="M 9.75 5.25 L 38.25 5.25 C 40.726562 5.25 42.75 7.273438 42.75 9.75 L 42.75 38.25 C 42.75 40.726562 40.726562 42.75 38.25 42.75 L 9.75 42.75 C 7.273438 42.75 5.25 40.726562 5.25 38.25 L 5.25 9.75 C 5.25 7.273438 7.273438 5.25 9.75 5.25 Z M 9.75 5.25 "/>
  <g clip-path="url(#clip-0)">
    <g clip-path="url(#clip-1)">
      <path fill-rule="nonzero" fill="#b4befe" fill-opacity="1" d="M 24.75 5.25 L 38.25 5.25 C 40.726562 5.25 42.75 7.273438 42.75 9.75 L 42.75 23.25 L 30.75 23.25 C 27.449219 23.25 24.75 20.550781 24.75 17.25 Z M 24.75 5.25 "/>
    </g>
  </g>
  <g clip-path="url(#clip-2)">
    <g clip-path="url(#clip-3)">
      <path fill-rule="nonzero" fill="#b4befe" fill-opacity="1" d="M 48.75 22.875 C 48.75 25.980469 46.230469 28.5 43.125 28.5 C 40.019531 28.5 37.5 25.980469 37.5 22.875 C 37.5 19.769531 40.019531 17.25 43.125 17.25 C 46.230469 17.25 48.75 19.769531 48.75 22.875 Z M 48.75 22.875 "/>
    </g>
  </g>
  <g clip-path="url(#clip-4)">
    <g clip-path="url(#clip-5)">
      <path fill-rule="nonzero" fill="#11111b" fill-opacity="1" d="M 34.648438 16.050781 C 33.824219 16.5 33 16.5 32.476562 16.425781 C 31.800781 16.351562 31.351562 16.199219 31.125 16.050781 C 30.976562 15.976562 30.824219 15.976562 30.675781 16.125 C 30.601562 16.273438 30.601562 16.425781 30.75 16.574219 C 31.125 16.800781 31.726562 17.023438 32.398438 17.023438 C 32.550781 17.023438 32.625 17.023438 32.773438 17.023438 C 33.375 17.023438 34.125 16.949219 34.875 16.574219 C 35.023438 16.5 35.101562 16.351562 35.023438 16.199219 C 35.023438 16.050781 34.800781 15.976562 34.648438 16.050781 Z M 38.101562 15.601562 C 38.101562 12.976562 38.398438 7.949219 33.300781 8.324219 C 28.273438 8.699219 29.625 14.023438 29.550781 15.824219 C 29.476562 16.800781 29.175781 17.925781 28.726562 19.050781 L 30.074219 19.050781 C 30.226562 18.523438 30.300781 18.074219 30.375 17.625 C 30.449219 17.699219 30.523438 17.699219 30.675781 17.773438 C 30.824219 17.851562 30.976562 18 31.125 18.074219 C 31.425781 18.375 31.800781 18.675781 32.550781 18.75 C 32.625 18.75 32.625 18.75 32.699219 18.75 C 33.449219 18.75 33.898438 18.449219 34.351562 18.148438 C 34.574219 18 34.726562 17.925781 34.875 17.851562 C 35.324219 17.699219 35.699219 17.476562 36 17.175781 C 36.074219 17.101562 36.074219 17.101562 36.148438 17.023438 C 36.300781 17.625 36.523438 18.300781 36.75 18.898438 L 39.675781 18.898438 C 38.773438 18 38.101562 16.949219 38.101562 15.601562 Z M 30 14.175781 C 29.925781 13.273438 30.375 12.601562 30.898438 12.523438 C 31.425781 12.449219 31.949219 13.199219 32.023438 14.023438 C 32.023438 14.101562 32.023438 14.101562 32.023438 14.175781 C 31.875 14.25 31.648438 14.25 31.574219 14.324219 C 31.5 13.875 31.273438 13.5 30.976562 13.5 C 30.675781 13.5 30.523438 13.949219 30.523438 14.476562 C 30.523438 14.699219 30.601562 14.851562 30.675781 15 C 30.675781 15 30.601562 15.074219 30.523438 15.074219 C 30.449219 15.148438 30.375 15.148438 30.300781 15.226562 C 30.148438 15 30.074219 14.625 30 14.175781 Z M 35.699219 16.351562 C 35.699219 16.800781 35.101562 17.25 34.5 17.398438 C 34.273438 17.476562 34.050781 17.625 33.824219 17.773438 C 33.449219 18 33.074219 18.226562 32.550781 18.226562 C 32.550781 18.226562 32.476562 18.226562 32.476562 18.226562 C 31.949219 18.226562 31.726562 18 31.425781 17.699219 C 31.273438 17.550781 31.125 17.398438 30.898438 17.324219 C 30.449219 17.101562 30.148438 16.726562 30.148438 16.5 C 30.148438 16.351562 30.226562 16.273438 30.300781 16.125 C 30.601562 15.898438 30.75 15.75 30.898438 15.675781 C 31.050781 15.601562 31.050781 15.523438 31.125 15.523438 C 31.125 15.523438 31.199219 15.449219 31.199219 15.449219 C 31.425781 15.226562 31.875 14.773438 32.550781 14.773438 C 32.925781 14.773438 33.375 14.925781 33.898438 15.226562 C 34.125 15.375 34.351562 15.449219 34.574219 15.523438 C 34.726562 15.601562 34.949219 15.675781 35.175781 15.75 C 35.398438 15.824219 35.699219 16.050781 35.699219 16.351562 Z M 35.550781 15.226562 C 35.476562 15.226562 35.476562 15.148438 35.398438 15.148438 C 35.175781 15.074219 34.949219 15 34.800781 14.925781 C 34.875 14.773438 34.949219 14.550781 34.949219 14.324219 C 34.949219 13.800781 34.648438 13.351562 34.351562 13.351562 C 33.976562 13.351562 33.675781 13.800781 33.675781 14.324219 C 33.675781 14.324219 33.675781 14.324219 33.675781 14.398438 C 33.449219 14.324219 33.226562 14.25 33 14.175781 C 33 14.175781 33 14.101562 33 14.101562 C 33 13.125 33.601562 12.300781 34.351562 12.226562 C 35.101562 12.226562 35.773438 12.976562 35.773438 14.023438 C 35.925781 14.476562 35.773438 14.925781 35.550781 15.226562 Z M 35.550781 15.226562 "/>
    </g>
  </g>
</svg>