<?xml version="1.0" encoding="UTF-8" standalone="yes"?>
<svg xmlns="http://www.w3.org/2000/svg" xmlns:xlink="http://www.w3.org/1999/xlink" width="48" height="48" viewBox="0 0 48 48">
  <defs>
    <clipPath id="clip-0">
      <path clip-rule="nonzero" d="M 24 5 L 43 5 L 43 24 L 24 24 Z M 24 5 "/>
    </clipPath>
    <clipPath id="clip-1">
      <path clip-rule="nonzero" d="M 24.75 5.25 L 38.25 5.25 C 40.726562 5.25 42.75 7.273438 42.75 9.75 L 42.75 23.25 L 30.75 23.25 C 27.449219 23.25 24.75 20.550781 24.75 17.25 Z M 24.75 5.25 "/>
    </clipPath>
    <clipPath id="clip-2">
      <path clip-rule="nonzero" d="M 37 17 L 43 17 L 43 24 L 37 24 Z M 37 17 "/>
    </clipPath>
    <clipPath id="clip-3">
      <path clip-rule="nonzero" d="M 24.75 5.25 L 38.25 5.25 C 40.726562 5.25 42.75 7.273438 42.75 9.75 L 42.75 23.25 L 30.75 23.25 C 27.449219 23.25 24.75 20.550781 24.75 17.25 Z M 24.75 5.25 "/>
    </clipPath>
    <clipPath id="clip-4">
      <path clip-rule="nonzero" d="M 26 10 L 42 10 L 42 19 L 26 19 Z M 26 10 "/>
    </clipPath>
    <clipPath id="clip-5">
      <path clip-rule="nonzero" d="M 24.75 5.25 L 38.25 5.25 C 40.726562 5.25 42.75 7.273438 42.75 9.75 L 42.75 23.25 L 30.75 23.25 C 27.449219 23.25 24.75 20.550781 24.75 17.25 Z M 24.75 5.25 "/>
    </clipPath>
  </defs>
  <path fill-rule="nonzero" fill="#11111b" fill-opacity="1" d="M 9.75 5.25 L 38.25 5.25 C 40.726562 5.25 42.75 7.273438 42.75 9.75 L 42.75 38.25 C 42.75 40.726562 40.726562 42.75 38.25 42.75 L 9.75 42.75 C 7.273438 42.75 5.25 40.726562 5.25 38.25 L 5.25 9.75 C 5.25 7.273438 7.273438 5.25 9.75 5.25 Z M 9.75 5.25 "/>
  <g clip-path="url(#clip-0)">
    <g clip-path="url(#clip-1)">
      <path fill-rule="nonzero" fill="#b4befe" fill-opacity="1" d="M 24.75 5.25 L 38.25 5.25 C 40.726562 5.25 42.75 7.273438 42.75 9.75 L 42.75 23.25 L 30.75 23.25 C 27.449219 23.25 24.75 20.550781 24.75 17.25 Z M 24.75 5.25 "/>
    </g>
  </g>
  <g clip-path="url(#clip-2)">
    <g clip-path="url(#clip-3)">
      <path fill-rule="nonzero" fill="#b4befe" fill-opacity="1" d="M 48.75 22.875 C 48.75 25.980469 46.230469 28.5 43.125 28.5 C 40.019531 28.5 37.5 25.980469 37.5 22.875 C 37.5 19.769531 40.019531 17.25 43.125 17.25 C 46.230469 17.25 48.75 19.769531 48.75 22.875 Z M 48.75 22.875 "/>
    </g>
  </g>
  <g clip-path="url(#clip-4)">
    <g clip-path="url(#clip-5)">
      <path fill-rule="nonzero" fill="#11111b" fill-opacity="1" d="M 29.925781 10.5 C 29.476562 10.5 28.949219 10.574219 28.5 10.800781 C 28.050781 10.949219 27.675781 11.25 27.300781 11.625 C 26.925781 12 26.699219 12.375 26.476562 12.824219 C 26.324219 13.273438 26.25 13.726562 26.25 14.25 C 26.25 14.773438 26.324219 15.226562 26.550781 15.675781 C 26.699219 16.125 27 16.574219 27.375 16.875 C 27.75 17.25 28.125 17.476562 28.574219 17.699219 C 29.023438 17.851562 29.476562 18 29.925781 18 C 31.050781 18.074219 31.949219 17.625 32.625 16.949219 C 33.074219 16.5 33.449219 15.976562 33.75 15.449219 C 34.050781 15.976562 34.425781 16.5 34.875 16.949219 C 35.550781 17.625 36.449219 18.074219 37.574219 18 C 38.023438 18 38.476562 17.925781 38.925781 17.699219 C 39.375 17.550781 39.75 17.25 40.125 16.875 C 40.5 16.5 40.726562 16.125 40.949219 15.675781 C 41.101562 15.226562 41.25 14.699219 41.25 14.25 C 41.25 13.726562 41.175781 13.273438 40.949219 12.824219 C 40.800781 12.375 40.5 11.925781 40.125 11.625 C 39.75 11.25 39.375 11.023438 38.925781 10.800781 C 38.476562 10.648438 38.023438 10.5 37.5 10.5 C 36.300781 10.5 35.398438 11.023438 34.648438 11.699219 C 34.273438 12.074219 33.898438 12.523438 33.601562 12.976562 C 33.300781 12.523438 33 12.074219 32.550781 11.699219 C 32.023438 11.023438 31.050781 10.5 29.925781 10.5 Z M 29.851562 11.550781 C 30.824219 11.550781 31.425781 11.925781 31.949219 12.449219 C 32.398438 12.898438 32.773438 13.5 33.148438 14.175781 C 32.699219 14.925781 32.324219 15.675781 31.800781 16.125 C 31.273438 16.648438 30.75 16.949219 29.851562 16.875 C 29.476562 16.875 29.175781 16.800781 28.875 16.648438 C 28.574219 16.5 28.273438 16.351562 28.050781 16.050781 C 27.824219 15.824219 27.601562 15.523438 27.523438 15.148438 C 27.375 14.851562 27.300781 14.476562 27.300781 14.101562 C 27.300781 13.726562 27.375 13.425781 27.523438 13.050781 C 27.675781 12.75 27.824219 12.449219 28.050781 12.148438 C 28.273438 11.925781 28.574219 11.699219 28.875 11.550781 C 29.175781 11.625 29.550781 11.550781 29.851562 11.550781 Z M 37.574219 11.550781 C 37.949219 11.550781 38.25 11.625 38.550781 11.773438 C 38.851562 11.925781 39.148438 12.074219 39.375 12.375 C 39.601562 12.601562 39.824219 12.898438 39.898438 13.273438 C 40.050781 13.574219 40.125 13.949219 40.125 14.324219 C 40.125 14.699219 40.050781 15 39.898438 15.375 C 39.75 15.675781 39.601562 15.976562 39.375 16.273438 C 39.148438 16.5 38.851562 16.726562 38.550781 16.875 C 38.25 17.023438 37.875 17.101562 37.574219 17.101562 C 36.675781 17.175781 36.148438 16.875 35.625 16.351562 C 35.175781 15.898438 34.726562 15.148438 34.273438 14.398438 C 34.648438 13.726562 35.023438 13.125 35.476562 12.675781 C 36.074219 11.925781 36.675781 11.550781 37.574219 11.550781 Z M 36.976562 12.675781 L 36.976562 13.726562 L 35.925781 13.726562 L 35.925781 14.773438 L 36.976562 14.773438 L 36.976562 15.824219 L 38.023438 15.824219 L 38.023438 14.773438 L 39.074219 14.773438 L 39.074219 13.726562 L 38.023438 13.726562 L 38.023438 12.675781 Z M 28.351562 13.726562 L 28.351562 14.773438 L 31.574219 14.773438 L 31.574219 13.726562 Z M 28.351562 13.726562 "/>
    </g>
  </g>
</svg>