<svg width="48" height="48" viewBox="0 0 48 48" fill="none" xmlns="http://www.w3.org/2000/svg">
<rect x="7" y="6" width="35" height="35" rx="5" fill="#11111b"/>
<g clip-path="url(#clip0)">
<path d="M25.2 6H36.9999C39.7614 6 42 8.23858 42 11V22.8H31.2C27.8862 22.8 25.2 20.1137 25.2 16.8V6Z" fill="#f5c2e7"/>
<g filter="url(#filter0_d)">
<ellipse cx="42.35" cy="22.45" rx="5.25" ry="5.25" fill="#f5c2e7"/>
</g>
<path fill-rule="evenodd" clip-rule="evenodd" d="M30.4 9.8C30.0817 9.8 29.7765 9.92643 29.5514 10.1515C29.3264 10.3765 29.2 10.6817 29.2 11V17C29.2 17.3183 29.3264 17.6235 29.5514 17.8485C29.7765 18.0736 30.0817 18.2 30.4 18.2H37.6C37.9182 18.2 38.2234 18.0736 38.4485 17.8485C38.6735 17.6235 38.8 17.3183 38.8 17V11C38.8 10.6817 38.6735 10.3765 38.4485 10.1515C38.2234 9.92643 37.9182 9.8 37.6 9.8H30.4ZM37.6 17H30.4L32.8 12.2L34.6 15.8L35.8 13.4L37.6 17Z" fill="#11111b"/>
</g>
<defs>
<filter id="filter0_d" x="21.1" y="5.2" width="42.5" height="42.5" filterUnits="userSpaceOnUse" color-interpolation-filters="sRGB">
<feFlood flood-opacity="0" result="BackgroundImageFix"/>
<feColorMatrix in="SourceAlpha" type="matrix" values="0 0 0 0 0 0 0 0 0 0 0 0 0 0 0 0 0 0 127 0" result="hardAlpha"/>
<feOffset dy="4"/>
<feGaussianBlur stdDeviation="8"/>
<feComposite in2="hardAlpha" operator="out"/>
<feColorMatrix type="matrix" values="0 0 0 0 0 0 0 0 0 0 0 0 0 0 0 0 0 0 0.3 0"/>
<feBlend mode="normal" in2="BackgroundImageFix" result="effect1_dropShadow"/>
<feBlend mode="normal" in="SourceGraphic" in2="effect1_dropShadow" result="shape"/>
</filter>
<clipPath id="clip0">
<path d="M25.2 6H36.9999C39.7614 6 42 8.23858 42 11V22.8H31.2C27.8862 22.8 25.2 20.1137 25.2 16.8V6Z" fill="white"/>
</clipPath>
</defs>
</svg>
