<?xml version="1.0" encoding="UTF-8" standalone="yes"?>
<svg xmlns="http://www.w3.org/2000/svg" xmlns:xlink="http://www.w3.org/1999/xlink" width="48" height="48" viewBox="0 0 48 48">
  <defs>
    <clipPath id="clip-0">
      <path clip-rule="nonzero" d="M 24 5 L 43 5 L 43 24 L 24 24 Z M 24 5 "/>
    </clipPath>
    <clipPath id="clip-1">
      <path clip-rule="nonzero" d="M 24.75 5.25 L 38.25 5.25 C 40.726562 5.25 42.75 7.273438 42.75 9.75 L 42.75 23.25 L 30.75 23.25 C 27.449219 23.25 24.75 20.550781 24.75 17.25 Z M 24.75 5.25 "/>
    </clipPath>
    <clipPath id="clip-2">
      <path clip-rule="nonzero" d="M 37 17 L 43 17 L 43 24 L 37 24 Z M 37 17 "/>
    </clipPath>
    <clipPath id="clip-3">
      <path clip-rule="nonzero" d="M 24.75 5.25 L 38.25 5.25 C 40.726562 5.25 42.75 7.273438 42.75 9.75 L 42.75 23.25 L 30.75 23.25 C 27.449219 23.25 24.75 20.550781 24.75 17.25 Z M 24.75 5.25 "/>
    </clipPath>
    <clipPath id="clip-4">
      <path clip-rule="nonzero" d="M 32 5 L 35 5 L 35 12 L 32 12 Z M 32 5 "/>
    </clipPath>
    <clipPath id="clip-5">
      <path clip-rule="nonzero" d="M 24.75 5.25 L 38.25 5.25 C 40.726562 5.25 42.75 7.273438 42.75 9.75 L 42.75 23.25 L 30.75 23.25 C 27.449219 23.25 24.75 20.550781 24.75 17.25 Z M 24.75 5.25 "/>
    </clipPath>
    <clipPath id="clip-6">
      <path clip-rule="nonzero" d="M 31 11 L 36 11 L 36 21 L 31 21 Z M 31 11 "/>
    </clipPath>
    <clipPath id="clip-7">
      <path clip-rule="nonzero" d="M 24.75 5.25 L 38.25 5.25 C 40.726562 5.25 42.75 7.273438 42.75 9.75 L 42.75 23.25 L 30.75 23.25 C 27.449219 23.25 24.75 20.550781 24.75 17.25 Z M 24.75 5.25 "/>
    </clipPath>
  </defs>
  <path fill-rule="nonzero" fill="#11111b" fill-opacity="1" d="M 9.75 5.25 L 38.25 5.25 C 40.726562 5.25 42.75 7.273438 42.75 9.75 L 42.75 38.25 C 42.75 40.726562 40.726562 42.75 38.25 42.75 L 9.75 42.75 C 7.273438 42.75 5.25 40.726562 5.25 38.25 L 5.25 9.75 C 5.25 7.273438 7.273438 5.25 9.75 5.25 Z M 9.75 5.25 "/>
  <g clip-path="url(#clip-0)">
    <g clip-path="url(#clip-1)">
      <path fill-rule="nonzero" fill="#b4befe" fill-opacity="1" d="M 24.75 5.25 L 38.25 5.25 C 40.726562 5.25 42.75 7.273438 42.75 9.75 L 42.75 23.25 L 30.75 23.25 C 27.449219 23.25 24.75 20.550781 24.75 17.25 Z M 24.75 5.25 "/>
    </g>
  </g>
  <g clip-path="url(#clip-2)">
    <g clip-path="url(#clip-3)">
      <path fill-rule="nonzero" fill="#b4befe" fill-opacity="1" d="M 48.75 22.875 C 48.75 25.980469 46.230469 28.5 43.125 28.5 C 40.019531 28.5 37.5 25.980469 37.5 22.875 C 37.5 19.769531 40.019531 17.25 43.125 17.25 C 46.230469 17.25 48.75 19.769531 48.75 22.875 Z M 48.75 22.875 "/>
    </g>
  </g>
  <g clip-path="url(#clip-4)">
    <g clip-path="url(#clip-5)">
      <path fill-rule="nonzero" fill="#11111b" fill-opacity="1" d="M 33.601562 5.851562 L 33.601562 6.976562 L 34.726562 6.976562 L 34.726562 5.851562 Z M 33.601562 6.898438 L 32.476562 6.898438 L 32.476562 8.023438 L 33.601562 8.023438 Z M 33.601562 8.101562 L 33.601562 9.226562 L 34.726562 9.226562 L 34.726562 8.101562 Z M 33.601562 9.148438 L 32.476562 9.148438 L 32.476562 10.273438 L 33.601562 10.273438 Z M 33.601562 10.351562 L 33.601562 11.476562 C 34.199219 11.476562 34.726562 10.875 34.726562 10.351562 Z M 33.601562 10.351562 "/>
    </g>
  </g>
  <g clip-path="url(#clip-6)">
    <g clip-path="url(#clip-7)">
      <path fill-rule="nonzero" fill="#11111b" fill-opacity="1" d="M 33.601562 11.398438 C 32.324219 11.398438 31.351562 12.375 31.351562 13.648438 L 31.351562 18.148438 C 31.351562 19.425781 32.324219 20.398438 33.601562 20.398438 C 34.875 20.398438 35.851562 19.425781 35.851562 18.148438 L 35.851562 13.648438 C 35.851562 12.449219 34.800781 11.398438 33.601562 11.398438 Z M 33.601562 12.601562 C 34.199219 12.601562 34.726562 13.050781 34.726562 13.726562 C 34.726562 14.324219 34.199219 14.851562 33.601562 14.851562 C 33 14.851562 32.476562 14.25 32.476562 13.726562 C 32.398438 12.976562 32.925781 12.601562 33.601562 12.601562 Z M 33.601562 15.898438 C 34.199219 15.898438 34.726562 16.351562 34.726562 17.023438 L 34.726562 18.148438 C 34.726562 18.75 34.199219 19.273438 33.601562 19.273438 C 33 19.273438 32.476562 18.675781 32.476562 18.148438 L 32.476562 17.023438 C 32.398438 16.351562 32.925781 15.898438 33.601562 15.898438 Z M 33.601562 15.898438 "/>
    </g>
  </g>
</svg>