<svg width="48" height="48" viewBox="0 0 48 48" fill="none" xmlns="http://www.w3.org/2000/svg">
<rect x="7" y="6" width="35" height="35" rx="5" fill="#11111b"/>
<g clip-path="url(#clip0)">
<path d="M25.2 6H37C39.7614 6 42 8.23858 42 11V22.8H31.2C27.8863 22.8 25.2 20.1137 25.2 16.8V6Z" fill="#89dceb"/>
<g filter="url(#filter0_d)">
<ellipse cx="42.35" cy="22.45" rx="5.25" ry="5.25" fill="#89dceb"/>
</g>
<path fill-rule="evenodd" clip-rule="evenodd" d="M29.2 13.7C29.2 14.257 29.4213 14.7911 29.8151 15.1849C30.2089 15.5788 30.7431 15.8 31.3 15.8H33.4V17.3516L32.6242 16.5758C32.5111 16.4665 32.3595 16.406 32.2022 16.4074C32.0449 16.4088 31.8944 16.4719 31.7831 16.5831C31.6719 16.6944 31.6088 16.8448 31.6074 17.0022C31.606 17.1595 31.6665 17.311 31.7758 17.4242L33.5758 19.2242C33.6883 19.3367 33.8409 19.3999 34 19.3999C34.1591 19.3999 34.3117 19.3367 34.4242 19.2242L36.2242 17.4242C36.3335 17.311 36.394 17.1595 36.3926 17.0022C36.3912 16.8448 36.3281 16.6944 36.2169 16.5831C36.1057 16.4719 35.9552 16.4088 35.7979 16.4074C35.6405 16.406 35.489 16.4665 35.3758 16.5758L34.6 17.3516V15.8H36.1C36.4701 15.7998 36.8361 15.7235 37.1754 15.5759C37.5148 15.4283 37.8201 15.2125 38.0726 14.942C38.325 14.6714 38.5191 14.3518 38.6429 14.0031C38.7667 13.6544 38.8175 13.2839 38.7921 12.9148C38.7667 12.5456 38.6657 12.1856 38.4953 11.8571C38.325 11.5286 38.089 11.2386 37.8018 11.0052C37.5147 10.7717 37.1827 10.5997 36.8264 10.5C36.47 10.4002 36.097 10.3748 35.7304 10.4252C35.6596 10.1124 35.5267 9.81687 35.3398 9.5562C35.1528 9.29554 34.9156 9.07497 34.6419 8.90753C34.3683 8.74009 34.064 8.62916 33.7468 8.5813C33.4296 8.53345 33.106 8.54962 32.7952 8.62888C32.4844 8.70815 32.1926 8.84888 31.9371 9.04278C31.6815 9.23668 31.4674 9.47982 31.3074 9.75783C31.1474 10.0358 31.0447 10.3431 31.0054 10.6615C30.9661 10.9798 30.991 11.3028 31.0786 11.6114C30.5628 11.6661 30.0855 11.9097 29.7387 12.2953C29.3918 12.681 29.1999 13.1813 29.2 13.7V13.7ZM34.6 15.8H33.4V12.8C33.4 12.6409 33.4632 12.4883 33.5757 12.3757C33.6883 12.2632 33.8409 12.2 34 12.2C34.1591 12.2 34.3118 12.2632 34.4243 12.3757C34.5368 12.4883 34.6 12.6409 34.6 12.8V15.8Z" fill="#11111b"/>
</g>
<defs>
<filter id="filter0_d" x="21.1" y="5.2" width="42.5" height="42.5" filterUnits="userSpaceOnUse" color-interpolation-filters="sRGB">
<feFlood flood-opacity="0" result="BackgroundImageFix"/>
<feColorMatrix in="SourceAlpha" type="matrix" values="0 0 0 0 0 0 0 0 0 0 0 0 0 0 0 0 0 0 127 0" result="hardAlpha"/>
<feOffset dy="4"/>
<feGaussianBlur stdDeviation="8"/>
<feComposite in2="hardAlpha" operator="out"/>
<feColorMatrix type="matrix" values="0 0 0 0 0 0 0 0 0 0 0 0 0 0 0 0 0 0 0.3 0"/>
<feBlend mode="normal" in2="BackgroundImageFix" result="effect1_dropShadow"/>
<feBlend mode="normal" in="SourceGraphic" in2="effect1_dropShadow" result="shape"/>
</filter>
<clipPath id="clip0">
<path d="M25.2 6H37C39.7614 6 42 8.23858 42 11V22.8H31.2C27.8863 22.8 25.2 20.1137 25.2 16.8V6Z" fill="white"/>
</clipPath>
</defs>
</svg>
