<?xml version="1.0" encoding="UTF-8" standalone="yes"?>
<svg xmlns="http://www.w3.org/2000/svg" xmlns:xlink="http://www.w3.org/1999/xlink" width="48" height="48" viewBox="0 0 48 48">
  <defs>
    <clipPath id="clip-0">
      <path clip-rule="nonzero" d="M 24 5 L 43 5 L 43 24 L 24 24 Z M 24 5 "/>
    </clipPath>
    <clipPath id="clip-1">
      <path clip-rule="nonzero" d="M 24.75 5.25 L 38.25 5.25 C 40.726562 5.25 42.75 7.273438 42.75 9.75 L 42.75 23.25 L 30.75 23.25 C 27.449219 23.25 24.75 20.550781 24.75 17.25 Z M 24.75 5.25 "/>
    </clipPath>
    <clipPath id="clip-2">
      <path clip-rule="nonzero" d="M 37 17 L 43 17 L 43 24 L 37 24 Z M 37 17 "/>
    </clipPath>
    <clipPath id="clip-3">
      <path clip-rule="nonzero" d="M 24.75 5.25 L 38.25 5.25 C 40.726562 5.25 42.75 7.273438 42.75 9.75 L 42.75 23.25 L 30.75 23.25 C 27.449219 23.25 24.75 20.550781 24.75 17.25 Z M 24.75 5.25 "/>
    </clipPath>
    <clipPath id="clip-4">
      <path clip-rule="nonzero" d="M 26 8 L 42 8 L 42 19 L 26 19 Z M 26 8 "/>
    </clipPath>
    <clipPath id="clip-5">
      <path clip-rule="nonzero" d="M 24.75 5.25 L 38.25 5.25 C 40.726562 5.25 42.75 7.273438 42.75 9.75 L 42.75 23.25 L 30.75 23.25 C 27.449219 23.25 24.75 20.550781 24.75 17.25 Z M 24.75 5.25 "/>
    </clipPath>
  </defs>
  <path fill-rule="nonzero" fill="#11111b" fill-opacity="1" d="M 9.75 5.25 L 38.25 5.25 C 40.726562 5.25 42.75 7.273438 42.75 9.75 L 42.75 38.25 C 42.75 40.726562 40.726562 42.75 38.25 42.75 L 9.75 42.75 C 7.273438 42.75 5.25 40.726562 5.25 38.25 L 5.25 9.75 C 5.25 7.273438 7.273438 5.25 9.75 5.25 Z M 9.75 5.25 "/>
  <g clip-path="url(#clip-0)">
    <g clip-path="url(#clip-1)">
      <path fill-rule="nonzero" fill="#b4befe" fill-opacity="1" d="M 24.75 5.25 L 38.25 5.25 C 40.726562 5.25 42.75 7.273438 42.75 9.75 L 42.75 23.25 L 30.75 23.25 C 27.449219 23.25 24.75 20.550781 24.75 17.25 Z M 24.75 5.25 "/>
    </g>
  </g>
  <g clip-path="url(#clip-2)">
    <g clip-path="url(#clip-3)">
      <path fill-rule="nonzero" fill="#b4befe" fill-opacity="1" d="M 48.75 22.875 C 48.75 25.980469 46.230469 28.5 43.125 28.5 C 40.019531 28.5 37.5 25.980469 37.5 22.875 C 37.5 19.769531 40.019531 17.25 43.125 17.25 C 46.230469 17.25 48.75 19.769531 48.75 22.875 Z M 48.75 22.875 "/>
    </g>
  </g>
  <g clip-path="url(#clip-4)">
    <g clip-path="url(#clip-5)">
      <path fill-rule="nonzero" fill="#11111b" fill-opacity="1" d="M 34.125 8.25 C 32.175781 8.25 30.375 9.449219 29.625 11.25 C 27.675781 11.476562 26.25 13.050781 26.25 15 C 26.25 17.101562 27.898438 18.75 30 18.75 L 38.851562 18.75 C 40.199219 18.75 41.324219 17.625 41.324219 16.273438 C 41.324219 15.375 40.800781 14.550781 40.050781 14.175781 C 40.351562 13.800781 40.574219 13.273438 40.574219 12.75 C 40.574219 11.476562 39.601562 10.5 38.324219 10.5 C 37.351562 9.074219 35.773438 8.25 34.125 8.25 Z M 34.351562 9.675781 C 36.226562 9.675781 37.726562 11.175781 37.726562 13.050781 C 37.726562 14.925781 36.226562 16.425781 34.351562 16.425781 C 32.476562 16.425781 30.976562 14.925781 30.976562 13.050781 C 30.976562 11.175781 32.550781 9.675781 34.351562 9.675781 Z M 34.351562 10.648438 C 33.824219 10.648438 33.300781 10.800781 32.925781 11.101562 L 34.648438 11.101562 C 35.324219 11.101562 35.851562 11.324219 35.851562 12.226562 C 35.851562 13.273438 35.398438 13.5 34.648438 13.5 L 33.898438 13.5 L 33.898438 14.925781 L 32.925781 14.925781 C 33.375 15.226562 33.824219 15.375 34.351562 15.375 C 35.699219 15.375 36.75 14.324219 36.75 12.976562 C 36.75 11.699219 35.699219 10.648438 34.351562 10.648438 Z M 32.925781 11.101562 C 32.324219 11.550781 31.949219 12.226562 31.949219 13.050781 C 31.949219 13.800781 32.324219 14.476562 32.925781 15 Z M 33.898438 12.074219 L 33.898438 12.523438 L 34.351562 12.523438 C 34.648438 12.523438 34.800781 12.523438 34.800781 12.300781 C 34.800781 12.074219 34.648438 12.074219 34.351562 12.074219 Z M 33.898438 12.074219 "/>
    </g>
  </g>
</svg>