<?xml version="1.0" encoding="UTF-8" standalone="yes"?>
<svg xmlns="http://www.w3.org/2000/svg" xmlns:xlink="http://www.w3.org/1999/xlink" width="48" height="48" viewBox="0 0 48 48">
  <defs>
    <clipPath id="clip-0">
      <path clip-rule="nonzero" d="M 24 5 L 43 5 L 43 24 L 24 24 Z M 24 5 "/>
    </clipPath>
    <clipPath id="clip-1">
      <path clip-rule="nonzero" d="M 24.75 5.25 L 38.25 5.25 C 40.726562 5.25 42.75 7.273438 42.75 9.75 L 42.75 23.25 L 30.75 23.25 C 27.449219 23.25 24.75 20.550781 24.75 17.25 Z M 24.75 5.25 "/>
    </clipPath>
    <clipPath id="clip-2">
      <path clip-rule="nonzero" d="M 37 17 L 43 17 L 43 24 L 37 24 Z M 37 17 "/>
    </clipPath>
    <clipPath id="clip-3">
      <path clip-rule="nonzero" d="M 24.75 5.25 L 38.25 5.25 C 40.726562 5.25 42.75 7.273438 42.75 9.75 L 42.75 23.25 L 30.75 23.25 C 27.449219 23.25 24.75 20.550781 24.75 17.25 Z M 24.75 5.25 "/>
    </clipPath>
    <clipPath id="clip-4">
      <path clip-rule="nonzero" d="M 26 9 L 41 9 L 41 20 L 26 20 Z M 26 9 "/>
    </clipPath>
    <clipPath id="clip-5">
      <path clip-rule="nonzero" d="M 24.75 5.25 L 38.25 5.25 C 40.726562 5.25 42.75 7.273438 42.75 9.75 L 42.75 23.25 L 30.75 23.25 C 27.449219 23.25 24.75 20.550781 24.75 17.25 Z M 24.75 5.25 "/>
    </clipPath>
  </defs>
  <path fill-rule="nonzero" fill="#11111b" fill-opacity="1" d="M 9.75 5.25 L 38.25 5.25 C 40.726562 5.25 42.75 7.273438 42.75 9.75 L 42.75 38.25 C 42.75 40.726562 40.726562 42.75 38.25 42.75 L 9.75 42.75 C 7.273438 42.75 5.25 40.726562 5.25 38.25 L 5.25 9.75 C 5.25 7.273438 7.273438 5.25 9.75 5.25 Z M 9.75 5.25 "/>
  <g clip-path="url(#clip-0)">
    <g clip-path="url(#clip-1)">
      <path fill-rule="nonzero" fill="#b4befe" fill-opacity="1" d="M 24.75 5.25 L 38.25 5.25 C 40.726562 5.25 42.75 7.273438 42.75 9.75 L 42.75 23.25 L 30.75 23.25 C 27.449219 23.25 24.75 20.550781 24.75 17.25 Z M 24.75 5.25 "/>
    </g>
  </g>
  <g clip-path="url(#clip-2)">
    <g clip-path="url(#clip-3)">
      <path fill-rule="nonzero" fill="#b4befe" fill-opacity="1" d="M 48.75 22.875 C 48.75 25.980469 46.230469 28.5 43.125 28.5 C 40.019531 28.5 37.5 25.980469 37.5 22.875 C 37.5 19.769531 40.019531 17.25 43.125 17.25 C 46.230469 17.25 48.75 19.769531 48.75 22.875 Z M 48.75 22.875 "/>
    </g>
  </g>
  <g clip-path="url(#clip-4)">
    <g clip-path="url(#clip-5)">
      <path fill-rule="nonzero" fill="#11111b" fill-opacity="1" d="M 33 9.226562 C 30.601562 9.226562 30.601562 10.800781 29.851562 11.851562 C 30.675781 11.476562 31.648438 11.101562 32.625 10.875 C 33.523438 10.648438 34.5 10.5 35.398438 10.425781 C 34.875 9.898438 34.425781 9.226562 33 9.226562 Z M 36.226562 11.476562 C 35.175781 11.476562 34.050781 11.625 32.925781 11.925781 C 29.25 12.898438 26.625 14.925781 27 16.574219 C 27.226562 17.476562 28.5 18.300781 30.375 18.449219 C 30.375 18.449219 30.375 18.449219 30.375 18.375 C 30.300781 17.398438 30.824219 16.648438 31.5 16.125 C 32.175781 15.601562 33 15.226562 33.898438 15 C 34.351562 14.925781 34.800781 14.851562 35.25 14.851562 C 35.925781 14.851562 36.523438 15 37.125 15.300781 C 37.574219 15.523438 38.023438 15.976562 38.175781 16.574219 C 39.898438 15.523438 40.726562 14.175781 40.5 13.199219 C 40.125 12.074219 38.550781 11.398438 36.226562 11.476562 Z M 35.25 15.898438 C 34.875 15.898438 34.5 15.898438 34.125 16.050781 C 32.550781 16.425781 31.425781 17.398438 31.5 18.226562 C 31.574219 19.125 32.925781 19.5 34.5 19.199219 C 36.074219 18.824219 37.199219 17.851562 37.125 17.023438 C 37.050781 16.351562 36.300781 15.976562 35.25 15.898438 Z M 35.25 15.898438 "/>
    </g>
  </g>
</svg>