<?xml version="1.0" encoding="UTF-8" standalone="yes"?>
<svg xmlns="http://www.w3.org/2000/svg" xmlns:xlink="http://www.w3.org/1999/xlink" width="48" height="48" viewBox="0 0 48 48">
  <defs>
    <clipPath id="clip-0">
      <path clip-rule="nonzero" d="M 24 5 L 43 5 L 43 24 L 24 24 Z M 24 5 "/>
    </clipPath>
    <clipPath id="clip-1">
      <path clip-rule="nonzero" d="M 24.75 5.25 L 38.25 5.25 C 40.726562 5.25 42.75 7.273438 42.75 9.75 L 42.75 23.25 L 30.75 23.25 C 27.449219 23.25 24.75 20.550781 24.75 17.25 Z M 24.75 5.25 "/>
    </clipPath>
    <clipPath id="clip-2">
      <path clip-rule="nonzero" d="M 37 17 L 43 17 L 43 24 L 37 24 Z M 37 17 "/>
    </clipPath>
    <clipPath id="clip-3">
      <path clip-rule="nonzero" d="M 24.75 5.25 L 38.25 5.25 C 40.726562 5.25 42.75 7.273438 42.75 9.75 L 42.75 23.25 L 30.75 23.25 C 27.449219 23.25 24.75 20.550781 24.75 17.25 Z M 24.75 5.25 "/>
    </clipPath>
    <clipPath id="clip-4">
      <path clip-rule="nonzero" d="M 28 8 L 34 8 L 34 14 L 28 14 Z M 28 8 "/>
    </clipPath>
    <clipPath id="clip-5">
      <path clip-rule="nonzero" d="M 24.75 5.25 L 38.25 5.25 C 40.726562 5.25 42.75 7.273438 42.75 9.75 L 42.75 23.25 L 30.75 23.25 C 27.449219 23.25 24.75 20.550781 24.75 17.25 Z M 24.75 5.25 "/>
    </clipPath>
    <clipPath id="clip-6">
      <path clip-rule="nonzero" d="M 34 8 L 40 8 L 40 14 L 34 14 Z M 34 8 "/>
    </clipPath>
    <clipPath id="clip-7">
      <path clip-rule="nonzero" d="M 24.75 5.25 L 38.25 5.25 C 40.726562 5.25 42.75 7.273438 42.75 9.75 L 42.75 23.25 L 30.75 23.25 C 27.449219 23.25 24.75 20.550781 24.75 17.25 Z M 24.75 5.25 "/>
    </clipPath>
    <clipPath id="clip-8">
      <path clip-rule="nonzero" d="M 34 14 L 40 14 L 40 20 L 34 20 Z M 34 14 "/>
    </clipPath>
    <clipPath id="clip-9">
      <path clip-rule="nonzero" d="M 24.75 5.25 L 38.25 5.25 C 40.726562 5.25 42.75 7.273438 42.75 9.75 L 42.75 23.25 L 30.75 23.25 C 27.449219 23.25 24.75 20.550781 24.75 17.25 Z M 24.75 5.25 "/>
    </clipPath>
    <clipPath id="clip-10">
      <path clip-rule="nonzero" d="M 28 14 L 34 14 L 34 20 L 28 20 Z M 28 14 "/>
    </clipPath>
    <clipPath id="clip-11">
      <path clip-rule="nonzero" d="M 24.75 5.25 L 38.25 5.25 C 40.726562 5.25 42.75 7.273438 42.75 9.75 L 42.75 23.25 L 30.75 23.25 C 27.449219 23.25 24.75 20.550781 24.75 17.25 Z M 24.75 5.25 "/>
    </clipPath>
  </defs>
  <path fill-rule="nonzero" fill="#11111b" fill-opacity="1" d="M 9.75 5.25 L 38.25 5.25 C 40.726562 5.25 42.75 7.273438 42.75 9.75 L 42.75 38.25 C 42.75 40.726562 40.726562 42.75 38.25 42.75 L 9.75 42.75 C 7.273438 42.75 5.25 40.726562 5.25 38.25 L 5.25 9.75 C 5.25 7.273438 7.273438 5.25 9.75 5.25 Z M 9.75 5.25 "/>
  <g clip-path="url(#clip-0)">
    <g clip-path="url(#clip-1)">
      <path fill-rule="nonzero" fill="#b4befe" fill-opacity="1" d="M 24.75 5.25 L 38.25 5.25 C 40.726562 5.25 42.75 7.273438 42.75 9.75 L 42.75 23.25 L 30.75 23.25 C 27.449219 23.25 24.75 20.550781 24.75 17.25 Z M 24.75 5.25 "/>
    </g>
  </g>
  <g clip-path="url(#clip-2)">
    <g clip-path="url(#clip-3)">
      <path fill-rule="nonzero" fill="#b4befe" fill-opacity="1" d="M 48.75 22.875 C 48.75 25.980469 46.230469 28.5 43.125 28.5 C 40.019531 28.5 37.5 25.980469 37.5 22.875 C 37.5 19.769531 40.019531 17.25 43.125 17.25 C 46.230469 17.25 48.75 19.769531 48.75 22.875 Z M 48.75 22.875 "/>
    </g>
  </g>
  <g clip-path="url(#clip-4)">
    <g clip-path="url(#clip-5)">
      <path fill-rule="nonzero" fill="#11111b" fill-opacity="1" d="M 29.023438 8.773438 L 32.398438 8.773438 C 32.851562 8.773438 33.148438 9.148438 33.148438 9.523438 L 33.148438 12.898438 C 33.148438 13.351562 32.773438 13.648438 32.398438 13.648438 L 29.023438 13.648438 C 28.574219 13.648438 28.273438 13.273438 28.273438 12.898438 L 28.273438 9.523438 C 28.273438 9.074219 28.574219 8.773438 29.023438 8.773438 Z M 29.023438 8.773438 "/>
    </g>
  </g>
  <g clip-path="url(#clip-6)">
    <g clip-path="url(#clip-7)">
      <path fill-rule="nonzero" fill="#11111b" fill-opacity="1" d="M 35.101562 8.773438 L 38.476562 8.773438 C 38.925781 8.773438 39.226562 9.148438 39.226562 9.523438 L 39.226562 12.898438 C 39.226562 13.351562 38.851562 13.648438 38.476562 13.648438 L 35.101562 13.648438 C 34.648438 13.648438 34.351562 13.273438 34.351562 12.898438 L 34.351562 9.523438 C 34.351562 9.074219 34.726562 8.773438 35.101562 8.773438 Z M 35.101562 8.773438 "/>
    </g>
  </g>
  <g clip-path="url(#clip-8)">
    <g clip-path="url(#clip-9)">
      <path fill-rule="nonzero" fill="#11111b" fill-opacity="1" d="M 35.101562 14.851562 L 38.476562 14.851562 C 38.925781 14.851562 39.226562 15.226562 39.226562 15.601562 L 39.226562 18.976562 C 39.226562 19.425781 38.851562 19.726562 38.476562 19.726562 L 35.101562 19.726562 C 34.648438 19.726562 34.351562 19.351562 34.351562 18.976562 L 34.351562 15.601562 C 34.351562 15.226562 34.726562 14.851562 35.101562 14.851562 Z M 35.101562 14.851562 "/>
    </g>
  </g>
  <g clip-path="url(#clip-10)">
    <g clip-path="url(#clip-11)">
      <path fill-rule="nonzero" fill="#11111b" fill-opacity="1" d="M 29.023438 14.851562 L 32.398438 14.851562 C 32.851562 14.851562 33.148438 15.226562 33.148438 15.601562 L 33.148438 18.976562 C 33.148438 19.425781 32.773438 19.726562 32.398438 19.726562 L 29.023438 19.726562 C 28.574219 19.726562 28.273438 19.351562 28.273438 18.976562 L 28.273438 15.601562 C 28.273438 15.226562 28.574219 14.851562 29.023438 14.851562 Z M 29.023438 14.851562 "/>
    </g>
  </g>
</svg>