<?xml version="1.0" encoding="UTF-8" standalone="yes"?>
<svg xmlns="http://www.w3.org/2000/svg" xmlns:xlink="http://www.w3.org/1999/xlink" width="48" height="48" viewBox="0 0 48 48">
  <defs>
    <clipPath id="clip-0">
      <path clip-rule="nonzero" d="M 24 5 L 43 5 L 43 24 L 24 24 Z M 24 5 "/>
    </clipPath>
    <clipPath id="clip-1">
      <path clip-rule="nonzero" d="M 24.75 5.25 L 38.25 5.25 C 40.726562 5.25 42.75 7.273438 42.75 9.75 L 42.75 23.25 L 30.75 23.25 C 27.449219 23.25 24.75 20.550781 24.75 17.25 Z M 24.75 5.25 "/>
    </clipPath>
    <clipPath id="clip-2">
      <path clip-rule="nonzero" d="M 37 17 L 43 17 L 43 24 L 37 24 Z M 37 17 "/>
    </clipPath>
    <clipPath id="clip-3">
      <path clip-rule="nonzero" d="M 24.75 5.25 L 38.25 5.25 C 40.726562 5.25 42.75 7.273438 42.75 9.75 L 42.75 23.25 L 30.75 23.25 C 27.449219 23.25 24.75 20.550781 24.75 17.25 Z M 24.75 5.25 "/>
    </clipPath>
    <clipPath id="clip-4">
      <path clip-rule="nonzero" d="M 27 12 L 31 12 L 31 16 L 27 16 Z M 27 12 "/>
    </clipPath>
    <clipPath id="clip-5">
      <path clip-rule="nonzero" d="M 24.75 5.25 L 38.25 5.25 C 40.726562 5.25 42.75 7.273438 42.75 9.75 L 42.75 23.25 L 30.75 23.25 C 27.449219 23.25 24.75 20.550781 24.75 17.25 Z M 24.75 5.25 "/>
    </clipPath>
    <clipPath id="clip-6">
      <path clip-rule="nonzero" d="M 32 12 L 36 12 L 36 16 L 32 16 Z M 32 12 "/>
    </clipPath>
    <clipPath id="clip-7">
      <path clip-rule="nonzero" d="M 24.75 5.25 L 38.25 5.25 C 40.726562 5.25 42.75 7.273438 42.75 9.75 L 42.75 23.25 L 30.75 23.25 C 27.449219 23.25 24.75 20.550781 24.75 17.25 Z M 24.75 5.25 "/>
    </clipPath>
    <clipPath id="clip-8">
      <path clip-rule="nonzero" d="M 36 12 L 41 12 L 41 16 L 36 16 Z M 36 12 "/>
    </clipPath>
    <clipPath id="clip-9">
      <path clip-rule="nonzero" d="M 24.75 5.25 L 38.25 5.25 C 40.726562 5.25 42.75 7.273438 42.75 9.75 L 42.75 23.25 L 30.75 23.25 C 27.449219 23.25 24.75 20.550781 24.75 17.25 Z M 24.75 5.25 "/>
    </clipPath>
  </defs>
  <path fill-rule="nonzero" fill="#11111b" fill-opacity="1" d="M 9.75 5.25 L 38.25 5.25 C 40.726562 5.25 42.75 7.273438 42.75 9.75 L 42.75 38.25 C 42.75 40.726562 40.726562 42.75 38.25 42.75 L 9.75 42.75 C 7.273438 42.75 5.25 40.726562 5.25 38.25 L 5.25 9.75 C 5.25 7.273438 7.273438 5.25 9.75 5.25 Z M 9.75 5.25 "/>
  <g clip-path="url(#clip-0)">
    <g clip-path="url(#clip-1)">
      <path fill-rule="nonzero" fill="#b4befe" fill-opacity="1" d="M 24.75 5.25 L 38.25 5.25 C 40.726562 5.25 42.75 7.273438 42.75 9.75 L 42.75 23.25 L 30.75 23.25 C 27.449219 23.25 24.75 20.550781 24.75 17.25 Z M 24.75 5.25 "/>
    </g>
  </g>
  <g clip-path="url(#clip-2)">
    <g clip-path="url(#clip-3)">
      <path fill-rule="nonzero" fill="#b4befe" fill-opacity="1" d="M 48.75 22.875 C 48.75 25.980469 46.230469 28.5 43.125 28.5 C 40.019531 28.5 37.5 25.980469 37.5 22.875 C 37.5 19.769531 40.019531 17.25 43.125 17.25 C 46.230469 17.25 48.75 19.769531 48.75 22.875 Z M 48.75 22.875 "/>
    </g>
  </g>
  <g clip-path="url(#clip-4)">
    <g clip-path="url(#clip-5)">
      <path fill-rule="nonzero" fill="#11111b" fill-opacity="1" d="M 30.824219 14.25 C 30.824219 15.203125 30.050781 15.976562 29.101562 15.976562 C 28.148438 15.976562 27.375 15.203125 27.375 14.25 C 27.375 13.296875 28.148438 12.523438 29.101562 12.523438 C 30.050781 12.523438 30.824219 13.296875 30.824219 14.25 Z M 30.824219 14.25 "/>
    </g>
  </g>
  <g clip-path="url(#clip-6)">
    <g clip-path="url(#clip-7)">
      <path fill-rule="nonzero" fill="#11111b" fill-opacity="1" d="M 35.476562 14.25 C 35.476562 15.203125 34.703125 15.976562 33.75 15.976562 C 32.796875 15.976562 32.023438 15.203125 32.023438 14.25 C 32.023438 13.296875 32.796875 12.523438 33.75 12.523438 C 34.703125 12.523438 35.476562 13.296875 35.476562 14.25 Z M 35.476562 14.25 "/>
    </g>
  </g>
  <g clip-path="url(#clip-8)">
    <g clip-path="url(#clip-9)">
      <path fill-rule="nonzero" fill="#11111b" fill-opacity="1" d="M 40.125 14.25 C 40.125 15.203125 39.351562 15.976562 38.398438 15.976562 C 37.449219 15.976562 36.675781 15.203125 36.675781 14.25 C 36.675781 13.296875 37.449219 12.523438 38.398438 12.523438 C 39.351562 12.523438 40.125 13.296875 40.125 14.25 Z M 40.125 14.25 "/>
    </g>
  </g>
</svg>