<?xml version="1.0" encoding="UTF-8" standalone="yes"?>
<svg xmlns="http://www.w3.org/2000/svg" xmlns:xlink="http://www.w3.org/1999/xlink" width="48" height="48" viewBox="0 0 48 48">
  <defs>
    <clipPath id="clip-0">
      <path clip-rule="nonzero" d="M 24 5 L 43 5 L 43 24 L 24 24 Z M 24 5 "/>
    </clipPath>
    <clipPath id="clip-1">
      <path clip-rule="nonzero" d="M 24.75 5.25 L 38.25 5.25 C 40.726562 5.25 42.75 7.273438 42.75 9.75 L 42.75 23.25 L 30.75 23.25 C 27.449219 23.25 24.75 20.550781 24.75 17.25 Z M 24.75 5.25 "/>
    </clipPath>
    <clipPath id="clip-2">
      <path clip-rule="nonzero" d="M 37 17 L 43 17 L 43 24 L 37 24 Z M 37 17 "/>
    </clipPath>
    <clipPath id="clip-3">
      <path clip-rule="nonzero" d="M 24.75 5.25 L 38.25 5.25 C 40.726562 5.25 42.75 7.273438 42.75 9.75 L 42.75 23.25 L 30.75 23.25 C 27.449219 23.25 24.75 20.550781 24.75 17.25 Z M 24.75 5.25 "/>
    </clipPath>
    <clipPath id="clip-4">
      <path clip-rule="nonzero" d="M 25 11 L 42 11 L 42 18 L 25 18 Z M 25 11 "/>
    </clipPath>
    <clipPath id="clip-5">
      <path clip-rule="nonzero" d="M 24.75 5.25 L 38.25 5.25 C 40.726562 5.25 42.75 7.273438 42.75 9.75 L 42.75 23.25 L 30.75 23.25 C 27.449219 23.25 24.75 20.550781 24.75 17.25 Z M 24.75 5.25 "/>
    </clipPath>
  </defs>
  <path fill-rule="nonzero" fill="#11111b" fill-opacity="1" d="M 9.75 5.25 L 38.25 5.25 C 40.726562 5.25 42.75 7.273438 42.75 9.75 L 42.75 38.25 C 42.75 40.726562 40.726562 42.75 38.25 42.75 L 9.75 42.75 C 7.273438 42.75 5.25 40.726562 5.25 38.25 L 5.25 9.75 C 5.25 7.273438 7.273438 5.25 9.75 5.25 Z M 9.75 5.25 "/>
  <g clip-path="url(#clip-0)">
    <g clip-path="url(#clip-1)">
      <path fill-rule="nonzero" fill="#b4befe" fill-opacity="1" d="M 24.75 5.25 L 38.25 5.25 C 40.726562 5.25 42.75 7.273438 42.75 9.75 L 42.75 23.25 L 30.75 23.25 C 27.449219 23.25 24.75 20.550781 24.75 17.25 Z M 24.75 5.25 "/>
    </g>
  </g>
  <g clip-path="url(#clip-2)">
    <g clip-path="url(#clip-3)">
      <path fill-rule="nonzero" fill="#b4befe" fill-opacity="1" d="M 48.75 22.875 C 48.75 25.980469 46.230469 28.5 43.125 28.5 C 40.019531 28.5 37.5 25.980469 37.5 22.875 C 37.5 19.769531 40.019531 17.25 43.125 17.25 C 46.230469 17.25 48.75 19.769531 48.75 22.875 Z M 48.75 22.875 "/>
    </g>
  </g>
  <g clip-path="url(#clip-4)">
    <g clip-path="url(#clip-5)">
      <path fill-rule="nonzero" fill="#11111b" fill-opacity="1" d="M 39.226562 12.148438 C 37.949219 12.148438 36.898438 13.199219 36.898438 14.476562 C 36.898438 15.75 37.949219 16.800781 39.226562 16.800781 C 40.5 16.800781 41.550781 15.75 41.550781 14.476562 C 41.550781 13.199219 40.5 12.148438 39.226562 12.148438 Z M 39.226562 13.726562 C 39.675781 13.726562 39.976562 14.101562 39.976562 14.476562 C 39.976562 14.851562 39.601562 15.226562 39.226562 15.226562 C 38.851562 15.226562 38.476562 14.851562 38.476562 14.476562 C 38.476562 14.101562 38.773438 13.726562 39.226562 13.726562 Z M 28.273438 12.148438 C 27 12.148438 25.949219 13.199219 25.949219 14.476562 C 25.949219 15.75 27 16.800781 28.273438 16.800781 C 29.550781 16.800781 30.601562 15.75 30.601562 14.476562 C 30.601562 13.199219 29.550781 12.148438 28.273438 12.148438 Z M 28.273438 13.726562 C 28.726562 13.726562 29.023438 14.101562 29.023438 14.476562 C 29.023438 14.851562 28.648438 15.226562 28.273438 15.226562 C 27.898438 15.226562 27.523438 14.851562 27.523438 14.476562 C 27.523438 14.101562 27.824219 13.726562 28.273438 13.726562 Z M 33.75 11.398438 C 32.023438 11.398438 30.601562 12.824219 30.601562 14.550781 C 30.601562 16.273438 32.023438 17.699219 33.75 17.699219 C 35.476562 17.699219 36.898438 16.273438 36.898438 14.550781 C 36.898438 12.824219 35.476562 11.398438 33.75 11.398438 Z M 33.75 12.976562 C 34.648438 12.976562 35.324219 13.648438 35.324219 14.550781 C 35.324219 15.449219 34.648438 16.125 33.75 16.125 C 32.851562 16.125 32.175781 15.449219 32.175781 14.550781 C 32.175781 13.648438 32.851562 12.976562 33.75 12.976562 Z M 33.75 12.976562 "/>
    </g>
  </g>
</svg>