<?xml version="1.0" encoding="UTF-8" standalone="yes"?>
<svg xmlns="http://www.w3.org/2000/svg" xmlns:xlink="http://www.w3.org/1999/xlink" width="48" height="48" viewBox="0 0 48 48">
  <defs>
    <clipPath id="clip-0">
      <path clip-rule="nonzero" d="M 24 5 L 43 5 L 43 24 L 24 24 Z M 24 5 "/>
    </clipPath>
    <clipPath id="clip-1">
      <path clip-rule="nonzero" d="M 24.75 5.25 L 38.25 5.25 C 40.726562 5.25 42.75 7.273438 42.75 9.75 L 42.75 23.25 L 30.75 23.25 C 27.449219 23.25 24.75 20.550781 24.75 17.25 Z M 24.75 5.25 "/>
    </clipPath>
    <clipPath id="clip-2">
      <path clip-rule="nonzero" d="M 37 17 L 43 17 L 43 24 L 37 24 Z M 37 17 "/>
    </clipPath>
    <clipPath id="clip-3">
      <path clip-rule="nonzero" d="M 24.75 5.25 L 38.25 5.25 C 40.726562 5.25 42.75 7.273438 42.75 9.75 L 42.75 23.25 L 30.75 23.25 C 27.449219 23.25 24.75 20.550781 24.75 17.25 Z M 24.75 5.25 "/>
    </clipPath>
    <clipPath id="clip-4">
      <path clip-rule="nonzero" d="M 28 8 L 40 8 L 40 20 L 28 20 Z M 28 8 "/>
    </clipPath>
    <clipPath id="clip-5">
      <path clip-rule="nonzero" d="M 24.75 5.25 L 38.25 5.25 C 40.726562 5.25 42.75 7.273438 42.75 9.75 L 42.75 23.25 L 30.75 23.25 C 27.449219 23.25 24.75 20.550781 24.75 17.25 Z M 24.75 5.25 "/>
    </clipPath>
  </defs>
  <path fill-rule="nonzero" fill="#11111b" fill-opacity="1" d="M 9.75 5.25 L 38.25 5.25 C 40.726562 5.25 42.75 7.273438 42.75 9.75 L 42.75 38.25 C 42.75 40.726562 40.726562 42.75 38.25 42.75 L 9.75 42.75 C 7.273438 42.75 5.25 40.726562 5.25 38.25 L 5.25 9.75 C 5.25 7.273438 7.273438 5.25 9.75 5.25 Z M 9.75 5.25 "/>
  <g clip-path="url(#clip-0)">
    <g clip-path="url(#clip-1)">
      <path fill-rule="nonzero" fill="#b4befe" fill-opacity="1" d="M 24.75 5.25 L 38.25 5.25 C 40.726562 5.25 42.75 7.273438 42.75 9.75 L 42.75 23.25 L 30.75 23.25 C 27.449219 23.25 24.75 20.550781 24.75 17.25 Z M 24.75 5.25 "/>
    </g>
  </g>
  <g clip-path="url(#clip-2)">
    <g clip-path="url(#clip-3)">
      <path fill-rule="nonzero" fill="#b4befe" fill-opacity="1" d="M 48.75 22.875 C 48.75 25.980469 46.230469 28.5 43.125 28.5 C 40.019531 28.5 37.5 25.980469 37.5 22.875 C 37.5 19.769531 40.019531 17.25 43.125 17.25 C 46.230469 17.25 48.75 19.769531 48.75 22.875 Z M 48.75 22.875 "/>
    </g>
  </g>
  <g clip-path="url(#clip-4)">
    <g clip-path="url(#clip-5)">
      <path fill-rule="nonzero" fill="#11111b" fill-opacity="1" d="M 33.75 8.25 C 30.601562 8.25 28.050781 10.800781 28.050781 13.949219 C 28.050781 16.5 29.699219 18.601562 32.023438 19.351562 L 32.023438 18.375 C 30.601562 18.675781 30.226562 17.773438 30.226562 17.773438 C 30 17.175781 29.625 17.101562 29.625 17.101562 C 29.175781 16.800781 29.625 16.800781 29.625 16.800781 C 30.148438 16.800781 30.449219 17.324219 30.449219 17.324219 C 30.898438 18.148438 31.726562 17.925781 31.949219 17.773438 C 32.023438 17.398438 32.101562 16.875 32.25 16.726562 C 31.125 16.574219 30.226562 15.824219 30.226562 13.875 C 30.226562 13.273438 30.601562 12.523438 30.898438 12.148438 C 30.976562 12 30.75 11.25 31.050781 10.574219 C 31.050781 10.574219 31.050781 10.574219 31.125 10.574219 C 31.273438 10.574219 31.648438 10.800781 32.398438 11.324219 C 32.851562 11.175781 33.375 11.101562 33.75 11.101562 C 34.125 11.101562 34.574219 11.175781 34.949219 11.324219 C 35.699219 10.800781 36.148438 10.574219 36.300781 10.574219 C 36.375 10.574219 36.375 10.574219 36.375 10.574219 C 36.675781 11.324219 36.449219 12.074219 36.449219 12.226562 C 36.75 12.601562 37.125 13.351562 37.125 13.949219 C 37.125 15.976562 35.851562 16.726562 34.648438 16.800781 C 34.800781 16.949219 34.875 17.25 34.875 17.773438 C 34.875 18.375 34.875 18.75 34.875 18.976562 L 34.875 19.5 C 37.351562 18.898438 39.375 16.648438 39.375 14.023438 C 39.449219 10.800781 36.898438 8.25 33.75 8.25 Z M 33.75 8.25 "/>
    </g>
  </g>
</svg>