<?xml version="1.0" encoding="UTF-8" standalone="yes"?>
<svg xmlns="http://www.w3.org/2000/svg" xmlns:xlink="http://www.w3.org/1999/xlink" width="48" height="48" viewBox="0 0 48 48">
  <defs>
    <clipPath id="clip-0">
      <path clip-rule="nonzero" d="M 24 5 L 43 5 L 43 24 L 24 24 Z M 24 5 "/>
    </clipPath>
    <clipPath id="clip-1">
      <path clip-rule="nonzero" d="M 24.75 5.25 L 38.25 5.25 C 40.726562 5.25 42.75 7.273438 42.75 9.75 L 42.75 23.25 L 30.75 23.25 C 27.449219 23.25 24.75 20.550781 24.75 17.25 Z M 24.75 5.25 "/>
    </clipPath>
    <clipPath id="clip-2">
      <path clip-rule="nonzero" d="M 37 17 L 43 17 L 43 24 L 37 24 Z M 37 17 "/>
    </clipPath>
    <clipPath id="clip-3">
      <path clip-rule="nonzero" d="M 24.75 5.25 L 38.25 5.25 C 40.726562 5.25 42.75 7.273438 42.75 9.75 L 42.75 23.25 L 30.75 23.25 C 27.449219 23.25 24.75 20.550781 24.75 17.25 Z M 24.75 5.25 "/>
    </clipPath>
    <clipPath id="clip-4">
      <path clip-rule="nonzero" d="M 28 9 L 39 9 L 39 18 L 28 18 Z M 28 9 "/>
    </clipPath>
    <clipPath id="clip-5">
      <path clip-rule="nonzero" d="M 24.75 5.25 L 38.25 5.25 C 40.726562 5.25 42.75 7.273438 42.75 9.75 L 42.75 23.25 L 30.75 23.25 C 27.449219 23.25 24.75 20.550781 24.75 17.25 Z M 24.75 5.25 "/>
    </clipPath>
  </defs>
  <path fill-rule="nonzero" fill="#11111b" fill-opacity="1" d="M 9.75 5.25 L 38.25 5.25 C 40.726562 5.25 42.75 7.273438 42.75 9.75 L 42.75 38.25 C 42.75 40.726562 40.726562 42.75 38.25 42.75 L 9.75 42.75 C 7.273438 42.75 5.25 40.726562 5.25 38.25 L 5.25 9.75 C 5.25 7.273438 7.273438 5.25 9.75 5.25 Z M 9.75 5.25 "/>
  <g clip-path="url(#clip-0)">
    <g clip-path="url(#clip-1)">
      <path fill-rule="nonzero" fill="#b4befe" fill-opacity="1" d="M 24.75 5.25 L 38.25 5.25 C 40.726562 5.25 42.75 7.273438 42.75 9.75 L 42.75 23.25 L 30.75 23.25 C 27.449219 23.25 24.75 20.550781 24.75 17.25 Z M 24.75 5.25 "/>
    </g>
  </g>
  <g clip-path="url(#clip-2)">
    <g clip-path="url(#clip-3)">
      <path fill-rule="nonzero" fill="#b4befe" fill-opacity="1" d="M 48.75 22.875 C 48.75 25.980469 46.230469 28.5 43.125 28.5 C 40.019531 28.5 37.5 25.980469 37.5 22.875 C 37.5 19.769531 40.019531 17.25 43.125 17.25 C 46.230469 17.25 48.75 19.769531 48.75 22.875 Z M 48.75 22.875 "/>
    </g>
  </g>
  <g clip-path="url(#clip-4)">
    <g clip-path="url(#clip-5)">
      <path fill-rule="nonzero" fill="#11111b" fill-opacity="1" d="M 31.199219 11.398438 C 31.199219 11.398438 31.125 11.398438 31.125 11.398438 C 30.824219 11.550781 30.75 12 30.976562 12.449219 C 31.125 12.824219 31.425781 12.976562 31.726562 12.976562 C 31.949219 14.101562 32.773438 15 33.824219 15 C 34.800781 15 35.699219 14.175781 35.925781 12.976562 C 36.226562 12.976562 36.523438 12.75 36.675781 12.449219 C 36.898438 12 36.824219 11.550781 36.523438 11.398438 C 36.523438 11.398438 36.449219 11.398438 36.449219 11.398438 C 36.375 10.125 35.25 9.148438 33.898438 9.148438 C 32.550781 9.148438 31.273438 10.125 31.199219 11.398438 Z M 35.324219 15.226562 C 35.175781 15.375 35.023438 15.523438 34.800781 15.675781 C 34.5 15.898438 34.125 15.976562 33.75 15.976562 C 33.148438 15.976562 32.625 15.675781 32.25 15.226562 C 30.675781 15.449219 28.949219 15.824219 28.800781 16.199219 C 28.800781 16.199219 28.800781 16.273438 28.800781 16.273438 L 28.800781 17.625 C 28.800781 17.773438 28.875 17.925781 29.023438 17.925781 L 38.398438 17.925781 C 38.550781 17.925781 38.625 17.773438 38.625 17.625 L 38.625 16.273438 C 38.625 16.273438 38.625 16.199219 38.625 16.199219 C 38.550781 15.824219 36.898438 15.523438 35.324219 15.226562 Z M 35.324219 15.226562 "/>
    </g>
  </g>
</svg>