<?xml version="1.0" encoding="UTF-8" standalone="yes"?>
<svg xmlns="http://www.w3.org/2000/svg" xmlns:xlink="http://www.w3.org/1999/xlink" width="48" height="48" viewBox="0 0 48 48">
  <defs>
    <clipPath id="clip-0">
      <path clip-rule="nonzero" d="M 24 5 L 43 5 L 43 24 L 24 24 Z M 24 5 "/>
    </clipPath>
    <clipPath id="clip-1">
      <path clip-rule="nonzero" d="M 24.75 5.25 L 38.25 5.25 C 40.726562 5.25 42.75 7.273438 42.75 9.75 L 42.75 23.25 L 30.75 23.25 C 27.449219 23.25 24.75 20.550781 24.75 17.25 Z M 24.75 5.25 "/>
    </clipPath>
    <clipPath id="clip-2">
      <path clip-rule="nonzero" d="M 37 17 L 43 17 L 43 24 L 37 24 Z M 37 17 "/>
    </clipPath>
    <clipPath id="clip-3">
      <path clip-rule="nonzero" d="M 24.75 5.25 L 38.25 5.25 C 40.726562 5.25 42.75 7.273438 42.75 9.75 L 42.75 23.25 L 30.75 23.25 C 27.449219 23.25 24.75 20.550781 24.75 17.25 Z M 24.75 5.25 "/>
    </clipPath>
    <clipPath id="clip-4">
      <path clip-rule="nonzero" d="M 27 9 L 41 9 L 41 19 L 27 19 Z M 27 9 "/>
    </clipPath>
    <clipPath id="clip-5">
      <path clip-rule="nonzero" d="M 24.75 5.25 L 38.25 5.25 C 40.726562 5.25 42.75 7.273438 42.75 9.75 L 42.75 23.25 L 30.75 23.25 C 27.449219 23.25 24.75 20.550781 24.75 17.25 Z M 24.75 5.25 "/>
    </clipPath>
  </defs>
  <path fill-rule="nonzero" fill="#11111b" fill-opacity="1" d="M 9.75 5.25 L 38.25 5.25 C 40.726562 5.25 42.75 7.273438 42.75 9.75 L 42.75 38.25 C 42.75 40.726562 40.726562 42.75 38.25 42.75 L 9.75 42.75 C 7.273438 42.75 5.25 40.726562 5.25 38.25 L 5.25 9.75 C 5.25 7.273438 7.273438 5.25 9.75 5.25 Z M 9.75 5.25 "/>
  <g clip-path="url(#clip-0)">
    <g clip-path="url(#clip-1)">
      <path fill-rule="nonzero" fill="#b4befe" fill-opacity="1" d="M 24.75 5.25 L 38.25 5.25 C 40.726562 5.25 42.75 7.273438 42.75 9.75 L 42.75 23.25 L 30.75 23.25 C 27.449219 23.25 24.75 20.550781 24.75 17.25 Z M 24.75 5.25 "/>
    </g>
  </g>
  <g clip-path="url(#clip-2)">
    <g clip-path="url(#clip-3)">
      <path fill-rule="nonzero" fill="#b4befe" fill-opacity="1" d="M 48.75 22.875 C 48.75 25.980469 46.230469 28.5 43.125 28.5 C 40.019531 28.5 37.5 25.980469 37.5 22.875 C 37.5 19.769531 40.019531 17.25 43.125 17.25 C 46.230469 17.25 48.75 19.769531 48.75 22.875 Z M 48.75 22.875 "/>
    </g>
  </g>
  <g clip-path="url(#clip-4)">
    <g clip-path="url(#clip-5)">
      <path fill-rule="nonzero" fill="#11111b" fill-opacity="1" d="M 29.699219 9.601562 C 27.375 9.601562 27.375 10.726562 27.375 10.726562 L 27.375 15.375 C 27.375 15.375 27.375 14.25 29.699219 14.25 C 32.023438 14.25 33.148438 16.574219 33.148438 16.574219 L 33.148438 11.925781 C 33.148438 11.925781 32.023438 9.601562 29.699219 9.601562 Z M 37.800781 9.601562 C 35.476562 9.601562 34.351562 11.925781 34.351562 11.925781 L 34.351562 16.574219 C 34.351562 16.574219 35.476562 14.25 37.800781 14.25 C 40.125 14.25 40.125 15.375 40.125 15.375 L 40.125 10.726562 C 40.125 10.800781 40.125 9.601562 37.800781 9.601562 Z M 29.699219 15.375 C 27.375 15.375 27.375 16.5 27.375 16.5 L 27.375 17.625 C 27.375 17.625 27.375 16.5 29.699219 16.5 C 32.023438 16.5 33.148438 18.824219 33.148438 18.824219 L 33.148438 17.699219 C 33.148438 17.699219 32.023438 15.375 29.699219 15.375 Z M 37.800781 15.375 C 35.476562 15.375 34.351562 17.699219 34.351562 17.699219 L 34.351562 18.824219 C 34.351562 18.824219 35.476562 16.5 37.800781 16.5 C 40.125 16.5 40.125 17.625 40.125 17.625 L 40.125 16.5 C 40.125 16.574219 40.125 15.375 37.800781 15.375 Z M 37.800781 15.375 "/>
    </g>
  </g>
</svg>