<?xml version="1.0" encoding="UTF-8" standalone="yes"?>
<svg xmlns="http://www.w3.org/2000/svg" xmlns:xlink="http://www.w3.org/1999/xlink" width="48" height="48" viewBox="0 0 48 48">
  <defs>
    <clipPath id="clip-0">
      <path clip-rule="nonzero" d="M 24 5 L 43 5 L 43 24 L 24 24 Z M 24 5 "/>
    </clipPath>
    <clipPath id="clip-1">
      <path clip-rule="nonzero" d="M 24.75 5.25 L 38.25 5.25 C 40.726562 5.25 42.75 7.273438 42.75 9.75 L 42.75 23.25 L 30.75 23.25 C 27.449219 23.25 24.75 20.550781 24.75 17.25 Z M 24.75 5.25 "/>
    </clipPath>
    <clipPath id="clip-2">
      <path clip-rule="nonzero" d="M 37 17 L 43 17 L 43 24 L 37 24 Z M 37 17 "/>
    </clipPath>
    <clipPath id="clip-3">
      <path clip-rule="nonzero" d="M 24.75 5.25 L 38.25 5.25 C 40.726562 5.25 42.75 7.273438 42.75 9.75 L 42.75 23.25 L 30.75 23.25 C 27.449219 23.25 24.75 20.550781 24.75 17.25 Z M 24.75 5.25 "/>
    </clipPath>
    <clipPath id="clip-4">
      <path clip-rule="nonzero" d="M 26 9 L 41 9 L 41 19 L 26 19 Z M 26 9 "/>
    </clipPath>
    <clipPath id="clip-5">
      <path clip-rule="nonzero" d="M 24.75 5.25 L 38.25 5.25 C 40.726562 5.25 42.75 7.273438 42.75 9.75 L 42.75 23.25 L 30.75 23.25 C 27.449219 23.25 24.75 20.550781 24.75 17.25 Z M 24.75 5.25 "/>
    </clipPath>
  </defs>
  <path fill-rule="nonzero" fill="#11111b" fill-opacity="1" d="M 9.75 5.25 L 38.25 5.25 C 40.726562 5.25 42.75 7.273438 42.75 9.75 L 42.75 38.25 C 42.75 40.726562 40.726562 42.75 38.25 42.75 L 9.75 42.75 C 7.273438 42.75 5.25 40.726562 5.25 38.25 L 5.25 9.75 C 5.25 7.273438 7.273438 5.25 9.75 5.25 Z M 9.75 5.25 "/>
  <g clip-path="url(#clip-0)">
    <g clip-path="url(#clip-1)">
      <path fill-rule="nonzero" fill="#b4befe" fill-opacity="1" d="M 24.75 5.25 L 38.25 5.25 C 40.726562 5.25 42.75 7.273438 42.75 9.75 L 42.75 23.25 L 30.75 23.25 C 27.449219 23.25 24.75 20.550781 24.75 17.25 Z M 24.75 5.25 "/>
    </g>
  </g>
  <g clip-path="url(#clip-2)">
    <g clip-path="url(#clip-3)">
      <path fill-rule="nonzero" fill="#b4befe" fill-opacity="1" d="M 48.75 22.875 C 48.75 25.980469 46.230469 28.5 43.125 28.5 C 40.019531 28.5 37.5 25.980469 37.5 22.875 C 37.5 19.769531 40.019531 17.25 43.125 17.25 C 46.230469 17.25 48.75 19.769531 48.75 22.875 Z M 48.75 22.875 "/>
    </g>
  </g>
  <g clip-path="url(#clip-4)">
    <g clip-path="url(#clip-5)">
      <path fill-rule="nonzero" fill="#11111b" fill-opacity="1" d="M 35.175781 9.148438 C 33.75 9.148438 32.476562 9.898438 31.875 11.175781 C 31.574219 11.023438 31.273438 11.023438 30.976562 11.023438 C 29.773438 11.023438 28.800781 11.851562 28.648438 13.050781 C 27.523438 13.425781 26.773438 14.476562 26.773438 15.675781 C 26.773438 17.25 28.050781 18.449219 29.550781 18.449219 L 37.949219 18.449219 C 39.523438 18.449219 40.726562 17.175781 40.726562 15.675781 C 40.726562 14.476562 39.976562 13.425781 38.851562 13.050781 C 38.851562 12.976562 38.851562 12.976562 38.851562 12.898438 C 38.851562 10.875 37.199219 9.148438 35.175781 9.148438 Z M 35.175781 11.476562 C 36 11.476562 36.601562 12.074219 36.601562 12.898438 C 36.523438 13.949219 37.199219 14.925781 38.175781 15.226562 C 38.398438 15.300781 38.476562 15.449219 38.476562 15.675781 C 38.476562 15.976562 38.324219 16.125 38.023438 16.125 L 29.550781 16.125 C 29.25 16.125 29.101562 15.976562 29.101562 15.675781 C 29.101562 15.449219 29.25 15.300781 29.398438 15.226562 C 30.226562 14.925781 30.824219 14.175781 30.976562 13.351562 C 32.101562 13.800781 33.375 13.351562 33.898438 12.226562 C 34.125 11.773438 34.648438 11.476562 35.175781 11.476562 Z M 35.175781 11.476562 "/>
    </g>
  </g>
</svg>