<?xml version="1.0" encoding="UTF-8" standalone="yes"?>
<svg xmlns="http://www.w3.org/2000/svg" xmlns:xlink="http://www.w3.org/1999/xlink" width="48" height="48" viewBox="0 0 48 48">
  <defs>
    <clipPath id="clip-0">
      <path clip-rule="nonzero" d="M 24 5 L 43 5 L 43 24 L 24 24 Z M 24 5 "/>
    </clipPath>
    <clipPath id="clip-1">
      <path clip-rule="nonzero" d="M 24.75 5.25 L 38.25 5.25 C 40.726562 5.25 42.75 7.273438 42.75 9.75 L 42.75 23.25 L 30.75 23.25 C 27.449219 23.25 24.75 20.550781 24.75 17.25 Z M 24.75 5.25 "/>
    </clipPath>
    <clipPath id="clip-2">
      <path clip-rule="nonzero" d="M 37 17 L 43 17 L 43 24 L 37 24 Z M 37 17 "/>
    </clipPath>
    <clipPath id="clip-3">
      <path clip-rule="nonzero" d="M 24.75 5.25 L 38.25 5.25 C 40.726562 5.25 42.75 7.273438 42.75 9.75 L 42.75 23.25 L 30.75 23.25 C 27.449219 23.25 24.75 20.550781 24.75 17.25 Z M 24.75 5.25 "/>
    </clipPath>
    <clipPath id="clip-4">
      <path clip-rule="nonzero" d="M 28 9 L 40 9 L 40 20 L 28 20 Z M 28 9 "/>
    </clipPath>
    <clipPath id="clip-5">
      <path clip-rule="nonzero" d="M 24.75 5.25 L 38.25 5.25 C 40.726562 5.25 42.75 7.273438 42.75 9.75 L 42.75 23.25 L 30.75 23.25 C 27.449219 23.25 24.75 20.550781 24.75 17.25 Z M 24.75 5.25 "/>
    </clipPath>
  </defs>
  <path fill-rule="nonzero" fill="#11111b" fill-opacity="1" d="M 9.75 5.25 L 38.25 5.25 C 40.726562 5.25 42.75 7.273438 42.75 9.75 L 42.75 38.25 C 42.75 40.726562 40.726562 42.75 38.25 42.75 L 9.75 42.75 C 7.273438 42.75 5.25 40.726562 5.25 38.25 L 5.25 9.75 C 5.25 7.273438 7.273438 5.25 9.75 5.25 Z M 9.75 5.25 "/>
  <g clip-path="url(#clip-0)">
    <g clip-path="url(#clip-1)">
      <path fill-rule="nonzero" fill="#b4befe" fill-opacity="1" d="M 24.75 5.25 L 38.25 5.25 C 40.726562 5.25 42.75 7.273438 42.75 9.75 L 42.75 23.25 L 30.75 23.25 C 27.449219 23.25 24.75 20.550781 24.75 17.25 Z M 24.75 5.25 "/>
    </g>
  </g>
  <g clip-path="url(#clip-2)">
    <g clip-path="url(#clip-3)">
      <path fill-rule="nonzero" fill="#b4befe" fill-opacity="1" d="M 48.75 22.875 C 48.75 25.980469 46.230469 28.5 43.125 28.5 C 40.019531 28.5 37.5 25.980469 37.5 22.875 C 37.5 19.769531 40.019531 17.25 43.125 17.25 C 46.230469 17.25 48.75 19.769531 48.75 22.875 Z M 48.75 22.875 "/>
    </g>
  </g>
  <g clip-path="url(#clip-4)">
    <g clip-path="url(#clip-5)">
      <path fill-rule="nonzero" fill="#11111b" fill-opacity="1" d="M 34.5 9.074219 C 34.050781 9.074219 33.601562 9.074219 33.148438 9.226562 C 30.75 9.75 29.101562 11.851562 29.101562 14.324219 L 28.050781 14.324219 L 29.625 15.898438 L 31.199219 14.324219 L 30.148438 14.324219 C 30.148438 12.375 31.5 10.726562 33.375 10.273438 C 35.25 9.824219 37.199219 10.800781 38.023438 12.601562 C 38.851562 14.398438 38.324219 16.5 36.75 17.625 C 35.175781 18.824219 33 18.75 31.574219 17.476562 C 31.050781 17.023438 30.375 17.851562 30.898438 18.300781 C 32.773438 19.875 35.476562 19.949219 37.425781 18.523438 C 39.375 17.023438 40.050781 14.398438 39 12.226562 C 38.25 10.574219 36.675781 9.449219 34.949219 9.226562 C 34.800781 9.074219 34.648438 9.074219 34.5 9.074219 Z M 34.273438 11.101562 C 33.976562 11.101562 33.75 11.324219 33.75 11.625 L 33.75 14.175781 C 33.75 14.25 33.75 14.324219 33.75 14.398438 C 33.75 14.398438 33.75 14.398438 33.75 14.476562 C 33.75 14.550781 33.824219 14.625 33.824219 14.625 L 35.324219 16.648438 C 35.476562 16.875 35.851562 16.949219 36.074219 16.726562 C 36.300781 16.574219 36.375 16.199219 36.148438 15.976562 L 34.726562 14.023438 L 34.726562 11.625 C 34.800781 11.398438 34.574219 11.101562 34.273438 11.101562 Z M 34.273438 11.101562 "/>
    </g>
  </g>
</svg>