<?xml version="1.0" encoding="UTF-8" standalone="yes"?>
<svg xmlns="http://www.w3.org/2000/svg" xmlns:xlink="http://www.w3.org/1999/xlink" width="48" height="48" viewBox="0 0 48 48">
  <defs>
    <clipPath id="clip-0">
      <path clip-rule="nonzero" d="M 24 5 L 43 5 L 43 24 L 24 24 Z M 24 5 "/>
    </clipPath>
    <clipPath id="clip-1">
      <path clip-rule="nonzero" d="M 24.75 5.25 L 38.25 5.25 C 40.726562 5.25 42.75 7.273438 42.75 9.75 L 42.75 23.25 L 30.75 23.25 C 27.449219 23.25 24.75 20.550781 24.75 17.25 Z M 24.75 5.25 "/>
    </clipPath>
    <clipPath id="clip-2">
      <path clip-rule="nonzero" d="M 37 17 L 43 17 L 43 24 L 37 24 Z M 37 17 "/>
    </clipPath>
    <clipPath id="clip-3">
      <path clip-rule="nonzero" d="M 24.75 5.25 L 38.25 5.25 C 40.726562 5.25 42.75 7.273438 42.75 9.75 L 42.75 23.25 L 30.75 23.25 C 27.449219 23.25 24.75 20.550781 24.75 17.25 Z M 24.75 5.25 "/>
    </clipPath>
    <clipPath id="clip-4">
      <path clip-rule="nonzero" d="M 29 8 L 39 8 L 39 20 L 29 20 Z M 29 8 "/>
    </clipPath>
    <clipPath id="clip-5">
      <path clip-rule="nonzero" d="M 24.75 5.25 L 38.25 5.25 C 40.726562 5.25 42.75 7.273438 42.75 9.75 L 42.75 23.25 L 30.75 23.25 C 27.449219 23.25 24.75 20.550781 24.75 17.25 Z M 24.75 5.25 "/>
    </clipPath>
  </defs>
  <path fill-rule="nonzero" fill="#11111b" fill-opacity="1" d="M 9.75 5.25 L 38.25 5.25 C 40.726562 5.25 42.75 7.273438 42.75 9.75 L 42.75 38.25 C 42.75 40.726562 40.726562 42.75 38.25 42.75 L 9.75 42.75 C 7.273438 42.75 5.25 40.726562 5.25 38.25 L 5.25 9.75 C 5.25 7.273438 7.273438 5.25 9.75 5.25 Z M 9.75 5.25 "/>
  <g clip-path="url(#clip-0)">
    <g clip-path="url(#clip-1)">
      <path fill-rule="nonzero" fill="#b4befe" fill-opacity="1" d="M 24.75 5.25 L 38.25 5.25 C 40.726562 5.25 42.75 7.273438 42.75 9.75 L 42.75 23.25 L 30.75 23.25 C 27.449219 23.25 24.75 20.550781 24.75 17.25 Z M 24.75 5.25 "/>
    </g>
  </g>
  <g clip-path="url(#clip-2)">
    <g clip-path="url(#clip-3)">
      <path fill-rule="nonzero" fill="#b4befe" fill-opacity="1" d="M 48.75 22.875 C 48.75 25.980469 46.230469 28.5 43.125 28.5 C 40.019531 28.5 37.5 25.980469 37.5 22.875 C 37.5 19.769531 40.019531 17.25 43.125 17.25 C 46.230469 17.25 48.75 19.769531 48.75 22.875 Z M 48.75 22.875 "/>
    </g>
  </g>
  <g clip-path="url(#clip-4)">
    <g clip-path="url(#clip-5)">
      <path fill-rule="nonzero" fill="#11111b" fill-opacity="1" d="M 36.074219 8.476562 C 35.550781 8.476562 34.875 8.773438 34.5 9.148438 C 34.125 9.523438 33.824219 10.050781 33.898438 10.574219 C 34.5 10.648438 35.101562 10.273438 35.476562 9.898438 C 35.851562 9.601562 36.148438 9 36.074219 8.476562 Z M 35.699219 10.648438 C 35.023438 10.726562 34.351562 11.175781 33.976562 11.175781 C 33.523438 11.175781 32.925781 10.648438 32.25 10.648438 C 31.351562 10.648438 30.523438 11.175781 30.074219 12.074219 C 29.175781 13.800781 29.851562 16.425781 30.75 17.773438 C 31.199219 18.449219 31.726562 19.199219 32.398438 19.199219 C 33.074219 19.199219 33.300781 18.75 34.125 18.75 C 34.949219 18.75 35.175781 19.199219 35.851562 19.199219 C 36.601562 19.199219 37.050781 18.449219 37.5 17.773438 C 38.023438 16.949219 38.25 16.199219 38.25 16.125 C 38.25 16.125 36.824219 15.523438 36.824219 13.800781 C 36.824219 12.375 37.949219 11.699219 37.949219 11.625 C 37.351562 10.648438 36.375 10.5 36 10.5 C 35.925781 10.648438 35.773438 10.648438 35.699219 10.648438 Z M 35.699219 10.648438 "/>
    </g>
  </g>
</svg>