<?xml version="1.0" encoding="UTF-8" standalone="yes"?>
<svg xmlns="http://www.w3.org/2000/svg" xmlns:xlink="http://www.w3.org/1999/xlink" width="48" height="48" viewBox="0 0 48 48">
  <defs>
    <clipPath id="clip-0">
      <path clip-rule="nonzero" d="M 24 5 L 43 5 L 43 24 L 24 24 Z M 24 5 "/>
    </clipPath>
    <clipPath id="clip-1">
      <path clip-rule="nonzero" d="M 24.75 5.25 L 38.25 5.25 C 40.726562 5.25 42.75 7.273438 42.75 9.75 L 42.75 23.25 L 30.75 23.25 C 27.449219 23.25 24.75 20.550781 24.75 17.25 Z M 24.75 5.25 "/>
    </clipPath>
    <clipPath id="clip-2">
      <path clip-rule="nonzero" d="M 37 17 L 43 17 L 43 24 L 37 24 Z M 37 17 "/>
    </clipPath>
    <clipPath id="clip-3">
      <path clip-rule="nonzero" d="M 24.75 5.25 L 38.25 5.25 C 40.726562 5.25 42.75 7.273438 42.75 9.75 L 42.75 23.25 L 30.75 23.25 C 27.449219 23.25 24.75 20.550781 24.75 17.25 Z M 24.75 5.25 "/>
    </clipPath>
    <clipPath id="clip-4">
      <path clip-rule="nonzero" d="M 28 7 L 40 7 L 40 19 L 28 19 Z M 28 7 "/>
    </clipPath>
    <clipPath id="clip-5">
      <path clip-rule="nonzero" d="M 24.75 5.25 L 38.25 5.25 C 40.726562 5.25 42.75 7.273438 42.75 9.75 L 42.75 23.25 L 30.75 23.25 C 27.449219 23.25 24.75 20.550781 24.75 17.25 Z M 24.75 5.25 "/>
    </clipPath>
  </defs>
  <path fill-rule="nonzero" fill="#11111b" fill-opacity="1" d="M 9.75 5.25 L 38.25 5.25 C 40.726562 5.25 42.75 7.273438 42.75 9.75 L 42.75 38.25 C 42.75 40.726562 40.726562 42.75 38.25 42.75 L 9.75 42.75 C 7.273438 42.75 5.25 40.726562 5.25 38.25 L 5.25 9.75 C 5.25 7.273438 7.273438 5.25 9.75 5.25 Z M 9.75 5.25 "/>
  <g clip-path="url(#clip-0)">
    <g clip-path="url(#clip-1)">
      <path fill-rule="nonzero" fill="#b4befe" fill-opacity="1" d="M 24.75 5.25 L 38.25 5.25 C 40.726562 5.25 42.75 7.273438 42.75 9.75 L 42.75 23.25 L 30.75 23.25 C 27.449219 23.25 24.75 20.550781 24.75 17.25 Z M 24.75 5.25 "/>
    </g>
  </g>
  <g clip-path="url(#clip-2)">
    <g clip-path="url(#clip-3)">
      <path fill-rule="nonzero" fill="#b4befe" fill-opacity="1" d="M 48.75 22.875 C 48.75 25.980469 46.230469 28.5 43.125 28.5 C 40.019531 28.5 37.5 25.980469 37.5 22.875 C 37.5 19.769531 40.019531 17.25 43.125 17.25 C 46.230469 17.25 48.75 19.769531 48.75 22.875 Z M 48.75 22.875 "/>
    </g>
  </g>
  <g clip-path="url(#clip-4)">
    <g clip-path="url(#clip-5)">
      <path fill-rule="nonzero" fill="#11111b" fill-opacity="1" d="M 35.625 7.726562 C 35.398438 7.800781 35.175781 7.949219 34.949219 8.101562 C 34.050781 8.851562 34.199219 10.425781 35.101562 11.175781 C 35.25 11.324219 35.398438 11.398438 35.625 11.476562 L 35.625 13.050781 C 36.375 13.425781 36.675781 13.574219 37.273438 14.101562 C 37.648438 14.550781 37.648438 14.550781 37.800781 14.851562 L 37.800781 11.398438 C 38.023438 11.324219 38.25 11.25 38.398438 11.101562 C 39.375 10.351562 39.300781 8.851562 38.398438 8.101562 C 38.175781 7.949219 37.949219 7.800781 37.726562 7.726562 L 37.726562 9.300781 C 37.726562 9.824219 37.726562 10.351562 37.199219 10.351562 L 36.148438 10.351562 C 35.625 10.351562 35.625 9.824219 35.625 9.300781 Z M 33.75 13.125 C 30.824219 13.125 29.699219 15.375 29.699219 17.398438 L 28.273438 17.398438 C 28.125 17.398438 28.125 17.550781 28.125 17.550781 L 28.125 18.824219 C 28.125 18.976562 28.273438 18.976562 28.273438 18.976562 L 39.226562 18.976562 C 39.226562 18.976562 39.375 18.976562 39.375 18.824219 L 39.375 17.550781 C 39.375 17.550781 39.375 17.398438 39.226562 17.398438 L 37.800781 17.398438 C 37.800781 15.375 36.675781 13.125 33.75 13.125 Z M 33.75 15.226562 C 35.625 15.226562 36.148438 16.5 36.148438 17.324219 L 31.351562 17.324219 C 31.351562 16.574219 31.875 15.300781 33.75 15.226562 Z M 33.75 15.226562 "/>
    </g>
  </g>
</svg>