<?xml version="1.0" encoding="UTF-8" standalone="yes"?>
<svg xmlns="http://www.w3.org/2000/svg" xmlns:xlink="http://www.w3.org/1999/xlink" width="48" height="48" viewBox="0 0 48 48">
  <defs>
    <clipPath id="clip-0">
      <path clip-rule="nonzero" d="M 24 5 L 43 5 L 43 24 L 24 24 Z M 24 5 "/>
    </clipPath>
    <clipPath id="clip-1">
      <path clip-rule="nonzero" d="M 24.75 5.25 L 38.25 5.25 C 40.726562 5.25 42.75 7.273438 42.75 9.75 L 42.75 23.25 L 30.75 23.25 C 27.449219 23.25 24.75 20.550781 24.75 17.25 Z M 24.75 5.25 "/>
    </clipPath>
    <clipPath id="clip-2">
      <path clip-rule="nonzero" d="M 37 17 L 43 17 L 43 24 L 37 24 Z M 37 17 "/>
    </clipPath>
    <clipPath id="clip-3">
      <path clip-rule="nonzero" d="M 24.75 5.25 L 38.25 5.25 C 40.726562 5.25 42.75 7.273438 42.75 9.75 L 42.75 23.25 L 30.75 23.25 C 27.449219 23.25 24.75 20.550781 24.75 17.25 Z M 24.75 5.25 "/>
    </clipPath>
    <clipPath id="clip-4">
      <path clip-rule="nonzero" d="M 27 7 L 39 7 L 39 20 L 27 20 Z M 27 7 "/>
    </clipPath>
    <clipPath id="clip-5">
      <path clip-rule="nonzero" d="M 24.75 5.25 L 38.25 5.25 C 40.726562 5.25 42.75 7.273438 42.75 9.75 L 42.75 23.25 L 30.75 23.25 C 27.449219 23.25 24.75 20.550781 24.75 17.25 Z M 24.75 5.25 "/>
    </clipPath>
  </defs>
  <path fill-rule="nonzero" fill="#11111b" fill-opacity="1" d="M 9.75 5.25 L 38.25 5.25 C 40.726562 5.25 42.75 7.273438 42.75 9.75 L 42.75 38.25 C 42.75 40.726562 40.726562 42.75 38.25 42.75 L 9.75 42.75 C 7.273438 42.75 5.25 40.726562 5.25 38.25 L 5.25 9.75 C 5.25 7.273438 7.273438 5.25 9.75 5.25 Z M 9.75 5.25 "/>
  <g clip-path="url(#clip-0)">
    <g clip-path="url(#clip-1)">
      <path fill-rule="nonzero" fill="#b4befe" fill-opacity="1" d="M 24.75 5.25 L 38.25 5.25 C 40.726562 5.25 42.75 7.273438 42.75 9.75 L 42.75 23.25 L 30.75 23.25 C 27.449219 23.25 24.75 20.550781 24.75 17.25 Z M 24.75 5.25 "/>
    </g>
  </g>
  <g clip-path="url(#clip-2)">
    <g clip-path="url(#clip-3)">
      <path fill-rule="nonzero" fill="#b4befe" fill-opacity="1" d="M 48.75 22.875 C 48.75 25.980469 46.230469 28.5 43.125 28.5 C 40.019531 28.5 37.5 25.980469 37.5 22.875 C 37.5 19.769531 40.019531 17.25 43.125 17.25 C 46.230469 17.25 48.75 19.769531 48.75 22.875 Z M 48.75 22.875 "/>
    </g>
  </g>
  <g clip-path="url(#clip-4)">
    <g clip-path="url(#clip-5)">
      <path fill-rule="nonzero" fill="#11111b" fill-opacity="1" d="M 33.074219 7.800781 C 29.773438 7.800781 27.148438 10.425781 27.148438 13.726562 C 27.148438 17.023438 29.773438 19.648438 33.074219 19.648438 L 36.75 19.648438 C 36.75 19.648438 37.425781 19.351562 37.5 18.601562 C 37.5 17.851562 36.75 17.699219 36.75 17.699219 L 33.074219 17.699219 C 32.851562 17.699219 32.699219 17.699219 32.476562 17.625 C 31.800781 17.550781 31.273438 17.324219 30.824219 16.949219 C 29.773438 16.199219 29.101562 15 29.101562 13.726562 C 29.101562 11.550781 30.898438 9.75 33.074219 9.75 C 35.25 9.75 37.050781 11.550781 37.050781 13.726562 C 37.050781 14.175781 36.976562 14.476562 36.824219 14.699219 L 35.925781 14.699219 C 36 14.398438 36.074219 14.023438 36.074219 13.726562 C 36.074219 12.074219 34.726562 10.800781 33.148438 10.800781 C 31.5 10.800781 30.226562 12.148438 30.226562 13.726562 C 30.226562 15.300781 31.574219 16.648438 33.148438 16.648438 L 36.75 16.648438 C 37.273438 16.574219 37.648438 16.273438 38.023438 16.050781 C 38.773438 15.523438 39 14.773438 39 13.648438 C 39 10.425781 36.375 7.800781 33.074219 7.800781 Z M 33.074219 12.75 C 33.601562 12.75 34.050781 13.199219 34.050781 13.726562 C 34.050781 14.25 33.601562 14.699219 33.074219 14.699219 C 32.550781 14.699219 32.101562 14.25 32.101562 13.726562 C 32.101562 13.199219 32.550781 12.75 33.074219 12.75 Z M 33.074219 12.75 "/>
    </g>
  </g>
</svg>