<?xml version="1.0" encoding="UTF-8" standalone="yes"?>
<svg xmlns="http://www.w3.org/2000/svg" xmlns:xlink="http://www.w3.org/1999/xlink" width="48" height="48" viewBox="0 0 48 48">
  <defs>
    <clipPath id="clip-0">
      <path clip-rule="nonzero" d="M 24 5 L 43 5 L 43 24 L 24 24 Z M 24 5 "/>
    </clipPath>
    <clipPath id="clip-1">
      <path clip-rule="nonzero" d="M 24.75 5.25 L 38.25 5.25 C 40.726562 5.25 42.75 7.273438 42.75 9.75 L 42.75 23.25 L 30.75 23.25 C 27.449219 23.25 24.75 20.550781 24.75 17.25 Z M 24.75 5.25 "/>
    </clipPath>
    <clipPath id="clip-2">
      <path clip-rule="nonzero" d="M 37 17 L 43 17 L 43 24 L 37 24 Z M 37 17 "/>
    </clipPath>
    <clipPath id="clip-3">
      <path clip-rule="nonzero" d="M 24.75 5.25 L 38.25 5.25 C 40.726562 5.25 42.75 7.273438 42.75 9.75 L 42.75 23.25 L 30.75 23.25 C 27.449219 23.25 24.75 20.550781 24.75 17.25 Z M 24.75 5.25 "/>
    </clipPath>
    <clipPath id="clip-4">
      <path clip-rule="nonzero" d="M 27 8 L 41 8 L 41 21 L 27 21 Z M 27 8 "/>
    </clipPath>
    <clipPath id="clip-5">
      <path clip-rule="nonzero" d="M 24.75 5.25 L 38.25 5.25 C 40.726562 5.25 42.75 7.273438 42.75 9.75 L 42.75 23.25 L 30.75 23.25 C 27.449219 23.25 24.75 20.550781 24.75 17.25 Z M 24.75 5.25 "/>
    </clipPath>
  </defs>
  <path fill-rule="nonzero" fill="#11111b" fill-opacity="1" d="M 9.75 5.25 L 38.25 5.25 C 40.726562 5.25 42.75 7.273438 42.75 9.75 L 42.75 38.25 C 42.75 40.726562 40.726562 42.75 38.25 42.75 L 9.75 42.75 C 7.273438 42.75 5.25 40.726562 5.25 38.25 L 5.25 9.75 C 5.25 7.273438 7.273438 5.25 9.75 5.25 Z M 9.75 5.25 "/>
  <g clip-path="url(#clip-0)">
    <g clip-path="url(#clip-1)">
      <path fill-rule="nonzero" fill="#b4befe" fill-opacity="1" d="M 24.75 5.25 L 38.25 5.25 C 40.726562 5.25 42.75 7.273438 42.75 9.75 L 42.75 23.25 L 30.75 23.25 C 27.449219 23.25 24.75 20.550781 24.75 17.25 Z M 24.75 5.25 "/>
    </g>
  </g>
  <g clip-path="url(#clip-2)">
    <g clip-path="url(#clip-3)">
      <path fill-rule="nonzero" fill="#b4befe" fill-opacity="1" d="M 48.75 22.875 C 48.75 25.980469 46.230469 28.5 43.125 28.5 C 40.019531 28.5 37.5 25.980469 37.5 22.875 C 37.5 19.769531 40.019531 17.25 43.125 17.25 C 46.230469 17.25 48.75 19.769531 48.75 22.875 Z M 48.75 22.875 "/>
    </g>
  </g>
  <g clip-path="url(#clip-4)">
    <g clip-path="url(#clip-5)">
      <path fill-rule="nonzero" fill="#11111b" fill-opacity="1" d="M 34.050781 8.023438 C 30.601562 8.023438 27.824219 10.800781 27.824219 14.25 C 27.824219 17.699219 30.601562 20.476562 34.050781 20.476562 C 37.5 20.476562 40.273438 17.699219 40.273438 14.25 C 40.273438 10.800781 37.5 8.023438 34.050781 8.023438 Z M 33.675781 9.75 C 33.75 9.75 33.824219 9.75 33.898438 9.75 C 33.898438 9.75 33.824219 9.898438 33.824219 10.050781 C 33.375 11.023438 33.375 12.074219 33.75 12.675781 C 33.824219 12.75 33.898438 12.898438 33.898438 12.898438 C 33.898438 12.898438 33.824219 12.898438 33.75 12.898438 C 33.523438 12.898438 33.375 12.75 32.925781 12.449219 C 32.773438 12.300781 32.550781 12.226562 32.398438 12.148438 C 32.25 12.148438 32.25 12.148438 32.023438 12.300781 C 31.875 12.449219 31.800781 12.523438 31.800781 12.75 C 31.800781 13.351562 32.476562 13.800781 33.824219 14.101562 C 35.625 14.476562 36 14.773438 36.074219 15.75 C 36.148438 16.949219 35.550781 17.773438 34.125 18.449219 C 33.976562 18.523438 33.824219 18.601562 33.824219 18.601562 C 33.824219 18.601562 33.75 18.601562 33.75 18.601562 C 33.75 18.601562 33.75 18.449219 33.75 18.300781 C 33.75 17.699219 33.523438 17.023438 33.148438 16.648438 C 33.074219 16.574219 32.773438 16.351562 32.550781 16.199219 C 32.324219 16.050781 32.101562 15.898438 32.023438 15.824219 C 31.949219 15.675781 31.949219 15.601562 32.023438 15.375 C 32.175781 15 32.324219 14.773438 32.550781 14.476562 C 32.699219 14.324219 32.851562 14.25 32.851562 14.25 C 32.851562 14.25 32.625 14.175781 32.324219 14.101562 C 32.023438 14.023438 31.5 13.875 31.273438 13.800781 C 30.824219 13.648438 30.148438 13.273438 29.925781 13.050781 C 30.300781 11.699219 31.199219 10.574219 32.550781 10.050781 C 32.851562 9.898438 33.074219 9.824219 33.375 9.824219 C 33.375 9.75 33.523438 9.75 33.675781 9.75 Z M 37.800781 11.851562 C 37.875 11.925781 38.324219 12.75 38.398438 13.199219 C 38.550781 13.726562 38.550781 14.699219 38.398438 15.226562 C 38.324219 15.449219 38.25 15.601562 38.25 15.675781 C 38.25 15.675781 38.175781 15.523438 38.023438 15.375 C 37.949219 15.226562 37.648438 14.851562 37.351562 14.625 C 36.601562 13.875 36.523438 13.5 36.824219 12.898438 C 37.050781 12.449219 37.726562 11.773438 37.800781 11.851562 Z M 37.800781 11.851562 "/>
    </g>
  </g>
</svg>