<svg width="48" height="48" viewBox="0 0 48 48" fill="none" xmlns="http://www.w3.org/2000/svg">
<rect x="7" y="6" width="35" height="35" rx="5" fill="#11111b"/>
<g clip-path="url(#clip0)">
<path d="M25.2 6H37C39.7614 6 42 8.23858 42 11V22.8H31.2C27.8863 22.8 25.2 20.1137 25.2 16.8V6Z" fill="#CE9EF9"/>
<g filter="url(#filter0_d)">
<ellipse cx="42.35" cy="22.45" rx="5.25" ry="5.25" fill="#CE9EF9"/>
</g>
<path d="M29.2 11.6C29.2 11.2817 29.3264 10.9765 29.5515 10.7515C29.7765 10.5264 30.0818 10.4 30.4 10.4H33.4L34.6 11.6H37.6C37.9183 11.6 38.2235 11.7264 38.4485 11.9515C38.6736 12.1765 38.8 12.4817 38.8 12.8V16.4C38.8 16.7183 38.6736 17.0235 38.4485 17.2485C38.2235 17.4736 37.9183 17.6 37.6 17.6H30.4C30.0818 17.6 29.7765 17.4736 29.5515 17.2485C29.3264 17.0235 29.2 16.7183 29.2 16.4V11.6Z" fill="#11111b"/>
</g>
<defs>
<filter id="filter0_d" x="21.1" y="5.2" width="42.5" height="42.5" filterUnits="userSpaceOnUse" color-interpolation-filters="sRGB">
<feFlood flood-opacity="0" result="BackgroundImageFix"/>
<feColorMatrix in="SourceAlpha" type="matrix" values="0 0 0 0 0 0 0 0 0 0 0 0 0 0 0 0 0 0 127 0" result="hardAlpha"/>
<feOffset dy="4"/>
<feGaussianBlur stdDeviation="8"/>
<feComposite in2="hardAlpha" operator="out"/>
<feColorMatrix type="matrix" values="0 0 0 0 0 0 0 0 0 0 0 0 0 0 0 0 0 0 0.3 0"/>
<feBlend mode="normal" in2="BackgroundImageFix" result="effect1_dropShadow"/>
<feBlend mode="normal" in="SourceGraphic" in2="effect1_dropShadow" result="shape"/>
</filter>
<clipPath id="clip0">
<path d="M25.2 6H37C39.7614 6 42 8.23858 42 11V22.8H31.2C27.8863 22.8 25.2 20.1137 25.2 16.8V6Z" fill="white"/>
</clipPath>
</defs>
</svg>
