<?xml version="1.0" encoding="UTF-8" standalone="yes"?>
<svg xmlns="http://www.w3.org/2000/svg" xmlns:xlink="http://www.w3.org/1999/xlink" width="48" height="48" viewBox="0 0 48 48">
  <defs>
    <clipPath id="clip-0">
      <path clip-rule="nonzero" d="M 24 5 L 43 5 L 43 24 L 24 24 Z M 24 5 "/>
    </clipPath>
    <clipPath id="clip-1">
      <path clip-rule="nonzero" d="M 24.75 5.25 L 38.25 5.25 C 40.726562 5.25 42.75 7.273438 42.75 9.75 L 42.75 23.25 L 30.75 23.25 C 27.449219 23.25 24.75 20.550781 24.75 17.25 Z M 24.75 5.25 "/>
    </clipPath>
    <clipPath id="clip-2">
      <path clip-rule="nonzero" d="M 37 17 L 43 17 L 43 24 L 37 24 Z M 37 17 "/>
    </clipPath>
    <clipPath id="clip-3">
      <path clip-rule="nonzero" d="M 24.75 5.25 L 38.25 5.25 C 40.726562 5.25 42.75 7.273438 42.75 9.75 L 42.75 23.25 L 30.75 23.25 C 27.449219 23.25 24.75 20.550781 24.75 17.25 Z M 24.75 5.25 "/>
    </clipPath>
    <clipPath id="clip-4">
      <path clip-rule="nonzero" d="M 29 8 L 39 8 L 39 21 L 29 21 Z M 29 8 "/>
    </clipPath>
    <clipPath id="clip-5">
      <path clip-rule="nonzero" d="M 24.75 5.25 L 38.25 5.25 C 40.726562 5.25 42.75 7.273438 42.75 9.75 L 42.75 23.25 L 30.75 23.25 C 27.449219 23.25 24.75 20.550781 24.75 17.25 Z M 24.75 5.25 "/>
    </clipPath>
  </defs>
  <path fill-rule="nonzero" fill="#11111b" fill-opacity="1" d="M 9.75 5.25 L 38.25 5.25 C 40.726562 5.25 42.75 7.273438 42.75 9.75 L 42.75 38.25 C 42.75 40.726562 40.726562 42.75 38.25 42.75 L 9.75 42.75 C 7.273438 42.75 5.25 40.726562 5.25 38.25 L 5.25 9.75 C 5.25 7.273438 7.273438 5.25 9.75 5.25 Z M 9.75 5.25 "/>
  <g clip-path="url(#clip-0)">
    <g clip-path="url(#clip-1)">
      <path fill-rule="nonzero" fill="#b4befe" fill-opacity="1" d="M 24.75 5.25 L 38.25 5.25 C 40.726562 5.25 42.75 7.273438 42.75 9.75 L 42.75 23.25 L 30.75 23.25 C 27.449219 23.25 24.75 20.550781 24.75 17.25 Z M 24.75 5.25 "/>
    </g>
  </g>
  <g clip-path="url(#clip-2)">
    <g clip-path="url(#clip-3)">
      <path fill-rule="nonzero" fill="#b4befe" fill-opacity="1" d="M 48.75 22.875 C 48.75 25.980469 46.230469 28.5 43.125 28.5 C 40.019531 28.5 37.5 25.980469 37.5 22.875 C 37.5 19.769531 40.019531 17.25 43.125 17.25 C 46.230469 17.25 48.75 19.769531 48.75 22.875 Z M 48.75 22.875 "/>
    </g>
  </g>
  <g clip-path="url(#clip-4)">
    <g clip-path="url(#clip-5)">
      <path fill-rule="nonzero" fill="#11111b" fill-opacity="1" d="M 37.425781 8.175781 C 35.101562 8.175781 34.648438 11.773438 35.925781 11.773438 C 37.273438 11.773438 39.824219 8.175781 37.425781 8.175781 Z M 33.824219 8.773438 C 33.824219 8.773438 33.75 8.773438 33.675781 8.773438 C 32.324219 8.925781 32.773438 11.175781 33.523438 11.25 C 34.199219 11.25 34.949219 8.773438 33.824219 8.773438 Z M 31.5 9.601562 C 31.425781 9.601562 31.351562 9.601562 31.199219 9.675781 C 30.148438 10.125 31.050781 11.925781 31.648438 11.851562 C 32.175781 11.699219 32.25 9.675781 31.5 9.601562 Z M 29.699219 11.101562 C 29.625 11.101562 29.476562 11.101562 29.398438 11.175781 C 28.574219 11.851562 29.699219 13.351562 30.226562 13.125 C 30.675781 12.898438 30.375 11.101562 29.699219 11.101562 Z M 34.800781 12.601562 C 32.925781 12.601562 30.449219 13.5 30.074219 15.449219 C 29.625 17.476562 31.949219 20.398438 34.351562 20.398438 C 35.550781 20.398438 36.898438 19.273438 37.199219 17.925781 C 37.425781 16.875 34.875 17.324219 34.949219 18 C 35.023438 18.824219 34.351562 19.273438 33.675781 18.675781 C 31.425781 16.949219 37.351562 16.125 36.976562 13.726562 C 36.824219 12.976562 35.925781 12.601562 34.800781 12.601562 Z M 34.800781 12.601562 "/>
    </g>
  </g>
</svg>