<?xml version="1.0" encoding="UTF-8" standalone="yes"?>
<svg xmlns="http://www.w3.org/2000/svg" xmlns:xlink="http://www.w3.org/1999/xlink" width="48" height="48" viewBox="0 0 48 48">
  <defs>
    <clipPath id="clip-0">
      <path clip-rule="nonzero" d="M 24 5 L 43 5 L 43 24 L 24 24 Z M 24 5 "/>
    </clipPath>
    <clipPath id="clip-1">
      <path clip-rule="nonzero" d="M 24.75 5.25 L 38.25 5.25 C 40.726562 5.25 42.75 7.273438 42.75 9.75 L 42.75 23.25 L 30.75 23.25 C 27.449219 23.25 24.75 20.550781 24.75 17.25 Z M 24.75 5.25 "/>
    </clipPath>
    <clipPath id="clip-2">
      <path clip-rule="nonzero" d="M 37 17 L 43 17 L 43 24 L 37 24 Z M 37 17 "/>
    </clipPath>
    <clipPath id="clip-3">
      <path clip-rule="nonzero" d="M 24.75 5.25 L 38.25 5.25 C 40.726562 5.25 42.75 7.273438 42.75 9.75 L 42.75 23.25 L 30.75 23.25 C 27.449219 23.25 24.75 20.550781 24.75 17.25 Z M 24.75 5.25 "/>
    </clipPath>
    <clipPath id="clip-4">
      <path clip-rule="nonzero" d="M 29 8 L 39 8 L 39 20 L 29 20 Z M 29 8 "/>
    </clipPath>
    <clipPath id="clip-5">
      <path clip-rule="nonzero" d="M 24.75 5.25 L 38.25 5.25 C 40.726562 5.25 42.75 7.273438 42.75 9.75 L 42.75 23.25 L 30.75 23.25 C 27.449219 23.25 24.75 20.550781 24.75 17.25 Z M 24.75 5.25 "/>
    </clipPath>
  </defs>
  <path fill-rule="nonzero" fill="#11111b" fill-opacity="1" d="M 9.75 5.25 L 38.25 5.25 C 40.726562 5.25 42.75 7.273438 42.75 9.75 L 42.75 38.25 C 42.75 40.726562 40.726562 42.75 38.25 42.75 L 9.75 42.75 C 7.273438 42.75 5.25 40.726562 5.25 38.25 L 5.25 9.75 C 5.25 7.273438 7.273438 5.25 9.75 5.25 Z M 9.75 5.25 "/>
  <g clip-path="url(#clip-0)">
    <g clip-path="url(#clip-1)">
      <path fill-rule="nonzero" fill="#b4befe" fill-opacity="1" d="M 24.75 5.25 L 38.25 5.25 C 40.726562 5.25 42.75 7.273438 42.75 9.75 L 42.75 23.25 L 30.75 23.25 C 27.449219 23.25 24.75 20.550781 24.75 17.25 Z M 24.75 5.25 "/>
    </g>
  </g>
  <g clip-path="url(#clip-2)">
    <g clip-path="url(#clip-3)">
      <path fill-rule="nonzero" fill="#b4befe" fill-opacity="1" d="M 48.75 22.875 C 48.75 25.980469 46.230469 28.5 43.125 28.5 C 40.019531 28.5 37.5 25.980469 37.5 22.875 C 37.5 19.769531 40.019531 17.25 43.125 17.25 C 46.230469 17.25 48.75 19.769531 48.75 22.875 Z M 48.75 22.875 "/>
    </g>
  </g>
  <g clip-path="url(#clip-4)">
    <g clip-path="url(#clip-5)">
      <path fill-rule="nonzero" fill="#11111b" fill-opacity="1" d="M 30.375 8.625 C 29.925781 8.625 29.550781 9 29.550781 9.449219 L 29.550781 15.898438 L 30.148438 15.898438 L 30.148438 15.300781 L 30.75 15.300781 L 30.75 9.75 L 35.25 9.75 L 35.25 12 L 37.5 12 L 37.5 19.351562 L 38.101562 19.351562 L 38.101562 18.75 L 38.699219 18.75 L 38.699219 11.398438 L 35.851562 8.550781 L 30.375 8.550781 Z M 37.949219 19.351562 L 37.949219 19.949219 L 38.550781 19.949219 L 38.550781 19.351562 Z M 37.425781 19.351562 L 36.824219 19.351562 L 36.824219 19.949219 L 37.425781 19.949219 Z M 36.824219 19.351562 L 36.824219 18.75 L 36.226562 18.75 L 36.226562 19.351562 Z M 36.300781 19.351562 L 35.699219 19.351562 L 35.699219 19.949219 L 36.300781 19.949219 Z M 35.699219 19.351562 L 35.699219 18.75 L 35.101562 18.75 L 35.101562 19.351562 Z M 35.175781 19.351562 L 34.574219 19.351562 L 34.574219 19.949219 L 35.175781 19.949219 Z M 34.574219 19.351562 L 34.574219 18.75 L 33.976562 18.75 L 33.976562 19.351562 Z M 34.050781 19.351562 L 33.449219 19.351562 L 33.449219 19.949219 L 34.050781 19.949219 Z M 33.449219 19.351562 L 33.449219 18.75 L 32.851562 18.75 L 32.851562 19.351562 Z M 32.925781 19.351562 L 32.324219 19.351562 L 32.324219 19.949219 L 32.925781 19.949219 Z M 32.324219 19.351562 L 32.324219 18.75 L 31.726562 18.75 L 31.726562 19.351562 Z M 31.800781 19.351562 L 31.199219 19.351562 L 31.199219 19.949219 L 31.800781 19.949219 Z M 31.199219 19.351562 L 31.199219 18.75 L 30.601562 18.75 L 30.601562 19.351562 Z M 30.675781 19.351562 L 30.074219 19.351562 L 30.074219 19.949219 L 30.675781 19.949219 Z M 30.074219 19.351562 L 30.074219 18.75 L 29.476562 18.75 L 29.476562 19.351562 Z M 30.074219 18.75 L 30.675781 18.75 L 30.675781 18.148438 L 30.074219 18.148438 Z M 30.074219 18.148438 L 30.074219 17.550781 L 29.476562 17.550781 L 29.476562 18.148438 Z M 30.074219 17.625 L 30.675781 17.625 L 30.675781 17.023438 L 30.074219 17.023438 Z M 30.074219 17.101562 L 30.074219 16.5 L 29.476562 16.5 L 29.476562 17.101562 Z M 30.074219 16.5 L 30.675781 16.5 L 30.675781 15.898438 L 30.074219 15.898438 Z M 30.074219 16.5 "/>
    </g>
  </g>
</svg>