<?xml version="1.0" encoding="UTF-8" standalone="yes"?>
<svg xmlns="http://www.w3.org/2000/svg" xmlns:xlink="http://www.w3.org/1999/xlink" width="48" height="48" viewBox="0 0 48 48">
  <defs>
    <clipPath id="clip-0">
      <path clip-rule="nonzero" d="M 24 5 L 43 5 L 43 24 L 24 24 Z M 24 5 "/>
    </clipPath>
    <clipPath id="clip-1">
      <path clip-rule="nonzero" d="M 24.75 5.25 L 38.25 5.25 C 40.726562 5.25 42.75 7.273438 42.75 9.75 L 42.75 23.25 L 30.75 23.25 C 27.449219 23.25 24.75 20.550781 24.75 17.25 Z M 24.75 5.25 "/>
    </clipPath>
    <clipPath id="clip-2">
      <path clip-rule="nonzero" d="M 37 17 L 43 17 L 43 24 L 37 24 Z M 37 17 "/>
    </clipPath>
    <clipPath id="clip-3">
      <path clip-rule="nonzero" d="M 24.75 5.25 L 38.25 5.25 C 40.726562 5.25 42.75 7.273438 42.75 9.75 L 42.75 23.25 L 30.75 23.25 C 27.449219 23.25 24.75 20.550781 24.75 17.25 Z M 24.75 5.25 "/>
    </clipPath>
    <clipPath id="clip-4">
      <path clip-rule="nonzero" d="M 28 8 L 39 8 L 39 20 L 28 20 Z M 28 8 "/>
    </clipPath>
    <clipPath id="clip-5">
      <path clip-rule="nonzero" d="M 24.75 5.25 L 38.25 5.25 C 40.726562 5.25 42.75 7.273438 42.75 9.75 L 42.75 23.25 L 30.75 23.25 C 27.449219 23.25 24.75 20.550781 24.75 17.25 Z M 24.75 5.25 "/>
    </clipPath>
  </defs>
  <path fill-rule="nonzero" fill="#11111b" fill-opacity="1" d="M 9.75 5.25 L 38.25 5.25 C 40.726562 5.25 42.75 7.273438 42.75 9.75 L 42.75 38.25 C 42.75 40.726562 40.726562 42.75 38.25 42.75 L 9.75 42.75 C 7.273438 42.75 5.25 40.726562 5.25 38.25 L 5.25 9.75 C 5.25 7.273438 7.273438 5.25 9.75 5.25 Z M 9.75 5.25 "/>
  <g clip-path="url(#clip-0)">
    <g clip-path="url(#clip-1)">
      <path fill-rule="nonzero" fill="#b4befe" fill-opacity="1" d="M 24.75 5.25 L 38.25 5.25 C 40.726562 5.25 42.75 7.273438 42.75 9.75 L 42.75 23.25 L 30.75 23.25 C 27.449219 23.25 24.75 20.550781 24.75 17.25 Z M 24.75 5.25 "/>
    </g>
  </g>
  <g clip-path="url(#clip-2)">
    <g clip-path="url(#clip-3)">
      <path fill-rule="nonzero" fill="#b4befe" fill-opacity="1" d="M 48.75 22.875 C 48.75 25.980469 46.230469 28.5 43.125 28.5 C 40.019531 28.5 37.5 25.980469 37.5 22.875 C 37.5 19.769531 40.019531 17.25 43.125 17.25 C 46.230469 17.25 48.75 19.769531 48.75 22.875 Z M 48.75 22.875 "/>
    </g>
  </g>
  <g clip-path="url(#clip-4)">
    <g clip-path="url(#clip-5)">
      <path fill-rule="nonzero" fill="#11111b" fill-opacity="1" d="M 30.523438 8.851562 L 30.523438 11.023438 L 36.976562 11.023438 L 36.976562 8.851562 Z M 29.101562 12.074219 C 28.726562 12.074219 28.351562 12.449219 28.351562 12.824219 L 28.351562 15.601562 C 28.351562 15.976562 28.726562 16.351562 29.101562 16.351562 L 30.449219 16.351562 L 30.449219 19.574219 L 36.898438 19.574219 L 36.898438 16.351562 L 38.25 16.351562 C 38.625 16.351562 39 15.976562 39 15.601562 L 39 12.824219 C 39 12.449219 38.625 12.074219 38.25 12.074219 Z M 30.523438 14.25 L 36.976562 14.25 L 36.976562 15.300781 L 30.523438 15.300781 Z M 30.523438 14.25 "/>
    </g>
  </g>
</svg>