<?xml version="1.0" encoding="UTF-8" standalone="yes"?>
<svg xmlns="http://www.w3.org/2000/svg" xmlns:xlink="http://www.w3.org/1999/xlink" width="48" height="48" viewBox="0 0 48 48">
  <defs>
    <clipPath id="clip-0">
      <path clip-rule="nonzero" d="M 24 5 L 43 5 L 43 24 L 24 24 Z M 24 5 "/>
    </clipPath>
    <clipPath id="clip-1">
      <path clip-rule="nonzero" d="M 24.75 5.25 L 38.25 5.25 C 40.726562 5.25 42.75 7.273438 42.75 9.75 L 42.75 23.25 L 30.75 23.25 C 27.449219 23.25 24.75 20.550781 24.75 17.25 Z M 24.75 5.25 "/>
    </clipPath>
    <clipPath id="clip-2">
      <path clip-rule="nonzero" d="M 37 17 L 43 17 L 43 24 L 37 24 Z M 37 17 "/>
    </clipPath>
    <clipPath id="clip-3">
      <path clip-rule="nonzero" d="M 24.75 5.25 L 38.25 5.25 C 40.726562 5.25 42.75 7.273438 42.75 9.75 L 42.75 23.25 L 30.75 23.25 C 27.449219 23.25 24.75 20.550781 24.75 17.25 Z M 24.75 5.25 "/>
    </clipPath>
    <clipPath id="clip-4">
      <path clip-rule="nonzero" d="M 29 7 L 40 7 L 40 20 L 29 20 Z M 29 7 "/>
    </clipPath>
    <clipPath id="clip-5">
      <path clip-rule="nonzero" d="M 24.75 5.25 L 38.25 5.25 C 40.726562 5.25 42.75 7.273438 42.75 9.75 L 42.75 23.25 L 30.75 23.25 C 27.449219 23.25 24.75 20.550781 24.75 17.25 Z M 24.75 5.25 "/>
    </clipPath>
  </defs>
  <path fill-rule="nonzero" fill="#11111b" fill-opacity="1" d="M 9.75 5.25 L 38.25 5.25 C 40.726562 5.25 42.75 7.273438 42.75 9.75 L 42.75 38.25 C 42.75 40.726562 40.726562 42.75 38.25 42.75 L 9.75 42.75 C 7.273438 42.75 5.25 40.726562 5.25 38.25 L 5.25 9.75 C 5.25 7.273438 7.273438 5.25 9.75 5.25 Z M 9.75 5.25 "/>
  <g clip-path="url(#clip-0)">
    <g clip-path="url(#clip-1)">
      <path fill-rule="nonzero" fill="#b4befe" fill-opacity="1" d="M 24.75 5.25 L 38.25 5.25 C 40.726562 5.25 42.75 7.273438 42.75 9.75 L 42.75 23.25 L 30.75 23.25 C 27.449219 23.25 24.75 20.550781 24.75 17.25 Z M 24.75 5.25 "/>
    </g>
  </g>
  <g clip-path="url(#clip-2)">
    <g clip-path="url(#clip-3)">
      <path fill-rule="nonzero" fill="#b4befe" fill-opacity="1" d="M 48.75 22.875 C 48.75 25.980469 46.230469 28.5 43.125 28.5 C 40.019531 28.5 37.5 25.980469 37.5 22.875 C 37.5 19.769531 40.019531 17.25 43.125 17.25 C 46.230469 17.25 48.75 19.769531 48.75 22.875 Z M 48.75 22.875 "/>
    </g>
  </g>
  <g clip-path="url(#clip-4)">
    <g clip-path="url(#clip-5)">
      <path fill-rule="nonzero" fill="#11111b" fill-opacity="1" d="M 33 7.5 C 33 7.5 33.601562 7.875 33.148438 8.851562 C 32.476562 10.351562 33.75 10.726562 33.75 10.726562 C 33.75 10.726562 33.375 10.351562 33.898438 9.148438 C 34.5 7.726562 33 7.5 33 7.5 Z M 35.25 9.601562 C 35.25 9.601562 34.125 10.125 34.875 11.476562 C 35.324219 12.375 34.800781 12.824219 34.800781 12.824219 C 34.800781 12.824219 36.148438 12.375 35.476562 11.101562 C 34.949219 9.976562 35.25 9.601562 35.25 9.601562 Z M 31.726562 9.675781 C 31.726562 9.675781 30.898438 10.5 31.726562 11.550781 C 32.25 12.226562 31.875 12.824219 31.875 12.824219 C 31.875 12.824219 32.851562 11.925781 32.175781 10.949219 C 31.574219 10.125 31.726562 9.675781 31.726562 9.675781 Z M 31.949219 12.824219 L 29.25 12.824219 L 30.824219 19.273438 L 36.75 19.273438 L 37.125 18.226562 C 37.273438 18.300781 37.5 18.300781 37.648438 18.300781 C 38.925781 18.300781 39.976562 17.476562 39.976562 16.199219 C 39.976562 15.148438 39.226562 14.25 38.25 13.949219 L 38.476562 12.824219 Z M 38.023438 14.773438 C 38.023438 14.773438 38.101562 14.773438 38.023438 14.773438 C 38.476562 14.925781 38.625 15.675781 38.398438 16.425781 C 38.175781 17.25 37.726562 17.773438 37.273438 17.699219 Z M 38.023438 14.773438 "/>
    </g>
  </g>
</svg>