<?xml version="1.0" encoding="UTF-8" standalone="yes"?>
<svg xmlns="http://www.w3.org/2000/svg" xmlns:xlink="http://www.w3.org/1999/xlink" width="48" height="48" viewBox="0 0 48 48">
  <defs>
    <clipPath id="clip-0">
      <path clip-rule="nonzero" d="M 24 5 L 43 5 L 43 24 L 24 24 Z M 24 5 "/>
    </clipPath>
    <clipPath id="clip-1">
      <path clip-rule="nonzero" d="M 24.75 5.25 L 38.25 5.25 C 40.726562 5.25 42.75 7.273438 42.75 9.75 L 42.75 23.25 L 30.75 23.25 C 27.449219 23.25 24.75 20.550781 24.75 17.25 Z M 24.75 5.25 "/>
    </clipPath>
    <clipPath id="clip-2">
      <path clip-rule="nonzero" d="M 37 17 L 43 17 L 43 24 L 37 24 Z M 37 17 "/>
    </clipPath>
    <clipPath id="clip-3">
      <path clip-rule="nonzero" d="M 24.75 5.25 L 38.25 5.25 C 40.726562 5.25 42.75 7.273438 42.75 9.75 L 42.75 23.25 L 30.75 23.25 C 27.449219 23.25 24.75 20.550781 24.75 17.25 Z M 24.75 5.25 "/>
    </clipPath>
    <clipPath id="clip-4">
      <path clip-rule="nonzero" d="M 27 8 L 40 8 L 40 20 L 27 20 Z M 27 8 "/>
    </clipPath>
    <clipPath id="clip-5">
      <path clip-rule="nonzero" d="M 24.75 5.25 L 38.25 5.25 C 40.726562 5.25 42.75 7.273438 42.75 9.75 L 42.75 23.25 L 30.75 23.25 C 27.449219 23.25 24.75 20.550781 24.75 17.25 Z M 24.75 5.25 "/>
    </clipPath>
  </defs>
  <path fill-rule="nonzero" fill="#11111b" fill-opacity="1" d="M 9.75 5.25 L 38.25 5.25 C 40.726562 5.25 42.75 7.273438 42.75 9.75 L 42.75 38.25 C 42.75 40.726562 40.726562 42.75 38.25 42.75 L 9.75 42.75 C 7.273438 42.75 5.25 40.726562 5.25 38.25 L 5.25 9.75 C 5.25 7.273438 7.273438 5.25 9.75 5.25 Z M 9.75 5.25 "/>
  <g clip-path="url(#clip-0)">
    <g clip-path="url(#clip-1)">
      <path fill-rule="nonzero" fill="#b4befe" fill-opacity="1" d="M 24.75 5.25 L 38.25 5.25 C 40.726562 5.25 42.75 7.273438 42.75 9.75 L 42.75 23.25 L 30.75 23.25 C 27.449219 23.25 24.75 20.550781 24.75 17.25 Z M 24.75 5.25 "/>
    </g>
  </g>
  <g clip-path="url(#clip-2)">
    <g clip-path="url(#clip-3)">
      <path fill-rule="nonzero" fill="#b4befe" fill-opacity="1" d="M 48.75 22.875 C 48.75 25.980469 46.230469 28.5 43.125 28.5 C 40.019531 28.5 37.5 25.980469 37.5 22.875 C 37.5 19.769531 40.019531 17.25 43.125 17.25 C 46.230469 17.25 48.75 19.769531 48.75 22.875 Z M 48.75 22.875 "/>
    </g>
  </g>
  <g clip-path="url(#clip-4)">
    <g clip-path="url(#clip-5)">
      <path fill-rule="nonzero" fill="#11111b" fill-opacity="1" d="M 30.675781 11.625 C 30.601562 11.625 30.601562 11.625 30.523438 11.699219 C 30.148438 11.851562 30.074219 12.449219 30.300781 12.976562 C 30.523438 13.425781 30.898438 13.648438 31.199219 13.648438 C 31.425781 15.074219 32.476562 16.125 33.675781 16.125 C 34.875 16.125 35.925781 15.074219 36.148438 13.648438 C 36.523438 13.648438 36.898438 13.425781 37.050781 12.976562 C 37.351562 12.449219 37.199219 11.851562 36.824219 11.699219 C 36.75 11.699219 36.75 11.699219 36.675781 11.625 C 36.601562 10.125 35.25 8.851562 33.601562 8.851562 C 31.949219 8.851562 30.675781 10.050781 30.675781 11.625 Z M 35.625 16.273438 C 35.476562 16.5 35.25 16.648438 35.023438 16.800781 C 34.648438 17.101562 34.199219 17.25 33.75 17.25 C 33.074219 17.25 32.398438 16.875 31.949219 16.351562 C 30 16.648438 27.898438 17.023438 27.75 17.550781 C 27.75 17.550781 27.75 17.625 27.75 17.625 L 27.75 19.273438 C 27.75 19.425781 27.898438 19.574219 28.050781 19.574219 L 39.449219 19.574219 C 39.601562 19.574219 39.75 19.425781 39.75 19.273438 L 39.75 17.625 C 39.75 17.550781 39.75 17.550781 39.75 17.550781 C 39.601562 17.023438 37.574219 16.574219 35.625 16.273438 Z M 35.625 16.273438 "/>
    </g>
  </g>
</svg>