<?xml version="1.0" encoding="UTF-8" standalone="yes"?>
<svg xmlns="http://www.w3.org/2000/svg" xmlns:xlink="http://www.w3.org/1999/xlink" width="48" height="48" viewBox="0 0 48 48">
  <defs>
    <clipPath id="clip-0">
      <path clip-rule="nonzero" d="M 24 5 L 43 5 L 43 24 L 24 24 Z M 24 5 "/>
    </clipPath>
    <clipPath id="clip-1">
      <path clip-rule="nonzero" d="M 24.75 5.25 L 38.25 5.25 C 40.726562 5.25 42.75 7.273438 42.75 9.75 L 42.75 23.25 L 30.75 23.25 C 27.449219 23.25 24.75 20.550781 24.75 17.25 Z M 24.75 5.25 "/>
    </clipPath>
    <clipPath id="clip-2">
      <path clip-rule="nonzero" d="M 37 17 L 43 17 L 43 24 L 37 24 Z M 37 17 "/>
    </clipPath>
    <clipPath id="clip-3">
      <path clip-rule="nonzero" d="M 24.75 5.25 L 38.25 5.25 C 40.726562 5.25 42.75 7.273438 42.75 9.75 L 42.75 23.25 L 30.75 23.25 C 27.449219 23.25 24.75 20.550781 24.75 17.25 Z M 24.75 5.25 "/>
    </clipPath>
    <clipPath id="clip-4">
      <path clip-rule="nonzero" d="M 27 8 L 40 8 L 40 21 L 27 21 Z M 27 8 "/>
    </clipPath>
    <clipPath id="clip-5">
      <path clip-rule="nonzero" d="M 24.75 5.25 L 38.25 5.25 C 40.726562 5.25 42.75 7.273438 42.75 9.75 L 42.75 23.25 L 30.75 23.25 C 27.449219 23.25 24.75 20.550781 24.75 17.25 Z M 24.75 5.25 "/>
    </clipPath>
  </defs>
  <path fill-rule="nonzero" fill="#11111b" fill-opacity="1" d="M 9.75 5.25 L 38.25 5.25 C 40.726562 5.25 42.75 7.273438 42.75 9.75 L 42.75 38.25 C 42.75 40.726562 40.726562 42.75 38.25 42.75 L 9.75 42.75 C 7.273438 42.75 5.25 40.726562 5.25 38.25 L 5.25 9.75 C 5.25 7.273438 7.273438 5.25 9.75 5.25 Z M 9.75 5.25 "/>
  <g clip-path="url(#clip-0)">
    <g clip-path="url(#clip-1)">
      <path fill-rule="nonzero" fill="#b4befe" fill-opacity="1" d="M 24.75 5.25 L 38.25 5.25 C 40.726562 5.25 42.75 7.273438 42.75 9.75 L 42.75 23.25 L 30.75 23.25 C 27.449219 23.25 24.75 20.550781 24.75 17.25 Z M 24.75 5.25 "/>
    </g>
  </g>
  <g clip-path="url(#clip-2)">
    <g clip-path="url(#clip-3)">
      <path fill-rule="nonzero" fill="#b4befe" fill-opacity="1" d="M 48.75 22.875 C 48.75 25.980469 46.230469 28.5 43.125 28.5 C 40.019531 28.5 37.5 25.980469 37.5 22.875 C 37.5 19.769531 40.019531 17.25 43.125 17.25 C 46.230469 17.25 48.75 19.769531 48.75 22.875 Z M 48.75 22.875 "/>
    </g>
  </g>
  <g clip-path="url(#clip-4)">
    <g clip-path="url(#clip-5)">
      <path fill-rule="nonzero" fill="#11111b" fill-opacity="1" d="M 32.175781 8.101562 L 32.023438 9.75 C 31.5 9.976562 31.050781 10.199219 30.601562 10.574219 L 29.101562 9.898438 L 27.523438 12.601562 L 28.875 13.5 C 28.800781 13.800781 28.800781 14.023438 28.800781 14.324219 C 28.800781 14.625 28.800781 14.851562 28.875 15.148438 L 27.523438 16.050781 L 29.101562 18.75 L 30.601562 18.074219 C 31.050781 18.449219 31.5 18.675781 32.023438 18.898438 L 32.175781 20.550781 L 35.324219 20.550781 L 35.476562 18.898438 C 36 18.675781 36.449219 18.449219 36.898438 18.074219 L 38.398438 18.75 L 39.976562 16.050781 L 38.625 15.148438 C 38.699219 14.851562 38.699219 14.625 38.699219 14.324219 C 38.699219 14.023438 38.699219 13.800781 38.625 13.5 L 39.976562 12.601562 L 38.398438 9.898438 L 36.898438 10.574219 C 36.449219 10.199219 36 9.976562 35.476562 9.75 L 35.324219 8.101562 Z M 33.75 11.773438 C 35.101562 11.773438 36.226562 12.898438 36.226562 14.25 C 36.226562 15.601562 35.101562 16.726562 33.75 16.726562 C 32.398438 16.726562 31.273438 15.601562 31.273438 14.25 C 31.273438 12.898438 32.398438 11.773438 33.75 11.773438 Z M 33.75 11.773438 "/>
    </g>
  </g>
</svg>