<?xml version="1.0" encoding="UTF-8" standalone="yes"?>
<svg xmlns="http://www.w3.org/2000/svg" xmlns:xlink="http://www.w3.org/1999/xlink" width="48" height="48" viewBox="0 0 48 48">
  <defs>
    <clipPath id="clip-0">
      <path clip-rule="nonzero" d="M 24 5 L 43 5 L 43 24 L 24 24 Z M 24 5 "/>
    </clipPath>
    <clipPath id="clip-1">
      <path clip-rule="nonzero" d="M 24.75 5.25 L 38.25 5.25 C 40.726562 5.25 42.75 7.273438 42.75 9.75 L 42.75 23.25 L 30.75 23.25 C 27.449219 23.25 24.75 20.550781 24.75 17.25 Z M 24.75 5.25 "/>
    </clipPath>
    <clipPath id="clip-2">
      <path clip-rule="nonzero" d="M 37 17 L 43 17 L 43 24 L 37 24 Z M 37 17 "/>
    </clipPath>
    <clipPath id="clip-3">
      <path clip-rule="nonzero" d="M 24.75 5.25 L 38.25 5.25 C 40.726562 5.25 42.75 7.273438 42.75 9.75 L 42.75 23.25 L 30.75 23.25 C 27.449219 23.25 24.75 20.550781 24.75 17.25 Z M 24.75 5.25 "/>
    </clipPath>
    <clipPath id="clip-4">
      <path clip-rule="nonzero" d="M 28 8 L 40 8 L 40 21 L 28 21 Z M 28 8 "/>
    </clipPath>
    <clipPath id="clip-5">
      <path clip-rule="nonzero" d="M 24.75 5.25 L 38.25 5.25 C 40.726562 5.25 42.75 7.273438 42.75 9.75 L 42.75 23.25 L 30.75 23.25 C 27.449219 23.25 24.75 20.550781 24.75 17.25 Z M 24.75 5.25 "/>
    </clipPath>
  </defs>
  <path fill-rule="nonzero" fill="#11111b" fill-opacity="1" d="M 9.75 5.25 L 38.25 5.25 C 40.726562 5.25 42.75 7.273438 42.75 9.75 L 42.75 38.25 C 42.75 40.726562 40.726562 42.75 38.25 42.75 L 9.75 42.75 C 7.273438 42.75 5.25 40.726562 5.25 38.25 L 5.25 9.75 C 5.25 7.273438 7.273438 5.25 9.75 5.25 Z M 9.75 5.25 "/>
  <g clip-path="url(#clip-0)">
    <g clip-path="url(#clip-1)">
      <path fill-rule="nonzero" fill="#b4befe" fill-opacity="1" d="M 24.75 5.25 L 38.25 5.25 C 40.726562 5.25 42.75 7.273438 42.75 9.75 L 42.75 23.25 L 30.75 23.25 C 27.449219 23.25 24.75 20.550781 24.75 17.25 Z M 24.75 5.25 "/>
    </g>
  </g>
  <g clip-path="url(#clip-2)">
    <g clip-path="url(#clip-3)">
      <path fill-rule="nonzero" fill="#b4befe" fill-opacity="1" d="M 48.75 22.875 C 48.75 25.980469 46.230469 28.5 43.125 28.5 C 40.019531 28.5 37.5 25.980469 37.5 22.875 C 37.5 19.769531 40.019531 17.25 43.125 17.25 C 46.230469 17.25 48.75 19.769531 48.75 22.875 Z M 48.75 22.875 "/>
    </g>
  </g>
  <g clip-path="url(#clip-4)">
    <g clip-path="url(#clip-5)">
      <path fill-rule="nonzero" fill="#11111b" fill-opacity="1" d="M 34.875 8.476562 L 32.699219 8.773438 L 32.699219 16.726562 L 34.875 16.125 L 34.875 13.050781 L 37.050781 16.648438 L 39.226562 15.824219 L 36.523438 12.523438 L 39.300781 9 L 37.199219 8.476562 L 34.949219 12.074219 L 34.949219 8.476562 Z M 30.449219 10.648438 C 30.375 10.648438 30.375 10.648438 30.300781 10.726562 L 29.476562 11.550781 C 29.398438 11.625 29.398438 11.773438 29.476562 11.851562 L 30.375 13.273438 C 30.300781 13.425781 30.226562 13.574219 30.226562 13.726562 L 28.574219 14.101562 C 28.5 14.101562 28.351562 14.175781 28.351562 14.324219 L 28.351562 15.375 C 28.351562 15.449219 28.425781 15.523438 28.574219 15.601562 L 30.226562 15.976562 C 30.300781 16.125 30.300781 16.273438 30.375 16.351562 L 29.476562 17.773438 C 29.398438 17.851562 29.398438 18 29.476562 18.074219 L 30.300781 18.898438 C 30.375 18.976562 30.523438 18.976562 30.601562 18.898438 L 32.023438 18 C 32.175781 18.074219 32.324219 18.148438 32.476562 18.148438 L 32.851562 19.800781 C 32.851562 19.875 32.925781 20.023438 33.074219 20.023438 L 34.273438 20.023438 C 34.351562 20.023438 34.425781 19.949219 34.5 19.800781 L 34.875 18.148438 C 35.023438 18.074219 35.175781 18 35.324219 17.925781 L 36.675781 18.898438 C 36.75 18.976562 36.898438 18.976562 36.976562 18.898438 L 37.800781 18.074219 C 37.875 18 37.875 17.851562 37.800781 17.773438 L 37.273438 17.023438 L 37.199219 17.023438 C 37.050781 17.101562 36.976562 17.023438 36.898438 16.875 L 36.375 15.976562 C 35.925781 17.023438 34.875 17.851562 33.601562 17.851562 C 31.949219 17.851562 30.601562 16.5 30.601562 14.851562 C 30.601562 13.574219 31.425781 12.449219 32.550781 12.074219 L 32.550781 11.476562 C 32.398438 11.550781 32.25 11.550781 32.101562 11.625 L 30.675781 10.726562 C 30.523438 10.648438 30.523438 10.648438 30.449219 10.648438 Z M 30.449219 10.648438 "/>
    </g>
  </g>
</svg>