<?xml version="1.0" encoding="UTF-8" standalone="yes"?>
<svg xmlns="http://www.w3.org/2000/svg" xmlns:xlink="http://www.w3.org/1999/xlink" width="48" height="48" viewBox="0 0 48 48">
  <defs>
    <clipPath id="clip-0">
      <path clip-rule="nonzero" d="M 24 5 L 43 5 L 43 24 L 24 24 Z M 24 5 "/>
    </clipPath>
    <clipPath id="clip-1">
      <path clip-rule="nonzero" d="M 24.75 5.25 L 38.25 5.25 C 40.726562 5.25 42.75 7.273438 42.75 9.75 L 42.75 23.25 L 30.75 23.25 C 27.449219 23.25 24.75 20.550781 24.75 17.25 Z M 24.75 5.25 "/>
    </clipPath>
    <clipPath id="clip-2">
      <path clip-rule="nonzero" d="M 37 17 L 43 17 L 43 24 L 37 24 Z M 37 17 "/>
    </clipPath>
    <clipPath id="clip-3">
      <path clip-rule="nonzero" d="M 24.75 5.25 L 38.25 5.25 C 40.726562 5.25 42.75 7.273438 42.75 9.75 L 42.75 23.25 L 30.75 23.25 C 27.449219 23.25 24.75 20.550781 24.75 17.25 Z M 24.75 5.25 "/>
    </clipPath>
    <clipPath id="clip-4">
      <path clip-rule="nonzero" d="M 27 8 L 43 8 L 43 19 L 27 19 Z M 27 8 "/>
    </clipPath>
    <clipPath id="clip-5">
      <path clip-rule="nonzero" d="M 24.75 5.25 L 38.25 5.25 C 40.726562 5.25 42.75 7.273438 42.75 9.75 L 42.75 23.25 L 30.75 23.25 C 27.449219 23.25 24.75 20.550781 24.75 17.25 Z M 24.75 5.25 "/>
    </clipPath>
  </defs>
  <path fill-rule="nonzero" fill="#11111b" fill-opacity="1" d="M 9.75 5.25 L 38.25 5.25 C 40.726562 5.25 42.75 7.273438 42.75 9.75 L 42.75 38.25 C 42.75 40.726562 40.726562 42.75 38.25 42.75 L 9.75 42.75 C 7.273438 42.75 5.25 40.726562 5.25 38.25 L 5.25 9.75 C 5.25 7.273438 7.273438 5.25 9.75 5.25 Z M 9.75 5.25 "/>
  <g clip-path="url(#clip-0)">
    <g clip-path="url(#clip-1)">
      <path fill-rule="nonzero" fill="#b4befe" fill-opacity="1" d="M 24.75 5.25 L 38.25 5.25 C 40.726562 5.25 42.75 7.273438 42.75 9.75 L 42.75 23.25 L 30.75 23.25 C 27.449219 23.25 24.75 20.550781 24.75 17.25 Z M 24.75 5.25 "/>
    </g>
  </g>
  <g clip-path="url(#clip-2)">
    <g clip-path="url(#clip-3)">
      <path fill-rule="nonzero" fill="#b4befe" fill-opacity="1" d="M 48.75 22.875 C 48.75 25.980469 46.230469 28.5 43.125 28.5 C 40.019531 28.5 37.5 25.980469 37.5 22.875 C 37.5 19.769531 40.019531 17.25 43.125 17.25 C 46.230469 17.25 48.75 19.769531 48.75 22.875 Z M 48.75 22.875 "/>
    </g>
  </g>
  <g clip-path="url(#clip-4)">
    <g clip-path="url(#clip-5)">
      <path fill-rule="nonzero" fill="#11111b" fill-opacity="1" d="M 32.625 8.773438 C 29.925781 8.773438 27.75 10.949219 27.75 13.648438 C 27.75 16.351562 29.925781 18.523438 32.625 18.523438 L 42.75 18.523438 L 42.75 17.699219 L 32.625 17.699219 C 30.375 17.699219 28.574219 15.898438 28.574219 13.648438 C 28.574219 11.398438 30.375 9.601562 32.625 9.601562 Z M 32.625 9.976562 C 30.601562 9.976562 28.949219 11.625 28.949219 13.648438 C 28.949219 15.675781 30.601562 17.324219 32.625 17.324219 L 42.75 17.324219 L 42.75 16.5 L 32.625 16.5 C 31.050781 16.5 29.773438 15.226562 29.773438 13.648438 C 29.773438 12.074219 31.050781 10.800781 32.625 10.800781 C 33.074219 10.800781 33.449219 10.875 33.824219 11.101562 L 33.824219 10.199219 C 33.449219 10.050781 33.074219 9.976562 32.625 9.976562 Z M 32.625 11.175781 C 31.273438 11.175781 30.226562 12.226562 30.226562 13.574219 C 30.226562 14.925781 31.273438 15.976562 32.625 15.976562 L 42.75 15.976562 L 42.75 15.148438 L 32.625 15.148438 C 31.726562 15.148438 30.976562 14.398438 30.976562 13.5 C 30.976562 12.601562 31.726562 11.851562 32.625 11.851562 C 33.226562 11.851562 33.75 12.148438 34.050781 12.675781 L 34.949219 12.675781 C 34.574219 11.851562 33.675781 11.175781 32.625 11.175781 Z M 32.625 11.175781 "/>
    </g>
  </g>
</svg>