<?xml version="1.0" encoding="UTF-8" standalone="yes"?>
<svg xmlns="http://www.w3.org/2000/svg" xmlns:xlink="http://www.w3.org/1999/xlink" width="32" height="32" viewBox="0 0 32 32">
  <defs>
    <clipPath id="clip-0">
      <path clip-rule="nonzero" d="M 16 3 L 29 3 L 29 16 L 16 16 Z M 16 3 "/>
    </clipPath>
    <clipPath id="clip-1">
      <path clip-rule="nonzero" d="M 16.5 3.5 L 25.5 3.5 C 27.148438 3.5 28.5 4.851562 28.5 6.5 L 28.5 15.5 L 20.5 15.5 C 18.300781 15.5 16.5 13.699219 16.5 11.5 Z M 16.5 3.5 "/>
    </clipPath>
    <clipPath id="clip-2">
      <path clip-rule="nonzero" d="M 25 11 L 29 11 L 29 16 L 25 16 Z M 25 11 "/>
    </clipPath>
    <clipPath id="clip-3">
      <path clip-rule="nonzero" d="M 16.5 3.5 L 25.5 3.5 C 27.148438 3.5 28.5 4.851562 28.5 6.5 L 28.5 15.5 L 20.5 15.5 C 18.300781 15.5 16.5 13.699219 16.5 11.5 Z M 16.5 3.5 "/>
    </clipPath>
    <clipPath id="clip-4">
      <path clip-rule="nonzero" d="M 18 5 L 27 5 L 27 13 L 18 13 Z M 18 5 "/>
    </clipPath>
    <clipPath id="clip-5">
      <path clip-rule="nonzero" d="M 16.5 3.5 L 25.5 3.5 C 27.148438 3.5 28.5 4.851562 28.5 6.5 L 28.5 15.5 L 20.5 15.5 C 18.300781 15.5 16.5 13.699219 16.5 11.5 Z M 16.5 3.5 "/>
    </clipPath>
  </defs>
  <path fill-rule="nonzero" fill="#11111b" fill-opacity="1" d="M 6.5 3.5 L 25.5 3.5 C 27.148438 3.5 28.5 4.851562 28.5 6.5 L 28.5 25.5 C 28.5 27.148438 27.148438 28.5 25.5 28.5 L 6.5 28.5 C 4.851562 28.5 3.5 27.148438 3.5 25.5 L 3.5 6.5 C 3.5 4.851562 4.851562 3.5 6.5 3.5 Z M 6.5 3.5 "/>
  <g clip-path="url(#clip-0)">
    <g clip-path="url(#clip-1)">
      <path fill-rule="nonzero" fill="#b4befe" fill-opacity="1" d="M 16.5 3.5 L 25.5 3.5 C 27.148438 3.5 28.5 4.851562 28.5 6.5 L 28.5 15.5 L 20.5 15.5 C 18.300781 15.5 16.5 13.699219 16.5 11.5 Z M 16.5 3.5 "/>
    </g>
  </g>
  <g clip-path="url(#clip-2)">
    <g clip-path="url(#clip-3)">
      <path fill-rule="nonzero" fill="#b4befe" fill-opacity="1" d="M 32.5 15.25 C 32.5 17.320312 30.820312 19 28.75 19 C 26.679688 19 25 17.320312 25 15.25 C 25 13.179688 26.679688 11.5 28.75 11.5 C 30.820312 11.5 32.5 13.179688 32.5 15.25 Z M 32.5 15.25 "/>
    </g>
  </g>
  <g clip-path="url(#clip-4)">
    <g clip-path="url(#clip-5)">
      <path fill-rule="nonzero" fill="#11111b" fill-opacity="1" d="M 22.5 5.5 C 20.398438 5.5 18.699219 7.199219 18.699219 9.300781 C 18.699219 11 19.800781 12.398438 21.351562 12.898438 L 21.351562 12.25 C 20.398438 12.449219 20.148438 11.851562 20.148438 11.851562 C 20 11.449219 19.75 11.398438 19.75 11.398438 C 19.449219 11.199219 19.75 11.199219 19.75 11.199219 C 20.101562 11.199219 20.300781 11.550781 20.300781 11.550781 C 20.601562 12.101562 21.148438 11.949219 21.300781 11.851562 C 21.351562 11.601562 21.398438 11.25 21.5 11.148438 C 20.75 11.050781 20.148438 10.550781 20.148438 9.25 C 20.148438 8.851562 20.398438 8.351562 20.601562 8.101562 C 20.648438 8 20.5 7.5 20.699219 7.050781 C 20.699219 7.050781 20.699219 7.050781 20.75 7.050781 C 20.851562 7.050781 21.101562 7.199219 21.601562 7.550781 C 21.898438 7.449219 22.25 7.398438 22.5 7.398438 C 22.75 7.398438 23.050781 7.449219 23.300781 7.550781 C 23.800781 7.199219 24.101562 7.050781 24.199219 7.050781 C 24.25 7.050781 24.25 7.050781 24.25 7.050781 C 24.449219 7.550781 24.300781 8.050781 24.300781 8.148438 C 24.5 8.398438 24.75 8.898438 24.75 9.300781 C 24.75 10.648438 23.898438 11.148438 23.101562 11.199219 C 23.199219 11.300781 23.25 11.5 23.25 11.851562 C 23.25 12.25 23.25 12.5 23.25 12.648438 L 23.25 13 C 24.898438 12.601562 26.25 11.101562 26.25 9.351562 C 26.300781 7.199219 24.601562 5.5 22.5 5.5 Z M 22.5 5.5 "/>
    </g>
  </g>
</svg>