<svg width="32" height="32" viewBox="0 0 32 32" fill="none" xmlns="http://www.w3.org/2000/svg">
<rect x="4" y="3" width="25" height="25" rx="4" fill="#11111b"/>
<g clip-path="url(#clip0_38_605)">
<path d="M17 3H25C27.2091 3 29 4.79086 29 7V15H21C18.7909 15 17 13.2091 17 11V3Z" fill="#b4befe"/>
<g filter="url(#filter0_d_38_605)">
<circle cx="29.25" cy="14.75" r="3.75" fill="#b4befe"/>
</g>
<path d="M19.8 7.4C19.8 7.18783 19.8843 6.98434 20.0343 6.83431C20.1843 6.68428 20.3878 6.6 20.6 6.6H22.6L23.4 7.4H25.4C25.6122 7.4 25.8156 7.48428 25.9657 7.63431C26.1157 7.78434 26.2 7.98783 26.2 8.2V10.6C26.2 10.8122 26.1157 11.0157 25.9657 11.1657C25.8156 11.3157 25.6122 11.4 25.4 11.4H20.6C20.3878 11.4 20.1843 11.3157 20.0343 11.1657C19.8843 11.0157 19.8 10.8122 19.8 10.6V7.4Z" fill="#11111b"/>
</g>
<defs>
<filter id="filter0_d_38_605" x="9.5" y="-1" width="39.5" height="39.5" filterUnits="userSpaceOnUse" color-interpolation-filters="sRGB">
<feFlood flood-opacity="0" result="BackgroundImageFix"/>
<feColorMatrix in="SourceAlpha" type="matrix" values="0 0 0 0 0 0 0 0 0 0 0 0 0 0 0 0 0 0 127 0" result="hardAlpha"/>
<feOffset dy="4"/>
<feGaussianBlur stdDeviation="8"/>
<feComposite in2="hardAlpha" operator="out"/>
<feColorMatrix type="matrix" values="0 0 0 0 0 0 0 0 0 0 0 0 0 0 0 0 0 0 0.3 0"/>
<feBlend mode="normal" in2="BackgroundImageFix" result="effect1_dropShadow_38_605"/>
<feBlend mode="normal" in="SourceGraphic" in2="effect1_dropShadow_38_605" result="shape"/>
</filter>
<clipPath id="clip0_38_605">
<path d="M17 3H25C27.2091 3 29 4.79086 29 7V15H21C18.7909 15 17 13.2091 17 11V3Z" fill="white"/>
</clipPath>
</defs>
</svg>
