<?xml version="1.0" encoding="UTF-8" standalone="yes"?>
<svg xmlns="http://www.w3.org/2000/svg" xmlns:xlink="http://www.w3.org/1999/xlink" width="32" height="32" viewBox="0 0 32 32">
  <defs>
    <clipPath id="clip-0">
      <path clip-rule="nonzero" d="M 16 3 L 29 3 L 29 16 L 16 16 Z M 16 3 "/>
    </clipPath>
    <clipPath id="clip-1">
      <path clip-rule="nonzero" d="M 16.5 3.5 L 25.5 3.5 C 27.148438 3.5 28.5 4.851562 28.5 6.5 L 28.5 15.5 L 20.5 15.5 C 18.300781 15.5 16.5 13.699219 16.5 11.5 Z M 16.5 3.5 "/>
    </clipPath>
    <clipPath id="clip-2">
      <path clip-rule="nonzero" d="M 25 11 L 29 11 L 29 16 L 25 16 Z M 25 11 "/>
    </clipPath>
    <clipPath id="clip-3">
      <path clip-rule="nonzero" d="M 16.5 3.5 L 25.5 3.5 C 27.148438 3.5 28.5 4.851562 28.5 6.5 L 28.5 15.5 L 20.5 15.5 C 18.300781 15.5 16.5 13.699219 16.5 11.5 Z M 16.5 3.5 "/>
    </clipPath>
    <clipPath id="clip-4">
      <path clip-rule="nonzero" d="M 21 3 L 24 3 L 24 8 L 21 8 Z M 21 3 "/>
    </clipPath>
    <clipPath id="clip-5">
      <path clip-rule="nonzero" d="M 16.5 3.5 L 25.5 3.5 C 27.148438 3.5 28.5 4.851562 28.5 6.5 L 28.5 15.5 L 20.5 15.5 C 18.300781 15.5 16.5 13.699219 16.5 11.5 Z M 16.5 3.5 "/>
    </clipPath>
    <clipPath id="clip-6">
      <path clip-rule="nonzero" d="M 20 7 L 24 7 L 24 14 L 20 14 Z M 20 7 "/>
    </clipPath>
    <clipPath id="clip-7">
      <path clip-rule="nonzero" d="M 16.5 3.5 L 25.5 3.5 C 27.148438 3.5 28.5 4.851562 28.5 6.5 L 28.5 15.5 L 20.5 15.5 C 18.300781 15.5 16.5 13.699219 16.5 11.5 Z M 16.5 3.5 "/>
    </clipPath>
  </defs>
  <path fill-rule="nonzero" fill="#11111b" fill-opacity="1" d="M 6.5 3.5 L 25.5 3.5 C 27.148438 3.5 28.5 4.851562 28.5 6.5 L 28.5 25.5 C 28.5 27.148438 27.148438 28.5 25.5 28.5 L 6.5 28.5 C 4.851562 28.5 3.5 27.148438 3.5 25.5 L 3.5 6.5 C 3.5 4.851562 4.851562 3.5 6.5 3.5 Z M 6.5 3.5 "/>
  <g clip-path="url(#clip-0)">
    <g clip-path="url(#clip-1)">
      <path fill-rule="nonzero" fill="#b4befe" fill-opacity="1" d="M 16.5 3.5 L 25.5 3.5 C 27.148438 3.5 28.5 4.851562 28.5 6.5 L 28.5 15.5 L 20.5 15.5 C 18.300781 15.5 16.5 13.699219 16.5 11.5 Z M 16.5 3.5 "/>
    </g>
  </g>
  <g clip-path="url(#clip-2)">
    <g clip-path="url(#clip-3)">
      <path fill-rule="nonzero" fill="#b4befe" fill-opacity="1" d="M 32.5 15.25 C 32.5 17.320312 30.820312 19 28.75 19 C 26.679688 19 25 17.320312 25 15.25 C 25 13.179688 26.679688 11.5 28.75 11.5 C 30.820312 11.5 32.5 13.179688 32.5 15.25 Z M 32.5 15.25 "/>
    </g>
  </g>
  <g clip-path="url(#clip-4)">
    <g clip-path="url(#clip-5)">
      <path fill-rule="nonzero" fill="#11111b" fill-opacity="1" d="M 22.398438 3.898438 L 22.398438 4.648438 L 23.148438 4.648438 L 23.148438 3.898438 Z M 22.398438 4.601562 L 21.648438 4.601562 L 21.648438 5.351562 L 22.398438 5.351562 Z M 22.398438 5.398438 L 22.398438 6.148438 L 23.148438 6.148438 L 23.148438 5.398438 Z M 22.398438 6.101562 L 21.648438 6.101562 L 21.648438 6.851562 L 22.398438 6.851562 Z M 22.398438 6.898438 L 22.398438 7.648438 C 22.800781 7.648438 23.148438 7.25 23.148438 6.898438 Z M 22.398438 6.898438 "/>
    </g>
  </g>
  <g clip-path="url(#clip-6)">
    <g clip-path="url(#clip-7)">
      <path fill-rule="nonzero" fill="#11111b" fill-opacity="1" d="M 22.398438 7.601562 C 21.550781 7.601562 20.898438 8.25 20.898438 9.101562 L 20.898438 12.101562 C 20.898438 12.949219 21.550781 13.601562 22.398438 13.601562 C 23.25 13.601562 23.898438 12.949219 23.898438 12.101562 L 23.898438 9.101562 C 23.898438 8.300781 23.199219 7.601562 22.398438 7.601562 Z M 22.398438 8.398438 C 22.800781 8.398438 23.148438 8.699219 23.148438 9.148438 C 23.148438 9.550781 22.800781 9.898438 22.398438 9.898438 C 22 9.898438 21.648438 9.5 21.648438 9.148438 C 21.601562 8.648438 21.949219 8.398438 22.398438 8.398438 Z M 22.398438 10.601562 C 22.800781 10.601562 23.148438 10.898438 23.148438 11.351562 L 23.148438 12.101562 C 23.148438 12.5 22.800781 12.851562 22.398438 12.851562 C 22 12.851562 21.648438 12.449219 21.648438 12.101562 L 21.648438 11.351562 C 21.601562 10.898438 21.949219 10.601562 22.398438 10.601562 Z M 22.398438 10.601562 "/>
    </g>
  </g>
</svg>