<?xml version="1.0" encoding="UTF-8" standalone="yes"?>
<svg xmlns="http://www.w3.org/2000/svg" xmlns:xlink="http://www.w3.org/1999/xlink" width="32" height="32" viewBox="0 0 32 32">
  <defs>
    <clipPath id="clip-0">
      <path clip-rule="nonzero" d="M 16 3 L 29 3 L 29 16 L 16 16 Z M 16 3 "/>
    </clipPath>
    <clipPath id="clip-1">
      <path clip-rule="nonzero" d="M 16.5 3.5 L 25.5 3.5 C 27.148438 3.5 28.5 4.851562 28.5 6.5 L 28.5 15.5 L 20.5 15.5 C 18.300781 15.5 16.5 13.699219 16.5 11.5 Z M 16.5 3.5 "/>
    </clipPath>
    <clipPath id="clip-2">
      <path clip-rule="nonzero" d="M 25 11 L 29 11 L 29 16 L 25 16 Z M 25 11 "/>
    </clipPath>
    <clipPath id="clip-3">
      <path clip-rule="nonzero" d="M 16.5 3.5 L 25.5 3.5 C 27.148438 3.5 28.5 4.851562 28.5 6.5 L 28.5 15.5 L 20.5 15.5 C 18.300781 15.5 16.5 13.699219 16.5 11.5 Z M 16.5 3.5 "/>
    </clipPath>
    <clipPath id="clip-4">
      <path clip-rule="nonzero" d="M 19 5 L 26 5 L 26 14 L 19 14 Z M 19 5 "/>
    </clipPath>
    <clipPath id="clip-5">
      <path clip-rule="nonzero" d="M 16.5 3.5 L 25.5 3.5 C 27.148438 3.5 28.5 4.851562 28.5 6.5 L 28.5 15.5 L 20.5 15.5 C 18.300781 15.5 16.5 13.699219 16.5 11.5 Z M 16.5 3.5 "/>
    </clipPath>
  </defs>
  <path fill-rule="nonzero" fill="#11111b" fill-opacity="1" d="M 6.5 3.5 L 25.5 3.5 C 27.148438 3.5 28.5 4.851562 28.5 6.5 L 28.5 25.5 C 28.5 27.148438 27.148438 28.5 25.5 28.5 L 6.5 28.5 C 4.851562 28.5 3.5 27.148438 3.5 25.5 L 3.5 6.5 C 3.5 4.851562 4.851562 3.5 6.5 3.5 Z M 6.5 3.5 "/>
  <g clip-path="url(#clip-0)">
    <g clip-path="url(#clip-1)">
      <path fill-rule="nonzero" fill="#b4befe" fill-opacity="1" d="M 16.5 3.5 L 25.5 3.5 C 27.148438 3.5 28.5 4.851562 28.5 6.5 L 28.5 15.5 L 20.5 15.5 C 18.300781 15.5 16.5 13.699219 16.5 11.5 Z M 16.5 3.5 "/>
    </g>
  </g>
  <g clip-path="url(#clip-2)">
    <g clip-path="url(#clip-3)">
      <path fill-rule="nonzero" fill="#b4befe" fill-opacity="1" d="M 32.5 15.25 C 32.5 17.320312 30.820312 19 28.75 19 C 26.679688 19 25 17.320312 25 15.25 C 25 13.179688 26.679688 11.5 28.75 11.5 C 30.820312 11.5 32.5 13.179688 32.5 15.25 Z M 32.5 15.25 "/>
    </g>
  </g>
  <g clip-path="url(#clip-4)">
    <g clip-path="url(#clip-5)">
      <path fill-rule="nonzero" fill="#11111b" fill-opacity="1" d="M 24.949219 5.449219 C 23.398438 5.449219 23.101562 7.851562 23.949219 7.851562 C 24.851562 7.851562 26.550781 5.449219 24.949219 5.449219 Z M 22.550781 5.851562 C 22.550781 5.851562 22.5 5.851562 22.449219 5.851562 C 21.550781 5.949219 21.851562 7.449219 22.351562 7.5 C 22.800781 7.5 23.300781 5.851562 22.550781 5.851562 Z M 21 6.398438 C 20.949219 6.398438 20.898438 6.398438 20.800781 6.449219 C 20.101562 6.75 20.699219 7.949219 21.101562 7.898438 C 21.449219 7.800781 21.5 6.449219 21 6.398438 Z M 19.800781 7.398438 C 19.75 7.398438 19.648438 7.398438 19.601562 7.449219 C 19.050781 7.898438 19.800781 8.898438 20.148438 8.75 C 20.449219 8.601562 20.25 7.398438 19.800781 7.398438 Z M 23.199219 8.398438 C 21.949219 8.398438 20.300781 9 20.050781 10.300781 C 19.75 11.648438 21.300781 13.601562 22.898438 13.601562 C 23.699219 13.601562 24.601562 12.851562 24.800781 11.949219 C 24.949219 11.25 23.25 11.550781 23.300781 12 C 23.351562 12.550781 22.898438 12.851562 22.449219 12.449219 C 20.949219 11.300781 24.898438 10.75 24.648438 9.148438 C 24.550781 8.648438 23.949219 8.398438 23.199219 8.398438 Z M 23.199219 8.398438 "/>
    </g>
  </g>
</svg>