<?xml version="1.0" encoding="UTF-8" standalone="yes"?>
<svg xmlns="http://www.w3.org/2000/svg" xmlns:xlink="http://www.w3.org/1999/xlink" width="32" height="32" viewBox="0 0 32 32">
  <defs>
    <clipPath id="clip-0">
      <path clip-rule="nonzero" d="M 16 3 L 29 3 L 29 16 L 16 16 Z M 16 3 "/>
    </clipPath>
    <clipPath id="clip-1">
      <path clip-rule="nonzero" d="M 16.5 3.5 L 25.5 3.5 C 27.148438 3.5 28.5 4.851562 28.5 6.5 L 28.5 15.5 L 20.5 15.5 C 18.300781 15.5 16.5 13.699219 16.5 11.5 Z M 16.5 3.5 "/>
    </clipPath>
    <clipPath id="clip-2">
      <path clip-rule="nonzero" d="M 25 11 L 29 11 L 29 16 L 25 16 Z M 25 11 "/>
    </clipPath>
    <clipPath id="clip-3">
      <path clip-rule="nonzero" d="M 16.5 3.5 L 25.5 3.5 C 27.148438 3.5 28.5 4.851562 28.5 6.5 L 28.5 15.5 L 20.5 15.5 C 18.300781 15.5 16.5 13.699219 16.5 11.5 Z M 16.5 3.5 "/>
    </clipPath>
    <clipPath id="clip-4">
      <path clip-rule="nonzero" d="M 19 5 L 27 5 L 27 13 L 19 13 Z M 19 5 "/>
    </clipPath>
    <clipPath id="clip-5">
      <path clip-rule="nonzero" d="M 16.5 3.5 L 25.5 3.5 C 27.148438 3.5 28.5 4.851562 28.5 6.5 L 28.5 15.5 L 20.5 15.5 C 18.300781 15.5 16.5 13.699219 16.5 11.5 Z M 16.5 3.5 "/>
    </clipPath>
  </defs>
  <path fill-rule="nonzero" fill="#11111b" fill-opacity="1" d="M 6.5 3.5 L 25.5 3.5 C 27.148438 3.5 28.5 4.851562 28.5 6.5 L 28.5 25.5 C 28.5 27.148438 27.148438 28.5 25.5 28.5 L 6.5 28.5 C 4.851562 28.5 3.5 27.148438 3.5 25.5 L 3.5 6.5 C 3.5 4.851562 4.851562 3.5 6.5 3.5 Z M 6.5 3.5 "/>
  <g clip-path="url(#clip-0)">
    <g clip-path="url(#clip-1)">
      <path fill-rule="nonzero" fill="#b4befe" fill-opacity="1" d="M 16.5 3.5 L 25.5 3.5 C 27.148438 3.5 28.5 4.851562 28.5 6.5 L 28.5 15.5 L 20.5 15.5 C 18.300781 15.5 16.5 13.699219 16.5 11.5 Z M 16.5 3.5 "/>
    </g>
  </g>
  <g clip-path="url(#clip-2)">
    <g clip-path="url(#clip-3)">
      <path fill-rule="nonzero" fill="#b4befe" fill-opacity="1" d="M 32.5 15.25 C 32.5 17.320312 30.820312 19 28.75 19 C 26.679688 19 25 17.320312 25 15.25 C 25 13.179688 26.679688 11.5 28.75 11.5 C 30.820312 11.5 32.5 13.179688 32.5 15.25 Z M 32.5 15.25 "/>
    </g>
  </g>
  <g clip-path="url(#clip-4)">
    <g clip-path="url(#clip-5)">
      <path fill-rule="nonzero" fill="#11111b" fill-opacity="1" d="M 23.101562 10.699219 C 22.550781 11 22 11 21.648438 10.949219 C 21.199219 10.898438 20.898438 10.800781 20.75 10.699219 C 20.648438 10.648438 20.550781 10.648438 20.449219 10.75 C 20.398438 10.851562 20.398438 10.949219 20.5 11.050781 C 20.75 11.199219 21.148438 11.351562 21.601562 11.351562 C 21.699219 11.351562 21.75 11.351562 21.851562 11.351562 C 22.25 11.351562 22.75 11.300781 23.25 11.050781 C 23.351562 11 23.398438 10.898438 23.351562 10.800781 C 23.351562 10.699219 23.199219 10.648438 23.101562 10.699219 Z M 25.398438 10.398438 C 25.398438 8.648438 25.601562 5.300781 22.199219 5.550781 C 18.851562 5.800781 19.75 9.351562 19.699219 10.550781 C 19.648438 11.199219 19.449219 11.949219 19.148438 12.699219 L 20.050781 12.699219 C 20.148438 12.351562 20.199219 12.050781 20.25 11.75 C 20.300781 11.800781 20.351562 11.800781 20.449219 11.851562 C 20.550781 11.898438 20.648438 12 20.75 12.050781 C 20.949219 12.25 21.199219 12.449219 21.699219 12.5 C 21.75 12.5 21.75 12.5 21.800781 12.5 C 22.300781 12.5 22.601562 12.300781 22.898438 12.101562 C 23.050781 12 23.148438 11.949219 23.25 11.898438 C 23.550781 11.800781 23.800781 11.648438 24 11.449219 C 24.050781 11.398438 24.050781 11.398438 24.101562 11.351562 C 24.199219 11.75 24.351562 12.199219 24.5 12.601562 L 26.449219 12.601562 C 25.851562 12 25.398438 11.300781 25.398438 10.398438 Z M 20 9.449219 C 19.949219 8.851562 20.25 8.398438 20.601562 8.351562 C 20.949219 8.300781 21.300781 8.800781 21.351562 9.351562 C 21.351562 9.398438 21.351562 9.398438 21.351562 9.449219 C 21.25 9.5 21.101562 9.5 21.050781 9.550781 C 21 9.25 20.851562 9 20.648438 9 C 20.449219 9 20.351562 9.300781 20.351562 9.648438 C 20.351562 9.800781 20.398438 9.898438 20.449219 10 C 20.449219 10 20.398438 10.050781 20.351562 10.050781 C 20.300781 10.101562 20.25 10.101562 20.199219 10.148438 C 20.101562 10 20.050781 9.75 20 9.449219 Z M 23.800781 10.898438 C 23.800781 11.199219 23.398438 11.5 23 11.601562 C 22.851562 11.648438 22.699219 11.75 22.550781 11.851562 C 22.300781 12 22.050781 12.148438 21.699219 12.148438 C 21.699219 12.148438 21.648438 12.148438 21.648438 12.148438 C 21.300781 12.148438 21.148438 12 20.949219 11.800781 C 20.851562 11.699219 20.75 11.601562 20.601562 11.550781 C 20.300781 11.398438 20.101562 11.148438 20.101562 11 C 20.101562 10.898438 20.148438 10.851562 20.199219 10.75 C 20.398438 10.601562 20.5 10.5 20.601562 10.449219 C 20.699219 10.398438 20.699219 10.351562 20.75 10.351562 C 20.75 10.351562 20.800781 10.300781 20.800781 10.300781 C 20.949219 10.148438 21.25 9.851562 21.699219 9.851562 C 21.949219 9.851562 22.25 9.949219 22.601562 10.148438 C 22.75 10.25 22.898438 10.300781 23.050781 10.351562 C 23.148438 10.398438 23.300781 10.449219 23.449219 10.5 C 23.601562 10.550781 23.800781 10.699219 23.800781 10.898438 Z M 23.699219 10.148438 C 23.648438 10.148438 23.648438 10.101562 23.601562 10.101562 C 23.449219 10.050781 23.300781 10 23.199219 9.949219 C 23.25 9.851562 23.300781 9.699219 23.300781 9.550781 C 23.300781 9.199219 23.101562 8.898438 22.898438 8.898438 C 22.648438 8.898438 22.449219 9.199219 22.449219 9.550781 C 22.449219 9.550781 22.449219 9.550781 22.449219 9.601562 C 22.300781 9.550781 22.148438 9.5 22 9.449219 C 22 9.449219 22 9.398438 22 9.398438 C 22 8.75 22.398438 8.199219 22.898438 8.148438 C 23.398438 8.148438 23.851562 8.648438 23.851562 9.351562 C 23.949219 9.648438 23.851562 9.949219 23.699219 10.148438 Z M 23.699219 10.148438 "/>
    </g>
  </g>
</svg>