<?xml version="1.0" encoding="UTF-8" standalone="yes"?>
<svg xmlns="http://www.w3.org/2000/svg" xmlns:xlink="http://www.w3.org/1999/xlink" width="32" height="32" viewBox="0 0 32 32">
  <defs>
    <clipPath id="clip-0">
      <path clip-rule="nonzero" d="M 16 3 L 29 3 L 29 16 L 16 16 Z M 16 3 "/>
    </clipPath>
    <clipPath id="clip-1">
      <path clip-rule="nonzero" d="M 16.5 3.5 L 25.5 3.5 C 27.148438 3.5 28.5 4.851562 28.5 6.5 L 28.5 15.5 L 20.5 15.5 C 18.300781 15.5 16.5 13.699219 16.5 11.5 Z M 16.5 3.5 "/>
    </clipPath>
    <clipPath id="clip-2">
      <path clip-rule="nonzero" d="M 25 11 L 29 11 L 29 16 L 25 16 Z M 25 11 "/>
    </clipPath>
    <clipPath id="clip-3">
      <path clip-rule="nonzero" d="M 16.5 3.5 L 25.5 3.5 C 27.148438 3.5 28.5 4.851562 28.5 6.5 L 28.5 15.5 L 20.5 15.5 C 18.300781 15.5 16.5 13.699219 16.5 11.5 Z M 16.5 3.5 "/>
    </clipPath>
    <clipPath id="clip-4">
      <path clip-rule="nonzero" d="M 18 5 L 27 5 L 27 14 L 18 14 Z M 18 5 "/>
    </clipPath>
    <clipPath id="clip-5">
      <path clip-rule="nonzero" d="M 16.5 3.5 L 25.5 3.5 C 27.148438 3.5 28.5 4.851562 28.5 6.5 L 28.5 15.5 L 20.5 15.5 C 18.300781 15.5 16.5 13.699219 16.5 11.5 Z M 16.5 3.5 "/>
    </clipPath>
  </defs>
  <path fill-rule="nonzero" fill="#11111b" fill-opacity="1" d="M 6.5 3.5 L 25.5 3.5 C 27.148438 3.5 28.5 4.851562 28.5 6.5 L 28.5 25.5 C 28.5 27.148438 27.148438 28.5 25.5 28.5 L 6.5 28.5 C 4.851562 28.5 3.5 27.148438 3.5 25.5 L 3.5 6.5 C 3.5 4.851562 4.851562 3.5 6.5 3.5 Z M 6.5 3.5 "/>
  <g clip-path="url(#clip-0)">
    <g clip-path="url(#clip-1)">
      <path fill-rule="nonzero" fill="#b4befe" fill-opacity="1" d="M 16.5 3.5 L 25.5 3.5 C 27.148438 3.5 28.5 4.851562 28.5 6.5 L 28.5 15.5 L 20.5 15.5 C 18.300781 15.5 16.5 13.699219 16.5 11.5 Z M 16.5 3.5 "/>
    </g>
  </g>
  <g clip-path="url(#clip-2)">
    <g clip-path="url(#clip-3)">
      <path fill-rule="nonzero" fill="#b4befe" fill-opacity="1" d="M 32.5 15.25 C 32.5 17.320312 30.820312 19 28.75 19 C 26.679688 19 25 17.320312 25 15.25 C 25 13.179688 26.679688 11.5 28.75 11.5 C 30.820312 11.5 32.5 13.179688 32.5 15.25 Z M 32.5 15.25 "/>
    </g>
  </g>
  <g clip-path="url(#clip-4)">
    <g clip-path="url(#clip-5)">
      <path fill-rule="nonzero" fill="#11111b" fill-opacity="1" d="M 22.699219 5.351562 C 20.398438 5.351562 18.550781 7.199219 18.550781 9.5 C 18.550781 11.800781 20.398438 13.648438 22.699219 13.648438 C 25 13.648438 26.851562 11.800781 26.851562 9.5 C 26.851562 7.199219 25 5.351562 22.699219 5.351562 Z M 22.449219 6.5 C 22.5 6.5 22.550781 6.5 22.601562 6.5 C 22.601562 6.5 22.550781 6.601562 22.550781 6.699219 C 22.25 7.351562 22.25 8.050781 22.5 8.449219 C 22.550781 8.5 22.601562 8.601562 22.601562 8.601562 C 22.601562 8.601562 22.550781 8.601562 22.5 8.601562 C 22.351562 8.601562 22.25 8.5 21.949219 8.300781 C 21.851562 8.199219 21.699219 8.148438 21.601562 8.101562 C 21.5 8.101562 21.5 8.101562 21.351562 8.199219 C 21.25 8.300781 21.199219 8.351562 21.199219 8.5 C 21.199219 8.898438 21.648438 9.199219 22.550781 9.398438 C 23.75 9.648438 24 9.851562 24.050781 10.5 C 24.101562 11.300781 23.699219 11.851562 22.75 12.300781 C 22.648438 12.351562 22.550781 12.398438 22.550781 12.398438 C 22.550781 12.398438 22.5 12.398438 22.5 12.398438 C 22.5 12.398438 22.5 12.300781 22.5 12.199219 C 22.5 11.800781 22.351562 11.351562 22.101562 11.101562 C 22.050781 11.050781 21.851562 10.898438 21.699219 10.800781 C 21.550781 10.699219 21.398438 10.601562 21.351562 10.550781 C 21.300781 10.449219 21.300781 10.398438 21.351562 10.25 C 21.449219 10 21.550781 9.851562 21.699219 9.648438 C 21.800781 9.550781 21.898438 9.5 21.898438 9.5 C 21.898438 9.5 21.75 9.449219 21.550781 9.398438 C 21.351562 9.351562 21 9.25 20.851562 9.199219 C 20.550781 9.101562 20.101562 8.851562 19.949219 8.699219 C 20.199219 7.800781 20.800781 7.050781 21.699219 6.699219 C 21.898438 6.601562 22.050781 6.550781 22.25 6.550781 C 22.25 6.5 22.351562 6.5 22.449219 6.5 Z M 25.199219 7.898438 C 25.25 7.949219 25.550781 8.5 25.601562 8.800781 C 25.699219 9.148438 25.699219 9.800781 25.601562 10.148438 C 25.550781 10.300781 25.5 10.398438 25.5 10.449219 C 25.5 10.449219 25.449219 10.351562 25.351562 10.25 C 25.300781 10.148438 25.101562 9.898438 24.898438 9.75 C 24.398438 9.25 24.351562 9 24.550781 8.601562 C 24.699219 8.300781 25.148438 7.851562 25.199219 7.898438 Z M 25.199219 7.898438 "/>
    </g>
  </g>
</svg>