<?xml version="1.0" encoding="UTF-8" standalone="yes"?>
<svg xmlns="http://www.w3.org/2000/svg" xmlns:xlink="http://www.w3.org/1999/xlink" width="32" height="32" viewBox="0 0 32 32">
  <defs>
    <clipPath id="clip-0">
      <path clip-rule="nonzero" d="M 16 3 L 29 3 L 29 16 L 16 16 Z M 16 3 "/>
    </clipPath>
    <clipPath id="clip-1">
      <path clip-rule="nonzero" d="M 16.5 3.5 L 25.5 3.5 C 27.148438 3.5 28.5 4.851562 28.5 6.5 L 28.5 15.5 L 20.5 15.5 C 18.300781 15.5 16.5 13.699219 16.5 11.5 Z M 16.5 3.5 "/>
    </clipPath>
    <clipPath id="clip-2">
      <path clip-rule="nonzero" d="M 25 11 L 29 11 L 29 16 L 25 16 Z M 25 11 "/>
    </clipPath>
    <clipPath id="clip-3">
      <path clip-rule="nonzero" d="M 16.5 3.5 L 25.5 3.5 C 27.148438 3.5 28.5 4.851562 28.5 6.5 L 28.5 15.5 L 20.5 15.5 C 18.300781 15.5 16.5 13.699219 16.5 11.5 Z M 16.5 3.5 "/>
    </clipPath>
    <clipPath id="clip-4">
      <path clip-rule="nonzero" d="M 19 6 L 26 6 L 26 12 L 19 12 Z M 19 6 "/>
    </clipPath>
    <clipPath id="clip-5">
      <path clip-rule="nonzero" d="M 16.5 3.5 L 25.5 3.5 C 27.148438 3.5 28.5 4.851562 28.5 6.5 L 28.5 15.5 L 20.5 15.5 C 18.300781 15.5 16.5 13.699219 16.5 11.5 Z M 16.5 3.5 "/>
    </clipPath>
  </defs>
  <path fill-rule="nonzero" fill="#11111b" fill-opacity="1" d="M 6.5 3.5 L 25.5 3.5 C 27.148438 3.5 28.5 4.851562 28.5 6.5 L 28.5 25.5 C 28.5 27.148438 27.148438 28.5 25.5 28.5 L 6.5 28.5 C 4.851562 28.5 3.5 27.148438 3.5 25.5 L 3.5 6.5 C 3.5 4.851562 4.851562 3.5 6.5 3.5 Z M 6.5 3.5 "/>
  <g clip-path="url(#clip-0)">
    <g clip-path="url(#clip-1)">
      <path fill-rule="nonzero" fill="#b4befe" fill-opacity="1" d="M 16.5 3.5 L 25.5 3.5 C 27.148438 3.5 28.5 4.851562 28.5 6.5 L 28.5 15.5 L 20.5 15.5 C 18.300781 15.5 16.5 13.699219 16.5 11.5 Z M 16.5 3.5 "/>
    </g>
  </g>
  <g clip-path="url(#clip-2)">
    <g clip-path="url(#clip-3)">
      <path fill-rule="nonzero" fill="#b4befe" fill-opacity="1" d="M 32.5 15.25 C 32.5 17.320312 30.820312 19 28.75 19 C 26.679688 19 25 17.320312 25 15.25 C 25 13.179688 26.679688 11.5 28.75 11.5 C 30.820312 11.5 32.5 13.179688 32.5 15.25 Z M 32.5 15.25 "/>
    </g>
  </g>
  <g clip-path="url(#clip-4)">
    <g clip-path="url(#clip-5)">
      <path fill-rule="nonzero" fill="#11111b" fill-opacity="1" d="M 20.800781 7.601562 C 20.800781 7.601562 20.75 7.601562 20.75 7.601562 C 20.550781 7.699219 20.5 8 20.648438 8.300781 C 20.75 8.550781 20.949219 8.648438 21.148438 8.648438 C 21.300781 9.398438 21.851562 10 22.550781 10 C 23.199219 10 23.800781 9.449219 23.949219 8.648438 C 24.148438 8.648438 24.351562 8.5 24.449219 8.300781 C 24.601562 8 24.550781 7.699219 24.351562 7.601562 C 24.351562 7.601562 24.300781 7.601562 24.300781 7.601562 C 24.25 6.75 23.5 6.101562 22.601562 6.101562 C 21.699219 6.101562 20.851562 6.75 20.800781 7.601562 Z M 23.550781 10.148438 C 23.449219 10.25 23.351562 10.351562 23.199219 10.449219 C 23 10.601562 22.75 10.648438 22.5 10.648438 C 22.101562 10.648438 21.75 10.449219 21.5 10.148438 C 20.449219 10.300781 19.300781 10.550781 19.199219 10.800781 C 19.199219 10.800781 19.199219 10.851562 19.199219 10.851562 L 19.199219 11.75 C 19.199219 11.851562 19.25 11.949219 19.351562 11.949219 L 25.601562 11.949219 C 25.699219 11.949219 25.75 11.851562 25.75 11.75 L 25.75 10.851562 C 25.75 10.851562 25.75 10.800781 25.75 10.800781 C 25.699219 10.550781 24.601562 10.351562 23.550781 10.148438 Z M 23.550781 10.148438 "/>
    </g>
  </g>
</svg>