<?xml version="1.0" encoding="UTF-8" standalone="yes"?>
<svg xmlns="http://www.w3.org/2000/svg" xmlns:xlink="http://www.w3.org/1999/xlink" width="32" height="32" viewBox="0 0 32 32">
  <defs>
    <clipPath id="clip-0">
      <path clip-rule="nonzero" d="M 16 3 L 29 3 L 29 16 L 16 16 Z M 16 3 "/>
    </clipPath>
    <clipPath id="clip-1">
      <path clip-rule="nonzero" d="M 16.5 3.5 L 25.5 3.5 C 27.148438 3.5 28.5 4.851562 28.5 6.5 L 28.5 15.5 L 20.5 15.5 C 18.300781 15.5 16.5 13.699219 16.5 11.5 Z M 16.5 3.5 "/>
    </clipPath>
    <clipPath id="clip-2">
      <path clip-rule="nonzero" d="M 25 11 L 29 11 L 29 16 L 25 16 Z M 25 11 "/>
    </clipPath>
    <clipPath id="clip-3">
      <path clip-rule="nonzero" d="M 16.5 3.5 L 25.5 3.5 C 27.148438 3.5 28.5 4.851562 28.5 6.5 L 28.5 15.5 L 20.5 15.5 C 18.300781 15.5 16.5 13.699219 16.5 11.5 Z M 16.5 3.5 "/>
    </clipPath>
    <clipPath id="clip-4">
      <path clip-rule="nonzero" d="M 17 7 L 28 7 L 28 12 L 17 12 Z M 17 7 "/>
    </clipPath>
    <clipPath id="clip-5">
      <path clip-rule="nonzero" d="M 16.5 3.5 L 25.5 3.5 C 27.148438 3.5 28.5 4.851562 28.5 6.5 L 28.5 15.5 L 20.5 15.5 C 18.300781 15.5 16.5 13.699219 16.5 11.5 Z M 16.5 3.5 "/>
    </clipPath>
  </defs>
  <path fill-rule="nonzero" fill="#11111b" fill-opacity="1" d="M 6.5 3.5 L 25.5 3.5 C 27.148438 3.5 28.5 4.851562 28.5 6.5 L 28.5 25.5 C 28.5 27.148438 27.148438 28.5 25.5 28.5 L 6.5 28.5 C 4.851562 28.5 3.5 27.148438 3.5 25.5 L 3.5 6.5 C 3.5 4.851562 4.851562 3.5 6.5 3.5 Z M 6.5 3.5 "/>
  <g clip-path="url(#clip-0)">
    <g clip-path="url(#clip-1)">
      <path fill-rule="nonzero" fill="#b4befe" fill-opacity="1" d="M 16.5 3.5 L 25.5 3.5 C 27.148438 3.5 28.5 4.851562 28.5 6.5 L 28.5 15.5 L 20.5 15.5 C 18.300781 15.5 16.5 13.699219 16.5 11.5 Z M 16.5 3.5 "/>
    </g>
  </g>
  <g clip-path="url(#clip-2)">
    <g clip-path="url(#clip-3)">
      <path fill-rule="nonzero" fill="#b4befe" fill-opacity="1" d="M 32.5 15.25 C 32.5 17.320312 30.820312 19 28.75 19 C 26.679688 19 25 17.320312 25 15.25 C 25 13.179688 26.679688 11.5 28.75 11.5 C 30.820312 11.5 32.5 13.179688 32.5 15.25 Z M 32.5 15.25 "/>
    </g>
  </g>
  <g clip-path="url(#clip-4)">
    <g clip-path="url(#clip-5)">
      <path fill-rule="nonzero" fill="#11111b" fill-opacity="1" d="M 26.148438 8.101562 C 25.300781 8.101562 24.601562 8.800781 24.601562 9.648438 C 24.601562 10.5 25.300781 11.199219 26.148438 11.199219 C 27 11.199219 27.699219 10.5 27.699219 9.648438 C 27.699219 8.800781 27 8.101562 26.148438 8.101562 Z M 26.148438 9.148438 C 26.449219 9.148438 26.648438 9.398438 26.648438 9.648438 C 26.648438 9.898438 26.398438 10.148438 26.148438 10.148438 C 25.898438 10.148438 25.648438 9.898438 25.648438 9.648438 C 25.648438 9.398438 25.851562 9.148438 26.148438 9.148438 Z M 18.851562 8.101562 C 18 8.101562 17.300781 8.800781 17.300781 9.648438 C 17.300781 10.5 18 11.199219 18.851562 11.199219 C 19.699219 11.199219 20.398438 10.5 20.398438 9.648438 C 20.398438 8.800781 19.699219 8.101562 18.851562 8.101562 Z M 18.851562 9.148438 C 19.148438 9.148438 19.351562 9.398438 19.351562 9.648438 C 19.351562 9.898438 19.101562 10.148438 18.851562 10.148438 C 18.601562 10.148438 18.351562 9.898438 18.351562 9.648438 C 18.351562 9.398438 18.550781 9.148438 18.851562 9.148438 Z M 22.5 7.601562 C 21.351562 7.601562 20.398438 8.550781 20.398438 9.699219 C 20.398438 10.851562 21.351562 11.800781 22.5 11.800781 C 23.648438 11.800781 24.601562 10.851562 24.601562 9.699219 C 24.601562 8.550781 23.648438 7.601562 22.5 7.601562 Z M 22.5 8.648438 C 23.101562 8.648438 23.550781 9.101562 23.550781 9.699219 C 23.550781 10.300781 23.101562 10.75 22.5 10.75 C 21.898438 10.75 21.449219 10.300781 21.449219 9.699219 C 21.449219 9.101562 21.898438 8.648438 22.5 8.648438 Z M 22.5 8.648438 "/>
    </g>
  </g>
</svg>