<?xml version="1.0" encoding="UTF-8" standalone="yes"?>
<svg xmlns="http://www.w3.org/2000/svg" xmlns:xlink="http://www.w3.org/1999/xlink" width="32" height="32" viewBox="0 0 32 32">
  <defs>
    <clipPath id="clip-0">
      <path clip-rule="nonzero" d="M 16 3 L 29 3 L 29 16 L 16 16 Z M 16 3 "/>
    </clipPath>
    <clipPath id="clip-1">
      <path clip-rule="nonzero" d="M 16.5 3.5 L 25.5 3.5 C 27.148438 3.5 28.5 4.851562 28.5 6.5 L 28.5 15.5 L 20.5 15.5 C 18.300781 15.5 16.5 13.699219 16.5 11.5 Z M 16.5 3.5 "/>
    </clipPath>
    <clipPath id="clip-2">
      <path clip-rule="nonzero" d="M 25 11 L 29 11 L 29 16 L 25 16 Z M 25 11 "/>
    </clipPath>
    <clipPath id="clip-3">
      <path clip-rule="nonzero" d="M 16.5 3.5 L 25.5 3.5 C 27.148438 3.5 28.5 4.851562 28.5 6.5 L 28.5 15.5 L 20.5 15.5 C 18.300781 15.5 16.5 13.699219 16.5 11.5 Z M 16.5 3.5 "/>
    </clipPath>
    <clipPath id="clip-4">
      <path clip-rule="nonzero" d="M 18 5 L 28 5 L 28 13 L 18 13 Z M 18 5 "/>
    </clipPath>
    <clipPath id="clip-5">
      <path clip-rule="nonzero" d="M 16.5 3.5 L 25.5 3.5 C 27.148438 3.5 28.5 4.851562 28.5 6.5 L 28.5 15.5 L 20.5 15.5 C 18.300781 15.5 16.5 13.699219 16.5 11.5 Z M 16.5 3.5 "/>
    </clipPath>
  </defs>
  <path fill-rule="nonzero" fill="#11111b" fill-opacity="1" d="M 6.5 3.5 L 25.5 3.5 C 27.148438 3.5 28.5 4.851562 28.5 6.5 L 28.5 25.5 C 28.5 27.148438 27.148438 28.5 25.5 28.5 L 6.5 28.5 C 4.851562 28.5 3.5 27.148438 3.5 25.5 L 3.5 6.5 C 3.5 4.851562 4.851562 3.5 6.5 3.5 Z M 6.5 3.5 "/>
  <g clip-path="url(#clip-0)">
    <g clip-path="url(#clip-1)">
      <path fill-rule="nonzero" fill="#b4befe" fill-opacity="1" d="M 16.5 3.5 L 25.5 3.5 C 27.148438 3.5 28.5 4.851562 28.5 6.5 L 28.5 15.5 L 20.5 15.5 C 18.300781 15.5 16.5 13.699219 16.5 11.5 Z M 16.5 3.5 "/>
    </g>
  </g>
  <g clip-path="url(#clip-2)">
    <g clip-path="url(#clip-3)">
      <path fill-rule="nonzero" fill="#b4befe" fill-opacity="1" d="M 32.5 15.25 C 32.5 17.320312 30.820312 19 28.75 19 C 26.679688 19 25 17.320312 25 15.25 C 25 13.179688 26.679688 11.5 28.75 11.5 C 30.820312 11.5 32.5 13.179688 32.5 15.25 Z M 32.5 15.25 "/>
    </g>
  </g>
  <g clip-path="url(#clip-4)">
    <g clip-path="url(#clip-5)">
      <path fill-rule="nonzero" fill="#11111b" fill-opacity="1" d="M 20.75 5.800781 C 20.648438 5.800781 20.5 5.851562 20.351562 5.898438 C 19.800781 6.199219 19.300781 7.199219 19.050781 8.449219 C 18.800781 9.550781 18.75 11 18.851562 11.601562 C 18.949219 12.101562 19.148438 12.351562 19.550781 12.351562 C 20.101562 12.351562 20.75 11.699219 21.199219 10.851562 C 21.5 10.351562 22.25 10.148438 22.898438 10.199219 C 23.601562 10.148438 24.300781 10.398438 24.601562 10.851562 C 25.050781 11.699219 25.699219 12.351562 26.25 12.351562 C 26.601562 12.351562 26.800781 12.101562 26.949219 11.601562 C 27.101562 11 27 9.5 26.75 8.449219 C 26.5 7.148438 26 6.199219 25.449219 5.898438 C 25.300781 5.800781 25.148438 5.800781 25.050781 5.800781 C 24.949219 5.800781 24.800781 5.851562 24.699219 5.898438 C 24.449219 6.101562 23.851562 6.351562 22.851562 6.351562 C 21.851562 6.351562 21.300781 6.148438 21 5.898438 C 20.949219 5.851562 20.851562 5.800781 20.75 5.800781 Z M 20.851562 7.050781 L 21.648438 7.050781 L 21.648438 7.851562 L 22.5 7.851562 L 22.5 8.648438 L 21.699219 8.648438 L 21.699219 9.5 L 20.898438 9.5 L 20.898438 8.699219 L 20.101562 8.699219 L 20.101562 7.898438 L 20.898438 7.898438 L 20.898438 7.050781 Z M 24.550781 7.050781 C 24.800781 7.050781 24.949219 7.25 24.949219 7.449219 C 24.949219 7.699219 24.75 7.851562 24.550781 7.851562 C 24.300781 7.851562 24.148438 7.648438 24.148438 7.449219 C 24.148438 7.199219 24.351562 7.050781 24.550781 7.050781 Z M 23.75 7.851562 C 24 7.851562 24.148438 8.050781 24.148438 8.25 C 24.148438 8.449219 23.949219 8.648438 23.75 8.648438 C 23.5 8.648438 23.351562 8.449219 23.351562 8.25 C 23.351562 8.050781 23.5 7.851562 23.75 7.851562 Z M 25.398438 7.851562 C 25.648438 7.851562 25.800781 8.050781 25.800781 8.25 C 25.800781 8.449219 25.601562 8.648438 25.398438 8.648438 C 25.199219 8.648438 25 8.449219 25 8.25 C 25 8.050781 25.148438 7.851562 25.398438 7.851562 Z M 24.550781 8.699219 C 24.800781 8.699219 24.949219 8.898438 24.949219 9.101562 C 24.949219 9.300781 24.800781 9.5 24.550781 9.5 C 24.300781 9.5 24.148438 9.300781 24.148438 9.101562 C 24.148438 8.898438 24.351562 8.699219 24.550781 8.699219 Z M 24.550781 8.699219 "/>
    </g>
  </g>
</svg>