<?xml version="1.0" encoding="UTF-8" standalone="yes"?>
<svg xmlns="http://www.w3.org/2000/svg" xmlns:xlink="http://www.w3.org/1999/xlink" width="32" height="32" viewBox="0 0 32 32">
  <defs>
    <clipPath id="clip-0">
      <path clip-rule="nonzero" d="M 16 3 L 29 3 L 29 16 L 16 16 Z M 16 3 "/>
    </clipPath>
    <clipPath id="clip-1">
      <path clip-rule="nonzero" d="M 16.5 3.5 L 25.5 3.5 C 27.148438 3.5 28.5 4.851562 28.5 6.5 L 28.5 15.5 L 20.5 15.5 C 18.300781 15.5 16.5 13.699219 16.5 11.5 Z M 16.5 3.5 "/>
    </clipPath>
    <clipPath id="clip-2">
      <path clip-rule="nonzero" d="M 25 11 L 29 11 L 29 16 L 25 16 Z M 25 11 "/>
    </clipPath>
    <clipPath id="clip-3">
      <path clip-rule="nonzero" d="M 16.5 3.5 L 25.5 3.5 C 27.148438 3.5 28.5 4.851562 28.5 6.5 L 28.5 15.5 L 20.5 15.5 C 18.300781 15.5 16.5 13.699219 16.5 11.5 Z M 16.5 3.5 "/>
    </clipPath>
    <clipPath id="clip-4">
      <path clip-rule="nonzero" d="M 19 5 L 26 5 L 26 13 L 19 13 Z M 19 5 "/>
    </clipPath>
    <clipPath id="clip-5">
      <path clip-rule="nonzero" d="M 16.5 3.5 L 25.5 3.5 C 27.148438 3.5 28.5 4.851562 28.5 6.5 L 28.5 15.5 L 20.5 15.5 C 18.300781 15.5 16.5 13.699219 16.5 11.5 Z M 16.5 3.5 "/>
    </clipPath>
  </defs>
  <path fill-rule="nonzero" fill="#11111b" fill-opacity="1" d="M 6.5 3.5 L 25.5 3.5 C 27.148438 3.5 28.5 4.851562 28.5 6.5 L 28.5 25.5 C 28.5 27.148438 27.148438 28.5 25.5 28.5 L 6.5 28.5 C 4.851562 28.5 3.5 27.148438 3.5 25.5 L 3.5 6.5 C 3.5 4.851562 4.851562 3.5 6.5 3.5 Z M 6.5 3.5 "/>
  <g clip-path="url(#clip-0)">
    <g clip-path="url(#clip-1)">
      <path fill-rule="nonzero" fill="#b4befe" fill-opacity="1" d="M 16.5 3.5 L 25.5 3.5 C 27.148438 3.5 28.5 4.851562 28.5 6.5 L 28.5 15.5 L 20.5 15.5 C 18.300781 15.5 16.5 13.699219 16.5 11.5 Z M 16.5 3.5 "/>
    </g>
  </g>
  <g clip-path="url(#clip-2)">
    <g clip-path="url(#clip-3)">
      <path fill-rule="nonzero" fill="#b4befe" fill-opacity="1" d="M 32.5 15.25 C 32.5 17.320312 30.820312 19 28.75 19 C 26.679688 19 25 17.320312 25 15.25 C 25 13.179688 26.679688 11.5 28.75 11.5 C 30.820312 11.5 32.5 13.179688 32.5 15.25 Z M 32.5 15.25 "/>
    </g>
  </g>
  <g clip-path="url(#clip-4)">
    <g clip-path="url(#clip-5)">
      <path fill-rule="nonzero" fill="#11111b" fill-opacity="1" d="M 24.050781 5.648438 C 23.699219 5.648438 23.25 5.851562 23 6.101562 C 22.75 6.351562 22.550781 6.699219 22.601562 7.050781 C 23 7.101562 23.398438 6.851562 23.648438 6.601562 C 23.898438 6.398438 24.101562 6 24.050781 5.648438 Z M 23.800781 7.101562 C 23.351562 7.148438 22.898438 7.449219 22.648438 7.449219 C 22.351562 7.449219 21.949219 7.101562 21.5 7.101562 C 20.898438 7.101562 20.351562 7.449219 20.050781 8.050781 C 19.449219 9.199219 19.898438 10.949219 20.5 11.851562 C 20.800781 12.300781 21.148438 12.800781 21.601562 12.800781 C 22.050781 12.800781 22.199219 12.5 22.75 12.5 C 23.300781 12.5 23.449219 12.800781 23.898438 12.800781 C 24.398438 12.800781 24.699219 12.300781 25 11.851562 C 25.351562 11.300781 25.5 10.800781 25.5 10.75 C 25.5 10.75 24.550781 10.351562 24.550781 9.199219 C 24.550781 8.25 25.300781 7.800781 25.300781 7.75 C 24.898438 7.101562 24.25 7 24 7 C 23.949219 7.101562 23.851562 7.101562 23.800781 7.101562 Z M 23.800781 7.101562 "/>
    </g>
  </g>
</svg>