<?xml version="1.0" encoding="UTF-8" standalone="yes"?>
<svg xmlns="http://www.w3.org/2000/svg" xmlns:xlink="http://www.w3.org/1999/xlink" width="32" height="32" viewBox="0 0 32 32">
  <defs>
    <clipPath id="clip-0">
      <path clip-rule="nonzero" d="M 16 3 L 29 3 L 29 16 L 16 16 Z M 16 3 "/>
    </clipPath>
    <clipPath id="clip-1">
      <path clip-rule="nonzero" d="M 16.5 3.5 L 25.5 3.5 C 27.148438 3.5 28.5 4.851562 28.5 6.5 L 28.5 15.5 L 20.5 15.5 C 18.300781 15.5 16.5 13.699219 16.5 11.5 Z M 16.5 3.5 "/>
    </clipPath>
    <clipPath id="clip-2">
      <path clip-rule="nonzero" d="M 25 11 L 29 11 L 29 16 L 25 16 Z M 25 11 "/>
    </clipPath>
    <clipPath id="clip-3">
      <path clip-rule="nonzero" d="M 16.5 3.5 L 25.5 3.5 C 27.148438 3.5 28.5 4.851562 28.5 6.5 L 28.5 15.5 L 20.5 15.5 C 18.300781 15.5 16.5 13.699219 16.5 11.5 Z M 16.5 3.5 "/>
    </clipPath>
    <clipPath id="clip-4">
      <path clip-rule="nonzero" d="M 18 6 L 27 6 L 27 14 L 18 14 Z M 18 6 "/>
    </clipPath>
    <clipPath id="clip-5">
      <path clip-rule="nonzero" d="M 16.5 3.5 L 25.5 3.5 C 27.148438 3.5 28.5 4.851562 28.5 6.5 L 28.5 15.5 L 20.5 15.5 C 18.300781 15.5 16.5 13.699219 16.5 11.5 Z M 16.5 3.5 "/>
    </clipPath>
  </defs>
  <path fill-rule="nonzero" fill="#11111b" fill-opacity="1" d="M 6.5 3.5 L 25.5 3.5 C 27.148438 3.5 28.5 4.851562 28.5 6.5 L 28.5 25.5 C 28.5 27.148438 27.148438 28.5 25.5 28.5 L 6.5 28.5 C 4.851562 28.5 3.5 27.148438 3.5 25.5 L 3.5 6.5 C 3.5 4.851562 4.851562 3.5 6.5 3.5 Z M 6.5 3.5 "/>
  <g clip-path="url(#clip-0)">
    <g clip-path="url(#clip-1)">
      <path fill-rule="nonzero" fill="#b4befe" fill-opacity="1" d="M 16.5 3.5 L 25.5 3.5 C 27.148438 3.5 28.5 4.851562 28.5 6.5 L 28.5 15.5 L 20.5 15.5 C 18.300781 15.5 16.5 13.699219 16.5 11.5 Z M 16.5 3.5 "/>
    </g>
  </g>
  <g clip-path="url(#clip-2)">
    <g clip-path="url(#clip-3)">
      <path fill-rule="nonzero" fill="#b4befe" fill-opacity="1" d="M 32.5 15.25 C 32.5 17.320312 30.820312 19 28.75 19 C 26.679688 19 25 17.320312 25 15.25 C 25 13.179688 26.679688 11.5 28.75 11.5 C 30.820312 11.5 32.5 13.179688 32.5 15.25 Z M 32.5 15.25 "/>
    </g>
  </g>
  <g clip-path="url(#clip-4)">
    <g clip-path="url(#clip-5)">
      <path fill-rule="nonzero" fill="#11111b" fill-opacity="1" d="M 23 6.050781 C 22.699219 6.050781 22.398438 6.050781 22.101562 6.148438 C 20.5 6.5 19.398438 7.898438 19.398438 9.550781 L 18.699219 9.550781 L 19.75 10.601562 L 20.800781 9.550781 L 20.101562 9.550781 C 20.101562 8.25 21 7.148438 22.25 6.851562 C 23.5 6.550781 24.800781 7.199219 25.351562 8.398438 C 25.898438 9.601562 25.550781 11 24.5 11.75 C 23.449219 12.550781 22 12.5 21.050781 11.648438 C 20.699219 11.351562 20.25 11.898438 20.601562 12.199219 C 21.851562 13.25 23.648438 13.300781 24.949219 12.351562 C 26.25 11.351562 26.699219 9.601562 26 8.148438 C 25.5 7.050781 24.449219 6.300781 23.300781 6.148438 C 23.199219 6.050781 23.101562 6.050781 23 6.050781 Z M 22.851562 7.398438 C 22.648438 7.398438 22.5 7.550781 22.5 7.75 L 22.5 9.449219 C 22.5 9.5 22.5 9.550781 22.5 9.601562 C 22.5 9.601562 22.5 9.601562 22.5 9.648438 C 22.5 9.699219 22.550781 9.75 22.550781 9.75 L 23.550781 11.101562 C 23.648438 11.25 23.898438 11.300781 24.050781 11.148438 C 24.199219 11.050781 24.25 10.800781 24.101562 10.648438 L 23.148438 9.351562 L 23.148438 7.75 C 23.199219 7.601562 23.050781 7.398438 22.851562 7.398438 Z M 22.851562 7.398438 "/>
    </g>
  </g>
</svg>