<?xml version="1.0" encoding="UTF-8" standalone="yes"?>
<svg xmlns="http://www.w3.org/2000/svg" xmlns:xlink="http://www.w3.org/1999/xlink" width="32" height="32" viewBox="0 0 32 32">
  <defs>
    <clipPath id="clip-0">
      <path clip-rule="nonzero" d="M 16 3 L 29 3 L 29 16 L 16 16 Z M 16 3 "/>
    </clipPath>
    <clipPath id="clip-1">
      <path clip-rule="nonzero" d="M 16.5 3.5 L 25.5 3.5 C 27.148438 3.5 28.5 4.851562 28.5 6.5 L 28.5 15.5 L 20.5 15.5 C 18.300781 15.5 16.5 13.699219 16.5 11.5 Z M 16.5 3.5 "/>
    </clipPath>
    <clipPath id="clip-2">
      <path clip-rule="nonzero" d="M 25 11 L 29 11 L 29 16 L 25 16 Z M 25 11 "/>
    </clipPath>
    <clipPath id="clip-3">
      <path clip-rule="nonzero" d="M 16.5 3.5 L 25.5 3.5 C 27.148438 3.5 28.5 4.851562 28.5 6.5 L 28.5 15.5 L 20.5 15.5 C 18.300781 15.5 16.5 13.699219 16.5 11.5 Z M 16.5 3.5 "/>
    </clipPath>
    <clipPath id="clip-4">
      <path clip-rule="nonzero" d="M 19 5 L 27 5 L 27 13 L 19 13 Z M 19 5 "/>
    </clipPath>
    <clipPath id="clip-5">
      <path clip-rule="nonzero" d="M 16.5 3.5 L 25.5 3.5 C 27.148438 3.5 28.5 4.851562 28.5 6.5 L 28.5 15.5 L 20.5 15.5 C 18.300781 15.5 16.5 13.699219 16.5 11.5 Z M 16.5 3.5 "/>
    </clipPath>
  </defs>
  <path fill-rule="nonzero" fill="#11111b" fill-opacity="1" d="M 6.5 3.5 L 25.5 3.5 C 27.148438 3.5 28.5 4.851562 28.5 6.5 L 28.5 25.5 C 28.5 27.148438 27.148438 28.5 25.5 28.5 L 6.5 28.5 C 4.851562 28.5 3.5 27.148438 3.5 25.5 L 3.5 6.5 C 3.5 4.851562 4.851562 3.5 6.5 3.5 Z M 6.5 3.5 "/>
  <g clip-path="url(#clip-0)">
    <g clip-path="url(#clip-1)">
      <path fill-rule="nonzero" fill="#b4befe" fill-opacity="1" d="M 16.5 3.5 L 25.5 3.5 C 27.148438 3.5 28.5 4.851562 28.5 6.5 L 28.5 15.5 L 20.5 15.5 C 18.300781 15.5 16.5 13.699219 16.5 11.5 Z M 16.5 3.5 "/>
    </g>
  </g>
  <g clip-path="url(#clip-2)">
    <g clip-path="url(#clip-3)">
      <path fill-rule="nonzero" fill="#b4befe" fill-opacity="1" d="M 32.5 15.25 C 32.5 17.320312 30.820312 19 28.75 19 C 26.679688 19 25 17.320312 25 15.25 C 25 13.179688 26.679688 11.5 28.75 11.5 C 30.820312 11.5 32.5 13.179688 32.5 15.25 Z M 32.5 15.25 "/>
    </g>
  </g>
  <g clip-path="url(#clip-4)">
    <g clip-path="url(#clip-5)">
      <path fill-rule="nonzero" fill="#11111b" fill-opacity="1" d="M 22 5 C 22 5 22.398438 5.25 22.101562 5.898438 C 21.648438 6.898438 22.5 7.148438 22.5 7.148438 C 22.5 7.148438 22.25 6.898438 22.601562 6.101562 C 23 5.148438 22 5 22 5 Z M 23.5 6.398438 C 23.5 6.398438 22.75 6.75 23.25 7.648438 C 23.550781 8.25 23.199219 8.550781 23.199219 8.550781 C 23.199219 8.550781 24.101562 8.25 23.648438 7.398438 C 23.300781 6.648438 23.5 6.398438 23.5 6.398438 Z M 21.148438 6.449219 C 21.148438 6.449219 20.601562 7 21.148438 7.699219 C 21.5 8.148438 21.25 8.550781 21.25 8.550781 C 21.25 8.550781 21.898438 7.949219 21.449219 7.300781 C 21.050781 6.75 21.148438 6.449219 21.148438 6.449219 Z M 21.300781 8.550781 L 19.5 8.550781 L 20.550781 12.851562 L 24.5 12.851562 L 24.75 12.148438 C 24.851562 12.199219 25 12.199219 25.101562 12.199219 C 25.949219 12.199219 26.648438 11.648438 26.648438 10.800781 C 26.648438 10.101562 26.148438 9.5 25.5 9.300781 L 25.648438 8.550781 Z M 25.351562 9.851562 C 25.351562 9.851562 25.398438 9.851562 25.351562 9.851562 C 25.648438 9.949219 25.75 10.449219 25.601562 10.949219 C 25.449219 11.5 25.148438 11.851562 24.851562 11.800781 Z M 25.351562 9.851562 "/>
    </g>
  </g>
</svg>