<?xml version="1.0" encoding="UTF-8" standalone="yes"?>
<svg xmlns="http://www.w3.org/2000/svg" xmlns:xlink="http://www.w3.org/1999/xlink" width="32" height="32" viewBox="0 0 32 32">
  <defs>
    <clipPath id="clip-0">
      <path clip-rule="nonzero" d="M 16 3 L 29 3 L 29 16 L 16 16 Z M 16 3 "/>
    </clipPath>
    <clipPath id="clip-1">
      <path clip-rule="nonzero" d="M 16.5 3.5 L 25.5 3.5 C 27.148438 3.5 28.5 4.851562 28.5 6.5 L 28.5 15.5 L 20.5 15.5 C 18.300781 15.5 16.5 13.699219 16.5 11.5 Z M 16.5 3.5 "/>
    </clipPath>
    <clipPath id="clip-2">
      <path clip-rule="nonzero" d="M 25 11 L 29 11 L 29 16 L 25 16 Z M 25 11 "/>
    </clipPath>
    <clipPath id="clip-3">
      <path clip-rule="nonzero" d="M 16.5 3.5 L 25.5 3.5 C 27.148438 3.5 28.5 4.851562 28.5 6.5 L 28.5 15.5 L 20.5 15.5 C 18.300781 15.5 16.5 13.699219 16.5 11.5 Z M 16.5 3.5 "/>
    </clipPath>
    <clipPath id="clip-4">
      <path clip-rule="nonzero" d="M 18 5 L 27 5 L 27 14 L 18 14 Z M 18 5 "/>
    </clipPath>
    <clipPath id="clip-5">
      <path clip-rule="nonzero" d="M 16.5 3.5 L 25.5 3.5 C 27.148438 3.5 28.5 4.851562 28.5 6.5 L 28.5 15.5 L 20.5 15.5 C 18.300781 15.5 16.5 13.699219 16.5 11.5 Z M 16.5 3.5 "/>
    </clipPath>
  </defs>
  <path fill-rule="nonzero" fill="#11111b" fill-opacity="1" d="M 6.5 3.5 L 25.5 3.5 C 27.148438 3.5 28.5 4.851562 28.5 6.5 L 28.5 25.5 C 28.5 27.148438 27.148438 28.5 25.5 28.5 L 6.5 28.5 C 4.851562 28.5 3.5 27.148438 3.5 25.5 L 3.5 6.5 C 3.5 4.851562 4.851562 3.5 6.5 3.5 Z M 6.5 3.5 "/>
  <g clip-path="url(#clip-0)">
    <g clip-path="url(#clip-1)">
      <path fill-rule="nonzero" fill="#b4befe" fill-opacity="1" d="M 16.5 3.5 L 25.5 3.5 C 27.148438 3.5 28.5 4.851562 28.5 6.5 L 28.5 15.5 L 20.5 15.5 C 18.300781 15.5 16.5 13.699219 16.5 11.5 Z M 16.5 3.5 "/>
    </g>
  </g>
  <g clip-path="url(#clip-2)">
    <g clip-path="url(#clip-3)">
      <path fill-rule="nonzero" fill="#b4befe" fill-opacity="1" d="M 32.5 15.25 C 32.5 17.320312 30.820312 19 28.75 19 C 26.679688 19 25 17.320312 25 15.25 C 25 13.179688 26.679688 11.5 28.75 11.5 C 30.820312 11.5 32.5 13.179688 32.5 15.25 Z M 32.5 15.25 "/>
    </g>
  </g>
  <g clip-path="url(#clip-4)">
    <g clip-path="url(#clip-5)">
      <path fill-rule="nonzero" fill="#11111b" fill-opacity="1" d="M 21.449219 5.398438 L 21.351562 6.5 C 21 6.648438 20.699219 6.800781 20.398438 7.050781 L 19.398438 6.601562 L 18.351562 8.398438 L 19.25 9 C 19.199219 9.199219 19.199219 9.351562 19.199219 9.550781 C 19.199219 9.75 19.199219 9.898438 19.25 10.101562 L 18.351562 10.699219 L 19.398438 12.5 L 20.398438 12.050781 C 20.699219 12.300781 21 12.449219 21.351562 12.601562 L 21.449219 13.699219 L 23.550781 13.699219 L 23.648438 12.601562 C 24 12.449219 24.300781 12.300781 24.601562 12.050781 L 25.601562 12.5 L 26.648438 10.699219 L 25.75 10.101562 C 25.800781 9.898438 25.800781 9.75 25.800781 9.550781 C 25.800781 9.351562 25.800781 9.199219 25.75 9 L 26.648438 8.398438 L 25.601562 6.601562 L 24.601562 7.050781 C 24.300781 6.800781 24 6.648438 23.648438 6.5 L 23.550781 5.398438 Z M 22.5 7.851562 C 23.398438 7.851562 24.148438 8.601562 24.148438 9.5 C 24.148438 10.398438 23.398438 11.148438 22.5 11.148438 C 21.601562 11.148438 20.851562 10.398438 20.851562 9.5 C 20.851562 8.601562 21.601562 7.851562 22.5 7.851562 Z M 22.5 7.851562 "/>
    </g>
  </g>
</svg>