<?xml version="1.0" encoding="UTF-8" standalone="yes"?>
<svg xmlns="http://www.w3.org/2000/svg" xmlns:xlink="http://www.w3.org/1999/xlink" width="32" height="32" viewBox="0 0 32 32">
  <defs>
    <clipPath id="clip-0">
      <path clip-rule="nonzero" d="M 16 3 L 29 3 L 29 16 L 16 16 Z M 16 3 "/>
    </clipPath>
    <clipPath id="clip-1">
      <path clip-rule="nonzero" d="M 16.5 3.5 L 25.5 3.5 C 27.148438 3.5 28.5 4.851562 28.5 6.5 L 28.5 15.5 L 20.5 15.5 C 18.300781 15.5 16.5 13.699219 16.5 11.5 Z M 16.5 3.5 "/>
    </clipPath>
    <clipPath id="clip-2">
      <path clip-rule="nonzero" d="M 25 11 L 29 11 L 29 16 L 25 16 Z M 25 11 "/>
    </clipPath>
    <clipPath id="clip-3">
      <path clip-rule="nonzero" d="M 16.5 3.5 L 25.5 3.5 C 27.148438 3.5 28.5 4.851562 28.5 6.5 L 28.5 15.5 L 20.5 15.5 C 18.300781 15.5 16.5 13.699219 16.5 11.5 Z M 16.5 3.5 "/>
    </clipPath>
    <clipPath id="clip-4">
      <path clip-rule="nonzero" d="M 18 6 L 27 6 L 27 13 L 18 13 Z M 18 6 "/>
    </clipPath>
    <clipPath id="clip-5">
      <path clip-rule="nonzero" d="M 16.5 3.5 L 25.5 3.5 C 27.148438 3.5 28.5 4.851562 28.5 6.5 L 28.5 15.5 L 20.5 15.5 C 18.300781 15.5 16.5 13.699219 16.5 11.5 Z M 16.5 3.5 "/>
    </clipPath>
  </defs>
  <path fill-rule="nonzero" fill="#11111b" fill-opacity="1" d="M 6.5 3.5 L 25.5 3.5 C 27.148438 3.5 28.5 4.851562 28.5 6.5 L 28.5 25.5 C 28.5 27.148438 27.148438 28.5 25.5 28.5 L 6.5 28.5 C 4.851562 28.5 3.5 27.148438 3.5 25.5 L 3.5 6.5 C 3.5 4.851562 4.851562 3.5 6.5 3.5 Z M 6.5 3.5 "/>
  <g clip-path="url(#clip-0)">
    <g clip-path="url(#clip-1)">
      <path fill-rule="nonzero" fill="#b4befe" fill-opacity="1" d="M 16.5 3.5 L 25.5 3.5 C 27.148438 3.5 28.5 4.851562 28.5 6.5 L 28.5 15.5 L 20.5 15.5 C 18.300781 15.5 16.5 13.699219 16.5 11.5 Z M 16.5 3.5 "/>
    </g>
  </g>
  <g clip-path="url(#clip-2)">
    <g clip-path="url(#clip-3)">
      <path fill-rule="nonzero" fill="#b4befe" fill-opacity="1" d="M 32.5 15.25 C 32.5 17.320312 30.820312 19 28.75 19 C 26.679688 19 25 17.320312 25 15.25 C 25 13.179688 26.679688 11.5 28.75 11.5 C 30.820312 11.5 32.5 13.179688 32.5 15.25 Z M 32.5 15.25 "/>
    </g>
  </g>
  <g clip-path="url(#clip-4)">
    <g clip-path="url(#clip-5)">
      <path fill-rule="nonzero" fill="#11111b" fill-opacity="1" d="M 19.800781 6.398438 C 18.25 6.398438 18.25 7.148438 18.25 7.148438 L 18.25 10.25 C 18.25 10.25 18.25 9.5 19.800781 9.5 C 21.351562 9.5 22.101562 11.050781 22.101562 11.050781 L 22.101562 7.949219 C 22.101562 7.949219 21.351562 6.398438 19.800781 6.398438 Z M 25.199219 6.398438 C 23.648438 6.398438 22.898438 7.949219 22.898438 7.949219 L 22.898438 11.050781 C 22.898438 11.050781 23.648438 9.5 25.199219 9.5 C 26.75 9.5 26.75 10.25 26.75 10.25 L 26.75 7.148438 C 26.75 7.199219 26.75 6.398438 25.199219 6.398438 Z M 19.800781 10.25 C 18.25 10.25 18.25 11 18.25 11 L 18.25 11.75 C 18.25 11.75 18.25 11 19.800781 11 C 21.351562 11 22.101562 12.550781 22.101562 12.550781 L 22.101562 11.800781 C 22.101562 11.800781 21.351562 10.25 19.800781 10.25 Z M 25.199219 10.25 C 23.648438 10.25 22.898438 11.800781 22.898438 11.800781 L 22.898438 12.550781 C 22.898438 12.550781 23.648438 11 25.199219 11 C 26.75 11 26.75 11.75 26.75 11.75 L 26.75 11 C 26.75 11.050781 26.75 10.25 25.199219 10.25 Z M 25.199219 10.25 "/>
    </g>
  </g>
</svg>