<?xml version="1.0" encoding="UTF-8" standalone="yes"?>
<svg xmlns="http://www.w3.org/2000/svg" xmlns:xlink="http://www.w3.org/1999/xlink" width="32" height="32" viewBox="0 0 32 32">
  <defs>
    <clipPath id="clip-0">
      <path clip-rule="nonzero" d="M 16 3 L 29 3 L 29 16 L 16 16 Z M 16 3 "/>
    </clipPath>
    <clipPath id="clip-1">
      <path clip-rule="nonzero" d="M 16.5 3.5 L 25.5 3.5 C 27.148438 3.5 28.5 4.851562 28.5 6.5 L 28.5 15.5 L 20.5 15.5 C 18.300781 15.5 16.5 13.699219 16.5 11.5 Z M 16.5 3.5 "/>
    </clipPath>
    <clipPath id="clip-2">
      <path clip-rule="nonzero" d="M 25 11 L 29 11 L 29 16 L 25 16 Z M 25 11 "/>
    </clipPath>
    <clipPath id="clip-3">
      <path clip-rule="nonzero" d="M 16.5 3.5 L 25.5 3.5 C 27.148438 3.5 28.5 4.851562 28.5 6.5 L 28.5 15.5 L 20.5 15.5 C 18.300781 15.5 16.5 13.699219 16.5 11.5 Z M 16.5 3.5 "/>
    </clipPath>
    <clipPath id="clip-4">
      <path clip-rule="nonzero" d="M 17 5 L 28 5 L 28 13 L 17 13 Z M 17 5 "/>
    </clipPath>
    <clipPath id="clip-5">
      <path clip-rule="nonzero" d="M 16.5 3.5 L 25.5 3.5 C 27.148438 3.5 28.5 4.851562 28.5 6.5 L 28.5 15.5 L 20.5 15.5 C 18.300781 15.5 16.5 13.699219 16.5 11.5 Z M 16.5 3.5 "/>
    </clipPath>
  </defs>
  <path fill-rule="nonzero" fill="#11111b" fill-opacity="1" d="M 6.5 3.5 L 25.5 3.5 C 27.148438 3.5 28.5 4.851562 28.5 6.5 L 28.5 25.5 C 28.5 27.148438 27.148438 28.5 25.5 28.5 L 6.5 28.5 C 4.851562 28.5 3.5 27.148438 3.5 25.5 L 3.5 6.5 C 3.5 4.851562 4.851562 3.5 6.5 3.5 Z M 6.5 3.5 "/>
  <g clip-path="url(#clip-0)">
    <g clip-path="url(#clip-1)">
      <path fill-rule="nonzero" fill="#b4befe" fill-opacity="1" d="M 16.5 3.5 L 25.5 3.5 C 27.148438 3.5 28.5 4.851562 28.5 6.5 L 28.5 15.5 L 20.5 15.5 C 18.300781 15.5 16.5 13.699219 16.5 11.5 Z M 16.5 3.5 "/>
    </g>
  </g>
  <g clip-path="url(#clip-2)">
    <g clip-path="url(#clip-3)">
      <path fill-rule="nonzero" fill="#b4befe" fill-opacity="1" d="M 32.5 15.25 C 32.5 17.320312 30.820312 19 28.75 19 C 26.679688 19 25 17.320312 25 15.25 C 25 13.179688 26.679688 11.5 28.75 11.5 C 30.820312 11.5 32.5 13.179688 32.5 15.25 Z M 32.5 15.25 "/>
    </g>
  </g>
  <g clip-path="url(#clip-4)">
    <g clip-path="url(#clip-5)">
      <path fill-rule="nonzero" fill="#11111b" fill-opacity="1" d="M 22.75 5.5 C 21.449219 5.5 20.25 6.300781 19.75 7.5 C 18.449219 7.648438 17.5 8.699219 17.5 10 C 17.5 11.398438 18.601562 12.5 20 12.5 L 25.898438 12.5 C 26.800781 12.5 27.550781 11.75 27.550781 10.851562 C 27.550781 10.25 27.199219 9.699219 26.699219 9.449219 C 26.898438 9.199219 27.050781 8.851562 27.050781 8.5 C 27.050781 7.648438 26.398438 7 25.550781 7 C 24.898438 6.050781 23.851562 5.5 22.75 5.5 Z M 22.898438 6.449219 C 24.148438 6.449219 25.148438 7.449219 25.148438 8.699219 C 25.148438 9.949219 24.148438 10.949219 22.898438 10.949219 C 21.648438 10.949219 20.648438 9.949219 20.648438 8.699219 C 20.648438 7.449219 21.699219 6.449219 22.898438 6.449219 Z M 22.898438 7.101562 C 22.550781 7.101562 22.199219 7.199219 21.949219 7.398438 L 23.101562 7.398438 C 23.550781 7.398438 23.898438 7.550781 23.898438 8.148438 C 23.898438 8.851562 23.601562 9 23.101562 9 L 22.601562 9 L 22.601562 9.949219 L 21.949219 9.949219 C 22.25 10.148438 22.550781 10.25 22.898438 10.25 C 23.800781 10.25 24.5 9.550781 24.5 8.648438 C 24.5 7.800781 23.800781 7.101562 22.898438 7.101562 Z M 21.949219 7.398438 C 21.550781 7.699219 21.300781 8.148438 21.300781 8.699219 C 21.300781 9.199219 21.550781 9.648438 21.949219 10 Z M 22.601562 8.050781 L 22.601562 8.351562 L 22.898438 8.351562 C 23.101562 8.351562 23.199219 8.351562 23.199219 8.199219 C 23.199219 8.050781 23.101562 8.050781 22.898438 8.050781 Z M 22.601562 8.050781 "/>
    </g>
  </g>
</svg>