<?xml version="1.0" encoding="UTF-8" standalone="yes"?>
<svg xmlns="http://www.w3.org/2000/svg" xmlns:xlink="http://www.w3.org/1999/xlink" width="32" height="32" viewBox="0 0 32 32">
  <defs>
    <clipPath id="clip-0">
      <path clip-rule="nonzero" d="M 16 3 L 29 3 L 29 16 L 16 16 Z M 16 3 "/>
    </clipPath>
    <clipPath id="clip-1">
      <path clip-rule="nonzero" d="M 16.5 3.5 L 25.5 3.5 C 27.148438 3.5 28.5 4.851562 28.5 6.5 L 28.5 15.5 L 20.5 15.5 C 18.300781 15.5 16.5 13.699219 16.5 11.5 Z M 16.5 3.5 "/>
    </clipPath>
    <clipPath id="clip-2">
      <path clip-rule="nonzero" d="M 25 11 L 29 11 L 29 16 L 25 16 Z M 25 11 "/>
    </clipPath>
    <clipPath id="clip-3">
      <path clip-rule="nonzero" d="M 16.5 3.5 L 25.5 3.5 C 27.148438 3.5 28.5 4.851562 28.5 6.5 L 28.5 15.5 L 20.5 15.5 C 18.300781 15.5 16.5 13.699219 16.5 11.5 Z M 16.5 3.5 "/>
    </clipPath>
    <clipPath id="clip-4">
      <path clip-rule="nonzero" d="M 17 6 L 28 6 L 28 13 L 17 13 Z M 17 6 "/>
    </clipPath>
    <clipPath id="clip-5">
      <path clip-rule="nonzero" d="M 16.5 3.5 L 25.5 3.5 C 27.148438 3.5 28.5 4.851562 28.5 6.5 L 28.5 15.5 L 20.5 15.5 C 18.300781 15.5 16.5 13.699219 16.5 11.5 Z M 16.5 3.5 "/>
    </clipPath>
  </defs>
  <path fill-rule="nonzero" fill="#11111b" fill-opacity="1" d="M 6.5 3.5 L 25.5 3.5 C 27.148438 3.5 28.5 4.851562 28.5 6.5 L 28.5 25.5 C 28.5 27.148438 27.148438 28.5 25.5 28.5 L 6.5 28.5 C 4.851562 28.5 3.5 27.148438 3.5 25.5 L 3.5 6.5 C 3.5 4.851562 4.851562 3.5 6.5 3.5 Z M 6.5 3.5 "/>
  <g clip-path="url(#clip-0)">
    <g clip-path="url(#clip-1)">
      <path fill-rule="nonzero" fill="#b4befe" fill-opacity="1" d="M 16.5 3.5 L 25.5 3.5 C 27.148438 3.5 28.5 4.851562 28.5 6.5 L 28.5 15.5 L 20.5 15.5 C 18.300781 15.5 16.5 13.699219 16.5 11.5 Z M 16.5 3.5 "/>
    </g>
  </g>
  <g clip-path="url(#clip-2)">
    <g clip-path="url(#clip-3)">
      <path fill-rule="nonzero" fill="#b4befe" fill-opacity="1" d="M 32.5 15.25 C 32.5 17.320312 30.820312 19 28.75 19 C 26.679688 19 25 17.320312 25 15.25 C 25 13.179688 26.679688 11.5 28.75 11.5 C 30.820312 11.5 32.5 13.179688 32.5 15.25 Z M 32.5 15.25 "/>
    </g>
  </g>
  <g clip-path="url(#clip-4)">
    <g clip-path="url(#clip-5)">
      <path fill-rule="nonzero" fill="#11111b" fill-opacity="1" d="M 22 6.148438 C 20.398438 6.148438 20.398438 7.199219 19.898438 7.898438 C 20.449219 7.648438 21.101562 7.398438 21.75 7.25 C 22.351562 7.101562 23 7 23.601562 6.949219 C 23.25 6.601562 22.949219 6.148438 22 6.148438 Z M 24.148438 7.648438 C 23.449219 7.648438 22.699219 7.75 21.949219 7.949219 C 19.5 8.601562 17.75 9.949219 18 11.050781 C 18.148438 11.648438 19 12.199219 20.25 12.300781 C 20.25 12.300781 20.25 12.300781 20.25 12.25 C 20.199219 11.601562 20.550781 11.101562 21 10.75 C 21.449219 10.398438 22 10.148438 22.601562 10 C 22.898438 9.949219 23.199219 9.898438 23.5 9.898438 C 23.949219 9.898438 24.351562 10 24.75 10.199219 C 25.050781 10.351562 25.351562 10.648438 25.449219 11.050781 C 26.601562 10.351562 27.148438 9.449219 27 8.800781 C 26.75 8.050781 25.699219 7.601562 24.148438 7.648438 Z M 23.5 10.601562 C 23.25 10.601562 23 10.601562 22.75 10.699219 C 21.699219 10.949219 20.949219 11.601562 21 12.148438 C 21.050781 12.75 21.949219 13 23 12.800781 C 24.050781 12.550781 24.800781 11.898438 24.75 11.351562 C 24.699219 10.898438 24.199219 10.648438 23.5 10.601562 Z M 23.5 10.601562 "/>
    </g>
  </g>
</svg>