<?xml version="1.0" encoding="UTF-8" standalone="yes"?>
<svg xmlns="http://www.w3.org/2000/svg" xmlns:xlink="http://www.w3.org/1999/xlink" width="32" height="32" viewBox="0 0 32 32">
  <defs>
    <clipPath id="clip-0">
      <path clip-rule="nonzero" d="M 16 3 L 29 3 L 29 16 L 16 16 Z M 16 3 "/>
    </clipPath>
    <clipPath id="clip-1">
      <path clip-rule="nonzero" d="M 16.5 3.5 L 25.5 3.5 C 27.148438 3.5 28.5 4.851562 28.5 6.5 L 28.5 15.5 L 20.5 15.5 C 18.300781 15.5 16.5 13.699219 16.5 11.5 Z M 16.5 3.5 "/>
    </clipPath>
    <clipPath id="clip-2">
      <path clip-rule="nonzero" d="M 25 11 L 29 11 L 29 16 L 25 16 Z M 25 11 "/>
    </clipPath>
    <clipPath id="clip-3">
      <path clip-rule="nonzero" d="M 16.5 3.5 L 25.5 3.5 C 27.148438 3.5 28.5 4.851562 28.5 6.5 L 28.5 15.5 L 20.5 15.5 C 18.300781 15.5 16.5 13.699219 16.5 11.5 Z M 16.5 3.5 "/>
    </clipPath>
    <clipPath id="clip-4">
      <path clip-rule="nonzero" d="M 22 7 L 26 7 L 26 11 L 22 11 Z M 22 7 "/>
    </clipPath>
    <clipPath id="clip-5">
      <path clip-rule="nonzero" d="M 16.5 3.5 L 25.5 3.5 C 27.148438 3.5 28.5 4.851562 28.5 6.5 L 28.5 15.5 L 20.5 15.5 C 18.300781 15.5 16.5 13.699219 16.5 11.5 Z M 16.5 3.5 "/>
    </clipPath>
    <clipPath id="clip-6">
      <path clip-rule="nonzero" d="M 16 3 L 29 3 L 29 16 L 16 16 Z M 16 3 "/>
    </clipPath>
    <clipPath id="clip-7">
      <path clip-rule="nonzero" d="M 16.5 3.5 L 25.5 3.5 C 27.148438 3.5 28.5 4.851562 28.5 6.5 L 28.5 15.5 L 20.5 15.5 C 18.300781 15.5 16.5 13.699219 16.5 11.5 Z M 16.5 3.5 "/>
    </clipPath>
    <clipPath id="clip-8">
      <path clip-rule="nonzero" d="M 26 10 L 28 10 L 28 12 L 26 12 Z M 26 10 "/>
    </clipPath>
    <clipPath id="clip-9">
      <path clip-rule="nonzero" d="M 16.5 3.5 L 25.5 3.5 C 27.148438 3.5 28.5 4.851562 28.5 6.5 L 28.5 15.5 L 20.5 15.5 C 18.300781 15.5 16.5 13.699219 16.5 11.5 Z M 16.5 3.5 "/>
    </clipPath>
    <clipPath id="clip-10">
      <path clip-rule="nonzero" d="M 19 3 L 29 3 L 29 16 L 19 16 Z M 19 3 "/>
    </clipPath>
    <clipPath id="clip-11">
      <path clip-rule="nonzero" d="M 16.5 3.5 L 25.5 3.5 C 27.148438 3.5 28.5 4.851562 28.5 6.5 L 28.5 15.5 L 20.5 15.5 C 18.300781 15.5 16.5 13.699219 16.5 11.5 Z M 16.5 3.5 "/>
    </clipPath>
    <clipPath id="clip-12">
      <path clip-rule="nonzero" d="M 23 8 L 27 8 L 27 12 L 23 12 Z M 23 8 "/>
    </clipPath>
    <clipPath id="clip-13">
      <path clip-rule="nonzero" d="M 16.5 3.5 L 25.5 3.5 C 27.148438 3.5 28.5 4.851562 28.5 6.5 L 28.5 15.5 L 20.5 15.5 C 18.300781 15.5 16.5 13.699219 16.5 11.5 Z M 16.5 3.5 "/>
    </clipPath>
    <clipPath id="clip-14">
      <path clip-rule="nonzero" d="M 16 3 L 29 3 L 29 16 L 16 16 Z M 16 3 "/>
    </clipPath>
    <clipPath id="clip-15">
      <path clip-rule="nonzero" d="M 16.5 3.5 L 25.5 3.5 C 27.148438 3.5 28.5 4.851562 28.5 6.5 L 28.5 15.5 L 20.5 15.5 C 18.300781 15.5 16.5 13.699219 16.5 11.5 Z M 16.5 3.5 "/>
    </clipPath>
    <clipPath id="clip-16">
      <path clip-rule="nonzero" d="M 17 9 L 21 9 L 21 12 L 17 12 Z M 17 9 "/>
    </clipPath>
    <clipPath id="clip-17">
      <path clip-rule="nonzero" d="M 16.5 3.5 L 25.5 3.5 C 27.148438 3.5 28.5 4.851562 28.5 6.5 L 28.5 15.5 L 20.5 15.5 C 18.300781 15.5 16.5 13.699219 16.5 11.5 Z M 16.5 3.5 "/>
    </clipPath>
    <clipPath id="clip-18">
      <path clip-rule="nonzero" d="M 16 3 L 28 3 L 28 16 L 16 16 Z M 16 3 "/>
    </clipPath>
    <clipPath id="clip-19">
      <path clip-rule="nonzero" d="M 16.5 3.5 L 25.5 3.5 C 27.148438 3.5 28.5 4.851562 28.5 6.5 L 28.5 15.5 L 20.5 15.5 C 18.300781 15.5 16.5 13.699219 16.5 11.5 Z M 16.5 3.5 "/>
    </clipPath>
    <clipPath id="clip-20">
      <path clip-rule="nonzero" d="M 19 6 L 22 6 L 22 9 L 19 9 Z M 19 6 "/>
    </clipPath>
    <clipPath id="clip-21">
      <path clip-rule="nonzero" d="M 16.5 3.5 L 25.5 3.5 C 27.148438 3.5 28.5 4.851562 28.5 6.5 L 28.5 15.5 L 20.5 15.5 C 18.300781 15.5 16.5 13.699219 16.5 11.5 Z M 16.5 3.5 "/>
    </clipPath>
    <clipPath id="clip-22">
      <path clip-rule="nonzero" d="M 16 3 L 29 3 L 29 16 L 16 16 Z M 16 3 "/>
    </clipPath>
    <clipPath id="clip-23">
      <path clip-rule="nonzero" d="M 16.5 3.5 L 25.5 3.5 C 27.148438 3.5 28.5 4.851562 28.5 6.5 L 28.5 15.5 L 20.5 15.5 C 18.300781 15.5 16.5 13.699219 16.5 11.5 Z M 16.5 3.5 "/>
    </clipPath>
    <clipPath id="clip-24">
      <path clip-rule="nonzero" d="M 19 7 L 23 7 L 23 12 L 19 12 Z M 19 7 "/>
    </clipPath>
    <clipPath id="clip-25">
      <path clip-rule="nonzero" d="M 16.5 3.5 L 25.5 3.5 C 27.148438 3.5 28.5 4.851562 28.5 6.5 L 28.5 15.5 L 20.5 15.5 C 18.300781 15.5 16.5 13.699219 16.5 11.5 Z M 16.5 3.5 "/>
    </clipPath>
    <clipPath id="clip-26">
      <path clip-rule="nonzero" d="M 16 3 L 29 3 L 29 16 L 16 16 Z M 16 3 "/>
    </clipPath>
    <clipPath id="clip-27">
      <path clip-rule="nonzero" d="M 16.5 3.5 L 25.5 3.5 C 27.148438 3.5 28.5 4.851562 28.5 6.5 L 28.5 15.5 L 20.5 15.5 C 18.300781 15.5 16.5 13.699219 16.5 11.5 Z M 16.5 3.5 "/>
    </clipPath>
    <clipPath id="clip-28">
      <path clip-rule="nonzero" d="M 19 10 L 22 10 L 22 12 L 19 12 Z M 19 10 "/>
    </clipPath>
    <clipPath id="clip-29">
      <path clip-rule="nonzero" d="M 16.5 3.5 L 25.5 3.5 C 27.148438 3.5 28.5 4.851562 28.5 6.5 L 28.5 15.5 L 20.5 15.5 C 18.300781 15.5 16.5 13.699219 16.5 11.5 Z M 16.5 3.5 "/>
    </clipPath>
    <clipPath id="clip-30">
      <path clip-rule="nonzero" d="M 16 3 L 29 3 L 29 16 L 16 16 Z M 16 3 "/>
    </clipPath>
    <clipPath id="clip-31">
      <path clip-rule="nonzero" d="M 16.5 3.5 L 25.5 3.5 C 27.148438 3.5 28.5 4.851562 28.5 6.5 L 28.5 15.5 L 20.5 15.5 C 18.300781 15.5 16.5 13.699219 16.5 11.5 Z M 16.5 3.5 "/>
    </clipPath>
    <clipPath id="clip-32">
      <path clip-rule="nonzero" d="M 20 6 L 24 6 L 24 10 L 20 10 Z M 20 6 "/>
    </clipPath>
    <clipPath id="clip-33">
      <path clip-rule="nonzero" d="M 16.5 3.5 L 25.5 3.5 C 27.148438 3.5 28.5 4.851562 28.5 6.5 L 28.5 15.5 L 20.5 15.5 C 18.300781 15.5 16.5 13.699219 16.5 11.5 Z M 16.5 3.5 "/>
    </clipPath>
    <clipPath id="clip-34">
      <path clip-rule="nonzero" d="M 16 3 L 29 3 L 29 16 L 16 16 Z M 16 3 "/>
    </clipPath>
    <clipPath id="clip-35">
      <path clip-rule="nonzero" d="M 16.5 3.5 L 25.5 3.5 C 27.148438 3.5 28.5 4.851562 28.5 6.5 L 28.5 15.5 L 20.5 15.5 C 18.300781 15.5 16.5 13.699219 16.5 11.5 Z M 16.5 3.5 "/>
    </clipPath>
    <clipPath id="clip-36">
      <path clip-rule="nonzero" d="M 20 7 L 25 7 L 25 12 L 20 12 Z M 20 7 "/>
    </clipPath>
    <clipPath id="clip-37">
      <path clip-rule="nonzero" d="M 16.5 3.5 L 25.5 3.5 C 27.148438 3.5 28.5 4.851562 28.5 6.5 L 28.5 15.5 L 20.5 15.5 C 18.300781 15.5 16.5 13.699219 16.5 11.5 Z M 16.5 3.5 "/>
    </clipPath>
    <clipPath id="clip-38">
      <path clip-rule="nonzero" d="M 16 3 L 29 3 L 29 16 L 16 16 Z M 16 3 "/>
    </clipPath>
    <clipPath id="clip-39">
      <path clip-rule="nonzero" d="M 16.5 3.5 L 25.5 3.5 C 27.148438 3.5 28.5 4.851562 28.5 6.5 L 28.5 15.5 L 20.5 15.5 C 18.300781 15.5 16.5 13.699219 16.5 11.5 Z M 16.5 3.5 "/>
    </clipPath>
  </defs>
  <path fill-rule="nonzero" fill="#11111b" fill-opacity="1" d="M 6.5 3.5 L 25.5 3.5 C 27.148438 3.5 28.5 4.851562 28.5 6.5 L 28.5 25.5 C 28.5 27.148438 27.148438 28.5 25.5 28.5 L 6.5 28.5 C 4.851562 28.5 3.5 27.148438 3.5 25.5 L 3.5 6.5 C 3.5 4.851562 4.851562 3.5 6.5 3.5 Z M 6.5 3.5 "/>
  <g clip-path="url(#clip-0)">
    <g clip-path="url(#clip-1)">
      <path fill-rule="nonzero" fill="#b4befe" fill-opacity="1" d="M 16.5 3.5 L 25.5 3.5 C 27.148438 3.5 28.5 4.851562 28.5 6.5 L 28.5 15.5 L 20.5 15.5 C 18.300781 15.5 16.5 13.699219 16.5 11.5 Z M 16.5 3.5 "/>
    </g>
  </g>
  <g clip-path="url(#clip-2)">
    <g clip-path="url(#clip-3)">
      <path fill-rule="nonzero" fill="#b4befe" fill-opacity="1" d="M 32.5 15.25 C 32.5 17.320312 30.820312 19 28.75 19 C 26.679688 19 25 17.320312 25 15.25 C 25 13.179688 26.679688 11.5 28.75 11.5 C 30.820312 11.5 32.5 13.179688 32.5 15.25 Z M 32.5 15.25 "/>
    </g>
  </g>
  <g clip-path="url(#clip-4)">
    <g clip-path="url(#clip-5)">
      <path fill-rule="nonzero" fill="#b4befe" fill-opacity="1" d="M 25.5 8.648438 C 25.5 9.421875 24.875 10.050781 24.101562 10.050781 C 23.328125 10.050781 22.699219 9.421875 22.699219 8.648438 C 22.699219 7.875 23.328125 7.25 24.101562 7.25 C 24.875 7.25 25.5 7.875 25.5 8.648438 Z M 25.5 8.648438 "/>
    </g>
  </g>
  <g clip-path="url(#clip-6)">
    <g clip-path="url(#clip-7)">
      <path fill="none" stroke-width="1" stroke-linecap="butt" stroke-linejoin="miter" stroke="#11111b" stroke-opacity="1" stroke-miterlimit="10" d="M 51 17.296875 C 51 18.84375 49.75 20.101562 48.203125 20.101562 C 46.65625 20.101562 45.398438 18.84375 45.398438 17.296875 C 45.398438 15.75 46.65625 14.5 48.203125 14.5 C 49.75 14.5 51 15.75 51 17.296875 Z M 51 17.296875 " transform="matrix(0.5, 0, 0, 0.5, 0, 0)"/>
    </g>
  </g>
  <g clip-path="url(#clip-8)">
    <g clip-path="url(#clip-9)">
      <path fill-rule="nonzero" fill="#b4befe" fill-opacity="1" d="M 27.699219 11.199219 C 27.699219 11.640625 27.34375 12 26.898438 12 C 26.457031 12 26.101562 11.640625 26.101562 11.199219 C 26.101562 10.757812 26.457031 10.398438 26.898438 10.398438 C 27.34375 10.398438 27.699219 10.757812 27.699219 11.199219 Z M 27.699219 11.199219 "/>
    </g>
  </g>
  <g clip-path="url(#clip-10)">
    <g clip-path="url(#clip-11)">
      <path fill="none" stroke-width="1" stroke-linecap="butt" stroke-linejoin="miter" stroke="#11111b" stroke-opacity="1" stroke-miterlimit="10" d="M 55.398438 22.398438 C 55.398438 23.28125 54.6875 24 53.796875 24 C 52.914062 24 52.203125 23.28125 52.203125 22.398438 C 52.203125 21.515625 52.914062 20.796875 53.796875 20.796875 C 54.6875 20.796875 55.398438 21.515625 55.398438 22.398438 Z M 55.398438 22.398438 " transform="matrix(0.5, 0, 0, 0.5, 0, 0)"/>
    </g>
  </g>
  <g clip-path="url(#clip-12)">
    <g clip-path="url(#clip-13)">
      <path fill-rule="nonzero" fill="#b4befe" fill-opacity="1" d="M 26.800781 10.398438 C 26.800781 11.285156 26.082031 12 25.199219 12 C 24.316406 12 23.601562 11.285156 23.601562 10.398438 C 23.601562 9.515625 24.316406 8.800781 25.199219 8.800781 C 26.082031 8.800781 26.800781 9.515625 26.800781 10.398438 Z M 26.800781 10.398438 "/>
    </g>
  </g>
  <g clip-path="url(#clip-14)">
    <g clip-path="url(#clip-15)">
      <path fill="none" stroke-width="1" stroke-linecap="butt" stroke-linejoin="miter" stroke="#11111b" stroke-opacity="1" stroke-miterlimit="10" d="M 53.601562 20.796875 C 53.601562 22.570312 52.164062 24 50.398438 24 C 48.632812 24 47.203125 22.570312 47.203125 20.796875 C 47.203125 19.03125 48.632812 17.601562 50.398438 17.601562 C 52.164062 17.601562 53.601562 19.03125 53.601562 20.796875 Z M 53.601562 20.796875 " transform="matrix(0.5, 0, 0, 0.5, 0, 0)"/>
    </g>
  </g>
  <g clip-path="url(#clip-16)">
    <g clip-path="url(#clip-17)">
      <path fill-rule="nonzero" fill="#b4befe" fill-opacity="1" d="M 20.75 10.550781 C 20.75 11.324219 20.125 11.949219 19.351562 11.949219 C 18.578125 11.949219 17.949219 11.324219 17.949219 10.550781 C 17.949219 9.777344 18.578125 9.148438 19.351562 9.148438 C 20.125 9.148438 20.75 9.777344 20.75 10.550781 Z M 20.75 10.550781 "/>
    </g>
  </g>
  <g clip-path="url(#clip-18)">
    <g clip-path="url(#clip-19)">
      <path fill="none" stroke-width="1" stroke-linecap="butt" stroke-linejoin="miter" stroke="#11111b" stroke-opacity="1" stroke-miterlimit="10" d="M 41.5 21.101562 C 41.5 22.648438 40.25 23.898438 38.703125 23.898438 C 37.15625 23.898438 35.898438 22.648438 35.898438 21.101562 C 35.898438 19.554688 37.15625 18.296875 38.703125 18.296875 C 40.25 18.296875 41.5 19.554688 41.5 21.101562 Z M 41.5 21.101562 " transform="matrix(0.5, 0, 0, 0.5, 0, 0)"/>
    </g>
  </g>
  <g clip-path="url(#clip-20)">
    <g clip-path="url(#clip-21)">
      <path fill-rule="nonzero" fill="#b4befe" fill-opacity="1" d="M 21.699219 7.550781 C 21.699219 8.074219 21.273438 8.5 20.75 8.5 C 20.226562 8.5 19.800781 8.074219 19.800781 7.550781 C 19.800781 7.023438 20.226562 6.601562 20.75 6.601562 C 21.273438 6.601562 21.699219 7.023438 21.699219 7.550781 Z M 21.699219 7.550781 "/>
    </g>
  </g>
  <g clip-path="url(#clip-22)">
    <g clip-path="url(#clip-23)">
      <path fill="none" stroke-width="1" stroke-linecap="butt" stroke-linejoin="miter" stroke="#11111b" stroke-opacity="1" stroke-miterlimit="10" d="M 43.398438 15.101562 C 43.398438 16.148438 42.546875 17 41.5 17 C 40.453125 17 39.601562 16.148438 39.601562 15.101562 C 39.601562 14.046875 40.453125 13.203125 41.5 13.203125 C 42.546875 13.203125 43.398438 14.046875 43.398438 15.101562 Z M 43.398438 15.101562 " transform="matrix(0.5, 0, 0, 0.5, 0, 0)"/>
    </g>
  </g>
  <g clip-path="url(#clip-24)">
    <g clip-path="url(#clip-25)">
      <path fill-rule="nonzero" fill="#b4befe" fill-opacity="1" d="M 22.648438 9.300781 C 22.648438 10.265625 21.867188 11.050781 20.898438 11.050781 C 19.933594 11.050781 19.148438 10.265625 19.148438 9.300781 C 19.148438 8.332031 19.933594 7.550781 20.898438 7.550781 C 21.867188 7.550781 22.648438 8.332031 22.648438 9.300781 Z M 22.648438 9.300781 "/>
    </g>
  </g>
  <g clip-path="url(#clip-26)">
    <g clip-path="url(#clip-27)">
      <path fill="none" stroke-width="1" stroke-linecap="butt" stroke-linejoin="miter" stroke="#11111b" stroke-opacity="1" stroke-miterlimit="10" d="M 45.296875 18.601562 C 45.296875 20.53125 43.734375 22.101562 41.796875 22.101562 C 39.867188 22.101562 38.296875 20.53125 38.296875 18.601562 C 38.296875 16.664062 39.867188 15.101562 41.796875 15.101562 C 43.734375 15.101562 45.296875 16.664062 45.296875 18.601562 Z M 45.296875 18.601562 " transform="matrix(0.5, 0, 0, 0.5, 0, 0)"/>
    </g>
  </g>
  <g clip-path="url(#clip-28)">
    <g clip-path="url(#clip-29)">
      <path fill-rule="nonzero" fill="#b4befe" fill-opacity="1" d="M 21.550781 11.199219 C 21.550781 11.640625 21.191406 12 20.75 12 C 20.308594 12 19.949219 11.640625 19.949219 11.199219 C 19.949219 10.757812 20.308594 10.398438 20.75 10.398438 C 21.191406 10.398438 21.550781 10.757812 21.550781 11.199219 Z M 21.550781 11.199219 "/>
    </g>
  </g>
  <g clip-path="url(#clip-30)">
    <g clip-path="url(#clip-31)">
      <path fill="none" stroke-width="1" stroke-linecap="butt" stroke-linejoin="miter" stroke="#11111b" stroke-opacity="1" stroke-miterlimit="10" d="M 43.101562 22.398438 C 43.101562 23.28125 42.382812 24 41.5 24 C 40.617188 24 39.898438 23.28125 39.898438 22.398438 C 39.898438 21.515625 40.617188 20.796875 41.5 20.796875 C 42.382812 20.796875 43.101562 21.515625 43.101562 22.398438 Z M 43.101562 22.398438 " transform="matrix(0.5, 0, 0, 0.5, 0, 0)"/>
    </g>
  </g>
  <g clip-path="url(#clip-32)">
    <g clip-path="url(#clip-33)">
      <path fill-rule="nonzero" fill="#b4befe" fill-opacity="1" d="M 23.949219 7.851562 C 23.949219 8.734375 23.234375 9.449219 22.351562 9.449219 C 21.464844 9.449219 20.75 8.734375 20.75 7.851562 C 20.75 6.964844 21.464844 6.25 22.351562 6.25 C 23.234375 6.25 23.949219 6.964844 23.949219 7.851562 Z M 23.949219 7.851562 "/>
    </g>
  </g>
  <g clip-path="url(#clip-34)">
    <g clip-path="url(#clip-35)">
      <path fill="none" stroke-width="1" stroke-linecap="butt" stroke-linejoin="miter" stroke="#11111b" stroke-opacity="1" stroke-miterlimit="10" d="M 47.898438 15.703125 C 47.898438 17.46875 46.46875 18.898438 44.703125 18.898438 C 42.929688 18.898438 41.5 17.46875 41.5 15.703125 C 41.5 13.929688 42.929688 12.5 44.703125 12.5 C 46.46875 12.5 47.898438 13.929688 47.898438 15.703125 Z M 47.898438 15.703125 " transform="matrix(0.5, 0, 0, 0.5, 0, 0)"/>
    </g>
  </g>
  <g clip-path="url(#clip-36)">
    <g clip-path="url(#clip-37)">
      <path fill-rule="nonzero" fill="#b4befe" fill-opacity="1" d="M 24.851562 9.898438 C 24.851562 11.03125 23.933594 11.949219 22.800781 11.949219 C 21.667969 11.949219 20.75 11.03125 20.75 9.898438 C 20.75 8.769531 21.667969 7.851562 22.800781 7.851562 C 23.933594 7.851562 24.851562 8.769531 24.851562 9.898438 Z M 24.851562 9.898438 "/>
    </g>
  </g>
  <g clip-path="url(#clip-38)">
    <g clip-path="url(#clip-39)">
      <path fill="none" stroke-width="1" stroke-linecap="butt" stroke-linejoin="miter" stroke="#11111b" stroke-opacity="1" stroke-miterlimit="10" d="M 49.703125 19.796875 C 49.703125 22.0625 47.867188 23.898438 45.601562 23.898438 C 43.335938 23.898438 41.5 22.0625 41.5 19.796875 C 41.5 17.539062 43.335938 15.703125 45.601562 15.703125 C 47.867188 15.703125 49.703125 17.539062 49.703125 19.796875 Z M 49.703125 19.796875 " transform="matrix(0.5, 0, 0, 0.5, 0, 0)"/>
    </g>
  </g>
</svg>