<?xml version="1.0" encoding="UTF-8" standalone="yes"?>
<svg xmlns="http://www.w3.org/2000/svg" xmlns:xlink="http://www.w3.org/1999/xlink" width="32" height="32" viewBox="0 0 32 32">
  <defs>
    <clipPath id="clip-0">
      <path clip-rule="nonzero" d="M 16 3 L 29 3 L 29 16 L 16 16 Z M 16 3 "/>
    </clipPath>
    <clipPath id="clip-1">
      <path clip-rule="nonzero" d="M 16.5 3.5 L 25.5 3.5 C 27.148438 3.5 28.5 4.851562 28.5 6.5 L 28.5 15.5 L 20.5 15.5 C 18.300781 15.5 16.5 13.699219 16.5 11.5 Z M 16.5 3.5 "/>
    </clipPath>
    <clipPath id="clip-2">
      <path clip-rule="nonzero" d="M 25 11 L 29 11 L 29 16 L 25 16 Z M 25 11 "/>
    </clipPath>
    <clipPath id="clip-3">
      <path clip-rule="nonzero" d="M 16.5 3.5 L 25.5 3.5 C 27.148438 3.5 28.5 4.851562 28.5 6.5 L 28.5 15.5 L 20.5 15.5 C 18.300781 15.5 16.5 13.699219 16.5 11.5 Z M 16.5 3.5 "/>
    </clipPath>
    <clipPath id="clip-4">
      <path clip-rule="nonzero" d="M 18 6 L 27 6 L 27 13 L 18 13 Z M 18 6 "/>
    </clipPath>
    <clipPath id="clip-5">
      <path clip-rule="nonzero" d="M 16.5 3.5 L 25.5 3.5 C 27.148438 3.5 28.5 4.851562 28.5 6.5 L 28.5 15.5 L 20.5 15.5 C 18.300781 15.5 16.5 13.699219 16.5 11.5 Z M 16.5 3.5 "/>
    </clipPath>
  </defs>
  <path fill-rule="nonzero" fill="#11111b" fill-opacity="1" d="M 6.5 3.5 L 25.5 3.5 C 27.148438 3.5 28.5 4.851562 28.5 6.5 L 28.5 25.5 C 28.5 27.148438 27.148438 28.5 25.5 28.5 L 6.5 28.5 C 4.851562 28.5 3.5 27.148438 3.5 25.5 L 3.5 6.5 C 3.5 4.851562 4.851562 3.5 6.5 3.5 Z M 6.5 3.5 "/>
  <g clip-path="url(#clip-0)">
    <g clip-path="url(#clip-1)">
      <path fill-rule="nonzero" fill="#b4befe" fill-opacity="1" d="M 16.5 3.5 L 25.5 3.5 C 27.148438 3.5 28.5 4.851562 28.5 6.5 L 28.5 15.5 L 20.5 15.5 C 18.300781 15.5 16.5 13.699219 16.5 11.5 Z M 16.5 3.5 "/>
    </g>
  </g>
  <g clip-path="url(#clip-2)">
    <g clip-path="url(#clip-3)">
      <path fill-rule="nonzero" fill="#b4befe" fill-opacity="1" d="M 32.5 15.25 C 32.5 17.320312 30.820312 19 28.75 19 C 26.679688 19 25 17.320312 25 15.25 C 25 13.179688 26.679688 11.5 28.75 11.5 C 30.820312 11.5 32.5 13.179688 32.5 15.25 Z M 32.5 15.25 "/>
    </g>
  </g>
  <g clip-path="url(#clip-4)">
    <g clip-path="url(#clip-5)">
      <path fill-rule="nonzero" fill="#11111b" fill-opacity="1" d="M 18.5 10.300781 L 20.050781 11.199219 C 20.050781 11.25 20.050781 11.25 20.050781 11.300781 C 20.050781 12.148438 20.75 12.851562 21.601562 12.851562 C 22.449219 12.851562 23.148438 12.148438 23.148438 11.300781 C 23.148438 11.25 23.148438 11.148438 23.148438 11.101562 L 25.050781 9.75 C 26.050781 9.699219 26.851562 8.898438 26.851562 7.898438 C 26.851562 6.898438 26.050781 6.050781 25 6.050781 C 24 6.050781 23.148438 6.851562 23.148438 7.898438 L 22 9.800781 C 21.898438 9.75 21.75 9.75 21.648438 9.75 C 21.398438 9.75 21.199219 9.800781 20.949219 9.898438 L 18.5 8.5 M 25 6.601562 C 25.699219 6.601562 26.300781 7.199219 26.300781 7.898438 C 26.300781 8.601562 25.699219 9.199219 25 9.199219 C 24.300781 9.199219 23.699219 8.601562 23.699219 7.898438 C 23.699219 7.199219 24.300781 6.601562 25 6.601562 Z M 25 7.148438 C 24.550781 7.148438 24.199219 7.5 24.199219 7.949219 C 24.199219 8.398438 24.550781 8.75 25 8.75 C 25.449219 8.75 25.800781 8.398438 25.800781 7.949219 C 25.800781 7.5 25.449219 7.148438 25 7.148438 Z M 21.601562 10.300781 C 22.199219 10.300781 22.648438 10.75 22.648438 11.351562 C 22.648438 11.949219 22.199219 12.398438 21.601562 12.398438 C 21.101562 12.398438 20.648438 12.050781 20.550781 11.550781 L 20.898438 11.75 C 21.300781 11.949219 21.75 11.851562 21.949219 11.449219 C 22.148438 11.050781 22.050781 10.601562 21.648438 10.398438 Z M 21.601562 10.300781 "/>
    </g>
  </g>
</svg>