<?xml version="1.0" encoding="UTF-8" standalone="yes"?>
<svg xmlns="http://www.w3.org/2000/svg" xmlns:xlink="http://www.w3.org/1999/xlink" width="32" height="32" viewBox="0 0 32 32">
  <defs>
    <clipPath id="clip-0">
      <path clip-rule="nonzero" d="M 16 3 L 29 3 L 29 16 L 16 16 Z M 16 3 "/>
    </clipPath>
    <clipPath id="clip-1">
      <path clip-rule="nonzero" d="M 16.5 3.5 L 25.5 3.5 C 27.148438 3.5 28.5 4.851562 28.5 6.5 L 28.5 15.5 L 20.5 15.5 C 18.300781 15.5 16.5 13.699219 16.5 11.5 Z M 16.5 3.5 "/>
    </clipPath>
    <clipPath id="clip-2">
      <path clip-rule="nonzero" d="M 25 11 L 29 11 L 29 16 L 25 16 Z M 25 11 "/>
    </clipPath>
    <clipPath id="clip-3">
      <path clip-rule="nonzero" d="M 16.5 3.5 L 25.5 3.5 C 27.148438 3.5 28.5 4.851562 28.5 6.5 L 28.5 15.5 L 20.5 15.5 C 18.300781 15.5 16.5 13.699219 16.5 11.5 Z M 16.5 3.5 "/>
    </clipPath>
    <clipPath id="clip-4">
      <path clip-rule="nonzero" d="M 18 5 L 27 5 L 27 14 L 18 14 Z M 18 5 "/>
    </clipPath>
    <clipPath id="clip-5">
      <path clip-rule="nonzero" d="M 16.5 3.5 L 25.5 3.5 C 27.148438 3.5 28.5 4.851562 28.5 6.5 L 28.5 15.5 L 20.5 15.5 C 18.300781 15.5 16.5 13.699219 16.5 11.5 Z M 16.5 3.5 "/>
    </clipPath>
  </defs>
  <path fill-rule="nonzero" fill="#11111b" fill-opacity="1" d="M 6.5 3.5 L 25.5 3.5 C 27.148438 3.5 28.5 4.851562 28.5 6.5 L 28.5 25.5 C 28.5 27.148438 27.148438 28.5 25.5 28.5 L 6.5 28.5 C 4.851562 28.5 3.5 27.148438 3.5 25.5 L 3.5 6.5 C 3.5 4.851562 4.851562 3.5 6.5 3.5 Z M 6.5 3.5 "/>
  <g clip-path="url(#clip-0)">
    <g clip-path="url(#clip-1)">
      <path fill-rule="nonzero" fill="#b4befe" fill-opacity="1" d="M 16.5 3.5 L 25.5 3.5 C 27.148438 3.5 28.5 4.851562 28.5 6.5 L 28.5 15.5 L 20.5 15.5 C 18.300781 15.5 16.5 13.699219 16.5 11.5 Z M 16.5 3.5 "/>
    </g>
  </g>
  <g clip-path="url(#clip-2)">
    <g clip-path="url(#clip-3)">
      <path fill-rule="nonzero" fill="#b4befe" fill-opacity="1" d="M 32.5 15.25 C 32.5 17.320312 30.820312 19 28.75 19 C 26.679688 19 25 17.320312 25 15.25 C 25 13.179688 26.679688 11.5 28.75 11.5 C 30.820312 11.5 32.5 13.179688 32.5 15.25 Z M 32.5 15.25 "/>
    </g>
  </g>
  <g clip-path="url(#clip-4)">
    <g clip-path="url(#clip-5)">
      <path fill-rule="nonzero" fill="#11111b" fill-opacity="1" d="M 23.25 5.648438 L 21.800781 5.851562 L 21.800781 11.148438 L 23.25 10.75 L 23.25 8.699219 L 24.699219 11.101562 L 26.148438 10.550781 L 24.351562 8.351562 L 26.199219 6 L 24.800781 5.648438 L 23.300781 8.050781 L 23.300781 5.648438 Z M 20.300781 7.101562 C 20.25 7.101562 20.25 7.101562 20.199219 7.148438 L 19.648438 7.699219 C 19.601562 7.75 19.601562 7.851562 19.648438 7.898438 L 20.25 8.851562 C 20.199219 8.949219 20.148438 9.050781 20.148438 9.148438 L 19.050781 9.398438 C 19 9.398438 18.898438 9.449219 18.898438 9.550781 L 18.898438 10.25 C 18.898438 10.300781 18.949219 10.351562 19.050781 10.398438 L 20.148438 10.648438 C 20.199219 10.75 20.199219 10.851562 20.25 10.898438 L 19.648438 11.851562 C 19.601562 11.898438 19.601562 12 19.648438 12.050781 L 20.199219 12.601562 C 20.25 12.648438 20.351562 12.648438 20.398438 12.601562 L 21.351562 12 C 21.449219 12.050781 21.550781 12.101562 21.648438 12.101562 L 21.898438 13.199219 C 21.898438 13.25 21.949219 13.351562 22.050781 13.351562 L 22.851562 13.351562 C 22.898438 13.351562 22.949219 13.300781 23 13.199219 L 23.25 12.101562 C 23.351562 12.050781 23.449219 12 23.550781 11.949219 L 24.449219 12.601562 C 24.5 12.648438 24.601562 12.648438 24.648438 12.601562 L 25.199219 12.050781 C 25.25 12 25.25 11.898438 25.199219 11.851562 L 24.851562 11.351562 L 24.800781 11.351562 C 24.699219 11.398438 24.648438 11.351562 24.601562 11.25 L 24.25 10.648438 C 23.949219 11.351562 23.25 11.898438 22.398438 11.898438 C 21.300781 11.898438 20.398438 11 20.398438 9.898438 C 20.398438 9.050781 20.949219 8.300781 21.699219 8.050781 L 21.699219 7.648438 C 21.601562 7.699219 21.5 7.699219 21.398438 7.75 L 20.449219 7.148438 C 20.351562 7.101562 20.351562 7.101562 20.300781 7.101562 Z M 20.300781 7.101562 "/>
    </g>
  </g>
</svg>