<?xml version="1.0" encoding="UTF-8" standalone="yes"?>
<svg xmlns="http://www.w3.org/2000/svg" xmlns:xlink="http://www.w3.org/1999/xlink" width="32" height="32" viewBox="0 0 32 32">
  <defs>
    <clipPath id="clip-0">
      <path clip-rule="nonzero" d="M 16 3 L 29 3 L 29 16 L 16 16 Z M 16 3 "/>
    </clipPath>
    <clipPath id="clip-1">
      <path clip-rule="nonzero" d="M 16.5 3.5 L 25.5 3.5 C 27.148438 3.5 28.5 4.851562 28.5 6.5 L 28.5 15.5 L 20.5 15.5 C 18.300781 15.5 16.5 13.699219 16.5 11.5 Z M 16.5 3.5 "/>
    </clipPath>
    <clipPath id="clip-2">
      <path clip-rule="nonzero" d="M 25 11 L 29 11 L 29 16 L 25 16 Z M 25 11 "/>
    </clipPath>
    <clipPath id="clip-3">
      <path clip-rule="nonzero" d="M 16.5 3.5 L 25.5 3.5 C 27.148438 3.5 28.5 4.851562 28.5 6.5 L 28.5 15.5 L 20.5 15.5 C 18.300781 15.5 16.5 13.699219 16.5 11.5 Z M 16.5 3.5 "/>
    </clipPath>
    <clipPath id="clip-4">
      <path clip-rule="nonzero" d="M 17 7 L 28 7 L 28 13 L 17 13 Z M 17 7 "/>
    </clipPath>
    <clipPath id="clip-5">
      <path clip-rule="nonzero" d="M 16.5 3.5 L 25.5 3.5 C 27.148438 3.5 28.5 4.851562 28.5 6.5 L 28.5 15.5 L 20.5 15.5 C 18.300781 15.5 16.5 13.699219 16.5 11.5 Z M 16.5 3.5 "/>
    </clipPath>
  </defs>
  <path fill-rule="nonzero" fill="#11111b" fill-opacity="1" d="M 6.5 3.5 L 25.5 3.5 C 27.148438 3.5 28.5 4.851562 28.5 6.5 L 28.5 25.5 C 28.5 27.148438 27.148438 28.5 25.5 28.5 L 6.5 28.5 C 4.851562 28.5 3.5 27.148438 3.5 25.5 L 3.5 6.5 C 3.5 4.851562 4.851562 3.5 6.5 3.5 Z M 6.5 3.5 "/>
  <g clip-path="url(#clip-0)">
    <g clip-path="url(#clip-1)">
      <path fill-rule="nonzero" fill="#b4befe" fill-opacity="1" d="M 16.5 3.5 L 25.5 3.5 C 27.148438 3.5 28.5 4.851562 28.5 6.5 L 28.5 15.5 L 20.5 15.5 C 18.300781 15.5 16.5 13.699219 16.5 11.5 Z M 16.5 3.5 "/>
    </g>
  </g>
  <g clip-path="url(#clip-2)">
    <g clip-path="url(#clip-3)">
      <path fill-rule="nonzero" fill="#b4befe" fill-opacity="1" d="M 32.5 15.25 C 32.5 17.320312 30.820312 19 28.75 19 C 26.679688 19 25 17.320312 25 15.25 C 25 13.179688 26.679688 11.5 28.75 11.5 C 30.820312 11.5 32.5 13.179688 32.5 15.25 Z M 32.5 15.25 "/>
    </g>
  </g>
  <g clip-path="url(#clip-4)">
    <g clip-path="url(#clip-5)">
      <path fill-rule="nonzero" fill="#11111b" fill-opacity="1" d="M 19.949219 7 C 19.648438 7 19.300781 7.050781 19 7.199219 C 18.699219 7.300781 18.449219 7.5 18.199219 7.75 C 17.949219 8 17.800781 8.25 17.648438 8.550781 C 17.550781 8.851562 17.5 9.148438 17.5 9.5 C 17.5 9.851562 17.550781 10.148438 17.699219 10.449219 C 17.800781 10.75 18 11.050781 18.25 11.25 C 18.5 11.5 18.75 11.648438 19.050781 11.800781 C 19.351562 11.898438 19.648438 12 19.949219 12 C 20.699219 12.050781 21.300781 11.75 21.75 11.300781 C 22.050781 11 22.300781 10.648438 22.5 10.300781 C 22.699219 10.648438 22.949219 11 23.25 11.300781 C 23.699219 11.75 24.300781 12.050781 25.050781 12 C 25.351562 12 25.648438 11.949219 25.949219 11.800781 C 26.25 11.699219 26.5 11.5 26.75 11.25 C 27 11 27.148438 10.75 27.300781 10.449219 C 27.398438 10.148438 27.5 9.800781 27.5 9.5 C 27.5 9.148438 27.449219 8.851562 27.300781 8.550781 C 27.199219 8.25 27 7.949219 26.75 7.75 C 26.5 7.5 26.25 7.351562 25.949219 7.199219 C 25.648438 7.101562 25.351562 7 25 7 C 24.199219 7 23.601562 7.351562 23.101562 7.800781 C 22.851562 8.050781 22.601562 8.351562 22.398438 8.648438 C 22.199219 8.351562 22 8.050781 21.699219 7.800781 C 21.351562 7.351562 20.699219 7 19.949219 7 Z M 19.898438 7.699219 C 20.550781 7.699219 20.949219 7.949219 21.300781 8.300781 C 21.601562 8.601562 21.851562 9 22.101562 9.449219 C 21.800781 9.949219 21.550781 10.449219 21.199219 10.75 C 20.851562 11.101562 20.5 11.300781 19.898438 11.25 C 19.648438 11.25 19.449219 11.199219 19.25 11.101562 C 19.050781 11 18.851562 10.898438 18.699219 10.699219 C 18.550781 10.550781 18.398438 10.351562 18.351562 10.101562 C 18.25 9.898438 18.199219 9.648438 18.199219 9.398438 C 18.199219 9.148438 18.25 8.949219 18.351562 8.699219 C 18.449219 8.5 18.550781 8.300781 18.699219 8.101562 C 18.851562 7.949219 19.050781 7.800781 19.25 7.699219 C 19.449219 7.75 19.699219 7.699219 19.898438 7.699219 Z M 25.050781 7.699219 C 25.300781 7.699219 25.5 7.75 25.699219 7.851562 C 25.898438 7.949219 26.101562 8.050781 26.25 8.25 C 26.398438 8.398438 26.550781 8.601562 26.601562 8.851562 C 26.699219 9.050781 26.75 9.300781 26.75 9.550781 C 26.75 9.800781 26.699219 10 26.601562 10.25 C 26.5 10.449219 26.398438 10.648438 26.25 10.851562 C 26.101562 11 25.898438 11.148438 25.699219 11.25 C 25.5 11.351562 25.25 11.398438 25.050781 11.398438 C 24.449219 11.449219 24.101562 11.25 23.75 10.898438 C 23.449219 10.601562 23.148438 10.101562 22.851562 9.601562 C 23.101562 9.148438 23.351562 8.75 23.648438 8.449219 C 24.050781 7.949219 24.449219 7.699219 25.050781 7.699219 Z M 24.648438 8.449219 L 24.648438 9.148438 L 23.949219 9.148438 L 23.949219 9.851562 L 24.648438 9.851562 L 24.648438 10.550781 L 25.351562 10.550781 L 25.351562 9.851562 L 26.050781 9.851562 L 26.050781 9.148438 L 25.351562 9.148438 L 25.351562 8.449219 Z M 18.898438 9.148438 L 18.898438 9.851562 L 21.050781 9.851562 L 21.050781 9.148438 Z M 18.898438 9.148438 "/>
    </g>
  </g>
</svg>