<?xml version="1.0" encoding="UTF-8" standalone="yes"?>
<svg xmlns="http://www.w3.org/2000/svg" xmlns:xlink="http://www.w3.org/1999/xlink" width="32" height="32" viewBox="0 0 32 32">
  <defs>
    <clipPath id="clip-0">
      <path clip-rule="nonzero" d="M 16 3 L 29 3 L 29 16 L 16 16 Z M 16 3 "/>
    </clipPath>
    <clipPath id="clip-1">
      <path clip-rule="nonzero" d="M 16.5 3.5 L 25.5 3.5 C 27.148438 3.5 28.5 4.851562 28.5 6.5 L 28.5 15.5 L 20.5 15.5 C 18.300781 15.5 16.5 13.699219 16.5 11.5 Z M 16.5 3.5 "/>
    </clipPath>
    <clipPath id="clip-2">
      <path clip-rule="nonzero" d="M 25 11 L 29 11 L 29 16 L 25 16 Z M 25 11 "/>
    </clipPath>
    <clipPath id="clip-3">
      <path clip-rule="nonzero" d="M 16.5 3.5 L 25.5 3.5 C 27.148438 3.5 28.5 4.851562 28.5 6.5 L 28.5 15.5 L 20.5 15.5 C 18.300781 15.5 16.5 13.699219 16.5 11.5 Z M 16.5 3.5 "/>
    </clipPath>
    <clipPath id="clip-4">
      <path clip-rule="nonzero" d="M 17 6 L 28 6 L 28 13 L 17 13 Z M 17 6 "/>
    </clipPath>
    <clipPath id="clip-5">
      <path clip-rule="nonzero" d="M 16.5 3.5 L 25.5 3.5 C 27.148438 3.5 28.5 4.851562 28.5 6.5 L 28.5 15.5 L 20.5 15.5 C 18.300781 15.5 16.5 13.699219 16.5 11.5 Z M 16.5 3.5 "/>
    </clipPath>
  </defs>
  <path fill-rule="nonzero" fill="#11111b" fill-opacity="1" d="M 6.5 3.5 L 25.5 3.5 C 27.148438 3.5 28.5 4.851562 28.5 6.5 L 28.5 25.5 C 28.5 27.148438 27.148438 28.5 25.5 28.5 L 6.5 28.5 C 4.851562 28.5 3.5 27.148438 3.5 25.5 L 3.5 6.5 C 3.5 4.851562 4.851562 3.5 6.5 3.5 Z M 6.5 3.5 "/>
  <g clip-path="url(#clip-0)">
    <g clip-path="url(#clip-1)">
      <path fill-rule="nonzero" fill="#b4befe" fill-opacity="1" d="M 16.5 3.5 L 25.5 3.5 C 27.148438 3.5 28.5 4.851562 28.5 6.5 L 28.5 15.5 L 20.5 15.5 C 18.300781 15.5 16.5 13.699219 16.5 11.5 Z M 16.5 3.5 "/>
    </g>
  </g>
  <g clip-path="url(#clip-2)">
    <g clip-path="url(#clip-3)">
      <path fill-rule="nonzero" fill="#b4befe" fill-opacity="1" d="M 32.5 15.25 C 32.5 17.320312 30.820312 19 28.75 19 C 26.679688 19 25 17.320312 25 15.25 C 25 13.179688 26.679688 11.5 28.75 11.5 C 30.820312 11.5 32.5 13.179688 32.5 15.25 Z M 32.5 15.25 "/>
    </g>
  </g>
  <g clip-path="url(#clip-4)">
    <g clip-path="url(#clip-5)">
      <path fill-rule="nonzero" fill="#11111b" fill-opacity="1" d="M 23.449219 6.101562 C 22.5 6.101562 21.648438 6.601562 21.25 7.449219 C 21.050781 7.351562 20.851562 7.351562 20.648438 7.351562 C 19.851562 7.351562 19.199219 7.898438 19.101562 8.699219 C 18.351562 8.949219 17.851562 9.648438 17.851562 10.449219 C 17.851562 11.5 18.699219 12.300781 19.699219 12.300781 L 25.300781 12.300781 C 26.351562 12.300781 27.148438 11.449219 27.148438 10.449219 C 27.148438 9.648438 26.648438 8.949219 25.898438 8.699219 C 25.898438 8.648438 25.898438 8.648438 25.898438 8.601562 C 25.898438 7.25 24.800781 6.101562 23.449219 6.101562 Z M 23.449219 7.648438 C 24 7.648438 24.398438 8.050781 24.398438 8.601562 C 24.351562 9.300781 24.800781 9.949219 25.449219 10.148438 C 25.601562 10.199219 25.648438 10.300781 25.648438 10.449219 C 25.648438 10.648438 25.550781 10.75 25.351562 10.75 L 19.699219 10.75 C 19.5 10.75 19.398438 10.648438 19.398438 10.449219 C 19.398438 10.300781 19.5 10.199219 19.601562 10.148438 C 20.148438 9.949219 20.550781 9.449219 20.648438 8.898438 C 21.398438 9.199219 22.25 8.898438 22.601562 8.148438 C 22.75 7.851562 23.101562 7.648438 23.449219 7.648438 Z M 23.449219 7.648438 "/>
    </g>
  </g>
</svg>