<?xml version="1.0" encoding="UTF-8" standalone="yes"?>
<svg xmlns="http://www.w3.org/2000/svg" xmlns:xlink="http://www.w3.org/1999/xlink" width="32" height="32" viewBox="0 0 32 32">
  <defs>
    <clipPath id="clip-0">
      <path clip-rule="nonzero" d="M 16 3 L 29 3 L 29 16 L 16 16 Z M 16 3 "/>
    </clipPath>
    <clipPath id="clip-1">
      <path clip-rule="nonzero" d="M 16.5 3.5 L 25.5 3.5 C 27.148438 3.5 28.5 4.851562 28.5 6.5 L 28.5 15.5 L 20.5 15.5 C 18.300781 15.5 16.5 13.699219 16.5 11.5 Z M 16.5 3.5 "/>
    </clipPath>
    <clipPath id="clip-2">
      <path clip-rule="nonzero" d="M 25 11 L 29 11 L 29 16 L 25 16 Z M 25 11 "/>
    </clipPath>
    <clipPath id="clip-3">
      <path clip-rule="nonzero" d="M 16.5 3.5 L 25.5 3.5 C 27.148438 3.5 28.5 4.851562 28.5 6.5 L 28.5 15.5 L 20.5 15.5 C 18.300781 15.5 16.5 13.699219 16.5 11.5 Z M 16.5 3.5 "/>
    </clipPath>
    <clipPath id="clip-4">
      <path clip-rule="nonzero" d="M 18 5 L 27 5 L 27 13 L 18 13 Z M 18 5 "/>
    </clipPath>
    <clipPath id="clip-5">
      <path clip-rule="nonzero" d="M 16.5 3.5 L 25.5 3.5 C 27.148438 3.5 28.5 4.851562 28.5 6.5 L 28.5 15.5 L 20.5 15.5 C 18.300781 15.5 16.5 13.699219 16.5 11.5 Z M 16.5 3.5 "/>
    </clipPath>
  </defs>
  <path fill-rule="nonzero" fill="#11111b" fill-opacity="1" d="M 6.5 3.5 L 25.5 3.5 C 27.148438 3.5 28.5 4.851562 28.5 6.5 L 28.5 25.5 C 28.5 27.148438 27.148438 28.5 25.5 28.5 L 6.5 28.5 C 4.851562 28.5 3.5 27.148438 3.5 25.5 L 3.5 6.5 C 3.5 4.851562 4.851562 3.5 6.5 3.5 Z M 6.5 3.5 "/>
  <g clip-path="url(#clip-0)">
    <g clip-path="url(#clip-1)">
      <path fill-rule="nonzero" fill="#b4befe" fill-opacity="1" d="M 16.5 3.5 L 25.5 3.5 C 27.148438 3.5 28.5 4.851562 28.5 6.5 L 28.5 15.5 L 20.5 15.5 C 18.300781 15.5 16.5 13.699219 16.5 11.5 Z M 16.5 3.5 "/>
    </g>
  </g>
  <g clip-path="url(#clip-2)">
    <g clip-path="url(#clip-3)">
      <path fill-rule="nonzero" fill="#b4befe" fill-opacity="1" d="M 32.5 15.25 C 32.5 17.320312 30.820312 19 28.75 19 C 26.679688 19 25 17.320312 25 15.25 C 25 13.179688 26.679688 11.5 28.75 11.5 C 30.820312 11.5 32.5 13.179688 32.5 15.25 Z M 32.5 15.25 "/>
    </g>
  </g>
  <g clip-path="url(#clip-4)">
    <g clip-path="url(#clip-5)">
      <path fill-rule="nonzero" fill="#11111b" fill-opacity="1" d="M 23.75 5.148438 C 23.601562 5.199219 23.449219 5.300781 23.300781 5.398438 C 22.699219 5.898438 22.800781 6.949219 23.398438 7.449219 C 23.5 7.550781 23.601562 7.601562 23.75 7.648438 L 23.75 8.699219 C 24.25 8.949219 24.449219 9.050781 24.851562 9.398438 C 25.101562 9.699219 25.101562 9.699219 25.199219 9.898438 L 25.199219 7.601562 C 25.351562 7.550781 25.5 7.5 25.601562 7.398438 C 26.25 6.898438 26.199219 5.898438 25.601562 5.398438 C 25.449219 5.300781 25.300781 5.199219 25.148438 5.148438 L 25.148438 6.199219 C 25.148438 6.550781 25.148438 6.898438 24.800781 6.898438 L 24.101562 6.898438 C 23.75 6.898438 23.75 6.550781 23.75 6.199219 Z M 22.5 8.75 C 20.550781 8.75 19.800781 10.25 19.800781 11.601562 L 18.851562 11.601562 C 18.75 11.601562 18.75 11.699219 18.75 11.699219 L 18.75 12.550781 C 18.75 12.648438 18.851562 12.648438 18.851562 12.648438 L 26.148438 12.648438 C 26.148438 12.648438 26.25 12.648438 26.25 12.550781 L 26.25 11.699219 C 26.25 11.699219 26.25 11.601562 26.148438 11.601562 L 25.199219 11.601562 C 25.199219 10.25 24.449219 8.75 22.5 8.75 Z M 22.5 10.148438 C 23.75 10.148438 24.101562 11 24.101562 11.550781 L 20.898438 11.550781 C 20.898438 11.050781 21.25 10.199219 22.5 10.148438 Z M 22.5 10.148438 "/>
    </g>
  </g>
</svg>