<?xml version="1.0" encoding="UTF-8" standalone="yes"?>
<svg xmlns="http://www.w3.org/2000/svg" xmlns:xlink="http://www.w3.org/1999/xlink" width="32" height="32" viewBox="0 0 32 32">
  <defs>
    <clipPath id="clip-0">
      <path clip-rule="nonzero" d="M 16 3 L 29 3 L 29 16 L 16 16 Z M 16 3 "/>
    </clipPath>
    <clipPath id="clip-1">
      <path clip-rule="nonzero" d="M 16.5 3.5 L 25.5 3.5 C 27.148438 3.5 28.5 4.851562 28.5 6.5 L 28.5 15.5 L 20.5 15.5 C 18.300781 15.5 16.5 13.699219 16.5 11.5 Z M 16.5 3.5 "/>
    </clipPath>
    <clipPath id="clip-2">
      <path clip-rule="nonzero" d="M 25 11 L 29 11 L 29 16 L 25 16 Z M 25 11 "/>
    </clipPath>
    <clipPath id="clip-3">
      <path clip-rule="nonzero" d="M 16.5 3.5 L 25.5 3.5 C 27.148438 3.5 28.5 4.851562 28.5 6.5 L 28.5 15.5 L 20.5 15.5 C 18.300781 15.5 16.5 13.699219 16.5 11.5 Z M 16.5 3.5 "/>
    </clipPath>
    <clipPath id="clip-4">
      <path clip-rule="nonzero" d="M 18 5 L 29 5 L 29 13 L 18 13 Z M 18 5 "/>
    </clipPath>
    <clipPath id="clip-5">
      <path clip-rule="nonzero" d="M 16.5 3.5 L 25.5 3.5 C 27.148438 3.5 28.5 4.851562 28.5 6.5 L 28.5 15.5 L 20.5 15.5 C 18.300781 15.5 16.5 13.699219 16.5 11.5 Z M 16.5 3.5 "/>
    </clipPath>
  </defs>
  <path fill-rule="nonzero" fill="#11111b" fill-opacity="1" d="M 6.5 3.5 L 25.5 3.5 C 27.148438 3.5 28.5 4.851562 28.5 6.5 L 28.5 25.5 C 28.5 27.148438 27.148438 28.5 25.5 28.5 L 6.5 28.5 C 4.851562 28.5 3.5 27.148438 3.5 25.5 L 3.5 6.5 C 3.5 4.851562 4.851562 3.5 6.5 3.5 Z M 6.5 3.5 "/>
  <g clip-path="url(#clip-0)">
    <g clip-path="url(#clip-1)">
      <path fill-rule="nonzero" fill="#b4befe" fill-opacity="1" d="M 16.5 3.5 L 25.5 3.5 C 27.148438 3.5 28.5 4.851562 28.5 6.5 L 28.5 15.5 L 20.5 15.5 C 18.300781 15.5 16.5 13.699219 16.5 11.5 Z M 16.5 3.5 "/>
    </g>
  </g>
  <g clip-path="url(#clip-2)">
    <g clip-path="url(#clip-3)">
      <path fill-rule="nonzero" fill="#b4befe" fill-opacity="1" d="M 32.5 15.25 C 32.5 17.320312 30.820312 19 28.75 19 C 26.679688 19 25 17.320312 25 15.25 C 25 13.179688 26.679688 11.5 28.75 11.5 C 30.820312 11.5 32.5 13.179688 32.5 15.25 Z M 32.5 15.25 "/>
    </g>
  </g>
  <g clip-path="url(#clip-4)">
    <g clip-path="url(#clip-5)">
      <path fill-rule="nonzero" fill="#11111b" fill-opacity="1" d="M 21.75 5.851562 C 19.949219 5.851562 18.5 7.300781 18.5 9.101562 C 18.5 10.898438 19.949219 12.351562 21.75 12.351562 L 28.5 12.351562 L 28.5 11.800781 L 21.75 11.800781 C 20.25 11.800781 19.050781 10.601562 19.050781 9.101562 C 19.050781 7.601562 20.25 6.398438 21.75 6.398438 Z M 21.75 6.648438 C 20.398438 6.648438 19.300781 7.75 19.300781 9.101562 C 19.300781 10.449219 20.398438 11.550781 21.75 11.550781 L 28.5 11.550781 L 28.5 11 L 21.75 11 C 20.699219 11 19.851562 10.148438 19.851562 9.101562 C 19.851562 8.050781 20.699219 7.199219 21.75 7.199219 C 22.050781 7.199219 22.300781 7.25 22.550781 7.398438 L 22.550781 6.800781 C 22.300781 6.699219 22.050781 6.648438 21.75 6.648438 Z M 21.75 7.449219 C 20.851562 7.449219 20.148438 8.148438 20.148438 9.050781 C 20.148438 9.949219 20.851562 10.648438 21.75 10.648438 L 28.5 10.648438 L 28.5 10.101562 L 21.75 10.101562 C 21.148438 10.101562 20.648438 9.601562 20.648438 9 C 20.648438 8.398438 21.148438 7.898438 21.75 7.898438 C 22.148438 7.898438 22.5 8.101562 22.699219 8.449219 L 23.300781 8.449219 C 23.050781 7.898438 22.449219 7.449219 21.75 7.449219 Z M 21.75 7.449219 "/>
    </g>
  </g>
</svg>