<?xml version="1.0" encoding="UTF-8" standalone="yes"?>
<svg xmlns="http://www.w3.org/2000/svg" xmlns:xlink="http://www.w3.org/1999/xlink" width="32" height="32" viewBox="0 0 32 32">
  <defs>
    <clipPath id="clip-0">
      <path clip-rule="nonzero" d="M 16 3 L 29 3 L 29 16 L 16 16 Z M 16 3 "/>
    </clipPath>
    <clipPath id="clip-1">
      <path clip-rule="nonzero" d="M 16.5 3.5 L 25.5 3.5 C 27.148438 3.5 28.5 4.851562 28.5 6.5 L 28.5 15.5 L 20.5 15.5 C 18.300781 15.5 16.5 13.699219 16.5 11.5 Z M 16.5 3.5 "/>
    </clipPath>
    <clipPath id="clip-2">
      <path clip-rule="nonzero" d="M 25 11 L 29 11 L 29 16 L 25 16 Z M 25 11 "/>
    </clipPath>
    <clipPath id="clip-3">
      <path clip-rule="nonzero" d="M 16.5 3.5 L 25.5 3.5 C 27.148438 3.5 28.5 4.851562 28.5 6.5 L 28.5 15.5 L 20.5 15.5 C 18.300781 15.5 16.5 13.699219 16.5 11.5 Z M 16.5 3.5 "/>
    </clipPath>
    <clipPath id="clip-4">
      <path clip-rule="nonzero" d="M 18 5 L 27 5 L 27 14 L 18 14 Z M 18 5 "/>
    </clipPath>
    <clipPath id="clip-5">
      <path clip-rule="nonzero" d="M 16.5 3.5 L 25.5 3.5 C 27.148438 3.5 28.5 4.851562 28.5 6.5 L 28.5 15.5 L 20.5 15.5 C 18.300781 15.5 16.5 13.699219 16.5 11.5 Z M 16.5 3.5 "/>
    </clipPath>
  </defs>
  <path fill-rule="nonzero" fill="#11111b" fill-opacity="1" d="M 6.5 3.5 L 25.5 3.5 C 27.148438 3.5 28.5 4.851562 28.5 6.5 L 28.5 25.5 C 28.5 27.148438 27.148438 28.5 25.5 28.5 L 6.5 28.5 C 4.851562 28.5 3.5 27.148438 3.5 25.5 L 3.5 6.5 C 3.5 4.851562 4.851562 3.5 6.5 3.5 Z M 6.5 3.5 "/>
  <g clip-path="url(#clip-0)">
    <g clip-path="url(#clip-1)">
      <path fill-rule="nonzero" fill="#b4befe" fill-opacity="1" d="M 16.5 3.5 L 25.5 3.5 C 27.148438 3.5 28.5 4.851562 28.5 6.5 L 28.5 15.5 L 20.5 15.5 C 18.300781 15.5 16.5 13.699219 16.5 11.5 Z M 16.5 3.5 "/>
    </g>
  </g>
  <g clip-path="url(#clip-2)">
    <g clip-path="url(#clip-3)">
      <path fill-rule="nonzero" fill="#b4befe" fill-opacity="1" d="M 32.5 15.25 C 32.5 17.320312 30.820312 19 28.75 19 C 26.679688 19 25 17.320312 25 15.25 C 25 13.179688 26.679688 11.5 28.75 11.5 C 30.820312 11.5 32.5 13.179688 32.5 15.25 Z M 32.5 15.25 "/>
    </g>
  </g>
  <g clip-path="url(#clip-4)">
    <g clip-path="url(#clip-5)">
      <path fill-rule="nonzero" fill="#11111b" fill-opacity="1" d="M 20.449219 7.75 C 20.398438 7.75 20.398438 7.75 20.351562 7.800781 C 20.101562 7.898438 20.050781 8.300781 20.199219 8.648438 C 20.351562 8.949219 20.601562 9.101562 20.800781 9.101562 C 20.949219 10.050781 21.648438 10.75 22.449219 10.75 C 23.25 10.75 23.949219 10.050781 24.101562 9.101562 C 24.351562 9.101562 24.601562 8.949219 24.699219 8.648438 C 24.898438 8.300781 24.800781 7.898438 24.550781 7.800781 C 24.5 7.800781 24.5 7.800781 24.449219 7.75 C 24.398438 6.75 23.5 5.898438 22.398438 5.898438 C 21.300781 5.898438 20.449219 6.699219 20.449219 7.75 Z M 23.75 10.851562 C 23.648438 11 23.5 11.101562 23.351562 11.199219 C 23.101562 11.398438 22.800781 11.5 22.5 11.5 C 22.050781 11.5 21.601562 11.25 21.300781 10.898438 C 20 11.101562 18.601562 11.351562 18.5 11.699219 C 18.5 11.699219 18.5 11.75 18.5 11.75 L 18.5 12.851562 C 18.5 12.949219 18.601562 13.050781 18.699219 13.050781 L 26.300781 13.050781 C 26.398438 13.050781 26.5 12.949219 26.5 12.851562 L 26.5 11.75 C 26.5 11.699219 26.5 11.699219 26.5 11.699219 C 26.398438 11.351562 25.050781 11.050781 23.75 10.851562 Z M 23.75 10.851562 "/>
    </g>
  </g>
</svg>