<?xml version="1.0" encoding="UTF-8" standalone="yes"?>
<svg xmlns="http://www.w3.org/2000/svg" xmlns:xlink="http://www.w3.org/1999/xlink" width="32" height="32" viewBox="0 0 32 32">
  <defs>
    <clipPath id="clip-0">
      <path clip-rule="nonzero" d="M 16 3 L 29 3 L 29 16 L 16 16 Z M 16 3 "/>
    </clipPath>
    <clipPath id="clip-1">
      <path clip-rule="nonzero" d="M 16.5 3.5 L 25.5 3.5 C 27.148438 3.5 28.5 4.851562 28.5 6.5 L 28.5 15.5 L 20.5 15.5 C 18.300781 15.5 16.5 13.699219 16.5 11.5 Z M 16.5 3.5 "/>
    </clipPath>
    <clipPath id="clip-2">
      <path clip-rule="nonzero" d="M 25 11 L 29 11 L 29 16 L 25 16 Z M 25 11 "/>
    </clipPath>
    <clipPath id="clip-3">
      <path clip-rule="nonzero" d="M 16.5 3.5 L 25.5 3.5 C 27.148438 3.5 28.5 4.851562 28.5 6.5 L 28.5 15.5 L 20.5 15.5 C 18.300781 15.5 16.5 13.699219 16.5 11.5 Z M 16.5 3.5 "/>
    </clipPath>
    <clipPath id="clip-4">
      <path clip-rule="nonzero" d="M 18 5 L 23 5 L 23 10 L 18 10 Z M 18 5 "/>
    </clipPath>
    <clipPath id="clip-5">
      <path clip-rule="nonzero" d="M 16.5 3.5 L 25.5 3.5 C 27.148438 3.5 28.5 4.851562 28.5 6.5 L 28.5 15.5 L 20.5 15.5 C 18.300781 15.5 16.5 13.699219 16.5 11.5 Z M 16.5 3.5 "/>
    </clipPath>
    <clipPath id="clip-6">
      <path clip-rule="nonzero" d="M 22 5 L 27 5 L 27 10 L 22 10 Z M 22 5 "/>
    </clipPath>
    <clipPath id="clip-7">
      <path clip-rule="nonzero" d="M 16.5 3.5 L 25.5 3.5 C 27.148438 3.5 28.5 4.851562 28.5 6.5 L 28.5 15.5 L 20.5 15.5 C 18.300781 15.5 16.5 13.699219 16.5 11.5 Z M 16.5 3.5 "/>
    </clipPath>
    <clipPath id="clip-8">
      <path clip-rule="nonzero" d="M 22 9 L 27 9 L 27 14 L 22 14 Z M 22 9 "/>
    </clipPath>
    <clipPath id="clip-9">
      <path clip-rule="nonzero" d="M 16.5 3.5 L 25.5 3.5 C 27.148438 3.5 28.5 4.851562 28.5 6.5 L 28.5 15.5 L 20.5 15.5 C 18.300781 15.5 16.5 13.699219 16.5 11.5 Z M 16.5 3.5 "/>
    </clipPath>
    <clipPath id="clip-10">
      <path clip-rule="nonzero" d="M 18 9 L 23 9 L 23 14 L 18 14 Z M 18 9 "/>
    </clipPath>
    <clipPath id="clip-11">
      <path clip-rule="nonzero" d="M 16.5 3.5 L 25.5 3.5 C 27.148438 3.5 28.5 4.851562 28.5 6.5 L 28.5 15.5 L 20.5 15.5 C 18.300781 15.5 16.5 13.699219 16.5 11.5 Z M 16.5 3.5 "/>
    </clipPath>
  </defs>
  <path fill-rule="nonzero" fill="#11111b" fill-opacity="1" d="M 6.5 3.5 L 25.5 3.5 C 27.148438 3.5 28.5 4.851562 28.5 6.5 L 28.5 25.5 C 28.5 27.148438 27.148438 28.5 25.5 28.5 L 6.5 28.5 C 4.851562 28.5 3.5 27.148438 3.5 25.5 L 3.5 6.5 C 3.5 4.851562 4.851562 3.5 6.5 3.5 Z M 6.5 3.5 "/>
  <g clip-path="url(#clip-0)">
    <g clip-path="url(#clip-1)">
      <path fill-rule="nonzero" fill="#b4befe" fill-opacity="1" d="M 16.5 3.5 L 25.5 3.5 C 27.148438 3.5 28.5 4.851562 28.5 6.5 L 28.5 15.5 L 20.5 15.5 C 18.300781 15.5 16.5 13.699219 16.5 11.5 Z M 16.5 3.5 "/>
    </g>
  </g>
  <g clip-path="url(#clip-2)">
    <g clip-path="url(#clip-3)">
      <path fill-rule="nonzero" fill="#b4befe" fill-opacity="1" d="M 32.5 15.25 C 32.5 17.320312 30.820312 19 28.75 19 C 26.679688 19 25 17.320312 25 15.25 C 25 13.179688 26.679688 11.5 28.75 11.5 C 30.820312 11.5 32.5 13.179688 32.5 15.25 Z M 32.5 15.25 "/>
    </g>
  </g>
  <g clip-path="url(#clip-4)">
    <g clip-path="url(#clip-5)">
      <path fill-rule="nonzero" fill="#11111b" fill-opacity="1" d="M 19.351562 5.851562 L 21.601562 5.851562 C 21.898438 5.851562 22.101562 6.101562 22.101562 6.351562 L 22.101562 8.601562 C 22.101562 8.898438 21.851562 9.101562 21.601562 9.101562 L 19.351562 9.101562 C 19.050781 9.101562 18.851562 8.851562 18.851562 8.601562 L 18.851562 6.351562 C 18.851562 6.050781 19.050781 5.851562 19.351562 5.851562 Z M 19.351562 5.851562 "/>
    </g>
  </g>
  <g clip-path="url(#clip-6)">
    <g clip-path="url(#clip-7)">
      <path fill-rule="nonzero" fill="#11111b" fill-opacity="1" d="M 23.398438 5.851562 L 25.648438 5.851562 C 25.949219 5.851562 26.148438 6.101562 26.148438 6.351562 L 26.148438 8.601562 C 26.148438 8.898438 25.898438 9.101562 25.648438 9.101562 L 23.398438 9.101562 C 23.101562 9.101562 22.898438 8.851562 22.898438 8.601562 L 22.898438 6.351562 C 22.898438 6.050781 23.148438 5.851562 23.398438 5.851562 Z M 23.398438 5.851562 "/>
    </g>
  </g>
  <g clip-path="url(#clip-8)">
    <g clip-path="url(#clip-9)">
      <path fill-rule="nonzero" fill="#11111b" fill-opacity="1" d="M 23.398438 9.898438 L 25.648438 9.898438 C 25.949219 9.898438 26.148438 10.148438 26.148438 10.398438 L 26.148438 12.648438 C 26.148438 12.949219 25.898438 13.148438 25.648438 13.148438 L 23.398438 13.148438 C 23.101562 13.148438 22.898438 12.898438 22.898438 12.648438 L 22.898438 10.398438 C 22.898438 10.148438 23.148438 9.898438 23.398438 9.898438 Z M 23.398438 9.898438 "/>
    </g>
  </g>
  <g clip-path="url(#clip-10)">
    <g clip-path="url(#clip-11)">
      <path fill-rule="nonzero" fill="#11111b" fill-opacity="1" d="M 19.351562 9.898438 L 21.601562 9.898438 C 21.898438 9.898438 22.101562 10.148438 22.101562 10.398438 L 22.101562 12.648438 C 22.101562 12.949219 21.851562 13.148438 21.601562 13.148438 L 19.351562 13.148438 C 19.050781 13.148438 18.851562 12.898438 18.851562 12.648438 L 18.851562 10.398438 C 18.851562 10.148438 19.050781 9.898438 19.351562 9.898438 Z M 19.351562 9.898438 "/>
    </g>
  </g>
</svg>