<?xml version="1.0" encoding="UTF-8" standalone="yes"?>
<svg xmlns="http://www.w3.org/2000/svg" xmlns:xlink="http://www.w3.org/1999/xlink" width="32" height="32" viewBox="0 0 32 32">
  <defs>
    <clipPath id="clip-0">
      <path clip-rule="nonzero" d="M 16 3 L 29 3 L 29 16 L 16 16 Z M 16 3 "/>
    </clipPath>
    <clipPath id="clip-1">
      <path clip-rule="nonzero" d="M 16.5 3.5 L 25.5 3.5 C 27.148438 3.5 28.5 4.851562 28.5 6.5 L 28.5 15.5 L 20.5 15.5 C 18.300781 15.5 16.5 13.699219 16.5 11.5 Z M 16.5 3.5 "/>
    </clipPath>
    <clipPath id="clip-2">
      <path clip-rule="nonzero" d="M 25 11 L 29 11 L 29 16 L 25 16 Z M 25 11 "/>
    </clipPath>
    <clipPath id="clip-3">
      <path clip-rule="nonzero" d="M 16.5 3.5 L 25.5 3.5 C 27.148438 3.5 28.5 4.851562 28.5 6.5 L 28.5 15.5 L 20.5 15.5 C 18.300781 15.5 16.5 13.699219 16.5 11.5 Z M 16.5 3.5 "/>
    </clipPath>
    <clipPath id="clip-4">
      <path clip-rule="nonzero" d="M 19 5 L 26 5 L 26 14 L 19 14 Z M 19 5 "/>
    </clipPath>
    <clipPath id="clip-5">
      <path clip-rule="nonzero" d="M 16.5 3.5 L 25.5 3.5 C 27.148438 3.5 28.5 4.851562 28.5 6.5 L 28.5 15.5 L 20.5 15.5 C 18.300781 15.5 16.5 13.699219 16.5 11.5 Z M 16.5 3.5 "/>
    </clipPath>
  </defs>
  <path fill-rule="nonzero" fill="#11111b" fill-opacity="1" d="M 6.5 3.5 L 25.5 3.5 C 27.148438 3.5 28.5 4.851562 28.5 6.5 L 28.5 25.5 C 28.5 27.148438 27.148438 28.5 25.5 28.5 L 6.5 28.5 C 4.851562 28.5 3.5 27.148438 3.5 25.5 L 3.5 6.5 C 3.5 4.851562 4.851562 3.5 6.5 3.5 Z M 6.5 3.5 "/>
  <g clip-path="url(#clip-0)">
    <g clip-path="url(#clip-1)">
      <path fill-rule="nonzero" fill="#b4befe" fill-opacity="1" d="M 16.5 3.5 L 25.5 3.5 C 27.148438 3.5 28.5 4.851562 28.5 6.5 L 28.5 15.5 L 20.5 15.5 C 18.300781 15.5 16.5 13.699219 16.5 11.5 Z M 16.5 3.5 "/>
    </g>
  </g>
  <g clip-path="url(#clip-2)">
    <g clip-path="url(#clip-3)">
      <path fill-rule="nonzero" fill="#b4befe" fill-opacity="1" d="M 32.5 15.25 C 32.5 17.320312 30.820312 19 28.75 19 C 26.679688 19 25 17.320312 25 15.25 C 25 13.179688 26.679688 11.5 28.75 11.5 C 30.820312 11.5 32.5 13.179688 32.5 15.25 Z M 32.5 15.25 "/>
    </g>
  </g>
  <g clip-path="url(#clip-4)">
    <g clip-path="url(#clip-5)">
      <path fill-rule="nonzero" fill="#11111b" fill-opacity="1" d="M 20.25 5.75 C 19.949219 5.75 19.699219 6 19.699219 6.300781 L 19.699219 10.601562 L 20.101562 10.601562 L 20.101562 10.199219 L 20.5 10.199219 L 20.5 6.5 L 23.5 6.5 L 23.5 8 L 25 8 L 25 12.898438 L 25.398438 12.898438 L 25.398438 12.5 L 25.800781 12.5 L 25.800781 7.601562 L 23.898438 5.699219 L 20.25 5.699219 Z M 25.300781 12.898438 L 25.300781 13.300781 L 25.699219 13.300781 L 25.699219 12.898438 Z M 24.949219 12.898438 L 24.550781 12.898438 L 24.550781 13.300781 L 24.949219 13.300781 Z M 24.550781 12.898438 L 24.550781 12.5 L 24.148438 12.5 L 24.148438 12.898438 Z M 24.199219 12.898438 L 23.800781 12.898438 L 23.800781 13.300781 L 24.199219 13.300781 Z M 23.800781 12.898438 L 23.800781 12.5 L 23.398438 12.5 L 23.398438 12.898438 Z M 23.449219 12.898438 L 23.050781 12.898438 L 23.050781 13.300781 L 23.449219 13.300781 Z M 23.050781 12.898438 L 23.050781 12.5 L 22.648438 12.5 L 22.648438 12.898438 Z M 22.699219 12.898438 L 22.300781 12.898438 L 22.300781 13.300781 L 22.699219 13.300781 Z M 22.300781 12.898438 L 22.300781 12.5 L 21.898438 12.5 L 21.898438 12.898438 Z M 21.949219 12.898438 L 21.550781 12.898438 L 21.550781 13.300781 L 21.949219 13.300781 Z M 21.550781 12.898438 L 21.550781 12.5 L 21.148438 12.5 L 21.148438 12.898438 Z M 21.199219 12.898438 L 20.800781 12.898438 L 20.800781 13.300781 L 21.199219 13.300781 Z M 20.800781 12.898438 L 20.800781 12.5 L 20.398438 12.5 L 20.398438 12.898438 Z M 20.449219 12.898438 L 20.050781 12.898438 L 20.050781 13.300781 L 20.449219 13.300781 Z M 20.050781 12.898438 L 20.050781 12.5 L 19.648438 12.5 L 19.648438 12.898438 Z M 20.050781 12.5 L 20.449219 12.5 L 20.449219 12.101562 L 20.050781 12.101562 Z M 20.050781 12.101562 L 20.050781 11.699219 L 19.648438 11.699219 L 19.648438 12.101562 Z M 20.050781 11.75 L 20.449219 11.75 L 20.449219 11.351562 L 20.050781 11.351562 Z M 20.050781 11.398438 L 20.050781 11 L 19.648438 11 L 19.648438 11.398438 Z M 20.050781 11 L 20.449219 11 L 20.449219 10.601562 L 20.050781 10.601562 Z M 20.050781 11 "/>
    </g>
  </g>
</svg>