<?xml version="1.0" encoding="UTF-8" standalone="yes"?>
<svg xmlns="http://www.w3.org/2000/svg" xmlns:xlink="http://www.w3.org/1999/xlink" width="32" height="32" viewBox="0 0 32 32">
  <defs>
    <clipPath id="clip-0">
      <path clip-rule="nonzero" d="M 16 3 L 29 3 L 29 16 L 16 16 Z M 16 3 "/>
    </clipPath>
    <clipPath id="clip-1">
      <path clip-rule="nonzero" d="M 16.5 3.5 L 25.5 3.5 C 27.148438 3.5 28.5 4.851562 28.5 6.5 L 28.5 15.5 L 20.5 15.5 C 18.300781 15.5 16.5 13.699219 16.5 11.5 Z M 16.5 3.5 "/>
    </clipPath>
    <clipPath id="clip-2">
      <path clip-rule="nonzero" d="M 25 11 L 29 11 L 29 16 L 25 16 Z M 25 11 "/>
    </clipPath>
    <clipPath id="clip-3">
      <path clip-rule="nonzero" d="M 16.5 3.5 L 25.5 3.5 C 27.148438 3.5 28.5 4.851562 28.5 6.5 L 28.5 15.5 L 20.5 15.5 C 18.300781 15.5 16.5 13.699219 16.5 11.5 Z M 16.5 3.5 "/>
    </clipPath>
    <clipPath id="clip-4">
      <path clip-rule="nonzero" d="M 18 5 L 26 5 L 26 14 L 18 14 Z M 18 5 "/>
    </clipPath>
    <clipPath id="clip-5">
      <path clip-rule="nonzero" d="M 16.5 3.5 L 25.5 3.5 C 27.148438 3.5 28.5 4.851562 28.5 6.5 L 28.5 15.5 L 20.5 15.5 C 18.300781 15.5 16.5 13.699219 16.5 11.5 Z M 16.5 3.5 "/>
    </clipPath>
  </defs>
  <path fill-rule="nonzero" fill="#11111b" fill-opacity="1" d="M 6.5 3.5 L 25.5 3.5 C 27.148438 3.5 28.5 4.851562 28.5 6.5 L 28.5 25.5 C 28.5 27.148438 27.148438 28.5 25.5 28.5 L 6.5 28.5 C 4.851562 28.5 3.5 27.148438 3.5 25.5 L 3.5 6.5 C 3.5 4.851562 4.851562 3.5 6.5 3.5 Z M 6.5 3.5 "/>
  <g clip-path="url(#clip-0)">
    <g clip-path="url(#clip-1)">
      <path fill-rule="nonzero" fill="#b4befe" fill-opacity="1" d="M 16.5 3.5 L 25.5 3.5 C 27.148438 3.5 28.5 4.851562 28.5 6.5 L 28.5 15.5 L 20.5 15.5 C 18.300781 15.5 16.5 13.699219 16.5 11.5 Z M 16.5 3.5 "/>
    </g>
  </g>
  <g clip-path="url(#clip-2)">
    <g clip-path="url(#clip-3)">
      <path fill-rule="nonzero" fill="#b4befe" fill-opacity="1" d="M 32.5 15.25 C 32.5 17.320312 30.820312 19 28.75 19 C 26.679688 19 25 17.320312 25 15.25 C 25 13.179688 26.679688 11.5 28.75 11.5 C 30.820312 11.5 32.5 13.179688 32.5 15.25 Z M 32.5 15.25 "/>
    </g>
  </g>
  <g clip-path="url(#clip-4)">
    <g clip-path="url(#clip-5)">
      <path fill-rule="nonzero" fill="#11111b" fill-opacity="1" d="M 22.050781 5.199219 C 19.851562 5.199219 18.101562 6.949219 18.101562 9.148438 C 18.101562 11.351562 19.851562 13.101562 22.050781 13.101562 L 24.5 13.101562 C 24.5 13.101562 24.949219 12.898438 25 12.398438 C 25 11.898438 24.5 11.800781 24.5 11.800781 L 22.050781 11.800781 C 21.898438 11.800781 21.800781 11.800781 21.648438 11.75 C 21.199219 11.699219 20.851562 11.550781 20.550781 11.300781 C 19.851562 10.800781 19.398438 10 19.398438 9.148438 C 19.398438 7.699219 20.601562 6.5 22.050781 6.5 C 23.5 6.5 24.699219 7.699219 24.699219 9.148438 C 24.699219 9.449219 24.648438 9.648438 24.550781 9.800781 L 23.949219 9.800781 C 24 9.601562 24.050781 9.351562 24.050781 9.148438 C 24.050781 8.050781 23.148438 7.199219 22.101562 7.199219 C 21 7.199219 20.148438 8.101562 20.148438 9.148438 C 20.148438 10.199219 21.050781 11.101562 22.101562 11.101562 L 24.5 11.101562 C 24.851562 11.050781 25.101562 10.851562 25.351562 10.699219 C 25.851562 10.351562 26 9.851562 26 9.101562 C 26 6.949219 24.25 5.199219 22.050781 5.199219 Z M 22.050781 8.5 C 22.398438 8.5 22.699219 8.800781 22.699219 9.148438 C 22.699219 9.5 22.398438 9.800781 22.050781 9.800781 C 21.699219 9.800781 21.398438 9.5 21.398438 9.148438 C 21.398438 8.800781 21.699219 8.5 22.050781 8.5 Z M 22.050781 8.5 "/>
    </g>
  </g>
</svg>