<?xml version="1.0" encoding="UTF-8" standalone="yes"?>
<svg xmlns="http://www.w3.org/2000/svg" xmlns:xlink="http://www.w3.org/1999/xlink" width="32" height="32" viewBox="0 0 32 32">
  <defs>
    <clipPath id="clip-0">
      <path clip-rule="nonzero" d="M 16 3 L 29 3 L 29 16 L 16 16 Z M 16 3 "/>
    </clipPath>
    <clipPath id="clip-1">
      <path clip-rule="nonzero" d="M 16.5 3.5 L 25.5 3.5 C 27.148438 3.5 28.5 4.851562 28.5 6.5 L 28.5 15.5 L 20.5 15.5 C 18.300781 15.5 16.5 13.699219 16.5 11.5 Z M 16.5 3.5 "/>
    </clipPath>
    <clipPath id="clip-2">
      <path clip-rule="nonzero" d="M 25 11 L 29 11 L 29 16 L 25 16 Z M 25 11 "/>
    </clipPath>
    <clipPath id="clip-3">
      <path clip-rule="nonzero" d="M 16.5 3.5 L 25.5 3.5 C 27.148438 3.5 28.5 4.851562 28.5 6.5 L 28.5 15.5 L 20.5 15.5 C 18.300781 15.5 16.5 13.699219 16.5 11.5 Z M 16.5 3.5 "/>
    </clipPath>
    <clipPath id="clip-4">
      <path clip-rule="nonzero" d="M 18 6 L 27 6 L 27 13 L 18 13 Z M 18 6 "/>
    </clipPath>
    <clipPath id="clip-5">
      <path clip-rule="nonzero" d="M 16.5 3.5 L 25.5 3.5 C 27.148438 3.5 28.5 4.851562 28.5 6.5 L 28.5 15.5 L 20.5 15.5 C 18.300781 15.5 16.5 13.699219 16.5 11.5 Z M 16.5 3.5 "/>
    </clipPath>
  </defs>
  <path fill-rule="nonzero" fill="#11111b" fill-opacity="1" d="M 6.5 3.5 L 25.5 3.5 C 27.148438 3.5 28.5 4.851562 28.5 6.5 L 28.5 25.5 C 28.5 27.148438 27.148438 28.5 25.5 28.5 L 6.5 28.5 C 4.851562 28.5 3.5 27.148438 3.5 25.5 L 3.5 6.5 C 3.5 4.851562 4.851562 3.5 6.5 3.5 Z M 6.5 3.5 "/>
  <g clip-path="url(#clip-0)">
    <g clip-path="url(#clip-1)">
      <path fill-rule="nonzero" fill="#b4befe" fill-opacity="1" d="M 16.5 3.5 L 25.5 3.5 C 27.148438 3.5 28.5 4.851562 28.5 6.5 L 28.5 15.5 L 20.5 15.5 C 18.300781 15.5 16.5 13.699219 16.5 11.5 Z M 16.5 3.5 "/>
    </g>
  </g>
  <g clip-path="url(#clip-2)">
    <g clip-path="url(#clip-3)">
      <path fill-rule="nonzero" fill="#b4befe" fill-opacity="1" d="M 32.5 15.25 C 32.5 17.320312 30.820312 19 28.75 19 C 26.679688 19 25 17.320312 25 15.25 C 25 13.179688 26.679688 11.5 28.75 11.5 C 30.820312 11.5 32.5 13.179688 32.5 15.25 Z M 32.5 15.25 "/>
    </g>
  </g>
  <g clip-path="url(#clip-4)">
    <g clip-path="url(#clip-5)">
      <path fill-rule="nonzero" fill="#11111b" fill-opacity="1" d="M 22.199219 6.101562 C 21 6.101562 19.898438 6.949219 19.550781 8.199219 C 18.75 8.601562 18.25 9.449219 18.25 10.398438 C 18.25 11.75 19.25 12.851562 20.5 12.851562 C 21.050781 12.851562 21.601562 12.648438 22 12.199219 C 22.050781 12.199219 22.148438 12.199219 22.199219 12.199219 C 22.601562 12.199219 23 12.101562 23.398438 11.898438 C 23.75 12.101562 24.101562 12.199219 24.449219 12.199219 C 25.699219 12.199219 26.699219 11.101562 26.699219 9.75 C 26.699219 8.398438 25.699219 7.300781 24.449219 7.300781 C 23.949219 6.550781 23.101562 6.101562 22.199219 6.101562 Z M 22.199219 6.101562 "/>
    </g>
  </g>
</svg>