<svg width="32" height="32" viewBox="0 0 32 32" fill="none" xmlns="http://www.w3.org/2000/svg">
<rect x="4" y="3" width="25" height="25" rx="4" fill="#11111b"/>
<g clip-path="url(#clip0)">
<path d="M17 3H25C27.2091 3 29 4.79086 29 7V15H21C18.7909 15 17 13.2091 17 11V3Z" fill="#89dceb"/>
<g filter="url(#filter0_d)">
<circle cx="29.25" cy="14.75" r="3.75" fill="#89dceb"/>
</g>
<path fill-rule="evenodd" clip-rule="evenodd" d="M19.8 8.8C19.8 9.1713 19.9475 9.5274 20.21 9.78995C20.4726 10.0525 20.8287 10.2 21.2 10.2H22.6V11.2344L22.0828 10.7172C22.0073 10.6443 21.9063 10.604 21.8014 10.6049C21.6965 10.6058 21.5962 10.6479 21.5221 10.7221C21.4479 10.7962 21.4058 10.8966 21.4049 11.0014C21.404 11.1063 21.4443 11.2074 21.5172 11.2828L22.7172 12.4828C22.7922 12.5578 22.8939 12.5999 23 12.5999C23.1061 12.5999 23.2078 12.5578 23.2828 12.4828L24.4828 11.2828C24.5557 11.2074 24.596 11.1063 24.5951 11.0014C24.5941 10.8966 24.5521 10.7962 24.4779 10.7221C24.4038 10.6479 24.3034 10.6058 24.1985 10.6049C24.0937 10.604 23.9926 10.6443 23.9172 10.7172L23.4 11.2344V10.2H24.4C24.6467 10.1999 24.8907 10.149 25.1169 10.0506C25.3431 9.9522 25.5467 9.80835 25.715 9.62797C25.8833 9.4476 26.0127 9.23456 26.0953 9.00208C26.1778 8.76959 26.2116 8.52263 26.1947 8.27651C26.1778 8.0304 26.1104 7.79039 25.9969 7.57139C25.8833 7.35239 25.7259 7.15907 25.5345 7.00343C25.3431 6.8478 25.1218 6.73316 24.8842 6.66665C24.6467 6.60014 24.398 6.58317 24.1536 6.6168C24.1063 6.40823 24.0178 6.21125 23.8932 6.03747C23.7685 5.86369 23.6103 5.71665 23.4279 5.60502C23.2455 5.49339 23.0426 5.41944 22.8312 5.38754C22.6197 5.35563 22.404 5.36642 22.1968 5.41926C21.9896 5.4721 21.795 5.56592 21.6247 5.69519C21.4543 5.82445 21.3116 5.98654 21.2049 6.17189C21.0982 6.35723 21.0298 6.56207 21.0036 6.77431C20.9774 6.98654 20.994 7.20188 21.0524 7.4076C20.7085 7.44406 20.3903 7.60647 20.1591 7.86356C19.9279 8.12065 19.7999 8.45422 19.8 8.8V8.8ZM23.4 10.2H22.6V8.2C22.6 8.09391 22.6421 7.99217 22.7171 7.91716C22.7922 7.84214 22.8939 7.8 23 7.8C23.1061 7.8 23.2078 7.84214 23.2828 7.91716C23.3578 7.99217 23.4 8.09391 23.4 8.2V10.2Z" fill="#11111b"/>
</g>
<defs>
<filter id="filter0_d" x="9.5" y="-1" width="39.5" height="39.5" filterUnits="userSpaceOnUse" color-interpolation-filters="sRGB">
<feFlood flood-opacity="0" result="BackgroundImageFix"/>
<feColorMatrix in="SourceAlpha" type="matrix" values="0 0 0 0 0 0 0 0 0 0 0 0 0 0 0 0 0 0 127 0" result="hardAlpha"/>
<feOffset dy="4"/>
<feGaussianBlur stdDeviation="8"/>
<feComposite in2="hardAlpha" operator="out"/>
<feColorMatrix type="matrix" values="0 0 0 0 0 0 0 0 0 0 0 0 0 0 0 0 0 0 0.3 0"/>
<feBlend mode="normal" in2="BackgroundImageFix" result="effect1_dropShadow"/>
<feBlend mode="normal" in="SourceGraphic" in2="effect1_dropShadow" result="shape"/>
</filter>
<clipPath id="clip0">
<path d="M17 3H25C27.2091 3 29 4.79086 29 7V15H21C18.7909 15 17 13.2091 17 11V3Z" fill="white"/>
</clipPath>
</defs>
</svg>
