<?xml version="1.0" encoding="UTF-8" standalone="yes"?>
<svg xmlns="http://www.w3.org/2000/svg" xmlns:xlink="http://www.w3.org/1999/xlink" width="32" height="32" viewBox="0 0 32 32">
  <defs>
    <clipPath id="clip-0">
      <path clip-rule="nonzero" d="M 16 3 L 29 3 L 29 16 L 16 16 Z M 16 3 "/>
    </clipPath>
    <clipPath id="clip-1">
      <path clip-rule="nonzero" d="M 16.5 3.5 L 25.5 3.5 C 27.148438 3.5 28.5 4.851562 28.5 6.5 L 28.5 15.5 L 20.5 15.5 C 18.300781 15.5 16.5 13.699219 16.5 11.5 Z M 16.5 3.5 "/>
    </clipPath>
    <clipPath id="clip-2">
      <path clip-rule="nonzero" d="M 25 11 L 29 11 L 29 16 L 25 16 Z M 25 11 "/>
    </clipPath>
    <clipPath id="clip-3">
      <path clip-rule="nonzero" d="M 16.5 3.5 L 25.5 3.5 C 27.148438 3.5 28.5 4.851562 28.5 6.5 L 28.5 15.5 L 20.5 15.5 C 18.300781 15.5 16.5 13.699219 16.5 11.5 Z M 16.5 3.5 "/>
    </clipPath>
    <clipPath id="clip-4">
      <path clip-rule="nonzero" d="M 17 4 L 20 4 L 20 7 L 17 7 Z M 17 4 "/>
    </clipPath>
    <clipPath id="clip-5">
      <path clip-rule="nonzero" d="M 16.5 3.5 L 25.5 3.5 C 27.148438 3.5 28.5 4.851562 28.5 6.5 L 28.5 15.5 L 20.5 15.5 C 18.300781 15.5 16.5 13.699219 16.5 11.5 Z M 16.5 3.5 "/>
    </clipPath>
    <clipPath id="clip-6">
      <path clip-rule="nonzero" d="M 16 11 L 29 11 L 29 14 L 16 14 Z M 16 11 "/>
    </clipPath>
    <clipPath id="clip-7">
      <path clip-rule="nonzero" d="M 16.5 3.5 L 25.5 3.5 C 27.148438 3.5 28.5 4.851562 28.5 6.5 L 28.5 15.5 L 20.5 15.5 C 18.300781 15.5 16.5 13.699219 16.5 11.5 Z M 16.5 3.5 "/>
    </clipPath>
    <clipPath id="clip-8">
      <path clip-rule="nonzero" d="M 17 7 L 20 7 L 20 10 L 17 10 Z M 17 7 "/>
    </clipPath>
    <clipPath id="clip-9">
      <path clip-rule="nonzero" d="M 16.5 3.5 L 25.5 3.5 C 27.148438 3.5 28.5 4.851562 28.5 6.5 L 28.5 15.5 L 20.5 15.5 C 18.300781 15.5 16.5 13.699219 16.5 11.5 Z M 16.5 3.5 "/>
    </clipPath>
  </defs>
  <path fill-rule="nonzero" fill="#11111b" fill-opacity="1" d="M 6.5 3.5 L 25.5 3.5 C 27.148438 3.5 28.5 4.851562 28.5 6.5 L 28.5 25.5 C 28.5 27.148438 27.148438 28.5 25.5 28.5 L 6.5 28.5 C 4.851562 28.5 3.5 27.148438 3.5 25.5 L 3.5 6.5 C 3.5 4.851562 4.851562 3.5 6.5 3.5 Z M 6.5 3.5 "/>
  <g clip-path="url(#clip-0)">
    <g clip-path="url(#clip-1)">
      <path fill-rule="nonzero" fill="#f9e2af" fill-opacity="1" d="M 16.5 3.5 L 25.5 3.5 C 27.148438 3.5 28.5 4.851562 28.5 6.5 L 28.5 15.5 L 20.5 15.5 C 18.300781 15.5 16.5 13.699219 16.5 11.5 Z M 16.5 3.5 "/>
    </g>
  </g>
  <g clip-path="url(#clip-2)">
    <g clip-path="url(#clip-3)">
      <path fill-rule="nonzero" fill="#f9e2af" fill-opacity="1" d="M 32.5 15.25 C 32.5 17.320312 30.820312 19 28.75 19 C 26.679688 19 25 17.320312 25 15.25 C 25 13.179688 26.679688 11.5 28.75 11.5 C 30.820312 11.5 32.5 13.179688 32.5 15.25 Z M 32.5 15.25 "/>
    </g>
  </g>
  <g clip-path="url(#clip-4)">
    <g clip-path="url(#clip-5)">
      <path fill-rule="nonzero" fill="#11111b" fill-opacity="1" d="M 17.851562 4.800781 L 18.949219 4.800781 C 19.199219 4.800781 19.398438 5 19.398438 5.25 L 19.398438 6.351562 C 19.398438 6.601562 19.199219 6.800781 18.949219 6.800781 L 17.851562 6.800781 C 17.601562 6.800781 17.398438 6.601562 17.398438 6.351562 L 17.398438 5.25 C 17.398438 4.949219 17.601562 4.800781 17.851562 4.800781 Z M 17.851562 4.800781 "/>
    </g>
  </g>
  <g clip-path="url(#clip-6)">
    <g clip-path="url(#clip-7)">
      <path fill-rule="nonzero" fill="#11111b" fill-opacity="1" d="M 15.648438 11.300781 L 15.648438 13.199219 L 28.5 13.199219 L 28.5 11.300781 Z M 26.199219 12.75 L 25.199219 12.75 L 25.199219 11.75 L 26.199219 11.75 Z M 28.050781 12.75 L 27.050781 12.75 L 27.050781 11.75 L 28.050781 11.75 Z M 28.050781 12.75 "/>
    </g>
  </g>
  <g clip-path="url(#clip-8)">
    <g clip-path="url(#clip-9)">
      <path fill-rule="nonzero" fill="#11111b" fill-opacity="1" d="M 17.851562 7.648438 L 18.949219 7.648438 C 19.199219 7.648438 19.398438 7.851562 19.398438 8.101562 L 19.398438 9.199219 C 19.398438 9.449219 19.199219 9.648438 18.949219 9.648438 L 17.851562 9.648438 C 17.601562 9.648438 17.398438 9.449219 17.398438 9.199219 L 17.398438 8.101562 C 17.398438 7.800781 17.601562 7.648438 17.851562 7.648438 Z M 17.851562 7.648438 "/>
    </g>
  </g>
</svg>