<svg width="24" height="24" viewBox="0 0 24 24" fill="none" xmlns="http://www.w3.org/2000/svg">
<rect x="2" y="2" width="20" height="20" rx="2" fill="url(#paint0_linear)"/>
<path d="M13.7776 15.8666H9.59968V16.911H13.7776V15.8666Z" fill="#11111b"/>
<path d="M13.7776 17.9555H9.59968V19H13.7776V17.9555Z" fill="#11111b"/>
<path d="M11.6886 8.55521C10.8576 8.55521 10.0606 8.88533 9.47297 9.47297C8.88533 10.0606 8.55521 10.8576 8.55521 11.6886C8.55521 12.5197 8.88533 13.3167 9.47297 13.9043C10.0606 14.492 10.8576 14.8221 11.6886 14.8221C12.5197 14.8221 13.3167 14.492 13.9043 13.9043C14.492 13.3167 14.8221 12.5197 14.8221 11.6886C14.8221 10.8576 14.492 10.0606 13.9043 9.47297C13.3167 8.88533 12.5197 8.55521 11.6886 8.55521ZM11.6886 9.59968C12.2427 9.59968 12.774 9.81977 13.1658 10.2115C13.5575 10.6033 13.7776 11.1346 13.7776 11.6886C13.7776 12.2427 13.5575 12.774 13.1658 13.1658C12.774 13.5575 12.2427 13.7776 11.6886 13.7776C11.1346 13.7776 10.6033 13.5575 10.2115 13.1658C9.81977 12.774 9.59968 12.2427 9.59968 11.6886C9.59968 11.1346 9.81977 10.6033 10.2115 10.2115C10.6033 9.81977 11.1346 9.59968 11.6886 9.59968Z" fill="#11111b"/>
<path d="M7.21568 10.1699L10.1699 7.21568L9.43135 6.47712L6.47712 9.43135L7.21568 10.1699Z" fill="#11111b"/>
<path d="M5.73856 8.69279L8.69279 5.73856L7.95423 5L5 7.95423L5.73856 8.69279Z" fill="#11111b"/>
<path d="M13.1241 7.21568L16.0784 10.1699L18.2941 7.95423L15.3398 5L13.1241 7.21568Z" fill="#11111b"/>
<defs>
<linearGradient id="paint0_linear" x1="-15.3214" y1="35.5714" x2="41.2857" y2="-9.25" gradientUnits="userSpaceOnUse">
<stop stop-color="#fab387"/>

<stop offset="0.919448" stop-color="#fab387"/>
</linearGradient>
</defs>
</svg>
