<svg width="22" height="22" viewBox="0 0 22 22" fill="none" xmlns="http://www.w3.org/2000/svg">
<rect x="2" y="2" width="18" height="18" rx="3" fill="#f5c2e7"/>
<path fill-rule="evenodd" clip-rule="evenodd" d="M6.1 7.50001C6.1 7.1287 6.2475 6.77261 6.51005 6.51006C6.7726 6.24751 7.1287 6.10001 7.5 6.10001H14.5C14.8713 6.10001 15.2274 6.24751 15.4899 6.51006C15.7525 6.77261 15.9 7.1287 15.9 7.50001V13.1C15.9 13.4713 15.7525 13.8274 15.4899 14.09C15.2274 14.3525 14.8713 14.5 14.5 14.5H12.946L13.0321 14.8423L13.5949 15.4051C13.6928 15.503 13.7594 15.6277 13.7864 15.7635C13.8134 15.8992 13.7995 16.04 13.7466 16.1679C13.6936 16.2958 13.6039 16.4051 13.4888 16.482C13.3737 16.5589 13.2384 16.6 13.1 16.6H8.9C8.76158 16.6 8.62627 16.5589 8.51118 16.482C8.39609 16.4051 8.30639 16.2958 8.25343 16.1679C8.20046 16.04 8.18659 15.8992 8.21359 15.7635C8.24059 15.6277 8.30723 15.503 8.4051 15.4051L8.9679 14.8423L9.054 14.5H7.5C7.1287 14.5 6.7726 14.3525 6.51005 14.09C6.2475 13.8274 6.1 13.4713 6.1 13.1V7.50001ZM10.1397 12.4H7.5V7.50001H14.5V12.4H10.1397Z" fill="#11111b"/>
</svg>
