<?xml version="1.0" encoding="UTF-8" standalone="yes"?>
<svg xmlns="http://www.w3.org/2000/svg" xmlns:xlink="http://www.w3.org/1999/xlink" width="22" height="22" viewBox="0 0 22 22">
  <path fill-rule="nonzero" fill="#b4befe" fill-opacity="1" d="M 5.5 2.75 L 16.5 2.75 C 18.058594 2.75 19.25 3.941406 19.25 5.5 L 19.25 16.5 C 19.25 18.058594 18.058594 19.25 16.5 19.25 L 5.5 19.25 C 3.941406 19.25 2.75 18.058594 2.75 16.5 L 2.75 5.5 C 2.75 3.941406 3.941406 2.75 5.5 2.75 Z M 5.5 2.75 "/>
  <path fill-rule="nonzero" fill="#11111b" fill-opacity="1" d="M 15.492188 8.984375 C 14.484375 8.984375 13.566406 9.808594 13.566406 10.910156 C 13.566406 12.007812 14.390625 12.832031 15.492188 12.832031 C 16.589844 12.832031 17.417969 12.007812 17.417969 10.910156 C 17.417969 9.808594 16.5 8.984375 15.492188 8.984375 Z M 15.492188 10.359375 C 15.859375 10.359375 16.132812 10.632812 16.132812 11 C 16.132812 11.273438 15.859375 11.640625 15.492188 11.640625 C 15.125 11.640625 14.851562 11.367188 14.851562 11 C 14.851562 10.632812 15.125 10.359375 15.492188 10.359375 Z M 6.507812 8.984375 C 5.5 8.984375 4.582031 9.898438 4.582031 10.910156 C 4.582031 11.917969 5.5 12.832031 6.507812 12.832031 C 7.515625 12.832031 8.433594 12.007812 8.433594 10.910156 C 8.433594 9.808594 7.515625 8.984375 6.507812 8.984375 Z M 6.507812 10.359375 C 6.875 10.359375 7.148438 10.632812 7.148438 11 C 7.148438 11.273438 6.875 11.640625 6.507812 11.640625 C 6.140625 11.640625 5.867188 11.367188 5.867188 11 C 5.867188 10.632812 6.140625 10.359375 6.507812 10.359375 Z M 11 8.433594 C 9.625 8.433594 8.433594 9.625 8.433594 11 C 8.433594 12.375 9.625 13.566406 11 13.566406 C 12.375 13.566406 13.566406 12.375 13.566406 11 C 13.566406 9.625 12.375 8.433594 11 8.433594 Z M 11 9.714844 C 11.734375 9.714844 12.285156 10.265625 12.285156 11 C 12.285156 11.734375 11.734375 12.285156 11 12.285156 C 10.265625 12.285156 9.714844 11.734375 9.714844 11 C 9.714844 10.265625 10.265625 9.714844 11 9.714844 Z M 11 9.714844 "/>
</svg>