<?xml version="1.0" encoding="UTF-8" standalone="yes"?>
<svg xmlns="http://www.w3.org/2000/svg" xmlns:xlink="http://www.w3.org/1999/xlink" width="22" height="22" viewBox="0 0 22 22">
  <path fill-rule="nonzero" fill="#b4befe" fill-opacity="1" d="M 5.5 2.75 L 16.5 2.75 C 18.058594 2.75 19.25 3.941406 19.25 5.5 L 19.25 16.5 C 19.25 18.058594 18.058594 19.25 16.5 19.25 L 5.5 19.25 C 3.941406 19.25 2.75 18.058594 2.75 16.5 L 2.75 5.5 C 2.75 3.941406 3.941406 2.75 5.5 2.75 Z M 5.5 2.75 "/>
  <path fill-rule="nonzero" fill="#11111b" fill-opacity="1" d="M 10.359375 6.417969 C 8.160156 6.417969 8.160156 7.792969 7.425781 8.800781 C 8.160156 8.433594 9.074219 8.160156 9.992188 7.882812 C 10.816406 7.699219 11.734375 7.515625 12.558594 7.425781 C 12.007812 6.964844 11.640625 6.417969 10.359375 6.417969 Z M 13.292969 8.433594 C 12.285156 8.433594 11.273438 8.523438 10.265625 8.800781 C 6.875 9.714844 4.492188 11.550781 4.859375 13.015625 C 5.042969 13.839844 6.234375 14.574219 7.976562 14.757812 C 7.976562 14.757812 7.976562 14.757812 7.976562 14.667969 C 7.882812 13.75 8.433594 13.109375 8.984375 12.648438 C 9.625 12.191406 10.359375 11.824219 11.183594 11.640625 C 11.640625 11.550781 12.007812 11.550781 12.375 11.550781 C 13.015625 11.550781 13.566406 11.640625 14.117188 11.917969 C 14.574219 12.101562 14.941406 12.558594 15.035156 13.109375 C 16.589844 12.101562 17.324219 10.910156 17.140625 9.992188 C 16.867188 8.984375 15.398438 8.339844 13.292969 8.433594 Z M 12.375 12.464844 C 12.007812 12.464844 11.734375 12.464844 11.367188 12.558594 C 9.898438 12.925781 8.890625 13.75 8.984375 14.574219 C 9.074219 15.398438 10.265625 15.765625 11.734375 15.492188 C 13.199219 15.125 14.207031 14.300781 14.117188 13.476562 C 14.023438 12.925781 13.292969 12.558594 12.375 12.464844 Z M 12.375 12.464844 "/>
</svg>