<?xml version="1.0" encoding="UTF-8" standalone="yes"?>
<svg xmlns="http://www.w3.org/2000/svg" xmlns:xlink="http://www.w3.org/1999/xlink" width="22" height="22" viewBox="0 0 22 22">
  <path fill-rule="nonzero" fill="#b4befe" fill-opacity="1" d="M 5.5 2.75 L 16.5 2.75 C 18.058594 2.75 19.25 3.941406 19.25 5.5 L 19.25 16.5 C 19.25 18.058594 18.058594 19.25 16.5 19.25 L 5.5 19.25 C 3.941406 19.25 2.75 18.058594 2.75 16.5 L 2.75 5.5 C 2.75 3.941406 3.941406 2.75 5.5 2.75 Z M 5.5 2.75 "/>
  <path fill-rule="nonzero" fill="#11111b" fill-opacity="1" d="M 12.832031 5.589844 C 12.648438 5.683594 12.375 5.773438 12.191406 5.957031 C 11.273438 6.691406 11.457031 8.160156 12.375 8.890625 C 12.558594 9.074219 12.648438 9.074219 12.925781 9.167969 L 12.925781 10.726562 C 13.660156 11.089844 13.933594 11.273438 14.484375 11.734375 C 14.851562 12.191406 14.851562 12.191406 15.035156 12.464844 L 15.035156 9.074219 C 15.214844 8.984375 15.492188 8.890625 15.582031 8.800781 C 16.5 8.066406 16.410156 6.601562 15.582031 5.867188 C 15.398438 5.683594 15.125 5.589844 14.941406 5.5 L 14.941406 7.058594 C 14.941406 7.609375 14.941406 8.066406 14.390625 8.066406 L 13.382812 8.066406 C 12.832031 8.066406 12.832031 7.609375 12.832031 7.058594 Z M 11 10.816406 C 8.160156 10.816406 7.058594 13.015625 7.058594 14.941406 L 5.683594 14.941406 C 5.5 14.941406 5.5 15.125 5.5 15.125 L 5.5 16.410156 C 5.5 16.589844 5.683594 16.589844 5.683594 16.589844 L 16.226562 16.589844 C 16.226562 16.589844 16.410156 16.589844 16.410156 16.410156 L 16.410156 15.125 C 16.410156 15.125 16.410156 14.941406 16.226562 14.941406 L 14.851562 14.941406 C 14.941406 12.925781 13.839844 10.816406 11 10.816406 Z M 11 12.832031 C 12.832031 12.832031 13.292969 14.023438 13.292969 14.851562 L 8.707031 14.851562 C 8.707031 14.117188 9.167969 12.925781 11 12.832031 Z M 11 12.832031 "/>
</svg>