<?xml version="1.0" encoding="UTF-8" standalone="yes"?>
<svg xmlns="http://www.w3.org/2000/svg" xmlns:xlink="http://www.w3.org/1999/xlink" width="22" height="22" viewBox="0 0 22 22">
  <path fill-rule="nonzero" fill="#b4befe" fill-opacity="1" d="M 5.5 2.75 L 16.5 2.75 C 18.058594 2.75 19.25 3.941406 19.25 5.5 L 19.25 16.5 C 19.25 18.058594 18.058594 19.25 16.5 19.25 L 5.5 19.25 C 3.941406 19.25 2.75 18.058594 2.75 16.5 L 2.75 5.5 C 2.75 3.941406 3.941406 2.75 5.5 2.75 Z M 5.5 2.75 "/>
  <path fill-rule="nonzero" fill="#11111b" fill-opacity="1" d="M 8.984375 6.875 L 7.882812 7.882812 L 7.425781 7.882812 C 6.601562 7.882812 5.867188 8.433594 5.867188 9.167969 L 5.867188 13.839844 C 5.867188 14.574219 6.601562 15.125 7.425781 15.125 L 14.667969 15.125 C 15.492188 15.125 16.226562 14.574219 16.226562 13.839844 L 16.226562 9.167969 C 16.226562 8.433594 15.492188 7.882812 14.667969 7.882812 L 14.117188 7.882812 L 13.109375 6.875 Z M 11.089844 8.890625 C 12.191406 8.890625 13.199219 9.808594 13.199219 11 C 13.199219 12.191406 12.285156 13.109375 11.089844 13.109375 C 9.898438 13.109375 8.984375 12.191406 8.984375 11 C 8.984375 9.808594 9.992188 8.890625 11.089844 8.890625 Z M 11.089844 8.890625 "/>
</svg>