<?xml version="1.0" encoding="UTF-8" standalone="yes"?>
<svg xmlns="http://www.w3.org/2000/svg" xmlns:xlink="http://www.w3.org/1999/xlink" width="22" height="22" viewBox="0 0 22 22">
  <path fill-rule="nonzero" fill="#b4befe" fill-opacity="1" d="M 5.5 2.75 L 16.5 2.75 C 18.058594 2.75 19.25 3.941406 19.25 5.5 L 19.25 16.5 C 19.25 18.058594 18.058594 19.25 16.5 19.25 L 5.5 19.25 C 3.941406 19.25 2.75 18.058594 2.75 16.5 L 2.75 5.5 C 2.75 3.941406 3.941406 2.75 5.5 2.75 Z M 5.5 2.75 "/>
  <path fill-rule="nonzero" fill="#11111b" fill-opacity="1" d="M 11.273438 6.601562 C 9.625 6.601562 8.160156 7.609375 7.515625 9.167969 C 5.867188 9.351562 4.675781 10.726562 4.675781 12.285156 C 4.675781 14.023438 6.050781 15.398438 7.792969 15.398438 L 15.214844 15.398438 C 16.316406 15.398438 17.324219 14.484375 17.324219 13.292969 C 17.324219 12.558594 16.867188 11.824219 16.226562 11.550781 C 16.5 11.273438 16.683594 10.816406 16.683594 10.359375 C 16.683594 9.257812 15.859375 8.433594 14.757812 8.433594 C 14.023438 7.242188 12.648438 6.601562 11.273438 6.601562 Z M 11.457031 7.792969 C 13.015625 7.792969 14.300781 9.074219 14.300781 10.632812 C 14.300781 12.191406 13.015625 13.476562 11.457031 13.476562 C 9.898438 13.476562 8.617188 12.191406 8.617188 10.632812 C 8.617188 9.074219 9.992188 7.792969 11.457031 7.792969 Z M 11.457031 8.617188 C 11 8.617188 10.542969 8.707031 10.265625 8.984375 L 11.734375 8.984375 C 12.285156 8.984375 12.742188 9.167969 12.742188 9.898438 C 12.742188 10.816406 12.375 11 11.734375 11 L 11.089844 11 L 11.089844 12.191406 L 10.265625 12.191406 C 10.632812 12.464844 11 12.558594 11.457031 12.558594 C 12.558594 12.558594 13.476562 11.640625 13.476562 10.542969 C 13.476562 9.441406 12.648438 8.617188 11.457031 8.617188 Z M 10.265625 8.984375 C 9.808594 9.351562 9.441406 9.898438 9.441406 10.632812 C 9.441406 11.273438 9.714844 11.824219 10.265625 12.285156 Z M 11.089844 9.808594 L 11.089844 10.175781 L 11.457031 10.175781 C 11.734375 10.175781 11.824219 10.175781 11.824219 9.992188 C 11.824219 9.808594 11.734375 9.808594 11.457031 9.808594 Z M 11.089844 9.808594 "/>
</svg>