<?xml version="1.0" encoding="UTF-8" standalone="yes"?>
<svg xmlns="http://www.w3.org/2000/svg" xmlns:xlink="http://www.w3.org/1999/xlink" width="22" height="22" viewBox="0 0 22 22">
  <path fill-rule="nonzero" fill="#b4befe" fill-opacity="1" d="M 5.5 2.75 L 16.5 2.75 C 18.058594 2.75 19.25 3.941406 19.25 5.5 L 19.25 16.5 C 19.25 18.058594 18.058594 19.25 16.5 19.25 L 5.5 19.25 C 3.941406 19.25 2.75 18.058594 2.75 16.5 L 2.75 5.5 C 2.75 3.941406 3.941406 2.75 5.5 2.75 Z M 5.5 2.75 "/>
  <path fill-rule="nonzero" fill="#11111b" fill-opacity="1" d="M 11.824219 5.316406 C 11.367188 5.316406 10.816406 5.316406 10.359375 5.5 C 7.792969 6.050781 5.957031 8.339844 5.957031 11 L 4.859375 11 L 6.601562 12.742188 L 8.25 11 L 7.058594 11 C 7.058594 8.890625 8.523438 7.148438 10.542969 6.601562 C 12.558594 6.140625 14.667969 7.242188 15.582031 9.167969 C 16.5 11.089844 15.949219 13.382812 14.207031 14.574219 C 12.464844 15.859375 10.175781 15.765625 8.617188 14.390625 C 8.066406 13.933594 7.332031 14.757812 7.882812 15.308594 C 9.898438 17.050781 12.832031 17.140625 14.941406 15.582031 C 17.050781 13.933594 17.785156 11.089844 16.683594 8.800781 C 15.859375 7.058594 14.207031 5.773438 12.285156 5.589844 C 12.101562 5.316406 11.917969 5.316406 11.824219 5.316406 Z M 11.550781 7.515625 C 11.273438 7.515625 11 7.792969 11 8.066406 L 11 10.816406 C 11 10.910156 11 11 11 11.089844 C 11 11.089844 11 11.089844 11 11.183594 C 11 11.273438 11.089844 11.367188 11.089844 11.367188 L 12.742188 13.566406 C 12.925781 13.839844 13.292969 13.933594 13.566406 13.660156 C 13.839844 13.476562 13.839844 13.109375 13.660156 12.832031 L 12.101562 10.726562 L 12.101562 8.066406 C 12.101562 7.882812 11.917969 7.515625 11.550781 7.515625 Z M 11.550781 7.515625 "/>
</svg>