<?xml version="1.0" encoding="UTF-8" standalone="yes"?>
<svg xmlns="http://www.w3.org/2000/svg" xmlns:xlink="http://www.w3.org/1999/xlink" width="22" height="22" viewBox="0 0 22 22">
  <path fill-rule="nonzero" fill="#b4befe" fill-opacity="1" d="M 5.5 2.75 L 16.5 2.75 C 18.058594 2.75 19.25 3.941406 19.25 5.5 L 19.25 16.5 C 19.25 18.058594 18.058594 19.25 16.5 19.25 L 5.5 19.25 C 3.941406 19.25 2.75 18.058594 2.75 16.5 L 2.75 5.5 C 2.75 3.941406 3.941406 2.75 5.5 2.75 Z M 5.5 2.75 "/>
  <path fill-rule="nonzero" fill="#11111b" fill-opacity="1" d="M 11.457031 13.476562 C 10.632812 13.933594 9.714844 13.933594 9.257812 13.839844 C 8.523438 13.75 8.066406 13.660156 7.882812 13.476562 C 7.699219 13.382812 7.609375 13.382812 7.425781 13.566406 C 7.332031 13.660156 7.332031 13.839844 7.425781 14.023438 C 7.792969 14.207031 8.433594 14.484375 9.167969 14.484375 C 9.351562 14.484375 9.441406 14.484375 9.535156 14.484375 C 10.175781 14.484375 10.910156 14.390625 11.734375 14.023438 C 11.917969 13.933594 12.007812 13.75 11.917969 13.660156 C 11.824219 13.476562 11.640625 13.382812 11.457031 13.476562 Z M 15.035156 13.015625 C 15.035156 10.265625 15.308594 5.132812 10.082031 5.5 C 4.859375 5.867188 6.324219 11.367188 6.234375 13.199219 C 6.140625 14.207031 5.867188 15.398438 5.410156 16.5 L 6.785156 16.5 C 6.964844 15.949219 6.964844 15.492188 7.058594 15.035156 C 7.148438 15.125 7.242188 15.125 7.332031 15.214844 C 7.515625 15.308594 7.609375 15.492188 7.792969 15.492188 C 8.066406 15.765625 8.523438 16.132812 9.257812 16.226562 C 9.351562 16.226562 9.351562 16.226562 9.441406 16.226562 C 10.175781 16.226562 10.632812 15.949219 11.183594 15.582031 C 11.457031 15.398438 11.550781 15.308594 11.734375 15.308594 C 12.191406 15.125 12.558594 14.941406 12.925781 14.574219 C 13.015625 14.484375 13.015625 14.484375 13.109375 14.390625 C 13.292969 15.035156 13.476562 15.675781 13.75 16.316406 L 16.773438 16.316406 C 15.675781 15.492188 15.035156 14.390625 15.035156 13.015625 Z M 6.691406 11.550781 C 6.601562 10.632812 7.058594 9.898438 7.609375 9.808594 C 8.160156 9.714844 8.707031 10.542969 8.800781 11.367188 C 8.800781 11.457031 8.800781 11.457031 8.800781 11.550781 C 8.617188 11.640625 8.433594 11.640625 8.339844 11.734375 C 8.25 11.273438 8.066406 10.910156 7.699219 10.910156 C 7.425781 10.910156 7.242188 11.367188 7.242188 11.917969 C 7.242188 12.191406 7.332031 12.285156 7.425781 12.464844 C 7.425781 12.464844 7.332031 12.558594 7.242188 12.558594 C 7.148438 12.648438 7.058594 12.648438 6.964844 12.742188 C 6.785156 12.375 6.785156 12.007812 6.691406 11.550781 Z M 12.558594 13.75 C 12.558594 14.207031 11.917969 14.667969 11.273438 14.851562 C 11 14.941406 10.816406 15.125 10.542969 15.214844 C 10.175781 15.492188 9.808594 15.675781 9.257812 15.675781 L 9.167969 15.675781 C 8.617188 15.675781 8.433594 15.398438 8.066406 15.125 C 7.882812 14.941406 7.792969 14.851562 7.515625 14.757812 C 7.058594 14.484375 6.785156 14.117188 6.785156 13.933594 C 6.785156 13.75 6.875 13.660156 6.964844 13.566406 C 7.242188 13.292969 7.425781 13.199219 7.609375 13.109375 C 7.792969 13.015625 7.792969 12.925781 7.882812 12.925781 L 7.882812 12.832031 C 8.066406 12.558594 8.617188 12.101562 9.257812 12.101562 C 9.625 12.101562 10.082031 12.285156 10.632812 12.558594 C 10.910156 12.742188 11.089844 12.832031 11.367188 12.832031 C 11.550781 12.925781 11.734375 13.015625 12.007812 13.109375 C 12.191406 13.199219 12.558594 13.476562 12.558594 13.75 Z M 12.375 12.558594 C 12.285156 12.558594 12.285156 12.464844 12.191406 12.464844 C 11.917969 12.375 11.734375 12.285156 11.550781 12.191406 C 11.640625 12.007812 11.734375 11.824219 11.734375 11.550781 C 11.734375 11 11.457031 10.542969 11.089844 10.542969 C 10.726562 10.542969 10.359375 11 10.359375 11.550781 C 10.359375 11.550781 10.359375 11.550781 10.359375 11.640625 C 10.175781 11.550781 9.898438 11.457031 9.625 11.367188 L 9.625 11.273438 C 9.625 10.265625 10.265625 9.441406 11 9.351562 C 11.734375 9.351562 12.464844 10.082031 12.464844 11.183594 C 12.742188 11.824219 12.648438 12.285156 12.375 12.558594 Z M 12.375 12.558594 "/>
</svg>