<?xml version="1.0" encoding="UTF-8" standalone="yes"?>
<svg xmlns="http://www.w3.org/2000/svg" xmlns:xlink="http://www.w3.org/1999/xlink" width="22" height="22" viewBox="0 0 22 22">
  <path fill-rule="nonzero" fill="#b4befe" fill-opacity="1" d="M 5.5 2.75 L 16.5 2.75 C 18.058594 2.75 19.25 3.941406 19.25 5.5 L 19.25 16.5 C 19.25 18.058594 18.058594 19.25 16.5 19.25 L 5.5 19.25 C 3.941406 19.25 2.75 18.058594 2.75 16.5 L 2.75 5.5 C 2.75 3.941406 3.941406 2.75 5.5 2.75 Z M 5.5 2.75 "/>
  <path fill-rule="nonzero" fill="#11111b" fill-opacity="1" d="M 7.515625 7.609375 C 7.148438 7.609375 6.601562 7.699219 6.234375 7.882812 C 5.867188 7.976562 5.5 8.25 5.132812 8.617188 C 4.765625 8.984375 4.582031 9.257812 4.398438 9.714844 C 4.308594 10.082031 4.214844 10.542969 4.214844 11 C 4.214844 11.457031 4.308594 11.917969 4.492188 12.285156 C 4.675781 12.648438 4.859375 13.109375 5.226562 13.382812 C 5.589844 13.75 5.867188 13.933594 6.324219 14.117188 C 6.691406 14.207031 7.148438 14.390625 7.515625 14.390625 C 8.523438 14.484375 9.351562 14.023438 9.992188 13.476562 C 10.359375 13.109375 10.726562 12.558594 11 12.101562 C 11.273438 12.558594 11.640625 13.015625 12.007812 13.476562 C 12.648438 14.117188 13.476562 14.484375 14.484375 14.390625 C 14.851562 14.390625 15.308594 14.300781 15.675781 14.117188 C 16.042969 13.933594 16.410156 13.75 16.773438 13.382812 C 17.140625 13.015625 17.324219 12.742188 17.507812 12.285156 C 17.601562 11.917969 17.785156 11.367188 17.785156 11 C 17.785156 10.542969 17.691406 10.082031 17.507812 9.714844 C 17.324219 9.351562 17.140625 8.890625 16.773438 8.617188 C 16.410156 8.25 16.132812 8.066406 15.675781 7.882812 C 15.308594 7.792969 14.851562 7.609375 14.390625 7.609375 C 13.292969 7.609375 12.464844 8.066406 11.824219 8.707031 C 11.457031 9.074219 11.183594 9.441406 10.910156 9.898438 C 10.632812 9.535156 10.359375 9.074219 9.992188 8.707031 C 9.441406 8.066406 8.523438 7.609375 7.515625 7.609375 Z M 7.425781 8.523438 C 8.339844 8.523438 8.890625 8.890625 9.351562 9.351562 C 9.714844 9.714844 10.082031 10.265625 10.449219 10.910156 C 10.082031 11.550781 9.714844 12.285156 9.257812 12.648438 C 8.800781 13.109375 8.339844 13.382812 7.515625 13.292969 C 7.148438 13.292969 6.875 13.199219 6.601562 13.109375 C 6.324219 13.015625 6.050781 12.832031 5.867188 12.558594 C 5.683594 12.375 5.5 12.101562 5.410156 11.734375 C 5.316406 11.457031 5.226562 11.089844 5.226562 10.816406 C 5.226562 10.449219 5.316406 10.175781 5.410156 9.898438 C 5.5 9.625 5.683594 9.351562 5.867188 9.074219 C 6.050781 8.890625 6.324219 8.707031 6.601562 8.523438 C 6.875 8.617188 7.148438 8.523438 7.425781 8.523438 Z M 14.484375 8.523438 C 14.851562 8.523438 15.125 8.617188 15.398438 8.707031 C 15.675781 8.800781 15.949219 8.984375 16.132812 9.257812 C 16.316406 9.441406 16.5 9.714844 16.589844 10.082031 C 16.683594 10.359375 16.773438 10.726562 16.773438 11 C 16.773438 11.367188 16.683594 11.640625 16.589844 11.917969 C 16.5 12.191406 16.316406 12.464844 16.132812 12.742188 C 15.949219 12.925781 15.675781 13.109375 15.398438 13.292969 C 15.125 13.382812 14.757812 13.476562 14.484375 13.476562 C 13.660156 13.566406 13.199219 13.292969 12.742188 12.832031 C 12.375 12.464844 11.917969 11.734375 11.550781 11.089844 C 11.917969 10.449219 12.191406 9.898438 12.648438 9.535156 C 13.109375 8.890625 13.660156 8.523438 14.484375 8.523438 Z M 13.933594 9.535156 L 13.933594 10.449219 L 13.015625 10.449219 L 13.015625 11.367188 L 13.933594 11.367188 L 13.933594 12.285156 L 14.851562 12.285156 L 14.851562 11.367188 L 15.765625 11.367188 L 15.765625 10.449219 L 14.851562 10.449219 L 14.851562 9.535156 Z M 6.140625 10.542969 L 6.140625 11.457031 L 9.074219 11.457031 L 9.074219 10.542969 Z M 6.140625 10.542969 "/>
</svg>