<?xml version="1.0" encoding="UTF-8" standalone="yes"?>
<svg xmlns="http://www.w3.org/2000/svg" xmlns:xlink="http://www.w3.org/1999/xlink" width="22" height="22" viewBox="0 0 22 22">
  <path fill-rule="nonzero" fill="#b4befe" fill-opacity="1" d="M 5.5 2.75 L 16.5 2.75 C 18.058594 2.75 19.25 3.941406 19.25 5.5 L 19.25 16.5 C 19.25 18.058594 18.058594 19.25 16.5 19.25 L 5.5 19.25 C 3.941406 19.25 2.75 18.058594 2.75 16.5 L 2.75 5.5 C 2.75 3.941406 3.941406 2.75 5.5 2.75 Z M 5.5 2.75 "/>
  <path fill-rule="nonzero" fill="#11111b" fill-opacity="1" d="M 8.339844 8.800781 C 7.976562 8.984375 7.882812 9.441406 8.066406 9.898438 C 8.25 10.265625 8.523438 10.449219 8.890625 10.449219 C 9.167969 11.640625 9.992188 12.558594 11.089844 12.558594 C 12.101562 12.558594 13.015625 11.734375 13.292969 10.449219 C 13.566406 10.449219 13.933594 10.175781 14.117188 9.898438 C 14.390625 9.441406 14.300781 8.984375 13.933594 8.800781 L 13.839844 8.800781 C 13.75 7.425781 12.648438 6.417969 11.183594 6.417969 C 9.714844 6.417969 8.433594 7.425781 8.339844 8.800781 Z M 12.648438 12.742188 C 12.464844 12.925781 12.375 13.015625 12.101562 13.199219 C 11.824219 13.476562 11.367188 13.476562 11 13.476562 C 10.359375 13.476562 9.808594 13.199219 9.441406 12.648438 C 7.792969 12.925781 5.957031 13.292969 5.867188 13.660156 L 5.867188 15.125 C 5.867188 15.308594 5.957031 15.398438 6.140625 15.398438 L 15.949219 15.398438 C 16.132812 15.398438 16.226562 15.214844 16.226562 15.125 L 16.226562 13.75 C 16.042969 13.382812 14.300781 13.109375 12.648438 12.742188 Z M 12.648438 12.742188 "/>
</svg>