<?xml version="1.0" encoding="UTF-8" standalone="yes"?>
<svg xmlns="http://www.w3.org/2000/svg" xmlns:xlink="http://www.w3.org/1999/xlink" width="22" height="22" viewBox="0 0 22 22">
  <path fill-rule="nonzero" fill="#b4befe" fill-opacity="1" d="M 5.5 2.75 L 16.5 2.75 C 18.058594 2.75 19.25 3.941406 19.25 5.5 L 19.25 16.5 C 19.25 18.058594 18.058594 19.25 16.5 19.25 L 5.5 19.25 C 3.941406 19.25 2.75 18.058594 2.75 16.5 L 2.75 5.5 C 2.75 3.941406 3.941406 2.75 5.5 2.75 Z M 5.5 2.75 "/>
  <path fill-rule="nonzero" fill="#11111b" fill-opacity="1" d="M 15.582031 6.417969 L 13.292969 10.265625 L 14.757812 11.089844 Z M 7.242188 8.707031 L 4.949219 10.359375 L 7.976562 10.265625 L 9.441406 15.582031 L 10.175781 14.851562 L 16.957031 15.582031 L 14.667969 11.734375 L 13.660156 11.183594 L 9.992188 13.292969 L 8.339844 9.074219 Z M 11.457031 10.359375 L 9.714844 11.457031 L 10.359375 12.925781 L 13.382812 11.183594 L 12.375 10.359375 Z M 11.457031 10.359375 "/>
</svg>