<?xml version="1.0" encoding="UTF-8" standalone="yes"?>
<svg xmlns="http://www.w3.org/2000/svg" xmlns:xlink="http://www.w3.org/1999/xlink" width="22" height="22" viewBox="0 0 22 22">
  <path fill-rule="nonzero" fill="#b4befe" fill-opacity="1" d="M 5.5 2.75 L 16.5 2.75 C 18.058594 2.75 19.25 3.941406 19.25 5.5 L 19.25 16.5 C 19.25 18.058594 18.058594 19.25 16.5 19.25 L 5.5 19.25 C 3.941406 19.25 2.75 18.058594 2.75 16.5 L 2.75 5.5 C 2.75 3.941406 3.941406 2.75 5.5 2.75 Z M 5.5 2.75 "/>
  <path fill-rule="nonzero" fill="#11111b" fill-opacity="1" d="M 7.699219 7.976562 C 7.515625 7.976562 7.425781 8.160156 7.425781 8.25 C 7.425781 8.339844 7.609375 8.523438 7.699219 8.523438 L 7.976562 8.523438 L 7.976562 7.976562 Z M 7.699219 7.976562 "/>
  <path fill-rule="nonzero" fill="#11111b" fill-opacity="1" d="M 8.890625 9.257812 L 8.617188 9.257812 L 8.617188 9.808594 L 8.890625 9.808594 C 9.074219 9.808594 9.167969 9.625 9.167969 9.535156 C 9.257812 9.257812 9.074219 9.257812 8.890625 9.257812 Z M 8.890625 9.257812 "/>
  <path fill-rule="nonzero" fill="#11111b" fill-opacity="1" d="M 5.589844 5.589844 L 5.589844 16.316406 L 16.316406 16.316406 L 16.316406 5.589844 Z M 8.890625 10.449219 L 8.617188 10.449219 L 8.617188 11 L 8.066406 11 L 8.066406 10.449219 L 7.792969 10.449219 C 7.425781 10.449219 7.058594 10.265625 6.964844 9.898438 L 8.066406 9.898438 L 8.066406 9.351562 L 7.792969 9.351562 C 7.242188 9.351562 6.875 8.984375 6.875 8.433594 C 6.875 7.882812 7.242188 7.515625 7.792969 7.515625 L 8.066406 7.515625 L 8.066406 6.875 L 8.617188 6.875 L 8.617188 7.425781 L 8.890625 7.425781 C 9.257812 7.425781 9.625 7.609375 9.714844 7.976562 L 8.617188 7.976562 L 8.617188 8.523438 L 8.890625 8.523438 C 9.441406 8.523438 9.808594 8.890625 9.808594 9.441406 C 9.808594 9.992188 9.351562 10.449219 8.890625 10.449219 Z M 12.742188 11 L 10.359375 11 L 10.359375 10.449219 L 12.742188 10.449219 Z M 12.742188 11 "/>
</svg>