<?xml version="1.0" encoding="UTF-8" standalone="yes"?>
<svg xmlns="http://www.w3.org/2000/svg" xmlns:xlink="http://www.w3.org/1999/xlink" width="22" height="22" viewBox="0 0 22 22">
  <path fill-rule="nonzero" fill="#b4befe" fill-opacity="1" d="M 5.5 2.75 L 16.5 2.75 C 18.058594 2.75 19.25 3.941406 19.25 5.5 L 19.25 16.5 C 19.25 18.058594 18.058594 19.25 16.5 19.25 L 5.5 19.25 C 3.941406 19.25 2.75 18.058594 2.75 16.5 L 2.75 5.5 C 2.75 3.941406 3.941406 2.75 5.5 2.75 Z M 5.5 2.75 "/>
  <path fill-rule="nonzero" fill="#11111b" fill-opacity="1" d="M 11.089844 5.410156 C 9.441406 5.410156 8.066406 6.785156 8.066406 8.433594 L 9.074219 8.433594 C 9.074219 7.332031 9.992188 6.417969 11.089844 6.417969 C 12.285156 6.417969 13.109375 7.332031 13.109375 8.433594 L 13.109375 10.449219 L 7.425781 10.449219 C 7.148438 10.449219 6.875 10.726562 6.875 11 L 6.875 16.042969 C 6.875 16.316406 7.148438 16.589844 7.425781 16.589844 L 14.484375 16.589844 C 14.757812 16.589844 15.035156 16.316406 15.035156 16.042969 L 15.035156 11 C 15.035156 10.726562 14.757812 10.449219 14.484375 10.449219 L 13.933594 10.449219 L 13.933594 8.433594 C 14.117188 6.785156 12.742188 5.410156 11.089844 5.410156 Z M 11.089844 5.410156 "/>
</svg>