<?xml version="1.0" encoding="UTF-8" standalone="yes"?>
<svg xmlns="http://www.w3.org/2000/svg" xmlns:xlink="http://www.w3.org/1999/xlink" width="22" height="22" viewBox="0 0 22 22">
  <path fill-rule="nonzero" fill="#b4befe" fill-opacity="1" d="M 5.5 2.75 L 16.5 2.75 C 18.058594 2.75 19.25 3.941406 19.25 5.5 L 19.25 16.5 C 19.25 18.058594 18.058594 19.25 16.5 19.25 L 5.5 19.25 C 3.941406 19.25 2.75 18.058594 2.75 16.5 L 2.75 5.5 C 2.75 3.941406 3.941406 2.75 5.5 2.75 Z M 5.5 2.75 "/>
  <path fill-rule="nonzero" fill="#11111b" fill-opacity="1" d="M 11 5.226562 C 7.792969 5.226562 5.316406 7.792969 5.316406 11 C 5.316406 14.207031 7.882812 16.773438 11 16.773438 C 14.207031 16.773438 16.773438 14.207031 16.773438 11 C 16.773438 7.792969 14.207031 5.226562 11 5.226562 Z M 10.632812 6.875 C 10.726562 6.875 10.816406 6.875 10.816406 6.875 C 10.816406 6.875 10.726562 6.964844 10.726562 7.148438 C 10.265625 8.066406 10.265625 8.984375 10.632812 9.535156 C 10.726562 9.625 10.726562 9.714844 10.726562 9.714844 C 10.726562 9.714844 10.632812 9.714844 10.632812 9.714844 C 10.449219 9.714844 10.265625 9.625 9.898438 9.351562 C 9.808594 9.167969 9.535156 9.167969 9.441406 9.074219 C 9.351562 9.074219 9.351562 9.074219 9.074219 9.167969 C 8.984375 9.351562 8.890625 9.351562 8.890625 9.625 C 8.890625 10.175781 9.535156 10.632812 10.726562 10.910156 C 12.375 11.273438 12.742188 11.550781 12.832031 12.464844 C 12.925781 13.566406 12.375 14.300781 11 14.941406 C 10.910156 15.035156 10.726562 15.035156 10.726562 15.035156 L 10.632812 15.035156 C 10.632812 15.035156 10.632812 14.941406 10.632812 14.757812 C 10.632812 14.207031 10.449219 13.566406 10.082031 13.199219 C 9.992188 13.109375 9.714844 12.925781 9.535156 12.832031 C 9.351562 12.648438 9.167969 12.558594 9.074219 12.464844 C 8.984375 12.285156 8.984375 12.285156 9.074219 12.007812 C 9.167969 11.640625 9.351562 11.457031 9.535156 11.183594 C 9.714844 11.089844 9.808594 11 9.808594 11 C 9.808594 11 9.625 10.910156 9.351562 10.910156 C 9.074219 10.816406 8.617188 10.726562 8.339844 10.632812 C 7.976562 10.542969 7.332031 10.175781 7.058594 9.898438 C 7.425781 8.617188 8.25 7.609375 9.441406 7.148438 C 9.714844 7.058594 9.898438 6.964844 10.175781 6.964844 C 10.359375 6.875 10.542969 6.875 10.632812 6.875 Z M 14.484375 8.800781 C 14.574219 8.890625 14.941406 9.625 15.035156 10.082031 C 15.125 10.542969 15.125 11.457031 15.035156 11.917969 C 14.941406 12.101562 14.941406 12.285156 14.941406 12.285156 C 14.941406 12.285156 14.851562 12.191406 14.757812 12.007812 C 14.667969 11.917969 14.390625 11.550781 14.117188 11.273438 C 13.382812 10.542969 13.382812 10.265625 13.660156 9.714844 C 13.75 9.351562 14.390625 8.707031 14.484375 8.800781 Z M 14.484375 8.800781 "/>
</svg>