<?xml version="1.0" encoding="UTF-8" standalone="yes"?>
<svg xmlns="http://www.w3.org/2000/svg" xmlns:xlink="http://www.w3.org/1999/xlink" width="22" height="22" viewBox="0 0 22 22">
  <path fill-rule="nonzero" fill="#b4befe" fill-opacity="1" d="M 5.5 2.75 L 16.5 2.75 C 18.058594 2.75 19.25 3.941406 19.25 5.5 L 19.25 16.5 C 19.25 18.058594 18.058594 19.25 16.5 19.25 L 5.5 19.25 C 3.941406 19.25 2.75 18.058594 2.75 16.5 L 2.75 5.5 C 2.75 3.941406 3.941406 2.75 5.5 2.75 Z M 5.5 2.75 "/>
  <path fill-rule="nonzero" fill="#11111b" fill-opacity="1" d="M 12.007812 5.589844 L 9.992188 5.867188 L 9.992188 13.292969 L 12.007812 12.742188 L 12.007812 9.898438 L 14.023438 13.292969 L 16.042969 12.558594 L 13.476562 9.441406 L 16.042969 6.140625 L 14.117188 5.683594 L 12.007812 9.074219 Z M 7.882812 7.609375 C 7.792969 7.609375 7.792969 7.609375 7.699219 7.699219 L 6.964844 8.433594 C 6.875 8.523438 6.875 8.617188 6.964844 8.707031 L 7.792969 10.082031 C 7.699219 10.265625 7.609375 10.359375 7.609375 10.542969 L 6.050781 10.910156 C 5.957031 10.910156 5.867188 11 5.867188 11.089844 L 5.867188 12.101562 C 5.867188 12.191406 5.957031 12.285156 6.050781 12.285156 L 7.609375 12.648438 C 7.699219 12.832031 7.699219 12.925781 7.792969 13.015625 L 6.964844 14.300781 C 6.875 14.390625 6.875 14.484375 6.964844 14.574219 L 7.699219 15.308594 C 7.792969 15.398438 7.882812 15.398438 7.976562 15.308594 L 9.257812 14.484375 C 9.441406 14.574219 9.535156 14.667969 9.714844 14.667969 L 10.082031 16.226562 C 10.082031 16.316406 10.175781 16.410156 10.265625 16.410156 L 11.367188 16.410156 C 11.457031 16.410156 11.550781 16.316406 11.550781 16.226562 L 11.917969 14.667969 C 12.101562 14.574219 12.191406 14.484375 12.375 14.484375 L 13.660156 15.398438 C 13.75 15.492188 13.839844 15.492188 13.933594 15.398438 L 14.667969 14.667969 C 14.757812 14.574219 14.757812 14.484375 14.667969 14.390625 L 14.207031 13.660156 L 14.117188 13.660156 C 13.933594 13.75 13.933594 13.660156 13.839844 13.476562 L 13.382812 12.648438 C 12.925781 13.660156 12.007812 14.390625 10.816406 14.390625 C 9.257812 14.390625 7.976562 13.109375 7.976562 11.550781 C 7.976562 10.359375 8.707031 9.351562 9.808594 8.984375 L 9.808594 8.433594 C 9.625 8.523438 9.535156 8.523438 9.351562 8.617188 L 8.066406 7.699219 C 7.882812 7.609375 7.882812 7.609375 7.882812 7.609375 Z M 7.882812 7.609375 "/>
</svg>