<?xml version="1.0" encoding="UTF-8" standalone="yes"?>
<svg xmlns="http://www.w3.org/2000/svg" xmlns:xlink="http://www.w3.org/1999/xlink" width="22" height="22" viewBox="0 0 22 22">
  <path fill-rule="nonzero" fill="#b4befe" fill-opacity="1" d="M 5.5 2.75 L 16.5 2.75 C 18.058594 2.75 19.25 3.941406 19.25 5.5 L 19.25 16.5 C 19.25 18.058594 18.058594 19.25 16.5 19.25 L 5.5 19.25 C 3.941406 19.25 2.75 18.058594 2.75 16.5 L 2.75 5.5 C 2.75 3.941406 3.941406 2.75 5.5 2.75 Z M 5.5 2.75 "/>
  <path fill-rule="nonzero" fill="#11111b" fill-opacity="1" d="M 6.964844 6.417969 C 4.675781 6.417969 4.675781 7.515625 4.675781 7.515625 L 4.675781 12.101562 C 4.675781 12.101562 4.675781 11 6.964844 11 C 9.257812 11 10.359375 13.292969 10.359375 13.292969 L 10.359375 8.707031 C 10.359375 8.707031 9.257812 6.417969 6.964844 6.417969 Z M 15.035156 6.417969 C 12.742188 6.417969 11.640625 8.707031 11.640625 8.707031 L 11.640625 13.292969 C 11.640625 13.292969 12.742188 11 15.035156 11 C 17.324219 11 17.324219 12.101562 17.324219 12.101562 L 17.324219 7.515625 C 17.324219 7.609375 17.324219 6.417969 15.035156 6.417969 Z M 6.964844 12.191406 C 4.675781 12.191406 4.675781 13.292969 4.675781 13.292969 L 4.675781 14.390625 C 4.675781 14.390625 4.675781 13.292969 6.964844 13.292969 C 9.257812 13.292969 10.359375 15.582031 10.359375 15.582031 L 10.359375 14.484375 C 10.359375 14.484375 9.257812 12.191406 6.964844 12.191406 Z M 15.035156 12.191406 C 12.742188 12.191406 11.640625 14.484375 11.640625 14.484375 L 11.640625 15.582031 C 11.640625 15.582031 12.742188 13.292969 15.035156 13.292969 C 17.324219 13.292969 17.324219 14.390625 17.324219 14.390625 L 17.324219 13.292969 C 17.324219 13.382812 17.324219 12.191406 15.035156 12.191406 Z M 15.035156 12.191406 "/>
</svg>