<?xml version="1.0" encoding="UTF-8" standalone="yes"?>
<svg xmlns="http://www.w3.org/2000/svg" xmlns:xlink="http://www.w3.org/1999/xlink" width="22" height="22" viewBox="0 0 22 22">
  <path fill-rule="nonzero" fill="#b4befe" fill-opacity="1" d="M 5.5 2.75 L 16.5 2.75 C 18.058594 2.75 19.25 3.941406 19.25 5.5 L 19.25 16.5 C 19.25 18.058594 18.058594 19.25 16.5 19.25 L 5.5 19.25 C 3.941406 19.25 2.75 18.058594 2.75 16.5 L 2.75 5.5 C 2.75 3.941406 3.941406 2.75 5.5 2.75 Z M 5.5 2.75 "/>
  <path fill-rule="nonzero" fill="#11111b" fill-opacity="1" d="M 4.675781 12.285156 L 7.058594 13.660156 C 7.058594 13.75 7.058594 13.75 7.058594 13.839844 C 7.058594 15.125 8.066406 16.132812 9.351562 16.132812 C 10.632812 16.132812 11.734375 15.125 11.734375 13.839844 C 11.734375 13.75 11.734375 13.660156 11.734375 13.566406 L 14.574219 11.550781 C 16.042969 11.457031 17.324219 10.265625 17.324219 8.800781 C 17.324219 7.332031 16.132812 6.050781 14.574219 6.050781 C 13.109375 6.050781 11.824219 7.242188 11.824219 8.800781 L 10.082031 11.640625 C 9.898438 11.550781 9.714844 11.550781 9.535156 11.550781 C 9.167969 11.550781 8.890625 11.640625 8.433594 11.734375 L 4.765625 9.625 M 14.484375 6.691406 C 15.492188 6.691406 16.410156 7.609375 16.410156 8.617188 C 16.410156 9.625 15.492188 10.542969 14.484375 10.542969 C 13.476562 10.542969 12.558594 9.625 12.558594 8.617188 C 12.558594 7.609375 13.476562 6.691406 14.484375 6.691406 Z M 14.484375 7.515625 C 13.839844 7.515625 13.292969 8.066406 13.292969 8.707031 C 13.292969 9.351562 13.839844 9.898438 14.484375 9.898438 C 15.125 9.898438 15.675781 9.351562 15.675781 8.707031 C 15.765625 8.066406 15.214844 7.515625 14.484375 7.515625 Z M 9.351562 12.285156 C 10.265625 12.285156 10.910156 12.925781 10.910156 13.839844 C 10.910156 14.757812 10.265625 15.398438 9.351562 15.398438 C 8.617188 15.398438 7.882812 14.851562 7.792969 14.117188 L 8.339844 14.390625 C 8.984375 14.667969 9.625 14.574219 9.898438 13.933594 C 10.175781 13.292969 10.082031 12.648438 9.441406 12.375 Z M 9.351562 12.285156 "/>
</svg>