<?xml version="1.0" encoding="UTF-8" standalone="yes"?>
<svg xmlns="http://www.w3.org/2000/svg" xmlns:xlink="http://www.w3.org/1999/xlink" width="22" height="22" viewBox="0 0 22 22">
  <path fill-rule="nonzero" fill="#b4befe" fill-opacity="1" d="M 5.5 2.75 L 16.5 2.75 C 18.058594 2.75 19.25 3.941406 19.25 5.5 L 19.25 16.5 C 19.25 18.058594 18.058594 19.25 16.5 19.25 L 5.5 19.25 C 3.941406 19.25 2.75 18.058594 2.75 16.5 L 2.75 5.5 C 2.75 3.941406 3.941406 2.75 5.5 2.75 Z M 5.5 2.75 "/>
  <path fill-rule="nonzero" fill="#11111b" fill-opacity="1" d="M 7.425781 5.589844 C 6.964844 5.589844 6.601562 5.957031 6.601562 6.417969 L 6.601562 12.648438 L 7.148438 12.648438 L 7.148438 12.101562 L 7.699219 12.101562 L 7.699219 6.691406 L 12.007812 6.691406 L 12.007812 8.890625 L 14.207031 8.890625 L 14.207031 15.949219 L 14.757812 15.949219 L 14.757812 15.398438 L 15.308594 15.398438 L 15.308594 8.25 L 12.558594 5.5 Z M 14.757812 15.949219 L 14.757812 16.5 L 15.308594 16.5 L 15.308594 15.949219 Z M 14.207031 15.949219 L 13.660156 15.949219 L 13.660156 16.5 L 14.207031 16.5 Z M 13.660156 15.949219 L 13.660156 15.398438 L 13.109375 15.398438 L 13.109375 15.949219 Z M 13.109375 15.949219 L 12.558594 15.949219 L 12.558594 16.5 L 13.109375 16.5 Z M 12.558594 15.949219 L 12.558594 15.398438 L 12.007812 15.398438 L 12.007812 15.949219 Z M 12.007812 15.949219 L 11.457031 15.949219 L 11.457031 16.5 L 12.007812 16.5 Z M 11.457031 15.949219 L 11.457031 15.398438 L 10.910156 15.398438 L 10.910156 15.949219 Z M 11 15.949219 L 10.449219 15.949219 L 10.449219 16.5 L 11 16.5 Z M 10.359375 15.949219 L 10.359375 15.398438 L 9.808594 15.398438 L 9.808594 15.949219 Z M 9.898438 15.949219 L 9.351562 15.949219 L 9.351562 16.5 L 9.898438 16.5 Z M 9.351562 15.949219 L 9.351562 15.398438 L 8.707031 15.398438 L 8.707031 15.949219 Z M 8.800781 15.949219 L 8.25 15.949219 L 8.25 16.5 L 8.800781 16.5 Z M 8.25 15.949219 L 8.25 15.398438 L 7.609375 15.398438 L 7.609375 15.949219 Z M 7.699219 15.949219 L 7.148438 15.949219 L 7.148438 16.5 L 7.699219 16.5 Z M 7.148438 15.949219 L 7.148438 15.398438 L 6.601562 15.398438 L 6.601562 15.949219 Z M 7.148438 15.308594 L 7.699219 15.308594 L 7.699219 14.757812 L 7.148438 14.757812 Z M 7.148438 14.757812 L 7.148438 14.207031 L 6.601562 14.207031 L 6.601562 14.757812 Z M 7.148438 14.207031 L 7.699219 14.207031 L 7.699219 13.660156 L 7.148438 13.660156 Z M 7.148438 13.75 L 7.148438 13.199219 L 6.601562 13.199219 L 6.601562 13.75 Z M 7.148438 13.199219 L 7.699219 13.199219 L 7.699219 12.648438 L 7.148438 12.648438 Z M 7.148438 13.199219 "/>
</svg>