<?xml version="1.0" encoding="UTF-8" standalone="yes"?>
<svg xmlns="http://www.w3.org/2000/svg" xmlns:xlink="http://www.w3.org/1999/xlink" width="22" height="22" viewBox="0 0 22 22">
  <path fill-rule="nonzero" fill="#b4befe" fill-opacity="1" d="M 5.5 2.75 L 16.5 2.75 C 18.058594 2.75 19.25 3.941406 19.25 5.5 L 19.25 16.5 C 19.25 18.058594 18.058594 19.25 16.5 19.25 L 5.5 19.25 C 3.941406 19.25 2.75 18.058594 2.75 16.5 L 2.75 5.5 C 2.75 3.941406 3.941406 2.75 5.5 2.75 Z M 5.5 2.75 "/>
  <path fill-rule="nonzero" fill="#11111b" fill-opacity="1" d="M 9.351562 4.949219 C 9.351562 4.949219 9.992188 5.316406 9.535156 6.324219 C 8.800781 7.882812 10.082031 8.25 10.082031 8.25 C 10.082031 8.25 9.714844 7.882812 10.265625 6.601562 C 10.910156 5.226562 9.351562 4.949219 9.351562 4.949219 Z M 11.640625 7.148438 C 11.640625 7.148438 10.449219 7.699219 11.273438 9.074219 C 11.734375 9.992188 11.183594 10.449219 11.183594 10.449219 C 11.183594 10.449219 12.558594 9.992188 11.917969 8.707031 C 11.367188 7.515625 11.640625 7.148438 11.640625 7.148438 Z M 8.066406 7.148438 C 8.066406 7.148438 7.242188 7.976562 8.066406 9.074219 C 8.617188 9.808594 8.25 10.359375 8.25 10.359375 C 8.25 10.359375 9.257812 9.441406 8.523438 8.433594 C 7.882812 7.609375 8.066406 7.148438 8.066406 7.148438 Z M 8.25 10.449219 L 5.5 10.449219 L 7.148438 17.050781 L 13.199219 17.050781 L 13.566406 15.949219 C 13.75 16.042969 13.933594 16.042969 14.117188 16.042969 C 15.398438 16.042969 16.5 15.214844 16.5 13.933594 C 16.5 12.832031 15.765625 11.917969 14.757812 11.640625 L 15.035156 10.449219 Z M 14.484375 12.464844 C 14.484375 12.464844 14.574219 12.464844 14.484375 12.464844 C 14.941406 12.648438 15.125 13.382812 14.851562 14.117188 C 14.574219 14.941406 14.117188 15.492188 13.660156 15.398438 Z M 14.484375 12.464844 "/>
</svg>