<?xml version="1.0" encoding="UTF-8" standalone="yes"?>
<svg xmlns="http://www.w3.org/2000/svg" xmlns:xlink="http://www.w3.org/1999/xlink" width="22" height="22" viewBox="0 0 22 22">
  <path fill-rule="nonzero" fill="#b4befe" fill-opacity="1" d="M 5.5 2.75 L 16.5 2.75 C 18.058594 2.75 19.25 3.941406 19.25 5.5 L 19.25 16.5 C 19.25 18.058594 18.058594 19.25 16.5 19.25 L 5.5 19.25 C 3.941406 19.25 2.75 18.058594 2.75 16.5 L 2.75 5.5 C 2.75 3.941406 3.941406 2.75 5.5 2.75 Z M 5.5 2.75 "/>
  <path fill-rule="nonzero" fill="#11111b" fill-opacity="1" d="M 7.882812 6.324219 C 7.792969 6.324219 7.609375 6.417969 7.332031 6.507812 C 6.601562 6.964844 5.867188 8.339844 5.5 10.175781 C 5.132812 11.734375 5.042969 13.839844 5.226562 14.667969 C 5.410156 15.398438 5.683594 15.765625 6.234375 15.765625 C 6.964844 15.765625 7.976562 14.851562 8.617188 13.660156 C 9.074219 12.925781 10.082031 12.648438 11 12.742188 C 12.007812 12.648438 13.015625 13.015625 13.382812 13.660156 C 14.023438 14.851562 14.941406 15.765625 15.765625 15.765625 C 16.226562 15.765625 16.589844 15.398438 16.773438 14.667969 C 16.957031 13.839844 16.867188 11.640625 16.5 10.175781 C 16.132812 8.339844 15.398438 6.964844 14.667969 6.507812 C 14.484375 6.324219 14.207031 6.324219 14.117188 6.324219 C 13.933594 6.324219 13.75 6.417969 13.566406 6.507812 C 13.199219 6.785156 12.375 7.148438 10.910156 7.148438 C 9.441406 7.148438 8.707031 6.875 8.25 6.507812 C 8.25 6.417969 8.066406 6.324219 7.882812 6.324219 Z M 8.066406 8.160156 L 9.167969 8.160156 L 9.167969 9.257812 L 10.359375 9.257812 L 10.359375 10.359375 L 9.257812 10.359375 L 9.257812 11.550781 L 8.160156 11.550781 L 8.160156 10.449219 L 6.964844 10.449219 L 6.964844 9.351562 L 8.066406 9.351562 Z M 13.292969 8.160156 C 13.660156 8.160156 13.839844 8.433594 13.839844 8.707031 C 13.839844 9.074219 13.566406 9.257812 13.292969 9.257812 C 12.925781 9.257812 12.742188 8.984375 12.742188 8.707031 C 12.742188 8.339844 13.015625 8.160156 13.292969 8.160156 Z M 12.191406 9.257812 C 12.558594 9.257812 12.742188 9.535156 12.742188 9.808594 C 12.742188 10.082031 12.464844 10.359375 12.191406 10.359375 C 11.824219 10.359375 11.640625 10.082031 11.640625 9.808594 C 11.640625 9.535156 11.824219 9.257812 12.191406 9.257812 Z M 14.574219 9.257812 C 14.941406 9.257812 15.125 9.535156 15.125 9.808594 C 15.125 10.082031 14.851562 10.359375 14.574219 10.359375 C 14.300781 10.359375 14.023438 10.082031 14.023438 9.808594 C 13.933594 9.535156 14.207031 9.257812 14.574219 9.257812 Z M 13.292969 10.449219 C 13.660156 10.449219 13.839844 10.726562 13.839844 11 C 13.839844 11.273438 13.660156 11.550781 13.292969 11.550781 C 12.925781 11.550781 12.742188 11.273438 12.742188 11 C 12.742188 10.726562 13.015625 10.449219 13.292969 10.449219 Z M 13.292969 10.449219 "/>
</svg>