<?xml version="1.0" encoding="UTF-8" standalone="yes"?>
<svg xmlns="http://www.w3.org/2000/svg" xmlns:xlink="http://www.w3.org/1999/xlink" width="22" height="22" viewBox="0 0 22 22">
  <path fill-rule="nonzero" fill="#b4befe" fill-opacity="1" d="M 5.5 2.75 L 16.5 2.75 C 18.058594 2.75 19.25 3.941406 19.25 5.5 L 19.25 16.5 C 19.25 18.058594 18.058594 19.25 16.5 19.25 L 5.5 19.25 C 3.941406 19.25 2.75 18.058594 2.75 16.5 L 2.75 5.5 C 2.75 3.941406 3.941406 2.75 5.5 2.75 Z M 5.5 2.75 "/>
  <path fill-rule="evenodd" fill="#11111b" fill-opacity="1" d="M 7.515625 6.050781 C 7.425781 6.050781 7.425781 6.140625 7.332031 6.234375 L 6.324219 9.535156 L 9.074219 9.535156 L 7.792969 6.234375 C 7.792969 6.050781 7.699219 6.050781 7.515625 6.050781 Z M 8.984375 9.535156 L 11 16.042969 L 13.015625 9.535156 Z M 13.015625 9.535156 L 15.765625 9.535156 L 14.667969 6.234375 C 14.574219 6.050781 14.300781 6.050781 14.300781 6.234375 Z M 15.675781 9.535156 L 11 15.949219 L 16.316406 12.101562 C 16.5 12.007812 16.5 11.824219 16.5 11.640625 Z M 11 15.949219 L 6.324219 9.441406 L 5.589844 11.640625 C 5.5 11.824219 5.589844 12.007812 5.773438 12.101562 Z M 11 15.949219 "/>
</svg>