<?xml version="1.0" encoding="UTF-8" standalone="yes"?>
<svg xmlns="http://www.w3.org/2000/svg" xmlns:xlink="http://www.w3.org/1999/xlink" width="22" height="22" viewBox="0 0 22 22">
  <path fill-rule="nonzero" fill="#b4befe" fill-opacity="1" d="M 5.5 2.75 L 16.5 2.75 C 18.058594 2.75 19.25 3.941406 19.25 5.5 L 19.25 16.5 C 19.25 18.058594 18.058594 19.25 16.5 19.25 L 5.5 19.25 C 3.941406 19.25 2.75 18.058594 2.75 16.5 L 2.75 5.5 C 2.75 3.941406 3.941406 2.75 5.5 2.75 Z M 5.5 2.75 "/>
  <path fill-rule="nonzero" fill="#11111b" fill-opacity="1" d="M 11 5.5 C 7.976562 5.5 5.5 7.976562 5.5 11 C 5.5 14.023438 7.976562 16.5 11 16.5 C 14.023438 16.5 16.5 14.023438 16.5 11 C 16.5 7.976562 14.023438 5.5 11 5.5 Z M 10.449219 7.699219 L 11.550781 7.699219 L 11.550781 12.101562 L 10.449219 12.101562 Z M 11 13.199219 C 11.367188 13.199219 11.550781 13.476562 11.550781 13.75 C 11.550781 14.117188 11.273438 14.300781 11 14.300781 C 10.726562 14.300781 10.449219 14.023438 10.449219 13.75 C 10.449219 13.476562 10.632812 13.199219 11 13.199219 Z M 11 13.199219 "/>
</svg>