<?xml version="1.0" encoding="UTF-8" standalone="yes"?>
<svg xmlns="http://www.w3.org/2000/svg" xmlns:xlink="http://www.w3.org/1999/xlink" width="22" height="22" viewBox="0 0 22 22">
  <path fill-rule="nonzero" fill="#89b4fa" fill-opacity="1" d="M 5.5 2.75 L 16.5 2.75 C 18.058594 2.75 19.25 3.941406 19.25 5.5 L 19.25 16.5 C 19.25 18.058594 18.058594 19.25 16.5 19.25 L 5.5 19.25 C 3.941406 19.25 2.75 18.058594 2.75 16.5 L 2.75 5.5 C 2.75 3.941406 3.941406 2.75 5.5 2.75 Z M 5.5 2.75 "/>
  <path fill-rule="nonzero" fill="#11111b" fill-opacity="1" d="M 6.050781 8.523438 C 6.050781 8.160156 6.140625 7.882812 6.417969 7.609375 C 6.691406 7.425781 6.964844 7.332031 7.332031 7.332031 L 10.449219 7.332031 L 11.640625 8.523438 L 14.667969 8.523438 C 15.035156 8.523438 15.308594 8.617188 15.492188 8.890625 C 15.765625 9.167969 15.859375 9.441406 15.859375 9.714844 L 15.859375 13.382812 C 15.859375 13.75 15.765625 14.023438 15.492188 14.300781 C 15.308594 14.574219 15.035156 14.667969 14.667969 14.667969 L 7.332031 14.667969 C 6.964844 14.667969 6.691406 14.574219 6.507812 14.300781 C 6.234375 14.023438 6.140625 13.75 6.140625 13.382812 L 6.140625 8.523438 Z M 6.050781 8.523438 "/>
</svg>