<?xml version="1.0" encoding="UTF-8" standalone="yes"?>
<svg xmlns="http://www.w3.org/2000/svg" xmlns:xlink="http://www.w3.org/1999/xlink" width="22" height="22" viewBox="0 0 22 22">
  <defs>
    <clipPath id="clip-0">
      <path clip-rule="nonzero" d="M 11 2 L 20 2 L 20 11 L 11 11 Z M 11 2 "/>
    </clipPath>
    <clipPath id="clip-1">
      <path clip-rule="nonzero" d="M 11.34375 2.40625 L 17.53125 2.40625 C 18.667969 2.40625 19.59375 3.332031 19.59375 4.46875 L 19.59375 10.65625 L 14.09375 10.65625 C 12.582031 10.65625 11.34375 9.417969 11.34375 7.90625 Z M 11.34375 2.40625 "/>
    </clipPath>
    <clipPath id="clip-2">
      <path clip-rule="nonzero" d="M 17 7.332031 L 20 7.332031 L 20 11 L 17 11 Z M 17 7.332031 "/>
    </clipPath>
    <clipPath id="clip-3">
      <path clip-rule="nonzero" d="M 11.34375 2.40625 L 17.53125 2.40625 C 18.667969 2.40625 19.59375 3.332031 19.59375 4.46875 L 19.59375 10.65625 L 14.09375 10.65625 C 12.582031 10.65625 11.34375 9.417969 11.34375 7.90625 Z M 11.34375 2.40625 "/>
    </clipPath>
    <clipPath id="clip-4">
      <path clip-rule="nonzero" d="M 12 4 L 18.332031 4 L 18.332031 9 L 12 9 Z M 12 4 "/>
    </clipPath>
    <clipPath id="clip-5">
      <path clip-rule="nonzero" d="M 11.34375 2.40625 L 17.53125 2.40625 C 18.667969 2.40625 19.59375 3.332031 19.59375 4.46875 L 19.59375 10.65625 L 14.09375 10.65625 C 12.582031 10.65625 11.34375 9.417969 11.34375 7.90625 Z M 11.34375 2.40625 "/>
    </clipPath>
  </defs>
  <path fill-rule="nonzero" fill="#11111b" fill-opacity="1" d="M 4.46875 2.40625 L 17.53125 2.40625 C 18.667969 2.40625 19.59375 3.332031 19.59375 4.46875 L 19.59375 17.53125 C 19.59375 18.667969 18.667969 19.59375 17.53125 19.59375 L 4.46875 19.59375 C 3.332031 19.59375 2.40625 18.667969 2.40625 17.53125 L 2.40625 4.46875 C 2.40625 3.332031 3.332031 2.40625 4.46875 2.40625 Z M 4.46875 2.40625 "/>
  <g clip-path="url(#clip-0)">
    <g clip-path="url(#clip-1)">
      <path fill-rule="nonzero" fill="#b4befe" fill-opacity="1" d="M 11.34375 2.40625 L 17.53125 2.40625 C 18.667969 2.40625 19.59375 3.332031 19.59375 4.46875 L 19.59375 10.65625 L 14.09375 10.65625 C 12.582031 10.65625 11.34375 9.417969 11.34375 7.90625 Z M 11.34375 2.40625 "/>
    </g>
  </g>
  <g clip-path="url(#clip-2)">
    <g clip-path="url(#clip-3)">
      <path fill-rule="nonzero" fill="#b4befe" fill-opacity="1" d="M 22.34375 10.484375 C 22.34375 11.910156 21.191406 13.0625 19.765625 13.0625 C 18.339844 13.0625 17.1875 11.910156 17.1875 10.484375 C 17.1875 9.058594 18.339844 7.90625 19.765625 7.90625 C 21.191406 7.90625 22.34375 9.058594 22.34375 10.484375 Z M 22.34375 10.484375 "/>
    </g>
  </g>
  <g clip-path="url(#clip-4)">
    <g clip-path="url(#clip-5)">
      <path fill-rule="nonzero" fill="#11111b" fill-opacity="1" d="M 15.230469 4.574219 C 14.402344 4.746094 13.921875 5.261719 13.75 6.050781 L 12.753906 6.050781 L 12.753906 7.046875 L 13.75 7.046875 C 13.921875 7.800781 14.402344 8.355469 15.230469 8.527344 Z M 15.707031 4.574219 L 15.707031 8.488281 C 16.535156 8.316406 17.015625 7.800781 17.1875 7.011719 L 18.183594 7.011719 L 18.183594 6.015625 L 17.1875 6.015625 C 17.015625 5.261719 16.535156 4.707031 15.707031 4.574219 Z M 15.707031 4.574219 "/>
    </g>
  </g>
</svg>