<?xml version="1.0" encoding="UTF-8" standalone="yes"?>
<svg xmlns="http://www.w3.org/2000/svg" xmlns:xlink="http://www.w3.org/1999/xlink" width="22" height="22" viewBox="0 0 22 22">
  <path fill-rule="nonzero" fill="rgb(62.7451%, 49.019608%, 87.058824%)" fill-opacity="1" d="M 5.5 2.75 L 16.5 2.75 C 18.019531 2.75 19.25 3.980469 19.25 5.5 L 19.25 16.5 C 19.25 18.019531 18.019531 19.25 16.5 19.25 L 5.5 19.25 C 3.980469 19.25 2.75 18.019531 2.75 16.5 L 2.75 5.5 C 2.75 3.980469 3.980469 2.75 5.5 2.75 Z M 5.5 2.75 "/>
  <path fill-rule="nonzero" fill="#11111b" fill-opacity="1" d="M 16.132812 6.507812 C 16.132812 6.414062 16.113281 6.320312 16.070312 6.234375 C 16.03125 6.148438 15.972656 6.074219 15.898438 6.011719 C 15.824219 5.953125 15.738281 5.910156 15.648438 5.886719 C 15.554688 5.863281 15.457031 5.859375 15.367188 5.878906 L 8.949219 7.164062 C 8.804688 7.191406 8.671875 7.269531 8.578125 7.386719 C 8.484375 7.5 8.433594 7.644531 8.433594 7.792969 L 8.433594 13.640625 C 8.222656 13.589844 8.007812 13.566406 7.792969 13.566406 C 6.726562 13.566406 5.867188 14.140625 5.867188 14.851562 C 5.867188 15.558594 6.726562 16.132812 7.792969 16.132812 C 8.855469 16.132812 9.714844 15.558594 9.714844 14.851562 L 9.714844 9.601562 L 14.851562 8.574219 L 14.851562 12.355469 C 14.640625 12.308594 14.425781 12.28125 14.207031 12.285156 C 13.144531 12.285156 12.285156 12.859375 12.285156 13.566406 C 12.285156 14.277344 13.144531 14.851562 14.207031 14.851562 C 15.273438 14.851562 16.132812 14.277344 16.132812 13.566406 Z M 16.132812 6.507812 "/>
</svg>