<?xml version="1.0" encoding="UTF-8" standalone="yes"?>
<svg xmlns="http://www.w3.org/2000/svg" xmlns:xlink="http://www.w3.org/1999/xlink" width="22" height="22" viewBox="0 0 22 22">
  <path fill-rule="nonzero" fill="#b4befe" fill-opacity="1" d="M 5.5 2.75 L 16.5 2.75 C 18.058594 2.75 19.25 3.941406 19.25 5.5 L 19.25 16.5 C 19.25 18.058594 18.058594 19.25 16.5 19.25 L 5.5 19.25 C 3.941406 19.25 2.75 18.058594 2.75 16.5 L 2.75 5.5 C 2.75 3.941406 3.941406 2.75 5.5 2.75 Z M 5.5 2.75 "/>
  <path fill-rule="nonzero" fill="#11111b" fill-opacity="1" d="M 10.359375 6.324219 C 8.433594 6.691406 7.332031 7.976562 6.964844 9.808594 L 4.582031 9.808594 L 4.582031 12.191406 L 6.964844 12.191406 C 7.332031 14.023438 8.433594 15.308594 10.449219 15.675781 L 10.449219 6.324219 Z M 11.640625 6.324219 L 11.640625 15.675781 C 13.566406 15.308594 14.757812 14.023438 15.125 12.191406 L 17.417969 12.191406 L 17.417969 9.808594 L 15.035156 9.808594 C 14.667969 7.976562 13.566406 6.691406 11.640625 6.324219 Z M 11.640625 6.324219 "/>
</svg>