<?xml version="1.0" encoding="UTF-8" standalone="yes"?>
<svg xmlns="http://www.w3.org/2000/svg" xmlns:xlink="http://www.w3.org/1999/xlink" width="22" height="22" viewBox="0 0 22 22">
  <path fill-rule="nonzero" fill="#b4befe" fill-opacity="1" d="M 5.5 2.75 L 16.5 2.75 C 18.058594 2.75 19.25 3.941406 19.25 5.5 L 19.25 16.5 C 19.25 18.058594 18.058594 19.25 16.5 19.25 L 5.5 19.25 C 3.941406 19.25 2.75 18.058594 2.75 16.5 L 2.75 5.5 C 2.75 3.941406 3.941406 2.75 5.5 2.75 Z M 5.5 2.75 "/>
  <path fill-rule="nonzero" fill="#11111b" fill-opacity="1" d="M 11 5.589844 C 7.976562 5.589844 5.589844 7.976562 5.589844 11 C 5.589844 14.023438 7.976562 16.410156 11 16.410156 L 14.300781 16.410156 C 14.300781 16.410156 14.941406 16.132812 14.941406 15.492188 C 14.941406 14.851562 14.300781 14.667969 14.300781 14.667969 L 11 14.667969 C 10.816406 14.667969 10.632812 14.667969 10.449219 14.574219 C 9.808594 14.484375 9.351562 14.300781 8.984375 13.933594 C 8.066406 13.292969 7.425781 12.191406 7.425781 11 C 7.425781 8.984375 9.074219 7.425781 11 7.425781 C 13.015625 7.425781 14.574219 9.074219 14.574219 11 C 14.574219 11.367188 14.484375 11.640625 14.390625 11.917969 L 13.566406 11.917969 C 13.660156 11.640625 13.75 11.273438 13.75 11 C 13.75 9.535156 12.558594 8.339844 11.089844 8.339844 C 9.625 8.339844 8.433594 9.535156 8.433594 11 C 8.433594 12.464844 9.625 13.660156 11.089844 13.660156 L 14.390625 13.660156 C 14.851562 13.566406 15.214844 13.292969 15.582031 13.109375 C 16.226562 12.648438 16.5 11.917969 16.5 10.910156 C 16.410156 7.976562 14.023438 5.589844 11 5.589844 Z M 11 10.082031 C 11.457031 10.082031 11.917969 10.449219 11.917969 11 C 11.917969 11.457031 11.550781 11.917969 11 11.917969 C 10.542969 11.917969 10.082031 11.550781 10.082031 11 C 10.082031 10.542969 10.542969 10.082031 11 10.082031 Z M 11 10.082031 "/>
</svg>