<?xml version="1.0" encoding="UTF-8" standalone="yes"?>
<svg xmlns="http://www.w3.org/2000/svg" xmlns:xlink="http://www.w3.org/1999/xlink" width="22" height="22" viewBox="0 0 22 22">
  <path fill-rule="nonzero" fill="#b4befe" fill-opacity="1" d="M 5.5 2.75 L 16.5 2.75 C 18.058594 2.75 19.25 3.941406 19.25 5.5 L 19.25 16.5 C 19.25 18.058594 18.058594 19.25 16.5 19.25 L 5.5 19.25 C 3.941406 19.25 2.75 18.058594 2.75 16.5 L 2.75 5.5 C 2.75 3.941406 3.941406 2.75 5.5 2.75 Z M 5.5 2.75 "/>
  <path fill-rule="nonzero" fill="#11111b" fill-opacity="1" d="M 7.609375 5.226562 L 6.785156 5.957031 L 7.976562 7.148438 C 7.882812 7.425781 7.882812 7.699219 7.882812 7.882812 C 7.882812 8.523438 8.25 9.074219 8.890625 9.351562 L 8.890625 13.75 C 8.25 13.933594 7.882812 14.574219 7.882812 15.214844 C 7.882812 16.042969 8.617188 16.773438 9.441406 16.773438 C 10.265625 16.773438 11 16.042969 11 15.214844 C 11 14.574219 10.632812 14.023438 9.992188 13.75 L 9.992188 9.351562 C 10.082031 9.351562 10.082031 9.257812 10.082031 9.257812 L 12.191406 11.367188 C 12.101562 11.550781 12.101562 11.824219 12.101562 12.007812 C 12.101562 12.832031 12.832031 13.566406 13.660156 13.566406 C 14.484375 13.566406 15.214844 12.832031 15.214844 12.007812 C 15.214844 11.183594 14.484375 10.449219 13.660156 10.449219 C 13.382812 10.449219 13.199219 10.542969 13.015625 10.542969 L 10.910156 8.433594 C 11 8.339844 11 8.066406 11 7.882812 C 11 7.058594 10.265625 6.324219 9.441406 6.324219 C 9.167969 6.324219 8.984375 6.417969 8.800781 6.417969 Z M 7.609375 5.226562 "/>
</svg>