<?xml version="1.0" encoding="UTF-8" standalone="yes"?>
<svg xmlns="http://www.w3.org/2000/svg" xmlns:xlink="http://www.w3.org/1999/xlink" width="22" height="22" viewBox="0 0 22 22">
  <path fill-rule="nonzero" fill="#b4befe" fill-opacity="1" d="M 5.5 2.75 L 16.5 2.75 C 18.058594 2.75 19.25 3.941406 19.25 5.5 L 19.25 16.5 C 19.25 18.058594 18.058594 19.25 16.5 19.25 L 5.5 19.25 C 3.941406 19.25 2.75 18.058594 2.75 16.5 L 2.75 5.5 C 2.75 3.941406 3.941406 2.75 5.5 2.75 Z M 5.5 2.75 "/>
  <path fill-rule="nonzero" fill="#11111b" fill-opacity="1" d="M 8.160156 7.609375 C 6.324219 7.609375 4.765625 9.074219 4.765625 11 C 4.765625 12.925781 6.324219 14.390625 8.160156 14.390625 C 9.625 14.390625 10.910156 13.476562 11.367188 12.101562 L 13.839844 12.101562 L 13.839844 13.292969 L 16.132812 13.292969 L 16.132812 12.101562 L 17.324219 12.101562 L 17.324219 9.808594 L 11.457031 9.808594 C 10.816406 8.523438 9.625 7.609375 8.160156 7.609375 Z M 8.160156 9.808594 C 8.800781 9.808594 9.351562 10.265625 9.351562 11 C 9.351562 11.640625 8.890625 12.191406 8.160156 12.191406 C 7.515625 12.191406 6.964844 11.734375 6.964844 11 C 6.964844 10.359375 7.515625 9.808594 8.160156 9.808594 Z M 8.160156 9.808594 "/>
</svg>