<?xml version="1.0" encoding="UTF-8" standalone="yes"?>
<svg xmlns="http://www.w3.org/2000/svg" xmlns:xlink="http://www.w3.org/1999/xlink" width="22" height="22" viewBox="0 0 22 22">
  <path fill-rule="nonzero" fill="#b4befe" fill-opacity="1" d="M 5.5 2.75 L 16.5 2.75 C 18.058594 2.75 19.25 3.941406 19.25 5.5 L 19.25 16.5 C 19.25 18.058594 18.058594 19.25 16.5 19.25 L 5.5 19.25 C 3.941406 19.25 2.75 18.058594 2.75 16.5 L 2.75 5.5 C 2.75 3.941406 3.941406 2.75 5.5 2.75 Z M 5.5 2.75 "/>
  <path fill-rule="nonzero" fill="#11111b" fill-opacity="1" d="M 5.410156 4.765625 C 5.042969 4.765625 4.765625 5.226562 4.765625 5.773438 L 4.765625 6.417969 L 15.949219 17.234375 L 16.589844 17.234375 C 16.957031 17.234375 17.234375 16.773438 17.234375 16.226562 L 17.234375 15.949219 L 5.683594 4.765625 Z M 7.792969 4.765625 L 17.234375 13.839844 L 17.234375 11.273438 L 10.542969 4.859375 L 7.792969 4.859375 Z M 12.742188 4.765625 L 17.324219 9.167969 L 17.324219 6.507812 L 15.492188 4.765625 Z M 4.765625 8.523438 L 4.765625 11.089844 L 11.089844 17.140625 L 13.839844 17.140625 Z M 4.765625 13.199219 L 4.765625 15.765625 L 6.234375 17.140625 L 8.984375 17.140625 Z M 4.765625 13.199219 "/>
</svg>