<?xml version="1.0" encoding="UTF-8" standalone="yes"?>
<svg xmlns="http://www.w3.org/2000/svg" xmlns:xlink="http://www.w3.org/1999/xlink" width="22" height="22" viewBox="0 0 22 22">
  <path fill-rule="nonzero" fill="#b4befe" fill-opacity="1" d="M 5.5 2.75 L 16.5 2.75 C 18.058594 2.75 19.25 3.941406 19.25 5.5 L 19.25 16.5 C 19.25 18.058594 18.058594 19.25 16.5 19.25 L 5.5 19.25 C 3.941406 19.25 2.75 18.058594 2.75 16.5 L 2.75 5.5 C 2.75 3.941406 3.941406 2.75 5.5 2.75 Z M 5.5 2.75 "/>
  <path fill-rule="nonzero" fill="#11111b" fill-opacity="1" d="M 7.976562 5.773438 L 7.976562 7.882812 L 14.207031 7.882812 L 14.207031 5.773438 Z M 6.601562 8.890625 C 6.234375 8.890625 5.867188 9.257812 5.867188 9.625 L 5.867188 12.285156 C 5.867188 12.648438 6.234375 13.015625 6.601562 13.015625 L 7.882812 13.015625 L 7.882812 16.132812 L 14.117188 16.132812 L 14.117188 13.015625 L 15.398438 13.015625 C 15.765625 13.015625 16.132812 12.648438 16.132812 12.285156 L 16.132812 9.625 C 16.132812 9.257812 15.765625 8.890625 15.398438 8.890625 Z M 7.976562 11 L 14.207031 11 L 14.207031 12.007812 L 7.976562 12.007812 Z M 7.976562 11 "/>
</svg>