<?xml version="1.0" encoding="UTF-8" standalone="yes"?>
<svg xmlns="http://www.w3.org/2000/svg" xmlns:xlink="http://www.w3.org/1999/xlink" width="22" height="22" viewBox="0 0 22 22">
  <path fill-rule="nonzero" fill="#b4befe" fill-opacity="1" d="M 5.5 2.75 L 16.5 2.75 C 18.058594 2.75 19.25 3.941406 19.25 5.5 L 19.25 16.5 C 19.25 18.058594 18.058594 19.25 16.5 19.25 L 5.5 19.25 C 3.941406 19.25 2.75 18.058594 2.75 16.5 L 2.75 5.5 C 2.75 3.941406 3.941406 2.75 5.5 2.75 Z M 5.5 2.75 "/>
  <path fill-rule="nonzero" fill="#11111b" fill-opacity="1" d="M 10.542969 5.957031 C 8.707031 5.957031 7.148438 7.242188 6.601562 9.074219 C 5.410156 9.714844 4.675781 10.910156 4.675781 12.375 C 4.675781 14.390625 6.140625 16.042969 8.066406 16.042969 C 8.890625 16.042969 9.714844 15.765625 10.265625 15.035156 C 10.359375 15.035156 10.449219 15.035156 10.542969 15.035156 C 11.183594 15.035156 11.734375 14.851562 12.375 14.574219 C 12.925781 14.851562 13.382812 15.035156 13.933594 15.035156 C 15.765625 15.035156 17.324219 13.382812 17.324219 11.367188 C 17.324219 9.351562 15.859375 7.699219 13.933594 7.699219 C 13.199219 6.601562 11.917969 5.957031 10.542969 5.957031 Z M 10.542969 5.957031 "/>
</svg>