<?xml version="1.0" encoding="UTF-8" standalone="yes"?>
<svg xmlns="http://www.w3.org/2000/svg" xmlns:xlink="http://www.w3.org/1999/xlink" width="22" height="22" viewBox="0 0 22 22">
  <path fill-rule="nonzero" fill="#b4befe" fill-opacity="1" d="M 5.5 2.75 L 16.5 2.75 C 18.058594 2.75 19.25 3.941406 19.25 5.5 L 19.25 16.5 C 19.25 18.058594 18.058594 19.25 16.5 19.25 L 5.5 19.25 C 3.941406 19.25 2.75 18.058594 2.75 16.5 L 2.75 5.5 C 2.75 3.941406 3.941406 2.75 5.5 2.75 Z M 5.5 2.75 "/>
  <path fill-rule="nonzero" fill="#11111b" fill-opacity="1" d="M 11 5.316406 C 9.074219 5.316406 7.609375 6.785156 7.609375 8.707031 L 7.609375 9.808594 L 7.058594 9.808594 C 6.785156 9.808594 6.417969 10.082031 6.417969 10.449219 L 6.417969 16.132812 C 6.417969 16.410156 6.601562 16.773438 7.058594 16.773438 L 14.941406 16.773438 C 15.214844 16.773438 15.582031 16.589844 15.582031 16.132812 L 15.582031 10.449219 C 15.582031 10.175781 15.398438 9.808594 14.941406 9.808594 L 14.300781 9.808594 L 14.300781 8.707031 C 14.390625 6.785156 12.925781 5.316406 11 5.316406 Z M 11 6.417969 C 12.285156 6.417969 13.292969 7.425781 13.292969 8.707031 L 13.292969 9.808594 L 8.800781 9.808594 L 8.800781 8.707031 C 8.800781 7.425781 9.714844 6.417969 11 6.417969 Z M 11 6.417969 "/>
</svg>