<?xml version="1.0" encoding="UTF-8" standalone="yes"?>
<svg xmlns="http://www.w3.org/2000/svg" xmlns:xlink="http://www.w3.org/1999/xlink" width="22" height="22" viewBox="0 0 22 22">
  <path fill-rule="nonzero" fill="#b4befe" fill-opacity="1" d="M 5.5 2.75 L 16.5 2.75 C 18.058594 2.75 19.25 3.941406 19.25 5.5 L 19.25 16.5 C 19.25 18.058594 18.058594 19.25 16.5 19.25 L 5.5 19.25 C 3.941406 19.25 2.75 18.058594 2.75 16.5 L 2.75 5.5 C 2.75 3.941406 3.941406 2.75 5.5 2.75 Z M 5.5 2.75 "/>
  <path fill-rule="nonzero" fill="#11111b" fill-opacity="1" d="M 13.292969 5.226562 C 12.742188 5.226562 12.007812 5.5 11.550781 5.957031 C 11.183594 6.324219 10.816406 6.964844 10.910156 7.515625 C 11.550781 7.609375 12.191406 7.148438 12.648438 6.785156 C 13.015625 6.417969 13.382812 5.773438 13.292969 5.226562 Z M 12.925781 7.515625 C 12.191406 7.609375 11.457031 8.066406 11.089844 8.066406 C 10.632812 8.066406 9.992188 7.515625 9.257812 7.515625 C 8.25 7.515625 7.425781 8.066406 6.875 9.074219 C 5.867188 10.910156 6.601562 13.75 7.609375 15.214844 C 8.066406 15.949219 8.617188 16.773438 9.351562 16.773438 C 10.082031 16.773438 10.359375 16.316406 11.183594 16.316406 C 12.007812 16.316406 12.285156 16.773438 13.015625 16.773438 C 13.839844 16.773438 14.300781 15.949219 14.757812 15.214844 C 15.308594 14.300781 15.582031 13.566406 15.582031 13.476562 C 15.582031 13.476562 14.023438 12.832031 14.023438 11 C 14.023438 9.441406 15.214844 8.707031 15.214844 8.617188 C 14.574219 7.609375 13.476562 7.425781 13.109375 7.425781 C 13.109375 7.515625 12.925781 7.515625 12.925781 7.515625 Z M 12.925781 7.515625 "/>
</svg>