<?xml version="1.0" encoding="UTF-8" standalone="yes"?>
<svg xmlns="http://www.w3.org/2000/svg" xmlns:xlink="http://www.w3.org/1999/xlink" width="22" height="22" viewBox="0 0 22 22">
  <path fill-rule="nonzero" fill="#b4befe" fill-opacity="1" d="M 5.5 2.75 L 16.5 2.75 C 18.058594 2.75 19.25 3.941406 19.25 5.5 L 19.25 16.5 C 19.25 18.058594 18.058594 19.25 16.5 19.25 L 5.5 19.25 C 3.941406 19.25 2.75 18.058594 2.75 16.5 L 2.75 5.5 C 2.75 3.941406 3.941406 2.75 5.5 2.75 Z M 5.5 2.75 "/>
  <path fill-rule="nonzero" fill="#11111b" fill-opacity="1" d="M 11 4.949219 C 7.609375 4.949219 4.949219 7.609375 4.949219 11 C 4.949219 14.390625 7.609375 17.050781 11 17.050781 C 14.390625 17.050781 17.050781 14.390625 17.050781 11 C 17.050781 7.609375 14.390625 4.949219 11 4.949219 Z M 7.976562 7.976562 L 9.992188 7.976562 L 11 8.984375 L 12.007812 7.976562 L 14.023438 7.976562 L 14.023438 14.023438 L 12.007812 14.023438 L 12.007812 11 L 11 12.007812 L 9.992188 11 L 9.992188 14.023438 L 7.976562 14.023438 Z M 7.976562 7.976562 "/>
</svg>