<?xml version="1.0" encoding="UTF-8" standalone="yes"?>
<svg xmlns="http://www.w3.org/2000/svg" xmlns:xlink="http://www.w3.org/1999/xlink" width="22" height="22" viewBox="0 0 22 22">
  <path fill-rule="nonzero" fill="#b4befe" fill-opacity="1" d="M 5.5 2.75 L 16.5 2.75 C 18.058594 2.75 19.25 3.941406 19.25 5.5 L 19.25 16.5 C 19.25 18.058594 18.058594 19.25 16.5 19.25 L 5.5 19.25 C 3.941406 19.25 2.75 18.058594 2.75 16.5 L 2.75 5.5 C 2.75 3.941406 3.941406 2.75 5.5 2.75 Z M 5.5 2.75 "/>
  <path fill-rule="nonzero" fill="#b4befe" fill-opacity="1" stroke-width="0.375" stroke-linecap="butt" stroke-linejoin="miter" stroke="#11111b" stroke-opacity="1" stroke-miterlimit="3.75" d="M 16.201705 11.301136 C 16.201705 12.49858 15.200284 13.5 13.99858 13.5 C 12.801136 13.5 11.799716 12.49858 11.799716 11.301136 C 11.799716 10.099432 12.801136 9.098011 13.99858 9.098011 C 15.200284 9.098011 16.201705 10.00142 16.201705 11.301136 Z M 16.201705 11.301136 " transform="matrix(0.916667, 0, 0, 0.916667, 0, 0)"/>
  <path fill-rule="nonzero" fill="#b4befe" fill-opacity="1" stroke-width="0.375" stroke-linecap="butt" stroke-linejoin="miter" stroke="#11111b" stroke-opacity="1" stroke-miterlimit="3.75" d="M 19.700284 15.298295 C 19.700284 16.00142 19.099432 16.598011 18.400568 16.598011 C 17.701705 16.598011 17.100852 16.00142 17.100852 15.298295 C 17.100852 14.599432 17.701705 13.99858 18.400568 13.99858 C 19.099432 13.99858 19.700284 14.599432 19.700284 15.298295 Z M 19.700284 15.298295 " transform="matrix(0.916667, 0, 0, 0.916667, 0, 0)"/>
  <path fill-rule="nonzero" fill="#b4befe" fill-opacity="1" stroke-width="0.375" stroke-linecap="butt" stroke-linejoin="miter" stroke="#11111b" stroke-opacity="1" stroke-miterlimit="3.75" d="M 18.200284 13.99858 C 18.200284 15.400568 17.100852 16.5 15.698864 16.5 C 14.301136 16.5 13.201705 15.400568 13.201705 13.99858 C 13.201705 12.600852 14.301136 11.50142 15.698864 11.50142 C 17.100852 11.50142 18.200284 12.600852 18.200284 13.99858 Z M 18.200284 13.99858 " transform="matrix(0.916667, 0, 0, 0.916667, 0, 0)"/>
  <path fill-rule="nonzero" fill="#b4befe" fill-opacity="1" stroke-width="0.375" stroke-linecap="butt" stroke-linejoin="miter" stroke="#11111b" stroke-opacity="1" stroke-miterlimit="3.75" d="M 8.701705 14.198864 C 8.701705 15.400568 7.700284 16.401989 6.49858 16.401989 C 5.301136 16.401989 4.299716 15.400568 4.299716 14.198864 C 4.299716 13.00142 5.301136 12 6.49858 12 C 7.798295 12 8.701705 13.00142 8.701705 14.198864 Z M 8.701705 14.198864 " transform="matrix(0.916667, 0, 0, 0.916667, 0, 0)"/>
  <path fill-rule="nonzero" fill="#b4befe" fill-opacity="1" stroke-width="0.375" stroke-linecap="butt" stroke-linejoin="miter" stroke="#11111b" stroke-opacity="1" stroke-miterlimit="3.75" d="M 10.201705 9.49858 C 10.201705 10.299716 9.49858 10.99858 8.701705 10.99858 C 7.900568 10.99858 7.201705 10.299716 7.201705 9.49858 C 7.299716 8.701705 7.900568 7.99858 8.701705 7.99858 C 9.49858 7.99858 10.201705 8.701705 10.201705 9.49858 Z M 10.201705 9.49858 " transform="matrix(0.916667, 0, 0, 0.916667, 0, 0)"/>
  <path fill-rule="nonzero" fill="#b4befe" fill-opacity="1" stroke-width="0.375" stroke-linecap="butt" stroke-linejoin="miter" stroke="#11111b" stroke-opacity="1" stroke-miterlimit="3.75" d="M 11.701705 12.298295 C 11.701705 13.798295 10.5 15 9 15 C 7.5 15 6.298295 13.798295 6.298295 12.298295 C 6.298295 10.798295 7.5 9.600852 9 9.600852 C 10.5 9.49858 11.701705 10.798295 11.701705 12.298295 Z M 11.701705 12.298295 " transform="matrix(0.916667, 0, 0, 0.916667, 0, 0)"/>
  <path fill-rule="nonzero" fill="#b4befe" fill-opacity="1" stroke-width="0.375" stroke-linecap="butt" stroke-linejoin="miter" stroke="#11111b" stroke-opacity="1" stroke-miterlimit="3.75" d="M 10.00142 15.298295 C 10.00142 16.00142 9.400568 16.598011 8.701705 16.598011 C 7.99858 16.598011 7.401989 16.00142 7.401989 15.298295 C 7.401989 14.599432 7.99858 13.99858 8.701705 13.99858 C 9.400568 13.99858 10.00142 14.599432 10.00142 15.298295 Z M 10.00142 15.298295 " transform="matrix(0.916667, 0, 0, 0.916667, 0, 0)"/>
  <path fill-rule="nonzero" fill="#b4befe" fill-opacity="1" stroke-width="0.375" stroke-linecap="butt" stroke-linejoin="miter" stroke="#11111b" stroke-opacity="1" stroke-miterlimit="3.75" d="M 13.798295 10.00142 C 13.798295 11.399148 12.698864 12.49858 11.301136 12.49858 C 9.899148 12.49858 8.799716 11.399148 8.799716 10.00142 C 8.799716 8.599432 9.899148 7.5 11.301136 7.5 C 12.600852 7.5 13.798295 8.599432 13.798295 10.00142 Z M 13.798295 10.00142 " transform="matrix(0.916667, 0, 0, 0.916667, 0, 0)"/>
  <path fill-rule="nonzero" fill="#b4befe" fill-opacity="1" stroke-width="0.375" stroke-linecap="butt" stroke-linejoin="miter" stroke="#11111b" stroke-opacity="1" stroke-miterlimit="3.75" d="M 15.200284 13.201705 C 15.200284 15 13.798295 16.401989 12 16.401989 C 10.201705 16.401989 8.799716 15 8.799716 13.201705 C 8.799716 11.399148 10.201705 10.00142 12 10.00142 C 13.700284 10.00142 15.200284 11.399148 15.200284 13.201705 Z M 15.200284 13.201705 " transform="matrix(0.916667, 0, 0, 0.916667, 0, 0)"/>
</svg>