<?xml version="1.0" encoding="UTF-8" standalone="yes"?>
<svg xmlns="http://www.w3.org/2000/svg" xmlns:xlink="http://www.w3.org/1999/xlink" width="22" height="22" viewBox="0 0 22 22">
  <path fill-rule="nonzero" fill="#b4befe" fill-opacity="1" d="M 5.5 2.75 L 16.5 2.75 C 18.058594 2.75 19.25 3.941406 19.25 5.5 L 19.25 16.5 C 19.25 18.058594 18.058594 19.25 16.5 19.25 L 5.5 19.25 C 3.941406 19.25 2.75 18.058594 2.75 16.5 L 2.75 5.5 C 2.75 3.941406 3.941406 2.75 5.5 2.75 Z M 5.5 2.75 "/>
  <path fill-rule="nonzero" fill="#11111b" fill-opacity="1" d="M 8.25 5.410156 L 4.675781 7.515625 L 7.425781 9.625 L 4.675781 11.734375 L 8.25 13.75 L 11 11.640625 L 7.515625 9.535156 L 11 7.515625 L 14.484375 9.625 L 11 11.734375 L 13.75 13.839844 L 17.234375 11.734375 L 14.484375 9.625 L 17.234375 7.515625 L 13.75 5.410156 L 11 7.515625 Z M 11 12.375 L 8.25 14.484375 L 7.515625 14.023438 L 7.515625 14.484375 L 11 16.589844 L 14.484375 14.484375 L 14.484375 14.023438 L 13.75 14.484375 Z M 11 12.375 "/>
</svg>