<?xml version="1.0" encoding="UTF-8" standalone="yes"?>
<svg xmlns="http://www.w3.org/2000/svg" xmlns:xlink="http://www.w3.org/1999/xlink" width="22" height="22" viewBox="0 0 22 22">
  <path fill-rule="nonzero" fill="rgb(23.921569%, 86.666667%, 84.705883%)" fill-opacity="1" d="M 5.5 2.75 L 16.5 2.75 C 18.019531 2.75 19.25 3.980469 19.25 5.5 L 19.25 16.5 C 19.25 18.019531 18.019531 19.25 16.5 19.25 L 5.5 19.25 C 3.980469 19.25 2.75 18.019531 2.75 16.5 L 2.75 5.5 C 2.75 3.980469 3.980469 2.75 5.5 2.75 Z M 5.5 2.75 "/>
  <path fill-rule="evenodd" fill="#11111b" fill-opacity="1" d="M 5.867188 10.679688 C 5.867188 11.273438 6.101562 11.847656 6.523438 12.265625 C 6.945312 12.6875 7.515625 12.925781 8.113281 12.925781 L 10.359375 12.925781 L 10.359375 14.585938 L 9.527344 13.753906 C 9.40625 13.636719 9.246094 13.574219 9.078125 13.574219 C 8.910156 13.574219 8.75 13.644531 8.628906 13.761719 C 8.511719 13.882812 8.441406 14.042969 8.441406 14.210938 C 8.441406 14.378906 8.503906 14.539062 8.621094 14.660156 L 10.546875 16.585938 C 10.667969 16.707031 10.828125 16.773438 11 16.773438 C 11.171875 16.773438 11.332031 16.707031 11.453125 16.585938 L 13.378906 14.660156 C 13.496094 14.539062 13.558594 14.378906 13.558594 14.210938 C 13.558594 14.042969 13.488281 13.882812 13.371094 13.761719 C 13.25 13.644531 13.089844 13.574219 12.921875 13.574219 C 12.753906 13.574219 12.59375 13.636719 12.472656 13.753906 L 11.640625 14.585938 L 11.640625 12.925781 L 13.246094 12.925781 C 13.640625 12.925781 14.03125 12.84375 14.394531 12.683594 C 14.757812 12.527344 15.085938 12.296875 15.355469 12.007812 C 15.625 11.71875 15.832031 11.375 15.964844 11.003906 C 16.097656 10.628906 16.152344 10.234375 16.125 9.839844 C 16.097656 9.445312 15.988281 9.058594 15.808594 8.707031 C 15.625 8.355469 15.371094 8.046875 15.066406 7.796875 C 14.757812 7.546875 14.402344 7.363281 14.023438 7.257812 C 13.640625 7.148438 13.242188 7.121094 12.851562 7.175781 C 12.773438 6.84375 12.632812 6.527344 12.433594 6.246094 C 12.234375 5.96875 11.980469 5.734375 11.6875 5.554688 C 11.394531 5.375 11.070312 5.257812 10.730469 5.203125 C 10.390625 5.152344 10.042969 5.171875 9.710938 5.257812 C 9.378906 5.339844 9.066406 5.492188 8.792969 5.699219 C 8.519531 5.90625 8.292969 6.164062 8.121094 6.464844 C 7.949219 6.761719 7.839844 7.089844 7.796875 7.429688 C 7.753906 7.769531 7.78125 8.117188 7.875 8.445312 C 7.324219 8.503906 6.8125 8.765625 6.441406 9.175781 C 6.070312 9.589844 5.867188 10.125 5.867188 10.679688 Z M 11.640625 12.925781 L 10.359375 12.925781 L 10.359375 9.714844 C 10.359375 9.546875 10.425781 9.382812 10.546875 9.261719 C 10.667969 9.144531 10.828125 9.074219 11 9.074219 C 11.171875 9.074219 11.332031 9.144531 11.453125 9.261719 C 11.574219 9.382812 11.640625 9.546875 11.640625 9.714844 Z M 11.640625 12.925781 "/>
</svg>