<?xml version="1.0" encoding="UTF-8" standalone="yes"?>
<svg xmlns="http://www.w3.org/2000/svg" xmlns:xlink="http://www.w3.org/1999/xlink" width="22" height="22" viewBox="0 0 22 22">
  <path fill-rule="nonzero" fill="#b4befe" fill-opacity="1" d="M 5.5 2.75 L 16.5 2.75 C 18.058594 2.75 19.25 3.941406 19.25 5.5 L 19.25 16.5 C 19.25 18.058594 18.058594 19.25 16.5 19.25 L 5.5 19.25 C 3.941406 19.25 2.75 18.058594 2.75 16.5 L 2.75 5.5 C 2.75 3.941406 3.941406 2.75 5.5 2.75 Z M 5.5 2.75 "/>
  <path fill-rule="nonzero" fill="#11111b" fill-opacity="1" d="M 12.285156 6.785156 C 11 6.785156 9.898438 7.425781 9.351562 8.617188 C 9.074219 8.523438 8.800781 8.523438 8.523438 8.523438 C 7.425781 8.523438 6.601562 9.257812 6.417969 10.359375 C 5.410156 10.726562 4.765625 11.640625 4.765625 12.742188 C 4.765625 14.117188 5.957031 15.214844 7.242188 15.214844 L 14.851562 15.214844 C 16.226562 15.214844 17.324219 14.023438 17.324219 12.742188 C 17.324219 11.640625 16.683594 10.726562 15.675781 10.359375 C 15.675781 10.265625 15.675781 10.265625 15.675781 10.265625 C 15.582031 8.339844 14.117188 6.785156 12.285156 6.785156 Z M 12.285156 8.890625 C 13.015625 8.890625 13.566406 9.441406 13.566406 10.175781 C 13.476562 11.089844 14.117188 12.007812 14.941406 12.285156 C 15.125 12.375 15.214844 12.464844 15.214844 12.648438 C 15.214844 12.925781 15.125 13.015625 14.851562 13.015625 L 7.242188 13.015625 C 6.964844 13.015625 6.875 12.925781 6.875 12.648438 C 6.875 12.464844 6.964844 12.285156 7.148438 12.285156 C 7.882812 12.007812 8.433594 11.367188 8.523438 10.632812 C 9.535156 11 10.726562 10.632812 11.183594 9.625 C 11.367188 9.167969 11.824219 8.890625 12.285156 8.890625 Z M 12.285156 8.890625 "/>
</svg>