<?xml version="1.0" encoding="UTF-8" standalone="yes"?>
<svg xmlns="http://www.w3.org/2000/svg" xmlns:xlink="http://www.w3.org/1999/xlink" width="22" height="22" viewBox="0 0 22 22">
  <path fill-rule="nonzero" fill="#b4befe" fill-opacity="1" d="M 5.5 2.75 L 16.5 2.75 C 18.058594 2.75 19.25 3.941406 19.25 5.5 L 19.25 16.5 C 19.25 18.058594 18.058594 19.25 16.5 19.25 L 5.5 19.25 C 3.941406 19.25 2.75 18.058594 2.75 16.5 L 2.75 5.5 C 2.75 3.941406 3.941406 2.75 5.5 2.75 Z M 5.5 2.75 "/>
  <path fill-rule="nonzero" fill="#11111b" fill-opacity="1" d="M 9.535156 5.683594 C 6.964844 5.683594 4.859375 7.792969 4.859375 10.359375 C 4.859375 12.925781 6.964844 15.035156 9.535156 15.035156 L 19.25 15.035156 L 19.25 14.207031 L 9.535156 14.207031 C 7.332031 14.207031 5.589844 12.464844 5.589844 10.265625 C 5.589844 8.066406 7.332031 6.507812 9.535156 6.507812 Z M 9.535156 6.875 C 7.609375 6.875 5.957031 8.433594 5.957031 10.449219 C 5.957031 12.464844 7.515625 14.023438 9.535156 14.023438 L 19.25 14.023438 L 19.25 13.199219 L 9.535156 13.199219 C 7.976562 13.199219 6.785156 12.007812 6.785156 10.449219 C 6.785156 8.890625 7.976562 7.699219 9.535156 7.699219 C 9.992188 7.699219 10.359375 7.792969 10.726562 7.976562 L 10.726562 7.058594 C 10.265625 6.964844 9.898438 6.875 9.535156 6.875 Z M 9.535156 8.066406 C 8.25 8.066406 7.242188 9.074219 7.242188 10.359375 C 7.242188 11.640625 8.25 12.648438 9.535156 12.648438 L 19.25 12.648438 L 19.25 11.824219 L 9.535156 11.824219 C 8.707031 11.824219 7.976562 11.089844 7.976562 10.265625 C 7.976562 9.441406 8.707031 8.707031 9.535156 8.707031 C 10.082031 8.707031 10.632812 8.984375 10.910156 9.535156 L 11.824219 9.535156 C 11.367188 8.707031 10.542969 8.066406 9.535156 8.066406 Z M 9.535156 8.066406 "/>
</svg>