<?xml version="1.0" encoding="UTF-8" standalone="yes"?>
<svg xmlns="http://www.w3.org/2000/svg" xmlns:xlink="http://www.w3.org/1999/xlink" width="22" height="22" viewBox="0 0 22 22">
  <path fill-rule="nonzero" fill="#b4befe" fill-opacity="1" d="M 5.5 2.75 L 16.5 2.75 C 18.058594 2.75 19.25 3.941406 19.25 5.5 L 19.25 16.5 C 19.25 18.058594 18.058594 19.25 16.5 19.25 L 5.5 19.25 C 3.941406 19.25 2.75 18.058594 2.75 16.5 L 2.75 5.5 C 2.75 3.941406 3.941406 2.75 5.5 2.75 Z M 5.5 2.75 "/>
  <path fill-rule="nonzero" fill="#11111b" fill-opacity="1" d="M 14.207031 5.683594 C 12.191406 5.683594 11.824219 8.800781 12.925781 8.800781 C 14.023438 8.800781 16.226562 5.683594 14.207031 5.683594 Z M 11.089844 6.234375 C 11.089844 6.234375 11 6.234375 11 6.234375 C 9.808594 6.324219 10.265625 8.339844 10.910156 8.339844 C 11.367188 8.339844 12.007812 6.234375 11.089844 6.234375 Z M 9.074219 6.964844 C 8.984375 6.964844 8.984375 6.964844 8.800781 7.058594 C 7.882812 7.425781 8.707031 8.984375 9.167969 8.984375 C 9.625 8.800781 9.714844 6.964844 9.074219 6.964844 Z M 7.515625 8.25 C 7.425781 8.25 7.332031 8.25 7.242188 8.339844 C 6.507812 8.890625 7.515625 10.265625 7.976562 9.992188 C 8.339844 9.808594 8.066406 8.25 7.515625 8.25 Z M 11.917969 9.535156 C 10.265625 9.535156 8.160156 10.265625 7.792969 12.007812 C 7.425781 13.75 9.441406 16.316406 11.457031 16.316406 C 12.464844 16.316406 13.660156 15.308594 13.933594 14.207031 C 14.117188 13.292969 11.917969 13.660156 12.007812 14.300781 C 12.101562 15.035156 11.457031 15.398438 10.910156 14.851562 C 8.984375 13.382812 14.117188 12.648438 13.75 10.542969 C 13.660156 9.898438 12.832031 9.535156 11.917969 9.535156 Z M 11.917969 9.535156 "/>
</svg>