<?xml version="1.0" encoding="UTF-8" standalone="yes"?>
<svg xmlns="http://www.w3.org/2000/svg" xmlns:xlink="http://www.w3.org/1999/xlink" width="22" height="22" viewBox="0 0 22 22">
  <path fill-rule="nonzero" fill="#b4befe" fill-opacity="1" d="M 5.5 2.75 L 16.5 2.75 C 18.058594 2.75 19.25 3.941406 19.25 5.5 L 19.25 16.5 C 19.25 18.058594 18.058594 19.25 16.5 19.25 L 5.5 19.25 C 3.941406 19.25 2.75 18.058594 2.75 16.5 L 2.75 5.5 C 2.75 3.941406 3.941406 2.75 5.5 2.75 Z M 5.5 2.75 "/>
  <path fill-rule="nonzero" fill="#11111b" fill-opacity="1" d="M 6.417969 7.515625 C 6.140625 7.515625 5.867188 7.792969 5.867188 8.066406 C 5.867188 8.25 5.957031 8.25 6.050781 8.339844 L 7.148438 10.082031 C 6.140625 11 5.410156 12.375 5.226562 13.839844 C 5.226562 14.390625 5.773438 14.390625 5.773438 14.390625 L 16.042969 14.390625 C 16.042969 14.390625 16.589844 14.390625 16.589844 13.839844 C 16.410156 12.375 15.675781 11.089844 14.667969 10.175781 L 15.949219 8.523438 C 16.132812 8.339844 16.132812 7.976562 15.765625 7.699219 C 15.675781 7.609375 15.582031 7.515625 15.398438 7.515625 C 15.214844 7.515625 15.035156 7.609375 14.941406 7.699219 L 13.75 9.441406 C 12.832031 8.890625 11.917969 8.617188 10.816406 8.617188 C 9.808594 8.617188 8.800781 8.890625 7.882812 9.441406 L 6.785156 7.882812 C 6.785156 7.609375 6.601562 7.515625 6.417969 7.515625 Z M 6.417969 7.515625 "/>
</svg>