<?xml version="1.0" encoding="UTF-8" standalone="yes"?>
<svg xmlns="http://www.w3.org/2000/svg" xmlns:xlink="http://www.w3.org/1999/xlink" width="22" height="22" viewBox="0 0 22 22">
  <path fill-rule="nonzero" fill="#b4befe" fill-opacity="1" d="M 5.5 2.75 L 16.5 2.75 C 18.058594 2.75 19.25 3.941406 19.25 5.5 L 19.25 16.5 C 19.25 18.058594 18.058594 19.25 16.5 19.25 L 5.5 19.25 C 3.941406 19.25 2.75 18.058594 2.75 16.5 L 2.75 5.5 C 2.75 3.941406 3.941406 2.75 5.5 2.75 Z M 5.5 2.75 "/>
  <path fill-rule="nonzero" fill="#11111b" fill-opacity="1" d="M 9.441406 4.949219 L 9.257812 6.507812 C 8.707031 6.691406 8.339844 6.964844 7.882812 7.332031 L 6.507812 6.691406 L 4.949219 9.257812 L 6.234375 10.082031 C 6.140625 10.359375 6.140625 10.632812 6.140625 10.910156 C 6.140625 11.183594 6.140625 11.457031 6.234375 11.734375 L 4.949219 12.558594 L 6.507812 15.125 L 7.976562 14.667969 C 8.433594 15.035156 8.800781 15.214844 9.351562 15.492188 L 9.535156 17.050781 L 12.558594 17.050781 L 12.742188 15.492188 C 13.292969 15.308594 13.660156 15.035156 14.117188 14.667969 L 15.582031 15.308594 L 17.140625 12.742188 L 15.859375 11.917969 C 15.949219 11.640625 15.949219 11.367188 15.949219 11.089844 C 15.949219 10.816406 15.949219 10.542969 15.859375 10.265625 L 17.140625 9.441406 L 15.582031 6.875 L 14.117188 7.515625 C 13.660156 7.148438 13.292969 6.964844 12.742188 6.691406 L 12.558594 5.132812 L 9.441406 5.132812 Z M 11 8.523438 C 12.285156 8.523438 13.382812 9.625 13.382812 10.910156 C 13.382812 12.191406 12.285156 13.292969 11 13.292969 C 9.714844 13.292969 8.617188 12.191406 8.617188 10.910156 C 8.617188 9.625 9.714844 8.523438 11 8.523438 Z M 11 8.523438 "/>
</svg>