<?xml version="1.0" encoding="UTF-8" standalone="yes"?>
<svg xmlns="http://www.w3.org/2000/svg" xmlns:xlink="http://www.w3.org/1999/xlink" width="22" height="22" viewBox="0 0 22 22">
  <path fill-rule="nonzero" fill="#b4befe" fill-opacity="1" d="M 5.5 2.75 L 16.5 2.75 C 18.058594 2.75 19.25 3.941406 19.25 5.5 L 19.25 16.5 C 19.25 18.058594 18.058594 19.25 16.5 19.25 L 5.5 19.25 C 3.941406 19.25 2.75 18.058594 2.75 16.5 L 2.75 5.5 C 2.75 3.941406 3.941406 2.75 5.5 2.75 Z M 5.5 2.75 "/>
  <path fill-rule="nonzero" fill="#11111b" fill-opacity="1" d="M 11 8.160156 C 9.714844 8.160156 8.800781 9.074219 8.800781 10.359375 L 8.800781 14.757812 C 8.800781 16.042969 9.714844 16.957031 11 16.957031 C 12.285156 16.957031 13.199219 16.042969 13.199219 14.757812 L 13.199219 10.359375 C 13.199219 9.167969 12.191406 8.160156 11 8.160156 Z M 11 9.351562 C 11.550781 9.351562 12.101562 9.808594 12.101562 10.449219 C 12.101562 11 11.550781 11.550781 11 11.550781 C 10.449219 11.550781 9.898438 11 9.898438 10.449219 C 9.808594 9.714844 10.359375 9.351562 11 9.351562 Z M 11 12.558594 C 11.550781 12.558594 12.101562 13.015625 12.101562 13.660156 L 12.101562 14.757812 C 12.101562 15.308594 11.550781 15.859375 11 15.859375 C 10.449219 15.859375 9.898438 15.308594 9.898438 14.757812 L 9.898438 13.660156 C 9.808594 13.015625 10.359375 12.558594 11 12.558594 Z M 11 12.558594 "/>
  <path fill-rule="nonzero" fill="#11111b" fill-opacity="1" d="M 11 2.75 L 11 3.851562 L 12.101562 3.851562 L 12.101562 2.75 Z M 11 3.757812 L 9.898438 3.757812 L 9.898438 4.859375 L 11 4.859375 Z M 11 4.949219 L 11 6.050781 L 12.101562 6.050781 L 12.101562 4.949219 Z M 11 5.957031 L 9.898438 5.957031 L 9.898438 7.058594 L 11 7.058594 Z M 11 7.148438 L 11 8.25 C 11.550781 8.25 12.101562 7.699219 12.101562 7.148438 Z M 11 7.148438 "/>
</svg>