<?xml version="1.0" encoding="UTF-8" standalone="yes"?>
<svg xmlns="http://www.w3.org/2000/svg" xmlns:xlink="http://www.w3.org/1999/xlink" width="22" height="22" viewBox="0 0 22 22">
  <path fill-rule="nonzero" fill="#b4befe" fill-opacity="1" d="M 5.5 2.75 L 16.5 2.75 C 18.058594 2.75 19.25 3.941406 19.25 5.5 L 19.25 16.5 C 19.25 18.058594 18.058594 19.25 16.5 19.25 L 5.5 19.25 C 3.941406 19.25 2.75 18.058594 2.75 16.5 L 2.75 5.5 C 2.75 3.941406 3.941406 2.75 5.5 2.75 Z M 5.5 2.75 "/>
  <path fill-rule="nonzero" fill="#11111b" fill-opacity="1" d="M 6.601562 5.867188 L 9.808594 5.867188 C 10.265625 5.867188 10.542969 6.234375 10.542969 6.601562 L 10.542969 9.808594 C 10.542969 10.265625 10.175781 10.542969 9.808594 10.542969 L 6.601562 10.542969 C 6.140625 10.542969 5.867188 10.175781 5.867188 9.808594 L 5.867188 6.601562 C 5.867188 6.140625 6.140625 5.867188 6.601562 5.867188 Z M 6.601562 5.867188 "/>
  <path fill-rule="nonzero" fill="#11111b" fill-opacity="1" d="M 12.285156 5.867188 L 15.492188 5.867188 C 15.949219 5.867188 16.226562 6.234375 16.226562 6.601562 L 16.226562 9.808594 C 16.226562 10.265625 15.859375 10.542969 15.492188 10.542969 L 12.285156 10.542969 C 11.824219 10.542969 11.550781 10.175781 11.550781 9.808594 L 11.550781 6.601562 C 11.550781 6.140625 11.917969 5.867188 12.285156 5.867188 Z M 12.285156 5.867188 "/>
  <path fill-rule="nonzero" fill="#11111b" fill-opacity="1" d="M 12.285156 11.550781 L 15.492188 11.550781 C 15.949219 11.550781 16.226562 11.917969 16.226562 12.285156 L 16.226562 15.492188 C 16.226562 15.949219 15.859375 16.226562 15.492188 16.226562 L 12.285156 16.226562 C 11.824219 16.226562 11.550781 15.859375 11.550781 15.492188 L 11.550781 12.285156 C 11.550781 11.917969 11.917969 11.550781 12.285156 11.550781 Z M 12.285156 11.550781 "/>
  <path fill-rule="nonzero" fill="#11111b" fill-opacity="1" d="M 6.601562 11.550781 L 9.808594 11.550781 C 10.265625 11.550781 10.542969 11.917969 10.542969 12.285156 L 10.542969 15.492188 C 10.542969 15.949219 10.175781 16.226562 9.808594 16.226562 L 6.601562 16.226562 C 6.140625 16.226562 5.867188 15.859375 5.867188 15.492188 L 5.867188 12.285156 C 5.867188 11.917969 6.140625 11.550781 6.601562 11.550781 Z M 6.601562 11.550781 "/>
</svg>