<?xml version="1.0" encoding="UTF-8" standalone="yes"?>
<svg xmlns="http://www.w3.org/2000/svg" xmlns:xlink="http://www.w3.org/1999/xlink" width="22" height="22" viewBox="0 0 22 22">
  <defs>
    <clipPath id="clip-0">
      <path clip-rule="nonzero" d="M 11 2 L 20 2 L 20 11 L 11 11 Z M 11 2 "/>
    </clipPath>
    <clipPath id="clip-1">
      <path clip-rule="nonzero" d="M 11.34375 2.40625 L 17.53125 2.40625 C 18.667969 2.40625 19.59375 3.332031 19.59375 4.46875 L 19.59375 10.65625 L 14.09375 10.65625 C 12.582031 10.65625 11.34375 9.417969 11.34375 7.90625 Z M 11.34375 2.40625 "/>
    </clipPath>
    <clipPath id="clip-2">
      <path clip-rule="nonzero" d="M 17 7.332031 L 20 7.332031 L 20 11 L 17 11 Z M 17 7.332031 "/>
    </clipPath>
    <clipPath id="clip-3">
      <path clip-rule="nonzero" d="M 11.34375 2.40625 L 17.53125 2.40625 C 18.667969 2.40625 19.59375 3.332031 19.59375 4.46875 L 19.59375 10.65625 L 14.09375 10.65625 C 12.582031 10.65625 11.34375 9.417969 11.34375 7.90625 Z M 11.34375 2.40625 "/>
    </clipPath>
    <clipPath id="clip-4">
      <path clip-rule="nonzero" d="M 13 3.667969 L 18 3.667969 L 18 9.167969 L 13 9.167969 Z M 13 3.667969 "/>
    </clipPath>
    <clipPath id="clip-5">
      <path clip-rule="nonzero" d="M 11.34375 2.40625 L 17.53125 2.40625 C 18.667969 2.40625 19.59375 3.332031 19.59375 4.46875 L 19.59375 10.65625 L 14.09375 10.65625 C 12.582031 10.65625 11.34375 9.417969 11.34375 7.90625 Z M 11.34375 2.40625 "/>
    </clipPath>
  </defs>
  <path fill-rule="nonzero" fill="#11111b" fill-opacity="1" d="M 4.46875 2.40625 L 17.53125 2.40625 C 18.667969 2.40625 19.59375 3.332031 19.59375 4.46875 L 19.59375 17.53125 C 19.59375 18.667969 18.667969 19.59375 17.53125 19.59375 L 4.46875 19.59375 C 3.332031 19.59375 2.40625 18.667969 2.40625 17.53125 L 2.40625 4.46875 C 2.40625 3.332031 3.332031 2.40625 4.46875 2.40625 Z M 4.46875 2.40625 "/>
  <g clip-path="url(#clip-0)">
    <g clip-path="url(#clip-1)">
      <path fill-rule="nonzero" fill="#b4befe" fill-opacity="1" d="M 11.34375 2.40625 L 17.53125 2.40625 C 18.667969 2.40625 19.59375 3.332031 19.59375 4.46875 L 19.59375 10.65625 L 14.09375 10.65625 C 12.582031 10.65625 11.34375 9.417969 11.34375 7.90625 Z M 11.34375 2.40625 "/>
    </g>
  </g>
  <g clip-path="url(#clip-2)">
    <g clip-path="url(#clip-3)">
      <path fill-rule="nonzero" fill="#b4befe" fill-opacity="1" d="M 22.34375 10.484375 C 22.34375 11.910156 21.191406 13.0625 19.765625 13.0625 C 18.339844 13.0625 17.1875 11.910156 17.1875 10.484375 C 17.1875 9.058594 18.339844 7.90625 19.765625 7.90625 C 21.191406 7.90625 22.34375 9.058594 22.34375 10.484375 Z M 22.34375 10.484375 "/>
    </g>
  </g>
  <g clip-path="url(#clip-4)">
    <g clip-path="url(#clip-5)">
      <path fill-rule="nonzero" fill="#11111b" fill-opacity="1" d="M 13.921875 3.953125 C 13.714844 3.953125 13.542969 4.125 13.542969 4.332031 L 13.542969 7.285156 L 13.816406 7.285156 L 13.816406 7.011719 L 14.09375 7.011719 L 14.09375 4.46875 L 16.15625 4.46875 L 16.15625 5.5 L 17.1875 5.5 L 17.1875 8.871094 L 17.464844 8.871094 L 17.464844 8.59375 L 17.738281 8.59375 L 17.738281 5.222656 L 16.433594 3.917969 L 13.921875 3.917969 Z M 17.394531 8.871094 L 17.394531 9.144531 L 17.667969 9.144531 L 17.667969 8.871094 Z M 17.152344 8.871094 L 16.878906 8.871094 L 16.878906 9.144531 L 17.152344 9.144531 Z M 16.878906 8.871094 L 16.878906 8.59375 L 16.605469 8.59375 L 16.605469 8.871094 Z M 16.636719 8.871094 L 16.363281 8.871094 L 16.363281 9.144531 L 16.636719 9.144531 Z M 16.363281 8.871094 L 16.363281 8.59375 L 16.089844 8.59375 L 16.089844 8.871094 Z M 16.121094 8.871094 L 15.847656 8.871094 L 15.847656 9.144531 L 16.121094 9.144531 Z M 15.847656 8.871094 L 15.847656 8.59375 L 15.574219 8.59375 L 15.574219 8.871094 Z M 15.605469 8.871094 L 15.332031 8.871094 L 15.332031 9.144531 L 15.605469 9.144531 Z M 15.332031 8.871094 L 15.332031 8.59375 L 15.058594 8.59375 L 15.058594 8.871094 Z M 15.089844 8.871094 L 14.816406 8.871094 L 14.816406 9.144531 L 15.089844 9.144531 Z M 14.816406 8.871094 L 14.816406 8.59375 L 14.542969 8.59375 L 14.542969 8.871094 Z M 14.574219 8.871094 L 14.300781 8.871094 L 14.300781 9.144531 L 14.574219 9.144531 Z M 14.300781 8.871094 L 14.300781 8.59375 L 14.027344 8.59375 L 14.027344 8.871094 Z M 14.058594 8.871094 L 13.785156 8.871094 L 13.785156 9.144531 L 14.058594 9.144531 Z M 13.785156 8.871094 L 13.785156 8.59375 L 13.511719 8.59375 L 13.511719 8.871094 Z M 13.785156 8.59375 L 14.058594 8.59375 L 14.058594 8.316406 L 13.785156 8.316406 Z M 13.785156 8.316406 L 13.785156 8.042969 L 13.511719 8.042969 L 13.511719 8.316406 Z M 13.785156 8.078125 L 14.058594 8.078125 L 14.058594 7.800781 L 13.785156 7.800781 Z M 13.785156 7.839844 L 13.785156 7.5625 L 13.511719 7.5625 L 13.511719 7.839844 Z M 13.785156 7.5625 L 14.058594 7.5625 L 14.058594 7.285156 L 13.785156 7.285156 Z M 13.785156 7.5625 "/>
    </g>
  </g>
</svg>