<?xml version="1.0" encoding="UTF-8" standalone="yes"?>
<svg xmlns="http://www.w3.org/2000/svg" xmlns:xlink="http://www.w3.org/1999/xlink" width="22" height="22" viewBox="0 0 22 22">
  <path fill-rule="nonzero" fill="rgb(16.470589%, 77.64706%, 55.686277%)" fill-opacity="1" d="M 5.5 2.75 L 16.5 2.75 C 18.019531 2.75 19.25 3.980469 19.25 5.5 L 19.25 16.5 C 19.25 18.019531 18.019531 19.25 16.5 19.25 L 5.5 19.25 C 3.980469 19.25 2.75 18.019531 2.75 16.5 L 2.75 5.5 C 2.75 3.980469 3.980469 2.75 5.5 2.75 Z M 5.5 2.75 "/>
  <path fill-rule="evenodd" fill="#11111b" fill-opacity="1" d="M 7.148438 7.148438 C 7.148438 6.808594 7.285156 6.484375 7.527344 6.242188 C 7.765625 6 8.09375 5.867188 8.433594 5.867188 L 11.375 5.867188 C 11.714844 5.867188 12.042969 6.003906 12.285156 6.242188 L 14.472656 8.433594 C 14.714844 8.675781 14.851562 9 14.851562 9.339844 L 14.851562 14.851562 C 14.851562 15.191406 14.714844 15.515625 14.472656 15.757812 C 14.234375 16 13.90625 16.132812 13.566406 16.132812 L 8.433594 16.132812 C 8.09375 16.132812 7.765625 16 7.527344 15.757812 C 7.285156 15.515625 7.148438 15.191406 7.148438 14.851562 Z M 8.433594 11 C 8.433594 10.828125 8.5 10.667969 8.621094 10.546875 C 8.742188 10.425781 8.90625 10.359375 9.074219 10.359375 L 12.925781 10.359375 C 13.09375 10.359375 13.257812 10.425781 13.378906 10.546875 C 13.5 10.667969 13.566406 10.828125 13.566406 11 C 13.566406 11.171875 13.5 11.332031 13.378906 11.453125 C 13.257812 11.574219 13.09375 11.640625 12.925781 11.640625 L 9.074219 11.640625 C 8.90625 11.640625 8.742188 11.574219 8.621094 11.453125 C 8.5 11.332031 8.433594 11.171875 8.433594 11 Z M 9.074219 12.925781 C 8.90625 12.925781 8.742188 12.992188 8.621094 13.113281 C 8.5 13.234375 8.433594 13.394531 8.433594 13.566406 C 8.433594 13.738281 8.5 13.898438 8.621094 14.019531 C 8.742188 14.140625 8.90625 14.207031 9.074219 14.207031 L 12.925781 14.207031 C 13.09375 14.207031 13.257812 14.140625 13.378906 14.019531 C 13.5 13.898438 13.566406 13.738281 13.566406 13.566406 C 13.566406 13.394531 13.5 13.234375 13.378906 13.113281 C 13.257812 12.992188 13.09375 12.925781 12.925781 12.925781 Z M 9.074219 12.925781 "/>
</svg>