<?xml version="1.0" encoding="UTF-8" standalone="yes"?>
<svg xmlns="http://www.w3.org/2000/svg" xmlns:xlink="http://www.w3.org/1999/xlink" width="22" height="22" viewBox="0 0 22 22">
  <path fill-rule="nonzero" fill="#b4befe" fill-opacity="1" d="M 5.5 2.75 L 16.5 2.75 C 18.058594 2.75 19.25 3.941406 19.25 5.5 L 19.25 16.5 C 19.25 18.058594 18.058594 19.25 16.5 19.25 L 5.5 19.25 C 3.941406 19.25 2.75 18.058594 2.75 16.5 L 2.75 5.5 C 2.75 3.941406 3.941406 2.75 5.5 2.75 Z M 5.5 2.75 "/>
  <path fill-rule="nonzero" fill="#11111b" fill-opacity="1" d="M 8.066406 8.523438 C 7.976562 8.523438 7.976562 8.523438 7.882812 8.617188 C 7.515625 8.800781 7.425781 9.351562 7.699219 9.808594 C 7.882812 10.265625 8.25 10.449219 8.617188 10.449219 C 8.800781 11.824219 9.808594 12.832031 11 12.832031 C 12.191406 12.832031 13.199219 11.824219 13.382812 10.449219 C 13.75 10.449219 14.117188 10.265625 14.207031 9.808594 C 14.484375 9.351562 14.390625 8.707031 14.023438 8.617188 C 13.933594 8.617188 13.933594 8.617188 13.839844 8.523438 C 13.75 7.058594 12.464844 5.867188 10.910156 5.867188 C 9.257812 5.867188 8.066406 6.964844 8.066406 8.523438 Z M 12.832031 13.015625 C 12.648438 13.199219 12.464844 13.382812 12.285156 13.476562 C 11.917969 13.75 11.457031 13.933594 11.089844 13.933594 C 10.449219 13.933594 9.808594 13.566406 9.351562 13.109375 C 7.515625 13.382812 5.410156 13.75 5.316406 14.300781 L 5.316406 15.949219 C 5.316406 16.132812 5.5 16.226562 5.589844 16.226562 L 16.589844 16.226562 C 16.773438 16.226562 16.867188 16.042969 16.867188 15.949219 L 16.867188 14.390625 C 16.867188 14.300781 16.867188 14.300781 16.867188 14.300781 C 16.589844 13.660156 14.667969 13.292969 12.832031 13.015625 Z M 12.832031 13.015625 "/>
</svg>