<?xml version="1.0" encoding="UTF-8" standalone="yes"?>
<svg xmlns="http://www.w3.org/2000/svg" xmlns:xlink="http://www.w3.org/1999/xlink" width="22" height="22" viewBox="0 0 22 22">
  <path fill-rule="nonzero" fill="rgb(94.117647%, 46.27451%, 67.058825%)" fill-opacity="1" d="M 5.5 2.75 L 16.5 2.75 C 18.019531 2.75 19.25 3.980469 19.25 5.5 L 19.25 16.5 C 19.25 18.019531 18.019531 19.25 16.5 19.25 L 5.5 19.25 C 3.980469 19.25 2.75 18.019531 2.75 16.5 L 2.75 5.5 C 2.75 3.980469 3.980469 2.75 5.5 2.75 Z M 5.5 2.75 "/>
  <path fill-rule="evenodd" fill="#11111b" fill-opacity="1" d="M 7.148438 6.507812 C 6.808594 6.507812 6.484375 6.644531 6.242188 6.882812 C 6 7.125 5.867188 7.453125 5.867188 7.792969 L 5.867188 14.207031 C 5.867188 14.546875 6 14.875 6.242188 15.117188 C 6.484375 15.355469 6.808594 15.492188 7.148438 15.492188 L 14.851562 15.492188 C 15.191406 15.492188 15.515625 15.355469 15.757812 15.117188 C 16 14.875 16.132812 14.546875 16.132812 14.207031 L 16.132812 7.792969 C 16.132812 7.453125 16 7.125 15.757812 6.882812 C 15.515625 6.644531 15.191406 6.507812 14.851562 6.507812 Z M 14.851562 14.207031 L 7.148438 14.207031 L 9.714844 9.074219 L 11.640625 12.925781 L 12.925781 10.359375 Z M 14.851562 14.207031 "/>
</svg>