<?xml version="1.0" encoding="UTF-8" standalone="yes"?>
<svg xmlns="http://www.w3.org/2000/svg" xmlns:xlink="http://www.w3.org/1999/xlink" width="22" height="22" viewBox="0 0 22 22">
  <path fill-rule="nonzero" fill="#b4befe" fill-opacity="1" d="M 5.5 2.75 L 16.5 2.75 C 18.058594 2.75 19.25 3.941406 19.25 5.5 L 19.25 16.5 C 19.25 18.058594 18.058594 19.25 16.5 19.25 L 5.5 19.25 C 3.941406 19.25 2.75 18.058594 2.75 16.5 L 2.75 5.5 C 2.75 3.941406 3.941406 2.75 5.5 2.75 Z M 5.5 2.75 "/>
  <path fill-rule="nonzero" fill="#11111b" fill-opacity="1" d="M 12.742188 11 C 12.742188 12.007812 11.917969 12.742188 11 12.742188 C 10.082031 12.742188 9.257812 11.917969 9.257812 11 C 9.257812 10.082031 10.082031 9.257812 11 9.257812 C 11.917969 9.257812 12.742188 9.992188 12.742188 11 Z M 12.742188 11 "/>
  <path fill-rule="nonzero" fill="#11111b" fill-opacity="1" d="M 7.976562 11 C 7.976562 12.007812 7.148438 12.742188 6.234375 12.742188 C 5.316406 12.742188 4.398438 12.007812 4.398438 11 C 4.398438 9.992188 5.226562 9.257812 6.140625 9.257812 C 7.058594 9.257812 7.976562 9.992188 7.976562 11 Z M 7.976562 11 "/>
  <path fill-rule="nonzero" fill="#11111b" fill-opacity="1" d="M 17.601562 11 C 17.601562 12.007812 16.773438 12.742188 15.859375 12.742188 C 14.941406 12.742188 14.117188 11.917969 14.117188 11 C 14.117188 10.082031 14.941406 9.257812 15.859375 9.257812 C 16.773438 9.257812 17.601562 9.992188 17.601562 11 Z M 17.601562 11 "/>
</svg>