<?xml version="1.0" encoding="UTF-8" standalone="yes"?>
<svg xmlns="http://www.w3.org/2000/svg" xmlns:xlink="http://www.w3.org/1999/xlink" width="22" height="22" viewBox="0 0 22 22">
  <path fill-rule="nonzero" fill="rgb(80.784315%, 61.960787%, 97.647059%)" fill-opacity="1" d="M 5.5 2.75 L 16.5 2.75 C 18.019531 2.75 19.25 3.980469 19.25 5.5 L 19.25 16.5 C 19.25 18.019531 18.019531 19.25 16.5 19.25 L 5.5 19.25 C 3.980469 19.25 2.75 18.019531 2.75 16.5 L 2.75 5.5 C 2.75 3.980469 3.980469 2.75 5.5 2.75 Z M 5.5 2.75 "/>
  <path fill-rule="nonzero" fill="#11111b" fill-opacity="1" d="M 5.867188 8.433594 C 5.867188 8.09375 6 7.765625 6.242188 7.527344 C 6.484375 7.285156 6.808594 7.148438 7.148438 7.148438 L 10.359375 7.148438 L 11.640625 8.433594 L 14.851562 8.433594 C 15.191406 8.433594 15.515625 8.570312 15.757812 8.808594 C 16 9.050781 16.132812 9.375 16.132812 9.714844 L 16.132812 13.566406 C 16.132812 13.90625 16 14.234375 15.757812 14.472656 C 15.515625 14.714844 15.191406 14.851562 14.851562 14.851562 L 7.148438 14.851562 C 6.808594 14.851562 6.484375 14.714844 6.242188 14.472656 C 6 14.234375 5.867188 13.90625 5.867188 13.566406 Z M 5.867188 8.433594 "/>
</svg>