<?xml version="1.0" encoding="UTF-8" standalone="yes"?>
<svg xmlns="http://www.w3.org/2000/svg" xmlns:xlink="http://www.w3.org/1999/xlink" width="22" height="22" viewBox="0 0 22 22">
  <path fill-rule="nonzero" fill="#b4befe" fill-opacity="1" d="M 5.5 2.75 L 16.5 2.75 C 18.058594 2.75 19.25 3.941406 19.25 5.5 L 19.25 16.5 C 19.25 18.058594 18.058594 19.25 16.5 19.25 L 5.5 19.25 C 3.941406 19.25 2.75 18.058594 2.75 16.5 L 2.75 5.5 C 2.75 3.941406 3.941406 2.75 5.5 2.75 Z M 5.5 2.75 "/>
  <path fill-rule="nonzero" fill="#11111b" fill-opacity="1" d="M 11 4.949219 C 7.699219 4.949219 4.949219 7.609375 4.949219 11 C 4.949219 14.390625 7.609375 17.050781 11 17.050781 C 14.390625 17.050781 17.050781 14.390625 17.050781 11 C 17.050781 7.609375 14.300781 4.949219 11 4.949219 Z M 11 6.507812 C 13.476562 6.507812 15.492188 8.523438 15.492188 11 C 15.492188 13.476562 13.476562 15.492188 11 15.492188 C 8.523438 15.492188 6.507812 13.476562 6.507812 11 C 6.507812 8.523438 8.523438 6.507812 11 6.507812 Z M 9.992188 7.976562 L 9.992188 12.007812 L 14.023438 12.007812 L 14.023438 10.449219 L 11.550781 10.449219 L 11.550781 7.976562 Z M 9.992188 7.976562 "/>
</svg>