<?xml version="1.0" encoding="UTF-8" standalone="yes"?>
<svg xmlns="http://www.w3.org/2000/svg" xmlns:xlink="http://www.w3.org/1999/xlink" width="22" height="22" viewBox="0 0 22 22">
  <path fill-rule="nonzero" fill="#b4befe" fill-opacity="1" d="M 5.5 2.75 L 16.5 2.75 C 18.058594 2.75 19.25 3.941406 19.25 5.5 L 19.25 16.5 C 19.25 18.058594 18.058594 19.25 16.5 19.25 L 5.5 19.25 C 3.941406 19.25 2.75 18.058594 2.75 16.5 L 2.75 5.5 C 2.75 3.941406 3.941406 2.75 5.5 2.75 Z M 5.5 2.75 "/>
  <path fill-rule="nonzero" fill="#11111b" fill-opacity="1" d="M 11 5.132812 C 7.792969 5.132812 5.132812 7.792969 5.132812 11 C 5.132812 14.207031 7.792969 16.867188 11 16.867188 C 14.207031 16.867188 16.867188 14.207031 16.867188 11 C 16.867188 7.792969 14.207031 5.132812 11 5.132812 Z M 11 13.015625 C 9.898438 13.015625 8.984375 12.101562 8.984375 11 C 8.984375 9.898438 9.898438 8.984375 11 8.984375 C 12.101562 8.984375 13.015625 9.898438 13.015625 11 C 13.015625 12.101562 12.101562 13.015625 11 13.015625 Z M 11 13.015625 "/>
</svg>