<?xml version="1.0" encoding="UTF-8" standalone="yes"?>
<svg xmlns="http://www.w3.org/2000/svg" xmlns:xlink="http://www.w3.org/1999/xlink" width="22" height="22" viewBox="0 0 22 22">
  <path fill-rule="nonzero" fill="#b4befe" fill-opacity="1" d="M 5.5 2.75 L 16.5 2.75 C 18.058594 2.75 19.25 3.941406 19.25 5.5 L 19.25 16.5 C 19.25 18.058594 18.058594 19.25 16.5 19.25 L 5.5 19.25 C 3.941406 19.25 2.75 18.058594 2.75 16.5 L 2.75 5.5 C 2.75 3.941406 3.941406 2.75 5.5 2.75 Z M 5.5 2.75 "/>
  <path fill-rule="nonzero" fill="#11111b" fill-opacity="1" d="M 11 5.5 C 7.882812 5.5 5.410156 7.976562 5.410156 11.089844 C 5.410156 13.566406 7.058594 15.675781 9.351562 16.410156 L 9.351562 15.492188 C 7.976562 15.765625 7.609375 14.941406 7.609375 14.941406 C 7.425781 14.390625 7.058594 14.300781 7.058594 14.300781 C 6.601562 14.023438 7.058594 14.023438 7.058594 14.023438 C 7.609375 14.023438 7.882812 14.574219 7.882812 14.574219 C 8.339844 15.398438 9.167969 15.125 9.351562 15.035156 C 9.441406 14.667969 9.535156 14.117188 9.625 14.023438 C 8.523438 13.839844 7.609375 13.109375 7.609375 11.273438 C 7.609375 10.726562 7.976562 9.992188 8.25 9.625 C 8.339844 9.441406 8.066406 8.707031 8.433594 8.066406 C 8.433594 8.066406 8.433594 8.066406 8.523438 8.066406 C 8.707031 8.066406 9.074219 8.25 9.808594 8.800781 C 10.175781 8.339844 10.632812 8.25 11 8.25 C 11.367188 8.25 11.824219 8.339844 12.191406 8.433594 C 12.925781 7.882812 13.382812 7.699219 13.476562 7.699219 C 13.566406 7.699219 13.566406 7.699219 13.566406 7.699219 C 13.839844 8.433594 13.660156 9.167969 13.660156 9.351562 C 13.933594 9.714844 14.300781 10.449219 14.300781 11 C 14.300781 13.015625 13.015625 13.75 11.917969 13.75 C 12.101562 13.933594 12.101562 14.207031 12.101562 14.667969 C 12.101562 15.214844 12.101562 15.582031 12.101562 15.859375 L 12.101562 16.5 C 14.484375 15.949219 16.5 13.75 16.5 11.089844 C 16.589844 7.976562 14.117188 5.5 11 5.5 Z M 11 5.5 "/>
</svg>