<?xml version="1.0" encoding="UTF-8" standalone="yes"?>
<svg xmlns="http://www.w3.org/2000/svg" xmlns:xlink="http://www.w3.org/1999/xlink" width="22" height="22" viewBox="0 0 22 22">
  <path fill-rule="nonzero" fill="#b4befe" fill-opacity="1" d="M 5.5 2.75 L 16.5 2.75 C 18.058594 2.75 19.25 3.941406 19.25 5.5 L 19.25 16.5 C 19.25 18.058594 18.058594 19.25 16.5 19.25 L 5.5 19.25 C 3.941406 19.25 2.75 18.058594 2.75 16.5 L 2.75 5.5 C 2.75 3.941406 3.941406 2.75 5.5 2.75 Z M 5.5 2.75 "/>
  <path fill-rule="nonzero" fill="#11111b" fill-opacity="1" d="M 8.984375 5.683594 L 12.558594 11.640625 L 17.324219 11.640625 L 13.292969 5.683594 Z M 8.066406 6.417969 L 4.765625 12.832031 L 7.058594 16.410156 L 10.082031 9.992188 Z M 10.082031 12.742188 L 8.25 16.316406 L 15.398438 16.316406 L 17.140625 12.742188 Z M 10.082031 12.742188 "/>
</svg>