<?xml version="1.0" encoding="UTF-8" standalone="yes"?>
<svg xmlns="http://www.w3.org/2000/svg" xmlns:xlink="http://www.w3.org/1999/xlink" width="22" height="22" viewBox="0 0 22 22">
  <path fill-rule="nonzero" fill="rgb(97.254902%, 34.509805%, 34.509805%)" fill-opacity="1" d="M 5.5 2.75 L 16.5 2.75 C 18.019531 2.75 19.25 3.980469 19.25 5.5 L 19.25 16.5 C 19.25 18.019531 18.019531 19.25 16.5 19.25 L 5.5 19.25 C 3.980469 19.25 2.75 18.019531 2.75 16.5 L 2.75 5.5 C 2.75 3.980469 3.980469 2.75 5.5 2.75 Z M 5.5 2.75 "/>
  <path fill-rule="nonzero" fill="#11111b" fill-opacity="1" d="M 5.867188 8.433594 C 5.867188 8.09375 6 7.765625 6.242188 7.527344 C 6.484375 7.285156 6.808594 7.148438 7.148438 7.148438 L 11 7.148438 C 11.339844 7.148438 11.667969 7.285156 11.90625 7.527344 C 12.148438 7.765625 12.285156 8.09375 12.285156 8.433594 L 12.285156 13.566406 C 12.285156 13.90625 12.148438 14.234375 11.90625 14.472656 C 11.667969 14.714844 11.339844 14.851562 11 14.851562 L 7.148438 14.851562 C 6.808594 14.851562 6.484375 14.714844 6.242188 14.472656 C 6 14.234375 5.867188 13.90625 5.867188 13.566406 Z M 13.921875 9.144531 C 13.816406 9.195312 13.726562 9.277344 13.664062 9.378906 C 13.601562 9.480469 13.566406 9.597656 13.566406 9.714844 L 13.566406 12.285156 C 13.566406 12.402344 13.601562 12.519531 13.664062 12.621094 C 13.726562 12.722656 13.816406 12.804688 13.921875 12.855469 L 15.203125 13.5 C 15.300781 13.546875 15.410156 13.570312 15.519531 13.566406 C 15.628906 13.5625 15.734375 13.527344 15.828125 13.46875 C 15.921875 13.414062 16 13.332031 16.050781 13.238281 C 16.105469 13.140625 16.132812 13.035156 16.132812 12.925781 L 16.132812 9.074219 C 16.132812 8.964844 16.105469 8.859375 16.050781 8.761719 C 16 8.667969 15.921875 8.585938 15.828125 8.53125 C 15.734375 8.472656 15.628906 8.4375 15.519531 8.433594 C 15.410156 8.429688 15.300781 8.453125 15.203125 8.5 Z M 13.921875 9.144531 "/>
</svg>