<svg width="24" height="24" viewBox="0 0 24 24" fill="none" xmlns="http://www.w3.org/2000/svg">
<path d="M20 12C20 16.4183 16.4183 20 12 20C7.58172 20 4 16.4183 4 12C4 7.58172 7.58172 4 12 4C16.4183 4 20 7.58172 20 12ZM7.2 12C7.2 14.651 9.34903 16.8 12 16.8C14.651 16.8 16.8 14.651 16.8 12C16.8 9.34903 14.651 7.2 12 7.2C9.34903 7.2 7.2 9.34903 7.2 12Z" fill="#C091F2"/>
<path d="M16.6648 11.1214H14.1232L13.5849 10.0541C13.5193 9.92441 13.3788 9.85168 13.2345 9.87378C13.0909 9.89593 12.978 10.008 12.9546 10.1514L12.4862 13.0357L11.9168 8.58895C11.8967 8.43256 11.7705 8.31147 11.6136 8.29769C11.4564 8.28542 11.3113 8.38132 11.2644 8.53165L9.96212 12.707L9.58258 10.3672C9.55874 10.2209 9.44173 10.1075 9.29475 10.0885C9.14794 10.0706 9.00564 10.149 8.94549 10.2846L8.3872 11.5384H7.3352C7.15017 11.5384 7 11.6885 7 11.8736C7 12.0586 7.15017 12.2087 7.3352 12.2087H8.60495C8.73735 12.2087 8.85734 12.1308 8.9111 12.0098L9.10087 11.584L9.52786 14.2176C9.55264 14.3711 9.6799 14.4871 9.83506 14.4983C9.99022 14.5078 10.1324 14.4122 10.1788 14.2639L11.4471 10.1976L12.1144 15.4107C12.1355 15.5757 12.2747 15.7004 12.4412 15.7034H12.4469C12.6109 15.7034 12.7513 15.5844 12.7779 15.4217L13.4509 11.2773L13.61 11.5931L13.6172 11.6075C13.6741 11.7206 13.79 11.7919 13.9167 11.7919H16.6649C16.85 11.7919 17 11.6417 17 11.4567C17 11.2716 16.8499 11.1214 16.6648 11.1214Z" fill="#C091F2"/>
</svg>
