<svg width="24" height="24" viewBox="0 0 24 24" fill="none" xmlns="http://www.w3.org/2000/svg">
<path opacity="0.3" d="M21 12C21 16.9706 16.9706 21 12 21C7.02944 21 3 16.9706 3 12C3 7.02944 7.02944 3 12 3C16.9706 3 21 7.02944 21 12ZM6.6 12C6.6 14.9823 9.01766 17.4 12 17.4C14.9823 17.4 17.4 14.9823 17.4 12C17.4 9.01766 14.9823 6.6 12 6.6C9.01766 6.6 6.6 9.01766 6.6 12Z" fill="#f5c2e7"/>
<path d="M12 21C13.1819 21 14.3522 20.7672 15.4442 20.3149C16.5361 19.8626 17.5282 19.1997 18.364 18.364C19.1997 17.5282 19.8626 16.5361 20.3149 15.4442C20.7672 14.3522 21 13.1819 21 12C21 10.8181 20.7672 9.64778 20.3149 8.55585C19.8626 7.46392 19.1997 6.47176 18.364 5.63604C17.5282 4.80031 16.5361 4.13738 15.4441 3.68508C14.3522 3.23279 13.1819 3 12 3L12 6.6C12.7091 6.6 13.4113 6.73967 14.0665 7.01105C14.7216 7.28243 15.3169 7.68019 15.8184 8.18162C16.3198 8.68306 16.7176 9.27835 16.9889 9.93351C17.2603 10.5887 17.4 11.2909 17.4 12C17.4 12.7091 17.2603 13.4113 16.9889 14.0665C16.7176 14.7216 16.3198 15.3169 15.8184 15.8184C15.3169 16.3198 14.7216 16.7176 14.0665 16.9889C13.4113 17.2603 12.7091 17.4 12 17.4L12 21Z" fill="#f5c2e7"/>
</svg>
