<svg width="16" height="16" viewBox="0 0 16 16" fill="none" xmlns="http://www.w3.org/2000/svg">
<rect x="1" y="1" width="14" height="14" rx="3" fill="#f5c2e7"/>
<path fill-rule="evenodd" clip-rule="evenodd" d="M3.8 4.99999C3.8 4.68173 3.92643 4.3765 4.15147 4.15146C4.37651 3.92642 4.68174 3.79999 5 3.79999H11C11.3183 3.79999 11.6235 3.92642 11.8485 4.15146C12.0736 4.3765 12.2 4.68173 12.2 4.99999V9.79999C12.2 10.1182 12.0736 10.4235 11.8485 10.6485C11.6235 10.8736 11.3183 11 11 11H9.668L9.7418 11.2934L10.2242 11.7758C10.3081 11.8597 10.3652 11.9666 10.3883 12.083C10.4115 12.1993 10.3996 12.32 10.3542 12.4296C10.3088 12.5392 10.2319 12.6329 10.1333 12.6988C10.0346 12.7648 9.91865 12.8 9.8 12.8H6.2C6.08135 12.8 5.96537 12.7648 5.86672 12.6988C5.76808 12.6329 5.69119 12.5392 5.64579 12.4296C5.60039 12.32 5.58851 12.1993 5.61165 12.083C5.63479 11.9666 5.69191 11.8597 5.7758 11.7758L6.2582 11.2934L6.332 11H5C4.68174 11 4.37651 10.8736 4.15147 10.6485C3.92643 10.4235 3.8 10.1182 3.8 9.79999V4.99999ZM7.2626 9.19999H5V4.99999H11V9.19999H7.2626Z" fill="#11111b"/>
</svg>
