<svg width="16" height="16" viewBox="0 0 16 16" fill="none" xmlns="http://www.w3.org/2000/svg">
<rect x="1" y="1" width="14" height="14" rx="3" fill="#a6e3a1"/>
<path fill-rule="evenodd" clip-rule="evenodd" d="M4.40002 4.4C4.40002 4.08174 4.52645 3.77652 4.7515 3.55147C4.97654 3.32643 5.28176 3.2 5.60002 3.2H8.35162C8.66986 3.20007 8.97503 3.32654 9.20002 3.5516L11.2484 5.6C11.4735 5.82499 11.6 6.13017 11.6 6.4484V11.6C11.6 11.9183 11.4736 12.2235 11.2486 12.4485C11.0235 12.6736 10.7183 12.8 10.4 12.8H5.60002C5.28176 12.8 4.97654 12.6736 4.7515 12.4485C4.52645 12.2235 4.40002 11.9183 4.40002 11.6V4.4ZM5.60002 8C5.60002 7.84087 5.66324 7.68826 5.77576 7.57574C5.88828 7.46321 6.04089 7.4 6.20002 7.4H9.80002C9.95915 7.4 10.1118 7.46321 10.2243 7.57574C10.3368 7.68826 10.4 7.84087 10.4 8C10.4 8.15913 10.3368 8.31174 10.2243 8.42426C10.1118 8.53679 9.95915 8.6 9.80002 8.6H6.20002C6.04089 8.6 5.88828 8.53679 5.77576 8.42426C5.66324 8.31174 5.60002 8.15913 5.60002 8ZM6.20002 9.8C6.04089 9.8 5.88828 9.86321 5.77576 9.97574C5.66324 10.0883 5.60002 10.2409 5.60002 10.4C5.60002 10.5591 5.66324 10.7117 5.77576 10.8243C5.88828 10.9368 6.04089 11 6.20002 11H9.80002C9.95915 11 10.1118 10.9368 10.2243 10.8243C10.3368 10.7117 10.4 10.5591 10.4 10.4C10.4 10.2409 10.3368 10.0883 10.2243 9.97574C10.1118 9.86321 9.95915 9.8 9.80002 9.8H6.20002Z" fill="#11111b"/>
</svg>
