<svg width="16" height="16" viewBox="0 0 16 16" fill="none" xmlns="http://www.w3.org/2000/svg">
<g clip-path="url(#clip0)">
<rect x="1" y="1" width="14" height="11.9412" rx="2" fill="url(#paint0_linear)"/>
<g filter="url(#filter0_d)">
<rect x="3.48885" y="3.48887" width="9.33333" height="9.33333" rx="1" fill="#f5c2e7"/>
</g>
<rect x="4.04471" y="4.04481" width="6.53333" height="0.311111" fill="#C4C4C4"/>
<rect x="4.04465" y="7.77812" width="6.84444" height="0.311111" fill="#C4C4C4"/>
<rect x="4.04465" y="7.15591" width="5.28889" height="0.311111" fill="#C4C4C4"/>
<rect x="4.04465" y="6.53367" width="6.22222" height="0.311111" fill="#C4C4C4"/>
<rect x="4.04465" y="5.91146" width="8.08889" height="0.311111" fill="#C4C4C4"/>
<rect x="4.04465" y="5.28922" width="6.22222" height="0.311111" fill="#C4C4C4"/>
<rect x="4.04465" y="4.66701" width="7.46667" height="0.311111" fill="#C4C4C4"/>
<path d="M1 10H15V13C15 14.1046 14.1046 15 13 15H3C1.89543 15 1 14.1046 1 13V10Z" fill="#11111b"/>
</g>
<defs>
<filter id="filter0_d" x="-1.51115" y="-1.51113" width="19.3333" height="19.3333" filterUnits="userSpaceOnUse" color-interpolation-filters="sRGB">
<feFlood flood-opacity="0" result="BackgroundImageFix"/>
<feColorMatrix in="SourceAlpha" type="matrix" values="0 0 0 0 0 0 0 0 0 0 0 0 0 0 0 0 0 0 127 0" result="hardAlpha"/>
<feOffset/>
<feGaussianBlur stdDeviation="2.5"/>
<feColorMatrix type="matrix" values="0 0 0 0 0 0 0 0 0 0 0 0 0 0 0 0 0 0 0.11 0"/>
<feBlend mode="normal" in2="BackgroundImageFix" result="effect1_dropShadow"/>
<feBlend mode="normal" in="SourceGraphic" in2="effect1_dropShadow" result="shape"/>
</filter>
<linearGradient id="paint0_linear" x1="-6.77778" y1="1" x2="23.224" y2="7.13299" gradientUnits="userSpaceOnUse">
<stop stop-color="#0093E9"/>
<stop offset="1" stop-color="#80D0C7"/>
</linearGradient>
<clipPath id="clip0">
<rect width="16" height="16" fill="white"/>
</clipPath>
</defs>
</svg>
