<svg width="16" height="16" viewBox="0 0 16 16" fill="none" xmlns="http://www.w3.org/2000/svg">
<rect x="1" y="1" width="14" height="14" rx="3" fill="#f38ba8"/>
<path d="M3.19995 5.6C3.19995 5.28174 3.32638 4.97652 3.55142 4.75147C3.77647 4.52643 4.08169 4.4 4.39995 4.4H7.99995C8.31821 4.4 8.62344 4.52643 8.84848 4.75147C9.07352 4.97652 9.19995 5.28174 9.19995 5.6V10.4C9.19995 10.7183 9.07352 11.0235 8.84848 11.2485C8.62344 11.4736 8.31821 11.6 7.99995 11.6H4.39995C4.08169 11.6 3.77647 11.4736 3.55142 11.2485C3.32638 11.0235 3.19995 10.7183 3.19995 10.4V5.6ZM10.7318 6.2636C10.6321 6.31339 10.5483 6.38995 10.4897 6.48468C10.4311 6.57942 10.4 6.6886 10.4 6.8V9.2C10.4 9.3114 10.4311 9.42058 10.4897 9.51532C10.5483 9.61005 10.6321 9.68661 10.7318 9.7364L11.9318 10.3364C12.0232 10.3821 12.1248 10.4037 12.2269 10.3991C12.3291 10.3945 12.4283 10.3639 12.5153 10.3101C12.6023 10.2564 12.6741 10.1813 12.7239 10.092C12.7737 10.0028 12.7999 9.90224 12.8 9.8V6.2C12.7999 6.09777 12.7737 5.99724 12.7239 5.90796C12.6741 5.81869 12.6023 5.74362 12.5153 5.68988C12.4283 5.63615 12.3291 5.60553 12.2269 5.60093C12.1248 5.59633 12.0232 5.6179 11.9318 5.6636L10.7318 6.2636Z" fill="#11111b"/>
</svg>
