<svg width="16" height="16" viewBox="0 0 16 16" fill="none" xmlns="http://www.w3.org/2000/svg">
<rect x="1" y="1" width="14" height="14" rx="3" fill="#89dceb"/>
<path fill-rule="evenodd" clip-rule="evenodd" d="M3.20001 7.7C3.20001 8.25695 3.42126 8.7911 3.81509 9.18492C4.20891 9.57875 4.74306 9.8 5.30001 9.8H7.40001V11.3516L6.62421 10.5758C6.51105 10.4665 6.35949 10.406 6.20217 10.4074C6.04485 10.4088 5.89437 10.4719 5.78312 10.5831C5.67188 10.6944 5.60877 10.8448 5.60741 11.0022C5.60604 11.1595 5.66652 11.311 5.77581 11.4242L7.57581 13.2242C7.68833 13.3367 7.84091 13.3999 8.00001 13.3999C8.15911 13.3999 8.3117 13.3367 8.42421 13.2242L10.2242 11.4242C10.3335 11.311 10.394 11.1595 10.3926 11.0022C10.3912 10.8448 10.3281 10.6944 10.2169 10.5831C10.1057 10.4719 9.95517 10.4088 9.79785 10.4074C9.64053 10.406 9.48897 10.4665 9.37581 10.5758L8.60001 11.3516V9.8H10.1C10.4701 9.79978 10.8361 9.72351 11.1754 9.5759C11.5148 9.4283 11.8201 9.21252 12.0726 8.94196C12.325 8.6714 12.5191 8.35184 12.6429 8.00311C12.7667 7.65439 12.8175 7.28394 12.7921 6.91477C12.7667 6.5456 12.6657 6.18559 12.4953 5.85709C12.325 5.52859 12.089 5.23861 11.8018 5.00515C11.5147 4.7717 11.1827 4.59975 10.8264 4.49998C10.47 4.40022 10.097 4.37476 9.73041 4.4252C9.65955 4.11235 9.52673 3.81687 9.33978 3.5562C9.15283 3.29554 8.91555 3.07497 8.64195 2.90753C8.36835 2.74009 8.06397 2.62916 7.74678 2.5813C7.4296 2.53345 7.10604 2.54962 6.79522 2.62888C6.48439 2.70815 6.19259 2.84888 5.93706 3.04278C5.68152 3.23668 5.46743 3.47982 5.30742 3.75783C5.1474 4.03584 5.04472 4.3431 5.00542 4.66146C4.96612 4.97982 4.99101 5.30282 5.07861 5.6114C4.56283 5.66608 4.08553 5.90971 3.73867 6.29534C3.39181 6.68097 3.19994 7.18133 3.20001 7.7V7.7ZM8.60001 9.8H7.40001V6.8C7.40001 6.64087 7.46323 6.48826 7.57575 6.37574C7.68827 6.26321 7.84088 6.2 8.00001 6.2C8.15914 6.2 8.31175 6.26321 8.42428 6.37574C8.5368 6.48826 8.60001 6.64087 8.60001 6.8V9.8Z" fill="#11111b"/>
</svg>
