<svg width="16" height="16" viewBox="0 0 16 16" fill="none" xmlns="http://www.w3.org/2000/svg">
<rect x="1" y="1" width="14" height="14" rx="3" fill="#CE9EF9"/>
<path d="M3.20001 5.6C3.20001 5.28174 3.32644 4.97652 3.55148 4.75147C3.77653 4.52643 4.08175 4.4 4.40001 4.4H7.40001L8.60001 5.6H11.6C11.9183 5.6 12.2235 5.72643 12.4485 5.95147C12.6736 6.17652 12.8 6.48174 12.8 6.8V10.4C12.8 10.7183 12.6736 11.0235 12.4485 11.2485C12.2235 11.4736 11.9183 11.6 11.6 11.6H4.40001C4.08175 11.6 3.77653 11.4736 3.55148 11.2485C3.32644 11.0235 3.20001 10.7183 3.20001 10.4V5.6Z" fill="#11111b"/>
</svg>
