<svg width="16" height="16" viewBox="0 0 16 16" fill="none" xmlns="http://www.w3.org/2000/svg">
<rect x="1" y="1" width="14" height="14" rx="3" fill="#f5c2e7"/>
<path fill-rule="evenodd" clip-rule="evenodd" d="M4.39995 3.8C4.08169 3.8 3.77647 3.92643 3.55142 4.15147C3.32638 4.37652 3.19995 4.68174 3.19995 5V11C3.19995 11.3183 3.32638 11.6235 3.55142 11.8485C3.77647 12.0736 4.08169 12.2 4.39995 12.2H11.6C11.9182 12.2 12.2234 12.0736 12.4485 11.8485C12.6735 11.6235 12.8 11.3183 12.8 11V5C12.8 4.68174 12.6735 4.37652 12.4485 4.15147C12.2234 3.92643 11.9182 3.8 11.6 3.8H4.39995ZM11.6 11H4.39995L6.79995 6.2L8.59995 9.8L9.79995 7.4L11.6 11Z" fill="#11111b"/>
</svg>
