<svg width="16" height="16" viewBox="0 0 16 16" fill="none" xmlns="http://www.w3.org/2000/svg">
<rect x="1" y="1" width="14" height="14" rx="3" fill="#cba6f7"/>
<path d="M12.8 3.8C12.7999 3.71127 12.7802 3.62365 12.7422 3.54346C12.7042 3.46327 12.6489 3.3925 12.5802 3.33626C12.5116 3.28002 12.4313 3.23971 12.3452 3.21822C12.2592 3.19673 12.1694 3.19461 12.0824 3.212L6.08235 4.412C5.94638 4.43918 5.82403 4.51261 5.73608 4.6198C5.64814 4.727 5.60003 4.86134 5.59995 5V10.4684C5.40325 10.4226 5.20192 10.3996 4.99995 10.4C4.00575 10.4 3.19995 10.937 3.19995 11.6C3.19995 12.263 4.00575 12.8 4.99995 12.8C5.99415 12.8 6.79995 12.263 6.79995 11.6V6.692L11.6 5.732V9.2684C11.4033 9.22257 11.2019 9.19962 11 9.2C10.0058 9.2 9.19995 9.737 9.19995 10.4C9.19995 11.063 10.0058 11.6 11 11.6C11.9942 11.6 12.8 11.063 12.8 10.4V3.8Z" fill="#11111b"/>
</svg>
