<?xml version="1.0" encoding="utf-8"?>
<!-- Generator: Adobe Illustrator 25.2.0, SVG Export Plug-In . SVG Version: 6.00 Build 0)  -->
<svg version="1.1" id="Layer_1_copy" xmlns="http://www.w3.org/2000/svg" xmlns:xlink="http://www.w3.org/1999/xlink" x="0px"
	 y="0px" viewBox="0 0 16 16" style="enable-background:new 0 0 16 16;" xml:space="preserve">
<style type="text/css">
	.st0{fill:#89dceb;}
	.st1{fill:#11111b;}
</style>
<path class="st0" d="M4,1h8c1.7,0,3,1.3,3,3v8c0,1.7-1.3,3-3,3H4c-1.7,0-3-1.3-3-3V4C1,2.3,2.3,1,4,1z"/>
<path class="st1" d="M6.8,3.3c-0.6,0-0.6,0.6-0.6,0.6H4.5c0,0-0.6,0-0.6,0.6v0.6h8.2V4.5c0-0.6-0.6-0.6-0.6-0.6H9.7
	c0,0,0-0.6-0.6-0.6H6.8z M4.5,5.7c0,0-0.6,2.3-0.6,3.5c0,1.7,0.9,3.5,1.2,3.5h5.8c0.3,0,1.2-1.7,1.2-3.5s-0.6-3.5-0.6-3.5H4.5z"/>
</svg>
