<?xml version="1.0" encoding="utf-8"?>
<!-- Generator: Adobe Illustrator 25.2.0, SVG Export Plug-In . SVG Version: 6.00 Build 0)  -->
<svg version="1.1" id="Layer_1_copy" xmlns="http://www.w3.org/2000/svg" xmlns:xlink="http://www.w3.org/1999/xlink" x="0px"
	 y="0px" viewBox="0 0 16 16" style="enable-background:new 0 0 16 16;" xml:space="preserve">
<style type="text/css">
	.st0{fill:#f9e2af;}
	.st1{fill:#11111b;}
</style>
<path class="st0" d="M4,1h8c1.7,0,3,1.3,3,3v8c0,1.7-1.3,3-3,3H4c-1.7,0-3-1.3-3-3V4C1,2.3,2.3,1,4,1z"/>
<path class="st1" d="M3.4,2.8h1.2c0.3,0,0.5,0.2,0.5,0.5v1.2C5.1,4.8,4.9,5,4.6,5H3.4C3.1,5,2.9,4.8,2.9,4.5V3.3
	C2.9,3,3.1,2.8,3.4,2.8z"/>
<path class="st1" d="M1,9.9V12h14V9.9H1z M12.5,11.5h-1.1v-1.1h1.1V11.5z M14.5,11.5h-1.1v-1.1h1.1V11.5z"/>
<path class="st1" d="M3.4,5.9h1.2c0.3,0,0.5,0.2,0.5,0.5v1.2c0,0.3-0.2,0.5-0.5,0.5H3.4c-0.3,0-0.5-0.2-0.5-0.5V6.4
	C2.9,6.1,3.1,5.9,3.4,5.9z"/>
</svg>
