<?xml version="1.0" encoding="UTF-8" standalone="no"?>
<svg
   width="24"
   height="24"
   viewBox="0 0 24 24"
   fill="none"
   version="1.1"
   id="svg6"
   sodipodi:docname="test.svg"
   inkscape:version="1.2.1 (9c6d41e410, 2022-07-14)"
   xmlns:inkscape="http://www.inkscape.org/namespaces/inkscape"
   xmlns:sodipodi="http://sodipodi.sourceforge.net/DTD/sodipodi-0.dtd"
   xmlns="http://www.w3.org/2000/svg"
   xmlns:svg="http://www.w3.org/2000/svg">
  <defs
     id="defs10" />
  <sodipodi:namedview
     id="namedview8"
     pagecolor="#ffffff"
     bordercolor="#000000"
     borderopacity="0.25"
     inkscape:showpageshadow="2"
     inkscape:pageopacity="0.0"
     inkscape:pagecheckerboard="0"
     inkscape:deskcolor="#d1d1d1"
     showgrid="false"
     inkscape:zoom="18.208333"
     inkscape:cx="9.4462243"
     inkscape:cy="9.5286041"
     inkscape:window-width="903"
     inkscape:window-height="1031"
     inkscape:window-x="1003"
     inkscape:window-y="35"
     inkscape:window-maximized="1"
     inkscape:current-layer="svg6" />
  <path
     id="rect2"
     d="M 6 3 C 4.3380017 3 3 4.3380017 3 6 L 3 18 C 3 19.661998 4.3380017 21 6 21 L 18 21 C 19.661998 21 21 19.661998 21 18 L 21 6 C 21 4.3380017 19.661998 3 18 3 L 6 3 z M 12 6.4003906 C 12.1856 6.4003906 12.362841 6.4742389 12.494141 6.6054688 L 17.394531 11.505859 C 17.522031 11.637859 17.593397 11.814447 17.591797 11.998047 C 17.590197 12.181547 17.516519 12.356528 17.386719 12.486328 C 17.256919 12.616128 17.081937 12.689806 16.898438 12.691406 C 16.714838 12.693006 16.536297 12.62164 16.404297 12.494141 L 16.199219 12.289062 L 16.199219 16.900391 C 16.199219 17.08609 16.12544 17.263231 15.994141 17.394531 C 15.862841 17.525831 15.6857 17.599609 15.5 17.599609 L 14.099609 17.599609 C 13.91391 17.599609 13.736769 17.525831 13.605469 17.394531 C 13.474269 17.263231 13.400391 17.08609 13.400391 16.900391 L 13.400391 15.5 C 13.400391 15.3143 13.326612 15.137159 13.195312 15.005859 C 13.064013 14.87456 12.884919 14.800781 12.699219 14.800781 L 11.300781 14.800781 C 11.115081 14.800781 10.935987 14.87456 10.804688 15.005859 C 10.673488 15.137159 10.599609 15.3143 10.599609 15.5 L 10.599609 16.900391 C 10.599609 17.08609 10.525831 17.263231 10.394531 17.394531 C 10.263231 17.525831 10.08609 17.599609 9.9003906 17.599609 L 8.5 17.599609 C 8.3143502 17.599609 8.1371292 17.525831 8.0058594 17.394531 C 7.8745795 17.263231 7.8007812 17.08609 7.8007812 16.900391 L 7.8007812 12.289062 L 7.5957031 12.494141 C 7.4636833 12.62164 7.2851023 12.693006 7.1015625 12.691406 C 6.9180227 12.689806 6.7430611 12.616128 6.6132812 12.486328 C 6.4834914 12.356528 6.4097931 12.181547 6.4082031 11.998047 C 6.4066031 11.814447 6.4779589 11.637859 6.6054688 11.505859 L 11.505859 6.6054688 C 11.637159 6.4742389 11.8144 6.4003906 12 6.4003906 z "
     style="fill:#444444;fill-opacity:1" />
</svg>
