<svg width="24" height="24" viewBox="0 0 24 24" fill="none" xmlns="http://www.w3.org/2000/svg">
<rect x="3" y="3" width="18" height="18" rx="3" fill="#a6e3a1"/>
<path d="M12.4949 6.6051C12.3636 6.47387 12.1856 6.40015 12 6.40015C11.8144 6.40015 11.6364 6.47387 11.5051 6.6051L6.6051 11.5051C6.47759 11.6371 6.40703 11.8139 6.40863 11.9975C6.41022 12.181 6.48384 12.3566 6.61363 12.4864C6.74341 12.6162 6.91898 12.6898 7.10252 12.6914C7.28606 12.693 7.46288 12.6224 7.5949 12.4949L7.8 12.2898V16.9C7.8 17.0857 7.87375 17.2637 8.00503 17.395C8.1363 17.5263 8.31435 17.6 8.5 17.6H9.9C10.0857 17.6 10.2637 17.5263 10.395 17.395C10.5263 17.2637 10.6 17.0857 10.6 16.9V15.5C10.6 15.3143 10.6738 15.1363 10.805 15.005C10.9363 14.8737 11.1143 14.8 11.3 14.8H12.7C12.8857 14.8 13.0637 14.8737 13.195 15.005C13.3263 15.1363 13.4 15.3143 13.4 15.5V16.9C13.4 17.0857 13.4738 17.2637 13.605 17.395C13.7363 17.5263 13.9143 17.6 14.1 17.6H15.5C15.6857 17.6 15.8637 17.5263 15.995 17.395C16.1263 17.2637 16.2 17.0857 16.2 16.9V12.2898L16.4051 12.4949C16.5371 12.6224 16.7139 12.693 16.8975 12.6914C17.081 12.6898 17.2566 12.6162 17.3864 12.4864C17.5162 12.3566 17.5898 12.181 17.5914 11.9975C17.593 11.8139 17.5224 11.6371 17.3949 11.5051L12.4949 6.6051V6.6051Z" fill="#11111b"/>
</svg>
