<?xml version="1.0" encoding="utf-8"?>
<!-- Generator: Adobe Illustrator 25.2.0, SVG Export Plug-In . SVG Version: 6.00 Build 0)  -->
<svg version="1.1" id="Layer_1" xmlns="http://www.w3.org/2000/svg" xmlns:xlink="http://www.w3.org/1999/xlink" x="0px" y="0px"
	 viewBox="0 0 24 24" style="enable-background:new 0 0 24 24;" xml:space="preserve">
<style type="text/css">
	.st0{fill:#89dceb;}
	.st1{fill:#11111b;}
</style>
<path class="st0" d="M6,3h12c1.7,0,3,1.3,3,3v12c0,1.7-1.3,3-3,3H6c-1.7,0-3-1.3-3-3V6C3,4.3,4.3,3,6,3z"/>
<path class="st1" d="M10.6,6.4c-0.7,0-0.7,0.7-0.7,0.7H7.8c0,0-0.7,0-0.7,0.7v0.7h9.8V7.8c0-0.7-0.7-0.7-0.7-0.7h-2.1
	c0,0,0-0.7-0.7-0.7H10.6z M7.8,9.2c0,0-0.7,2.8-0.7,4.2c0,2.1,1,4.2,1.4,4.2h7c0.4,0,1.4-2.1,1.4-4.2s-0.7-4.2-0.7-4.2H7.8z"/>
</svg>
