<svg width="16" height="16" viewBox="0 0 16 16" fill="none" xmlns="http://www.w3.org/2000/svg">
<path d="M15 8C15 11.866 11.866 15 8 15C4.13401 15 1 11.866 1 8C1 4.13401 4.13401 1 8 1C11.866 1 15 4.13401 15 8ZM3.8 8C3.8 10.3196 5.6804 12.2 8 12.2C10.3196 12.2 12.2 10.3196 12.2 8C12.2 5.6804 10.3196 3.8 8 3.8C5.6804 3.8 3.8 5.6804 3.8 8Z" fill="#C091F2"/>
<path d="M12.0817 7.23125H9.85779L9.38677 6.29737C9.32935 6.18386 9.20647 6.12022 9.08016 6.13956C8.95457 6.15894 8.85576 6.25704 8.83529 6.38244L8.42544 8.90623L7.92721 5.01533C7.90959 4.87849 7.79918 4.77254 7.66192 4.76048C7.52436 4.74975 7.39741 4.83366 7.35632 4.96519L6.21686 8.61865L5.88475 6.57131C5.8639 6.44328 5.76151 6.3441 5.63291 6.32743C5.50444 6.31175 5.37993 6.38036 5.3273 6.49901L4.8388 7.59607H3.9183C3.7564 7.59607 3.625 7.72747 3.625 7.88937C3.625 8.05128 3.7564 8.18262 3.9183 8.18262H5.02933C5.14518 8.18262 5.25017 8.11444 5.29721 8.0086L5.46326 7.63598L5.83688 9.94037C5.85856 10.0747 5.96991 10.1762 6.10568 10.186C6.24144 10.1943 6.36582 10.1107 6.40644 9.98092L7.51617 6.42293L8.10012 10.9844C8.11859 11.1288 8.24039 11.2379 8.38603 11.2404H8.39107C8.53455 11.2404 8.65743 11.1363 8.68063 10.994L9.26953 7.36763L9.40873 7.64395L9.41503 7.65656C9.46487 7.75551 9.56626 7.81788 9.67711 7.81788H12.0818C12.2437 7.81788 12.375 7.68648 12.375 7.52458C12.375 7.36265 12.2437 7.23125 12.0817 7.23125Z" fill="#C091F2"/>
</svg>
