<svg width="24" height="24" viewBox="0 0 24 24" fill="none" xmlns="http://www.w3.org/2000/svg">
<path opacity="0.3" d="M21 12C21 16.9706 16.9706 21 12 21C7.02944 21 3 16.9706 3 12C3 7.02944 7.02944 3 12 3C16.9706 3 21 7.02944 21 12ZM6.6 12C6.6 14.9823 9.01766 17.4 12 17.4C14.9823 17.4 17.4 14.9823 17.4 12C17.4 9.01766 14.9823 6.6 12 6.6C9.01766 6.6 6.6 9.01766 6.6 12Z" fill="#f5c2e7"/>
<path d="M10.7669 14.5139H13.0851V14.306C13.0973 13.1132 13.5255 12.5566 14.4919 11.9755C15.6357 11.2966 16.382 10.3974 16.382 8.96004C16.382 6.81922 14.6571 5.57143 12.2288 5.57143C10.0085 5.57143 8.19793 6.73359 8.14288 9.18023H10.6385C10.6752 8.18323 11.4153 7.65108 12.2166 7.65108C13.0423 7.65108 13.709 8.20157 13.709 9.05179C13.709 9.85306 13.1279 10.3852 12.3756 10.8623C11.348 11.5107 10.773 12.1651 10.7669 14.306V14.5139ZM11.9719 18.4286C12.7548 18.4286 13.4338 17.7741 13.4399 16.9606C13.4338 16.1593 12.7548 15.5048 11.9719 15.5048C11.1645 15.5048 10.4978 16.1593 10.5039 16.9606C10.4978 17.7741 11.1645 18.4286 11.9719 18.4286Z" fill="#f5c2e7"/>
</svg>
