<svg width="24" height="24" viewBox="0 0 24 24" fill="none" xmlns="http://www.w3.org/2000/svg">
<path opacity="0.3" d="M21 12C21 16.9706 16.9706 21 12 21C7.02944 21 3 16.9706 3 12C3 7.02944 7.02944 3 12 3C16.9706 3 21 7.02944 21 12ZM6.6 12C6.6 14.9823 9.01766 17.4 12 17.4C14.9823 17.4 17.4 14.9823 17.4 12C17.4 9.01766 14.9823 6.6 12 6.6C9.01766 6.6 6.6 9.01766 6.6 12Z" fill="#f5c2e7"/>
<path d="M21 12C21 16.9706 16.9706 21 12 21C7.02944 21 3 16.9706 3 12C3 7.02944 7.02944 3 12 3C16.9706 3 21 7.02944 21 12ZM6.6 12C6.6 14.9823 9.01766 17.4 12 17.4C14.9823 17.4 17.4 14.9823 17.4 12C17.4 9.01766 14.9823 6.6 12 6.6C9.01766 6.6 6.6 9.01766 6.6 12Z" fill="#f5c2e7"/>
</svg>
