<svg width="24" height="24" viewBox="0 0 24 24" fill="none" xmlns="http://www.w3.org/2000/svg">
<path opacity="0.3" d="M21 12C21 16.9706 16.9706 21 12 21C7.02944 21 3 16.9706 3 12C3 7.02944 7.02944 3 12 3C16.9706 3 21 7.02944 21 12ZM6.6 12C6.6 14.9823 9.01766 17.4 12 17.4C14.9823 17.4 17.4 14.9823 17.4 12C17.4 9.01766 14.9823 6.6 12 6.6C9.01766 6.6 6.6 9.01766 6.6 12Z" fill="#f5c2e7"/>
<path d="M3 12C3 13.78 3.52784 15.5201 4.51677 17.0001C5.50571 18.4802 6.91131 19.6337 8.55585 20.3149C10.2004 20.9961 12.01 21.1743 13.7558 20.8271C15.5016 20.4798 17.1053 19.6226 18.364 18.364C19.6226 17.1053 20.4798 15.5016 20.8271 13.7558C21.1743 12.01 20.9961 10.2004 20.3149 8.55585C19.6337 6.91131 18.4802 5.50571 17.0001 4.51677C15.5201 3.52784 13.78 3 12 3L12 6.6C13.068 6.6 14.1121 6.9167 15.0001 7.51006C15.8881 8.10342 16.5802 8.94679 16.9889 9.93351C17.3977 10.9202 17.5046 12.006 17.2962 13.0535C17.0879 14.101 16.5736 15.0632 15.8184 15.8184C15.0632 16.5736 14.101 17.0879 13.0535 17.2962C12.006 17.5046 10.9202 17.3977 9.93351 16.9889C8.94679 16.5802 8.10342 15.8881 7.51006 15.0001C6.9167 14.1121 6.6 13.068 6.6 12L3 12Z" fill="#f5c2e7"/>
</svg>
