<?xml version="1.0" encoding="utf-8"?>
<!-- Generator: Adobe Illustrator 25.2.0, SVG Export Plug-In . SVG Version: 6.00 Build 0)  -->
<svg version="1.1" xmlns="http://www.w3.org/2000/svg" xmlns:xlink="http://www.w3.org/1999/xlink" x="0px" y="0px"
	 viewBox="0 0 270 166" style="enable-background:new 0 0 270 166;" xml:space="preserve">
<style type="text/css">
	.st0{fill:#1E1E2E;}
	.st1{fill:#11111B;}
	.st2{clip-path:url(#SVGID_2_);}
	.st3{fill:#B4BEFE;}
	.st4{clip-path:url(#SVGID_4_);}
	.st5{fill:#CBA6F7;}
	.st6{clip-path:url(#SVGID_6_);}
	.st7{fill:#F5C2E7;}
	.st8{fill-rule:evenodd;clip-rule:evenodd;fill:#11111B;}
	.st9{clip-path:url(#SVGID_8_);}
	.st10{fill:#F38BA8;}
	.st11{clip-path:url(#SVGID_10_);}
	.st12{fill:#89B4FA;}
	.st13{clip-path:url(#SVGID_12_);}
	.st14{fill:#A6E3A1;}
	.st15{clip-path:url(#SVGID_14_);}
	.st16{fill:#89DCEB;}
	.st17{clip-path:url(#SVGID_16_);}
	.st18{fill:#F9E2AF;}
</style>
<g id="Layer_2">
	<path class="st0" d="M265,166H5c-2.8,0-5-2.2-5-5V5c0-2.8,2.2-5,5-5h260c2.8,0,5,2.2,5,5v156C270,163.8,267.8,166,265,166z"/>
</g>
<g id="Layer_1">
	<g>
		<g>
			<g>
				<g>
					<path class="st1" d="M221.5,110h38c3.3,0,6,2.7,6,6v38c0,3.3-2.7,6-6,6h-38c-3.3,0-6-2.7-6-6v-38
						C215.5,112.7,218.2,110,221.5,110z"/>
					<g>
						<g>
							<defs>
								<path id="SVGID_1_" d="M241.5,110h18c3.3,0,6,2.7,6,6v18h-16c-4.4,0-8-3.6-8-8V110z"/>
							</defs>
							<clipPath id="SVGID_2_">
								<use xlink:href="#SVGID_1_"  style="overflow:visible;"/>
							</clipPath>
							<g class="st2">
								<path class="st3" d="M241.5,110h18c3.3,0,6,2.7,6,6v18h-16c-4.4,0-8-3.6-8-8V110z"/>
								<g>
									<circle class="st3" cx="266" cy="133.5" r="7.5"/>
								</g>
								<path class="st1" d="M250,114.6c-0.2,0-0.5,0.1-0.8,0.2c-1.1,0.6-2.1,2.6-2.6,5.1c-0.5,2.2-0.6,5.1-0.4,6.3
									c0.2,1,0.6,1.5,1.4,1.5c1.1,0,2.4-1.3,3.3-3c0.6-1,2.1-1.4,3.4-1.3c1.4-0.1,2.8,0.4,3.4,1.3c0.9,1.7,2.2,3,3.3,3
									c0.7,0,1.1-0.5,1.4-1.5c0.3-1.2,0.1-4.2-0.4-6.3c-0.5-2.6-1.5-4.5-2.6-5.1c-0.3-0.2-0.6-0.2-0.8-0.2s-0.5,0.1-0.7,0.2
									c-0.5,0.4-1.7,0.9-3.7,0.9s-3.1-0.4-3.7-0.9C250.4,114.7,250.2,114.6,250,114.6z M250.2,117h1.3v2h2v1h-2v2h-1v-2h-2v-1h2
									v-2H250.2z M257.6,117.1c0.5,0,0.8,0.4,0.8,0.8c0,0.5-0.4,0.8-0.8,0.8c-0.5,0-0.8-0.4-0.8-0.8
									C256.8,117.4,257.2,117.1,257.6,117.1z M256,118.7c0.5,0,0.8,0.4,0.8,0.8s-0.4,0.8-0.8,0.8c-0.5,0-0.8-0.4-0.8-0.8
									S255.5,118.7,256,118.7z M259.3,118.7c0.5,0,0.8,0.4,0.8,0.8s-0.4,0.8-0.8,0.8c-0.4,0-0.8-0.4-0.8-0.8
									S258.8,118.7,259.3,118.7z M257.6,120.4c0.5,0,0.8,0.4,0.8,0.8c0,0.4-0.3,0.8-0.8,0.8s-0.8-0.4-0.8-0.8
									C256.8,120.8,257.2,120.4,257.6,120.4z"/>
							</g>
						</g>
					</g>
				</g>
			</g>
			<g>
				<path class="st1" d="M151.5,110h38c3.3,0,6,2.7,6,6v38c0,3.3-2.7,6-6,6h-38c-3.3,0-6-2.7-6-6v-38
					C145.5,112.7,148.2,110,151.5,110z"/>
				<g>
					<defs>
						<path id="SVGID_3_" d="M171.5,110h18c3.3,0,6,2.7,6,6v18h-16c-4.4,0-8-3.6-8-8V110z"/>
					</defs>
					<clipPath id="SVGID_4_">
						<use xlink:href="#SVGID_3_"  style="overflow:visible;"/>
					</clipPath>
					<g class="st4">
						<path class="st5" d="M171.5,110h18c3.3,0,6,2.7,6,6v18h-16c-4.4,0-8-3.6-8-8V110z"/>
						<g>
							<circle class="st5" cx="196" cy="133.5" r="7.5"/>
						</g>
						<path class="st1" d="M190.5,116.4c0-0.1,0-0.2-0.1-0.4c-0.1-0.1-0.1-0.2-0.2-0.3c-0.1-0.1-0.2-0.1-0.3-0.2c-0.1,0-0.2,0-0.4,0
							l-8.3,1.7c-0.2,0-0.4,0.1-0.5,0.3c-0.1,0.1-0.2,0.3-0.2,0.5v7.2c0,0-0.7-0.1-1-0.1c-1.3,0-2.4,0.7-2.4,1.6
							c0,0.9,1.1,1.6,2.4,1.6s3-1.6,3-1.6v-6.6l6-1.2v4.7c0,0-0.7-0.1-1-0.1c-1.3,0-2.4,0.7-2.4,1.6c0,0.9,1.1,1.6,2.4,1.6
							s3-1.6,3-1.6V116.4z"/>
					</g>
				</g>
			</g>
			<g>
				<path class="st1" d="M11.5,110h38c3.3,0,6,2.7,6,6v38c0,3.3-2.7,6-6,6h-38c-3.3,0-6-2.7-6-6v-38C5.5,112.7,8.2,110,11.5,110z"/>
				<g>
					<defs>
						<path id="SVGID_5_" d="M31.5,110h18c3.3,0,6,2.7,6,6v18h-16c-4.4,0-8-3.6-8-8V110z"/>
					</defs>
					<clipPath id="SVGID_6_">
						<use xlink:href="#SVGID_5_"  style="overflow:visible;"/>
					</clipPath>
					<g class="st6">
						<path class="st7" d="M31.5,110h18c3.3,0,6,2.7,6,6v18h-16c-4.4,0-8-3.6-8-8V110z"/>
						<g>
							<circle class="st7" cx="56" cy="133.5" r="7.5"/>
						</g>
						<path class="st8" d="M39.1,117c-0.4,0-0.8,0.2-1.1,0.5c-0.3,0.3-0.5,0.7-0.5,1.1v7.9c0,0.4,0.2,0.8,0.5,1.1
							c0.3,0.3,0.7,0.5,1.1,0.5h9.7c0.4,0,0.8-0.2,1.1-0.5c0.3-0.3,0.5-0.7,0.5-1.1v-7.9c0-0.4-0.2-0.8-0.5-1.1
							c-0.3-0.3-0.7-0.5-1.1-0.5H39.1z M48.3,126h-9.6l3.2-6.4l2.4,4.8l1.6-3.2L48.3,126z"/>
					</g>
				</g>
			</g>
			<g>
				<path class="st1" d="M81.5,110h38c3.3,0,6,2.7,6,6v38c0,3.3-2.7,6-6,6h-38c-3.3,0-6-2.7-6-6v-38C75.5,112.7,78.2,110,81.5,110z"
					/>
				<g>
					<defs>
						<path id="SVGID_7_" d="M101.5,110h18c3.3,0,6,2.7,6,6v18h-16c-4.4,0-8-3.6-8-8V110z"/>
					</defs>
					<clipPath id="SVGID_8_">
						<use xlink:href="#SVGID_7_"  style="overflow:visible;"/>
					</clipPath>
					<g class="st9">
						<path class="st10" d="M101.5,110h18c3.3,0,6,2.7,6,6v18h-16c-4.4,0-8-3.6-8-8V110z"/>
						<g>
							<circle class="st10" cx="126" cy="133.5" r="7.5"/>
						</g>
						<path class="st1" d="M107.5,118.7c0-0.4,0.2-0.9,0.5-1.2c0.3-0.3,0.7-0.5,1.1-0.5h4.8c0.4,0,0.8,0.2,1.1,0.5
							c0.3,0.3,0.5,0.7,0.5,1.2v6.7c0,0.4-0.2,0.9-0.5,1.2c-0.3,0.3-0.7,0.5-1.1,0.5h-4.8c-0.4,0-0.8-0.2-1.1-0.5
							c-0.3-0.3-0.5-0.7-0.5-1.2V118.7z M116.9,119.8c-0.1,0.1-0.2,0.2-0.3,0.3c-0.1,0.1-0.1,0.3-0.1,0.4v3c0,0.1,0,0.3,0.1,0.4
							c0.1,0.1,0.2,0.2,0.3,0.3l1.5,0.8c0.1,0.1,0.2,0.1,0.4,0.1c0.1,0,0.3,0,0.4-0.1c0.1-0.1,0.2-0.2,0.3-0.3
							c0.1-0.1,0.1-0.2,0.1-0.4v-4.5c0-0.1,0-0.3-0.1-0.4c-0.1-0.1-0.2-0.2-0.3-0.3c-0.1-0.1-0.2-0.1-0.4-0.1c-0.1,0-0.3,0-0.4,0.1
							L116.9,119.8z"/>
					</g>
				</g>
			</g>
		</g>
		<g>
			<g>
				<path class="st1" d="M81.5,40h38c3.3,0,6,2.7,6,6v38c0,3.3-2.7,6-6,6h-38c-3.3,0-6-2.7-6-6V46C75.5,42.7,78.2,40,81.5,40z"/>
				<g>
					<defs>
						<path id="SVGID_9_" d="M101.5,40h18c3.3,0,6,2.7,6,6v18h-16c-4.4,0-8-3.6-8-8V40z"/>
					</defs>
					<clipPath id="SVGID_10_">
						<use xlink:href="#SVGID_9_"  style="overflow:visible;"/>
					</clipPath>
					<g class="st11">
						<path class="st12" d="M101.5,40h18c3.3,0,6,2.7,6,6v18h-16c-4.4,0-8-3.6-8-8V40z"/>
						<g>
							<circle class="st12" cx="126.1" cy="63.3" r="7.5"/>
						</g>
						<path class="st1" d="M107.5,48.7c0-0.4,0.2-0.9,0.5-1.2c0.3-0.3,0.7-0.5,1.1-0.5h3.7l1.6,2h4c0.4-0.4,0.8-0.2,1.1,0.1
							c0.3,0.3,1,1.1,1,1.1v5.1c0,0.4-0.2,0.9-0.5,1.2c-0.3,0.3-0.7,0.5-1.1,0.5h-9.8c-0.4,0-0.8-0.2-1.1-0.5
							c-0.3-0.3-0.5-0.7-0.5-1.2V48.7z"/>
					</g>
				</g>
			</g>
			<g>
				<path class="st1" d="M151.5,40h38c3.3,0,6,2.7,6,6v38c0,3.3-2.7,6-6,6h-38c-3.3,0-6-2.7-6-6V46C145.5,42.7,148.2,40,151.5,40z"
					/>
				<g>
					<defs>
						<path id="SVGID_11_" d="M171.5,40h18c3.3,0,6,2.7,6,6v18h-16c-4.4,0-8-3.6-8-8V40z"/>
					</defs>
					<clipPath id="SVGID_12_">
						<use xlink:href="#SVGID_11_"  style="overflow:visible;"/>
					</clipPath>
					<g class="st13">
						<path class="st14" d="M171.5,40h18c3.3,0,6,2.7,6,6v18h-16c-4.4,0-8-3.6-8-8V40z"/>
						<g>
							<circle class="st14" cx="196" cy="63.5" r="7.5"/>
						</g>
						<path class="st8" d="M178.5,47.6c0-0.4,0.2-0.8,0.5-1.1c0.3-0.3,0.7-0.5,1.2-0.5h3.9c0.4,0,0.8,0.2,1.1,0.5l2.9,2.8
							c0.3,0.3,0.5,0.7,0.5,1.1v7c0,0.4-0.2,0.8-0.5,1.1c-0.3,0.3-0.7,0.5-1.2,0.5h-6.7c-0.4,0-0.9-0.2-1.2-0.5
							c-0.3-0.3-0.5-0.7-0.5-1.1V47.6z M180.3,52c0-0.2,0.1-0.4,0.2-0.6c0.1-0.1,0.4-0.2,0.6-0.4h4.8c0.2,0.2,0.4,0.3,0.6,0.4
							c0.2,0.1,0.2,0.4,0.2,0.6s-0.1,0.4-0.2,0.6c-0.2,0.1-0.4,0.2-0.6,0.4h-4.8c-0.2-0.2-0.4-0.3-0.6-0.4
							C180.4,52.4,180.3,52.2,180.3,52z M181.1,54c-0.2,0.4-0.4,0.5-0.6,0.6c-0.2,0.2-0.2,0.4-0.2,0.6s0.1,0.4,0.2,0.6
							c0.1,0.2,0.4,0.2,0.6,0.2h4.8c0.2,0,0.4-0.1,0.6-0.2c0.2-0.2,0.2-0.4,0.2-0.6s-0.1-0.4-0.2-0.6c-0.2-0.2-0.4-0.2-0.6-0.6
							H181.1z"/>
					</g>
				</g>
			</g>
			<g>
				<path class="st1" d="M221.5,40h38c3.3,0,6,2.7,6,6v38c0,3.3-2.7,6-6,6h-38c-3.3,0-6-2.7-6-6V46C215.5,42.7,218.2,40,221.5,40z"
					/>
				<g>
					<defs>
						<path id="SVGID_13_" d="M241.5,40h18c3.3,0,6,2.7,6,6v18h-16c-4.4,0-8-3.6-8-8V40z"/>
					</defs>
					<clipPath id="SVGID_14_">
						<use xlink:href="#SVGID_13_"  style="overflow:visible;"/>
					</clipPath>
					<g class="st15">
						<path class="st16" d="M241.5,40h18c3.3,0,6,2.7,6,6v18h-16c-4.4,0-8-3.6-8-8V40z"/>
						<g>
							<circle class="st16" cx="266" cy="63.5" r="7.5"/>
						</g>
						<path class="st8" d="M247.1,51.6c0,0.7,0.3,1.5,0.8,2c0.5,0.5,1.2,0.8,2,0.4h2.6v2.5l-0.8-1c-0.2-0.1-0.4-0.2-0.6-0.2
							c-0.2,0-0.4,0.1-0.6,0.2c-0.1,0.1-0.2,0.3-0.2,0.6c0,0.2,0.1,0.4,0.2,0.6l2.4,2.4c0.1,0.2,0.4,0.2,0.6,0.2
							c0.2,0,0.4-0.1,0.6-0.2l2.4-2.4c0.1-0.2,0.2-0.4,0.2-0.6c0-0.2-0.1-0.4-0.2-0.6c-0.1-0.1-0.3-0.2-0.6-0.2
							c-0.2,0-0.4,0.1-0.6,0.2l-0.8,1V54h1.8c0.5,0.4,1,0.3,1.4,0.1c0.5-0.2,0.9-0.5,1.2-0.8c0.3-0.4,0.6-0.8,0.8-1.3
							c0.2-0.5,0.2-1,0.2-1.5c0-0.5-0.2-1-0.4-1.4c-0.2-0.4-0.5-0.8-0.9-1.1c-0.4-0.3-0.8-0.5-1.3-0.7c-0.5-0.1-1-0.2-1.5-0.1
							c-0.1-0.4-0.3-0.8-0.5-1.2c-0.2-0.3-0.6-0.6-0.9-0.9c-0.4-0.2-0.8-0.4-1.2-0.4c-0.4-0.1-0.9,0-1.3,0.1
							c-0.4,0.1-0.8,0.3-1.1,0.6c-0.3,0.3-0.6,0.6-0.8,1c-0.2,0.4-0.4,0.8-0.4,1.2s0,0.9,0.1,1.3c-0.7,0.1-1.3,0.4-1.8,0.9
							C247.4,50.2,247.1,50.9,247.1,51.6L247.1,51.6z M254.5,54h-2v-3.6c0.2-0.2,0.3-0.4,0.4-0.6c0.2-0.1,0.4-0.2,0.6-0.2
							c0.2,0,0.4,0.1,0.6,0.2c0.1,0.2,0.2,0.4,0.4,0.6V54z"/>
					</g>
				</g>
			</g>
			<g>
				<path class="st1" d="M12.2,40.1h38c3.3,0,6,2.7,6,6v38c0,3.3-2.7,6-6,6h-38c-3.3,0-6-2.7-6-6v-38C6.2,42.8,8.9,40.1,12.2,40.1z"
					/>
				<g>
					<g>
						<defs>
							<path id="SVGID_15_" d="M32.2,40.1h18c3.3,0,6,2.7,6,6v18h-16c-4.4,0-8-3.6-8-8V40.1z"/>
						</defs>
						<clipPath id="SVGID_16_">
							<use xlink:href="#SVGID_15_"  style="overflow:visible;"/>
						</clipPath>
						<g class="st17">
							<path class="st18" d="M32.2,40.1h18c3.3,0,6,2.7,6,6v18h-16c-4.4,0-8-3.6-8-8V40.1z"/>
							<g>
								<circle class="st18" cx="56.7" cy="63.6" r="7.5"/>
							</g>
							<path class="st1" d="M34.9,42.7h2.2c0.5,0,0.9,0.4,0.9,0.9v2.2c0,0.5-0.4,0.9-0.9,0.9h-2.2c-0.5,0-0.9-0.4-0.9-0.9v-2.2
								C34,43,34.4,42.7,34.9,42.7z"/>
							<path class="st1" d="M30.5,55.7v3.8h25.7v-3.8H30.5z M51.6,58.6h-2v-2h2V58.6z M55.3,58.6h-2v-2h2V58.6z"/>
							<path class="st1" d="M34.9,48.4h2.2c0.5,0,0.9,0.4,0.9,0.9v2.2c0,0.5-0.4,0.9-0.9,0.9h-2.2c-0.5,0-0.9-0.4-0.9-0.9v-2.2
								C34,48.7,34.4,48.4,34.9,48.4z"/>
						</g>
					</g>
				</g>
			</g>
		</g>
	</g>
	<g>
		<g>
			<g>
				<path class="st12" d="M214.5,6h12c1.7,0,3,1.3,3,3v12c0,1.7-1.3,3-3,3h-12c-1.7,0-3-1.3-3-3V9C211.5,7.3,212.8,6,214.5,6z"/>
				<path class="st1" d="M214.9,13c0-0.6,0.1-0.9,0.4-1.2c0.3-0.2,0.6-0.3,1,0.2h3.4l1.3,1h3.1c0.4,0,0.7,0.1,0.9,0.4
					c0.3,0.3,0.4,0.6,0.4,0.9v4.2c0,0.4-0.1,0.7-0.4,1c-0.2,0.3-0.5,0.4-0.9,0.4h-8.3c-0.4,0-0.7-0.1-0.9-0.4
					c-0.3-0.3-0.4-0.6-0.4-1V13H214.9z"/>
			</g>
		</g>
		<g>
			<path class="st14" d="M180.5,6h12c1.7,0,3,1.3,3,3v12c0,1.7-1.3,3-3,3h-12c-1.7,0-3-1.3-3-3V9C177.5,7.3,178.8,6,180.5,6z"/>
			<path class="st8" d="M182.5,11.4c0-0.4,0.1-0.7,0.4-1c0.3-0.3,0.6-0.4,0.9-0.4h3c0.4,0,0.7,0.2,1,0.4l2.2,2.3
				c0.3,0.3,0.4,0.6,0.4,1v5.9c0,0.4-0.1,0.7-0.4,1c-0.3,0.3-0.6,0.4-0.9,0.4h-5.3c-0.4,0-0.7-0.1-0.9-0.4c-0.3-0.3-0.4-0.6-0.4-1
				V11.4z M183.7,15c0-0.2,0.1-0.4,0.2-0.5s0.3-0.2,0.5-0.5h4.2c0.2,0.3,0.4,0.4,0.5,0.5s0.2,0.3,0.2,0.5s-0.1,0.4-0.2,0.5
				c-0.1,0.1-0.3,0.2-0.5-0.5h-4.2c-0.2,0.7-0.4,0.6-0.5,0.5C183.8,15.4,183.7,15.2,183.7,15z M184.4,17c-0.2,0.1-0.4,0.2-0.5,0.3
				s-0.2,0.3-0.2,0.5s0.1,0.4,0.2,0.5c0.1,0.1,0.3,0.2,0.5-0.3h4.2c0.2,0.5,0.4,0.4,0.5,0.3c0.1-0.1,0.2-0.3,0.2-0.5
				s-0.1-0.4-0.2-0.5s-0.3-0.2-0.5-0.3H184.4z"/>
		</g>
		<g>
			<path class="st16" d="M146.5,6h12c1.7,0,3,1.3,3,3v12c0,1.7-1.3,3-3,3h-12c-1.7,0-3-1.3-3-3V9C143.5,7.3,144.8,6,146.5,6z"/>
			<path class="st8" d="M146.9,14.6c0,0.6,0.3,1.3,0.7,1.7c0.5,0.5,1.1,0.7,1.7,0.6h2.1v1.9l-0.6-0.9c-0.1-0.1-0.3-0.2-0.5-0.2
				c-0.2,0-0.4,0.1-0.5,0.2c-0.1,0.1-0.2,0.3-0.2,0.5c0,0.2,0.1,0.4,0.2,0.5l2.1,2.1c0.1,0.1,0.3,0.2,0.5,0.2s0.4-0.1,0.5-0.2
				l2.1-2.1c0.1-0.1,0.2-0.3,0.2-0.5c0-0.2-0.1-0.4-0.2-0.5c-0.1-0.1-0.3-0.2-0.5-0.2c-0.2,0-0.4,0.1-0.5,0.2l-1.6,0.9V17h2.4
				c0.4,0.1,0.9,0,1.3-0.2c0.4-0.2,0.8-0.4,1-0.7c0.3-0.3,0.5-0.7,0.7-1.1c0.1-0.4,0.2-0.8,0.2-1.3c0-0.4-0.1-0.9-0.3-1.2
				c-0.2-0.4-0.5-0.7-0.8-1c-0.3-0.3-0.7-0.5-1.1-0.6c-0.4-0.1-0.9-0.1-1.3-0.1c-0.1-0.4-0.2-0.7-0.5-1c-0.2-0.3-0.5-0.6-0.8-0.8
				c-0.3-0.2-0.7-0.3-1-0.4c-0.4-0.1-0.7,0-1.1,0.1c-0.4,0.1-0.7,0.3-1,0.5c-0.3,0.2-0.5,0.5-0.7,0.8s-0.3,0.7-0.4,1.1
				c0,0.4,0,0.7,0.1,1.1c-0.6,0.1-1.2,0.3-1.6,0.8C147.1,13.5,146.9,14,146.9,14.6L146.9,14.6z M152.5,17h-1v-3.4
				c0.3-0.2,0.4-0.4,0.5-0.5c0.1-0.1,0.3-0.2,0.5-0.2c0.2,0,0.4,0.1,0.5,0.2c0.1,0.1,0.2,0.3-0.5,0.5V17z"/>
		</g>
		<g>
			<g>
				<path class="st3" d="M112.5,6h12c1.7,0,3,1.3,3,3v12c0,1.7-1.3,3-3,3h-12c-1.7,0-3-1.3-3-3V9C109.5,7.3,110.8,6,112.5,6z"/>
				<path class="st1" d="M115.1,9.9c-0.1,0-0.3,0.1-0.6,0.2c-0.8,0.5-1.6,2-2,4c-0.4,1.7-0.5,4-0.3,4.9c0.2,0.8,0.5,1.2,1.1,1.2
					c0.8,0,1.9-1,2.6-2.3c0.5-0.8,1.6-1.1,2.6-1c1.1-0.1,2.2,0.3,2.6,1c0.7,1.3,1.7,2.3,2.6,2.3c0.5,0,0.9-0.4,1.1-1.2
					c0.2-0.9,0.1-3.3-0.3-4.9c-0.4-2-1.2-3.5-2-4c-0.2-0.2-0.5-0.2-0.6-0.2c-0.2,0-0.4,0.1-0.6,0.2c-0.4,0.3-1.3,0.7-2.9,0.7
					s-2.4-0.3-2.9-0.7C115.5,10,115.3,9.9,115.1,9.9z M115.5,12h1v1h1v1h-1v1h-1v-1h-1v-1h1v-1.1V12z M121,11.9
					c0.4,0,0.6,0.3,0.6,0.6c0,0.4-0.3,0.6-0.6,0.6c-0.4,0-0.6-0.3-0.6-0.6C120.4,12.1,120.7,11.9,121,11.9z M119.8,13.1
					c0.4,0,0.6,0.3,0.6,0.6s-0.3,0.6-0.6,0.6c-0.4,0-0.6-0.3-0.6-0.6C119.2,13.4,119.4,13.1,119.8,13.1z M122.4,13.1
					c0.4,0,0.6,0.3,0.6,0.6s-0.3,0.6-0.6,0.6c-0.3,0-0.6-0.3-0.6-0.6C121.7,13.4,122,13.1,122.4,13.1z M121,14.4
					c0.4,0,0.6,0.3,0.6,0.6s-0.2,0.6-0.6,0.6s-0.6-0.3-0.6-0.6S120.7,14.4,121,14.4z"/>
			</g>
		</g>
		<g>
			<path class="st5" d="M78.5,6h12c1.7,0,3,1.3,3,3v12c0,1.7-1.3,3-3,3h-12c-1.7,0-3-1.3-3-3V9C75.5,7.3,76.8,6,78.5,6z"/>
			<path class="st1" d="M89.5,10.1c0-0.1,0-0.2-0.1-0.3c0-0.1-0.1-0.2-0.2-0.2c-0.1-0.1-0.2-0.1-0.3-0.1c-0.1,0-0.2,0-0.3,0L82,10.8
				c-0.2,0-0.3,0.1-0.4,0.2c-0.1,0.1-0.2,0.3-0.2,0.4v6.4c0,0-0.3-0.1-0.5-0.1c-1.2,0-2.1,0.6-2.1,1.4c0,0.8,0.9,1.4,2.1,1.4
				c1.2,0,1.5-1.4,1.5-1.4v-5.7l6-1.2v4.2c0,0-0.3-0.1-0.5-0.1c-1.2,0-2.1,0.6-2.1,1.4c0,0.8,0.9,1.4,2.1,1.4s1.5-1.4,1.5-1.4V10.1z
				"/>
		</g>
		<g>
			<path class="st7" d="M44.5,6h12c1.7,0,3,1.3,3,3v12c0,1.7-1.3,3-3,3h-12c-1.7,0-3-1.3-3-3V9C41.5,7.3,42.8,6,44.5,6z"/>
			<path class="st8" d="M46.9,10c-0.4,0-0.7,0.2-1,0.4c-0.3,0.3-0.4,0.6-0.4,1v7.1c0,0.4,0.1,0.7,0.4,1c0.3,0.3,0.6,0.4,1,0.4h8.2
				c0.4,0,0.7-0.2,1-0.4c0.3-0.3,0.4-0.6,0.4-1v-7.1c0-0.4-0.1-0.7-0.4-1c-0.3-0.3-0.6-0.4-1-0.4H46.9z M54.7,19h-8.4l2.8-5.6
				l2.1,4.2l1.4-2.8L54.7,19z"/>
		</g>
		<g>
			<path class="st10" d="M248.5,6h12c1.7,0,3,1.3,3,3v12c0,1.7-1.3,3-3,3h-12c-1.7,0-3-1.3-3-3V9C245.5,7.3,246.8,6,248.5,6z"/>
			<path class="st1" d="M248.5,12.3c0-0.4,0.1-0.7,0.4-0.9c0.3-0.3,0.6-0.4,1-0.4h4.2c0.4,0,0.7,0.1,1,0.4c0.3,0.3,0.4,0.6,0.4,0.9
				v5.3c0,0.4-0.1,0.7-0.4,0.9c-0.3,0.3-0.6,0.4-1,0.4h-4.2c-0.4,0-0.7-0.1-1-0.4c-0.3-0.2-0.4-0.6-0.4-0.9V12.3z M257.9,12.8
				c-0.1,0.1-0.2,0.2-0.3,0.3c-0.1,0.1-0.1,0.3-0.1,0.4v3c0,0.1,0,0.3,0.1,0.4c0.1,0.1,0.2,0.2,0.3,0.3l1.5,0.8
				c0.1,0.1,0.2,0.1,0.4,0.1c0.1,0,0.3,0,0.4-0.1c0.1-0.1,0.2-0.2,0.3-0.3c0.1-0.1,0.1-0.2,0.1-0.4v-4.5c0-0.1,0-0.3-0.1-0.4
				c-0.1-0.1-0.2-0.2-0.3-0.3c-0.1-0.1-0.2-0.1-0.4-0.1c-0.1,0-0.3,0-0.4,0.1L257.9,12.8z"/>
		</g>
		<g>
			<g>
				<path class="st18" d="M7.5,9.9C7.5,7.7,9.2,6,11.4,6h10.3c2.1,0,3.8,1.7,3.8,3.9v10.2c0,2.2-1.7,3.9-3.9,3.9H11.4
					c-2.2-0.1-3.9-1.8-3.9-4V9.9z"/>
				<path class="st1" d="M10.1,8h1.7c0.4,0,0.7,0.3,0.7,0.7v1.7c0,0.4-0.3,0.6-0.6,0.6h-1.7c-0.4,0-0.6-0.3-0.6-0.6V8.8
					C9.4,8.3,9.7,8,10.1,8z"/>
				<path class="st1" d="M7.5,17v3h18v-3H7.5z M22.5,19h-1v-1h1V19z M24.5,19h-1v-1h1V19z"/>
				<path class="st1" d="M10.6,12h1.5c0.4,0.3,0.6,0.6,0.4,0.9v1.5c0.2,0.4-0.1,0.6-0.4,0.6h-1.5c-0.4,0-0.6-0.3-1.1-0.6v-1.5
					C9.9,12.6,10.2,12.3,10.6,12z"/>
			</g>
		</g>
	</g>
</g>
</svg>
