<svg width="48" height="48" viewBox="0 0 48 48" fill="none" xmlns="http://www.w3.org/2000/svg">
<path opacity="0.2" d="M40 7V43C40 44.1046 39.1046 45 38 45H10C8.89543 45 8 44.1046 8 43V7C8 5.89543 8.89543 5 10 5H38C39.1046 5 40 5.89543 40 7Z" fill="black"/>
<path d="M40 6V42C40 43.1046 39.1046 44 38 44H10C8.89543 44 8 43.1046 8 42V6C8 4.89543 8.89543 4 10 4H38C39.1046 4 40 4.89543 40 6Z" fill="#8E8E8E"/>
<path opacity="0.2" d="M10 4C8.892 4 8 4.892 8 6V7C8 5.892 8.892 5 10 5H38C39.108 5 40 5.892 40 7V6C40 4.892 39.108 4 38 4H10Z" fill="white"/>
<g opacity="0.5">
<path opacity="0.5" d="M24 18C22.6739 18 21.4021 18.5268 20.4645 19.4645C19.5268 20.4021 19 21.6739 19 23C19 24.3261 19.5268 25.5979 20.4645 26.5355C21.4021 27.4732 22.6739 28 24 28C25.3261 28 26.5978 27.4732 27.5355 26.5355C28.4732 25.5979 29 24.3261 29 23C29 21.6739 28.4732 20.4021 27.5355 19.4645C26.5978 18.5268 25.3261 18 24 18V18ZM24 20C24.7956 20 25.5587 20.3161 26.1213 20.8787C26.6839 21.4413 27 22.2044 27 23C27 23.7956 26.6839 24.5587 26.1213 25.1213C25.5587 25.6839 24.7956 26 24 26C23.2043 26 22.4413 25.6839 21.8787 25.1213C21.3161 24.5587 21 23.7956 21 23C21 22.2044 21.3161 21.4413 21.8787 20.8787C22.4413 20.3161 23.2043 20 24 20Z" fill="black"/>
<path opacity="0.5" d="M16.9706 20.1525L21.2132 15.9099L19.799 14.4957L15.5563 18.7383L16.9706 20.1525Z" fill="black"/>
<path opacity="0.5" d="M14.1421 17.3241L18.3848 13.0815L16.9706 11.6673L12.7279 15.9099L14.1421 17.3241Z" fill="black"/>
<path opacity="0.5" d="M27 30H21V32H27V30Z" fill="black"/>
<path opacity="0.5" d="M27 34H21V36H27V34Z" fill="black"/>
<path opacity="0.5" d="M26.8701 15.9099L31.1127 20.1525L35.3553 15.9099L31.1127 11.6673L26.8701 15.9099Z" fill="black"/>
</g>
<rect x="4" y="4" width="40" height="40" rx="3" fill="url(#paint0_linear)"/>
<path d="M23.9709 17.2872C22.445 17.2872 20.9815 17.8933 19.9025 18.9723C18.8235 20.0513 18.2174 21.5148 18.2174 23.0407C18.2174 24.5667 18.8235 26.0301 19.9025 27.1091C20.9815 28.1881 22.445 28.7943 23.9709 28.7943C25.4969 28.7943 26.9603 28.1881 28.0393 27.1091C29.1183 26.0301 29.7245 24.5667 29.7245 23.0407C29.7245 21.5148 29.1183 20.0513 28.0393 18.9723C26.9603 17.8933 25.4969 17.2872 23.9709 17.2872ZM23.9709 19.5886C24.8865 19.5886 25.7646 19.9523 26.412 20.5997C27.0594 21.2471 27.4231 22.1252 27.4231 23.0407C27.4231 23.9563 27.0594 24.8344 26.412 25.4818C25.7646 26.1292 24.8865 26.4929 23.9709 26.4929C23.0554 26.4929 22.1773 26.1292 21.5299 25.4818C20.8825 24.8344 20.5188 23.9563 20.5188 23.0407C20.5188 22.1252 20.8825 21.2471 21.5299 20.5997C22.1773 19.9523 23.0554 19.5886 23.9709 19.5886Z" fill="#11111b"/>
<path d="M15.8821 19.7641L20.7641 14.8821L19.1368 13.2547L14.2547 18.1368L15.8821 19.7641Z" fill="#11111b"/>
<path d="M12.6274 16.5094L17.5094 11.6274L15.8821 10L11 14.8821L12.6274 16.5094Z" fill="#11111b"/>
<path d="M27.4231 31.0957H20.5188V33.3971H27.4231V31.0957Z" fill="#11111b"/>
<path d="M27.4231 35.6986H20.5188V38H27.4231V35.6986Z" fill="#11111b"/>
<path d="M27.2735 14.8821L32.1556 19.7641L37.0377 14.8821L32.1556 10L27.2735 14.8821Z" fill="#11111b"/>
<defs>
<linearGradient id="paint0_linear" x1="-30.6429" y1="71.1429" x2="82.5714" y2="-18.5" gradientUnits="userSpaceOnUse">
<stop stop-color="#fab387"/>

<stop offset="0.919448" stop-color="#fab387"/>
</linearGradient>
</defs>
</svg>
