<svg width="48" height="48" viewBox="0 0 48 48" fill="none" xmlns="http://www.w3.org/2000/svg">
<path opacity="0.2" d="M44 7V43C44 44.1046 43.1046 45 42 45H6C4.89543 45 4 44.1046 4 43V7C4 5.89543 4.89543 5 6 5H42C43.1046 5 44 5.89543 44 7Z" fill="black"/>
<path d="M44 6V42C44 43.1046 43.1046 44 42 44H6C4.89543 44 4 43.1046 4 42V6C4 4.89543 4.89543 4 6 4H42C43.1046 4 44 4.89543 44 6Z" fill="#8E8E8E"/>
<path opacity="0.2" d="M6 4C4.892 4 4 4.892 4 6V7C4 5.892 4.892 5 6 5H42C43.108 5 44 5.892 44 7V6C44 4.892 43.108 4 42 4H6Z" fill="white"/>
<path opacity="0.5" d="M24 10C20.287 10 16.726 11.475 14.1005 14.1005C11.475 16.726 10 20.287 10 24C10 27.713 11.475 31.274 14.1005 33.8995C16.726 36.525 20.287 38 24 38C27.713 38 31.274 36.525 33.8995 33.8995C36.525 31.274 38 27.713 38 24C38 20.287 36.525 16.726 33.8995 14.1005C31.274 11.475 27.713 10 24 10V10ZM24 19C25.3261 19 26.5979 19.5268 27.5355 20.4645C28.4732 21.4021 29 22.6739 29 24C29 25.3261 28.4732 26.5979 27.5355 27.5355C26.5979 28.4732 25.3261 29 24 29C22.6739 29 21.4021 28.4732 20.4645 27.5355C19.5268 26.5979 19 25.3261 19 24C19 22.6739 19.5268 21.4021 20.4645 20.4645C21.4021 19.5268 22.6739 19 24 19V19Z" fill="black"/>
<rect x="4" y="4" width="40" height="40" rx="3" fill="url(#paint0_linear)"/>
<path d="M24 10C20.287 10 16.726 11.475 14.1005 14.1005C11.475 16.726 10 20.287 10 24C10 27.713 11.475 31.274 14.1005 33.8995C16.726 36.525 20.287 38 24 38C27.713 38 31.274 36.525 33.8995 33.8995C36.525 31.274 38 27.713 38 24C38 20.287 36.525 16.726 33.8995 14.1005C31.274 11.475 27.713 10 24 10V10ZM24 19C25.3261 19 26.5979 19.5268 27.5355 20.4645C28.4732 21.4021 29 22.6739 29 24C29 25.3261 28.4732 26.5979 27.5355 27.5355C26.5979 28.4732 25.3261 29 24 29C22.6739 29 21.4021 28.4732 20.4645 27.5355C19.5268 26.5979 19 25.3261 19 24C19 22.6739 19.5268 21.4021 20.4645 20.4645C21.4021 19.5268 22.6739 19 24 19V19Z" fill="#11111b"/>
<defs>
<linearGradient id="paint0_linear" x1="-30.6429" y1="71.1429" x2="82.5714" y2="-18.5" gradientUnits="userSpaceOnUse">
<stop stop-color="#fab387"/>

<stop offset="0.919448" stop-color="#fab387"/>
</linearGradient>
</defs>
</svg>
