<?xml version="1.0" encoding="utf-8"?>
<!-- Generator: Adobe Illustrator 25.2.0, SVG Export Plug-In . SVG Version: 6.00 Build 0)  -->
<svg version="1.1" id="Layer_1" xmlns="http://www.w3.org/2000/svg" xmlns:xlink="http://www.w3.org/1999/xlink" x="0px" y="0px"
	 viewBox="0 0 64 64" style="enable-background:new 0 0 64 64;" xml:space="preserve">
<style type="text/css">
	.st0{fill:#11111b;}
	.st1{clip-path:url(#SVGID_2_);}
	.st2{fill:#b4befe;}
</style>
<g>
	<path class="st0" d="M13,7h38c3.3,0,6,2.7,6,6v38c0,3.3-2.7,6-6,6H13c-3.3,0-6-2.7-6-6V13C7,9.7,9.7,7,13,7z"/>
	<g>
		<defs>
			<path id="SVGID_1_" d="M33,7h18c3.3,0,6,2.7,6,6v18H41c-4.4,0-8-3.6-8-8V7z"/>
		</defs>
		<clipPath id="SVGID_2_">
			<use xlink:href="#SVGID_1_"  style="overflow:visible;"/>
		</clipPath>
		<g class="st1">
			<path class="st2" d="M33,7h18c3.3,0,6,2.7,6,6v18H41c-4.4,0-8-3.6-8-8V7z"/>
			<g>
				<circle class="st2" cx="57.5" cy="30.5" r="7.5"/>
			</g>
			<path class="st0" d="M45.4,10.7c-4.6,0-8.3,3.7-8.3,8.3s3.7,8.3,8.3,8.3s8.3-3.7,8.3-8.3S50,10.7,45.4,10.7z M44.9,13
				c0.1,0,0.2,0,0.3,0c0,0-0.1,0.2-0.1,0.4c-0.6,1.3-0.6,2.7-0.1,3.5c0.1,0.1,0.2,0.3,0.2,0.3c0,0-0.1,0-0.2,0
				c-0.3,0-0.5-0.2-1.1-0.6c-0.2-0.2-0.5-0.3-0.7-0.4c-0.2,0-0.2,0-0.5,0.2c-0.2,0.2-0.3,0.3-0.3,0.6c0,0.8,0.9,1.4,2.7,1.8
				c2.4,0.5,2.9,0.9,3,2.2c0.1,1.6-0.7,2.7-2.6,3.6c-0.2,0.1-0.4,0.2-0.4,0.2c0,0-0.1,0-0.1,0c0,0,0-0.2,0-0.4
				c0-0.8-0.3-1.7-0.8-2.2c-0.1-0.1-0.5-0.4-0.8-0.6c-0.3-0.2-0.6-0.4-0.7-0.5c-0.1-0.2-0.1-0.3,0-0.6c0.2-0.5,0.4-0.8,0.7-1.2
				c0.2-0.2,0.4-0.3,0.4-0.3c0,0-0.3-0.1-0.7-0.2c-0.4-0.1-1.1-0.3-1.4-0.4c-0.6-0.2-1.5-0.7-1.8-1c0,0,0,0,0,0
				c0.5-1.8,1.7-3.3,3.5-4c0.4-0.2,0.7-0.3,1.1-0.3C44.5,13,44.7,13,44.9,13z M50.4,15.8c0.1,0.1,0.7,1.2,0.8,1.8
				c0.2,0.7,0.2,2,0,2.7c-0.1,0.3-0.2,0.5-0.2,0.6c0,0-0.1-0.2-0.3-0.4c-0.1-0.2-0.5-0.7-0.9-1c-1-1-1.1-1.5-0.7-2.3
				C49.4,16.6,50.3,15.7,50.4,15.8z"/>
		</g>
	</g>
</g>
</svg>
