<?xml version="1.0" encoding="utf-8"?>
<!-- Generator: Adobe Illustrator 25.2.0, SVG Export Plug-In . SVG Version: 6.00 Build 0)  -->
<svg version="1.1" id="Layer_1" xmlns="http://www.w3.org/2000/svg" xmlns:xlink="http://www.w3.org/1999/xlink" x="0px" y="0px"
	 viewBox="0 0 64 64" style="enable-background:new 0 0 64 64;" xml:space="preserve">
<style type="text/css">
	.st0{fill:#11111b;}
	.st1{clip-path:url(#SVGID_2_);}
	.st2{fill:#b4befe;}
</style>
<g>
	<path class="st0" d="M13,7h38c3.3,0,6,2.7,6,6v38c0,3.3-2.7,6-6,6H13c-3.3,0-6-2.7-6-6V13C7,9.7,9.7,7,13,7z"/>
	<g>
		<defs>
			<path id="SVGID_1_" d="M33,7h18c3.3,0,6,2.7,6,6v18H41c-4.4,0-8-3.6-8-8V7z"/>
		</defs>
		<clipPath id="SVGID_2_">
			<use xlink:href="#SVGID_1_"  style="overflow:visible;"/>
		</clipPath>
		<g class="st1">
			<path class="st2" d="M33,7h18c3.3,0,6,2.7,6,6v18H41c-4.4,0-8-3.6-8-8V7z"/>
			<g>
				<circle class="st2" cx="57.5" cy="30.5" r="7.5"/>
			</g>
			<path class="st0" d="M47.5,10.3c-0.3,0.1-0.6,0.3-0.9,0.5c-1.2,1-1,3.1,0.2,4.1c0.2,0.2,0.4,0.3,0.7,0.4v2.1
				c1,0.5,1.4,0.7,2.2,1.4c0.5,0.6,0.5,0.6,0.7,1v-4.6c0.3-0.1,0.6-0.2,0.8-0.4c1.3-1,1.2-3,0-4c-0.3-0.2-0.6-0.4-0.9-0.5v2.1
				c0,0.7,0,1.4-0.7,1.4h-1.4c-0.7,0-0.7-0.7-0.7-1.4V10.3z M45,17.5c-3.9,0-5.4,3-5.4,5.7h-1.9c-0.2,0-0.2,0.2-0.2,0.2v1.7
				c0,0.2,0.2,0.2,0.2,0.2h14.6c0,0,0.2,0,0.2-0.2v-1.7c0,0,0-0.2-0.2-0.2h-1.9C50.4,20.5,48.9,17.5,45,17.5z M45,20.3
				c2.5,0,3.2,1.7,3.2,2.8h-6.4C41.8,22.1,42.5,20.4,45,20.3z"/>
		</g>
	</g>
</g>
</svg>
