<?xml version="1.0" encoding="utf-8"?>
<!-- Generator: Adobe Illustrator 25.2.0, SVG Export Plug-In . SVG Version: 6.00 Build 0)  -->
<svg version="1.1" id="Layer_1" xmlns="http://www.w3.org/2000/svg" xmlns:xlink="http://www.w3.org/1999/xlink" x="0px" y="0px"
	 viewBox="0 0 64 64" style="enable-background:new 0 0 64 64;" xml:space="preserve">
<style type="text/css">
	.st0{fill:#11111b;}
	.st1{clip-path:url(#SVGID_2_);}
	.st2{fill:#b4befe;}
</style>
<g>
	<path class="st0" d="M13,7h38c3.3,0,6,2.7,6,6v38c0,3.3-2.7,6-6,6H13c-3.3,0-6-2.7-6-6V13C7,9.7,9.7,7,13,7z"/>
	<g>
		<defs>
			<path id="SVGID_1_" d="M33,7h18c3.3,0,6,2.7,6,6v18H41c-4.4,0-8-3.6-8-8V7z"/>
		</defs>
		<clipPath id="SVGID_2_">
			<use xlink:href="#SVGID_1_"  style="overflow:visible;"/>
		</clipPath>
		<g class="st1">
			<path class="st2" d="M33,7h18c3.3,0,6,2.7,6,6v18H41c-4.4,0-8-3.6-8-8V7z"/>
			<g>
				<circle class="st2" cx="57.5" cy="30.5" r="7.5"/>
			</g>
			<g>
				<path class="st0" d="M44.8,7.8v1.5h1.5V7.8H44.8z M44.8,9.2h-1.5v1.5h1.5V9.2z M44.8,10.8v1.5h1.5v-1.5H44.8z M44.8,12.2h-1.5
					v1.5h1.5V12.2z M44.8,13.8v1.5c0.8,0,1.5-0.8,1.5-1.5H44.8z"/>
				<path class="st0" d="M44.8,15.2c-1.7,0-3,1.3-3,3v6c0,1.7,1.3,3,3,3s3-1.3,3-3v-6C47.8,16.6,46.4,15.2,44.8,15.2z M44.8,16.8
					c0.8,0,1.5,0.6,1.5,1.5c0,0.8-0.7,1.5-1.5,1.5s-1.5-0.8-1.5-1.5C43.2,17.3,43.9,16.8,44.8,16.8z M44.8,21.2
					c0.8,0,1.5,0.6,1.5,1.5v1.5c0,0.8-0.7,1.5-1.5,1.5s-1.5-0.8-1.5-1.5v-1.5C43.2,21.8,43.9,21.2,44.8,21.2z"/>
			</g>
		</g>
	</g>
</g>
</svg>
