<svg width="64" height="64" viewBox="0 0 64 64" fill="none" xmlns="http://www.w3.org/2000/svg">
<rect x="7" y="7" width="50" height="50" rx="6" fill="#11111b"/>
<g clip-path="url(#clip0_37_386)">
<path d="M33 7H51C54.3137 7 57 9.68629 57 13V31H41C36.5817 31 33 27.4183 33 23V7Z" fill="#cba6f7"/>
<g filter="url(#filter0_d_37_386)">
<circle cx="57.5" cy="30.5" r="7.5" fill="#cba6f7"/>
</g>
<path d="M51.4 13.4C51.3999 13.2817 51.3736 13.1649 51.3229 13.0579C51.2723 12.951 51.1985 12.8567 51.107 12.7817C51.0155 12.7067 50.9085 12.6529 50.7937 12.6243C50.6789 12.5956 50.5592 12.5928 50.4432 12.616L42.4432 14.216C42.2619 14.2522 42.0987 14.3501 41.9815 14.4931C41.8642 14.636 41.8001 14.8151 41.8 15V22.2912C41.5377 22.2301 41.2693 22.1995 41 22.2C39.6744 22.2 38.6 22.916 38.6 23.8C38.6 24.684 39.6744 25.4 41 25.4C42.3256 25.4 43.4 24.684 43.4 23.8V17.256L49.8 15.976V20.6912C49.5377 20.6301 49.2693 20.5995 49 20.6C47.6744 20.6 46.6 21.316 46.6 22.2C46.6 23.084 47.6744 23.8 49 23.8C50.3256 23.8 51.4 23.084 51.4 22.2V13.4Z" fill="#11111b"/>
</g>
<defs>
<filter id="filter0_d_37_386" x="34" y="11" width="47" height="47" filterUnits="userSpaceOnUse" color-interpolation-filters="sRGB">
<feFlood flood-opacity="0" result="BackgroundImageFix"/>
<feColorMatrix in="SourceAlpha" type="matrix" values="0 0 0 0 0 0 0 0 0 0 0 0 0 0 0 0 0 0 127 0" result="hardAlpha"/>
<feOffset dy="4"/>
<feGaussianBlur stdDeviation="8"/>
<feComposite in2="hardAlpha" operator="out"/>
<feColorMatrix type="matrix" values="0 0 0 0 0 0 0 0 0 0 0 0 0 0 0 0 0 0 0.3 0"/>
<feBlend mode="normal" in2="BackgroundImageFix" result="effect1_dropShadow_37_386"/>
<feBlend mode="normal" in="SourceGraphic" in2="effect1_dropShadow_37_386" result="shape"/>
</filter>
<clipPath id="clip0_37_386">
<path d="M33 7H51C54.3137 7 57 9.68629 57 13V31H41C36.5817 31 33 27.4183 33 23V7Z" fill="white"/>
</clipPath>
</defs>
</svg>
