<?xml version="1.0" encoding="utf-8"?>
<!-- Generator: Adobe Illustrator 25.2.0, SVG Export Plug-In . SVG Version: 6.00 Build 0)  -->
<svg version="1.1" id="Layer_1" xmlns="http://www.w3.org/2000/svg" xmlns:xlink="http://www.w3.org/1999/xlink" x="0px" y="0px"
	 viewBox="0 0 64 64" style="enable-background:new 0 0 64 64;" xml:space="preserve">
<style type="text/css">
	.st0{fill:#11111b;}
	.st1{clip-path:url(#SVGID_2_);}
	.st2{fill:#b4befe;}
</style>
<g>
	<path class="st0" d="M13,7h38c3.3,0,6,2.7,6,6v38c0,3.3-2.7,6-6,6H13c-3.3,0-6-2.7-6-6V13C7,9.7,9.7,7,13,7z"/>
	<g>
		<defs>
			<path id="SVGID_1_" d="M33,7h18c3.3,0,6,2.7,6,6v18H41c-4.4,0-8-3.6-8-8V7z"/>
		</defs>
		<clipPath id="SVGID_2_">
			<use xlink:href="#SVGID_1_"  style="overflow:visible;"/>
		</clipPath>
		<g class="st1">
			<path class="st2" d="M33,7h18c3.3,0,6,2.7,6,6v18H41c-4.4,0-8-3.6-8-8V7z"/>
			<g>
				<circle class="st2" cx="57.5" cy="30.5" r="7.5"/>
			</g>
			<path class="st0" d="M46.2,21.4C45.1,22,44,22,43.3,21.9c-0.9-0.1-1.5-0.3-1.8-0.5c-0.2-0.1-0.4-0.1-0.6,0.1
				c-0.1,0.2-0.1,0.4,0.1,0.6c0.5,0.3,1.3,0.6,2.2,0.6c0.2,0,0.3,0,0.5,0c0.8,0,1.8-0.1,2.8-0.6c0.2-0.1,0.3-0.3,0.2-0.5
				C46.7,21.4,46.4,21.3,46.2,21.4z M50.8,20.8c0-3.5,0.4-10.2-6.4-9.7c-6.7,0.5-4.9,7.6-5,10c-0.1,1.3-0.5,2.8-1.1,4.3h1.8
				c0.2-0.7,0.3-1.3,0.4-1.9c0.1,0.1,0.2,0.1,0.4,0.2c0.2,0.1,0.4,0.3,0.6,0.4c0.4,0.4,0.9,0.8,1.9,0.9c0.1,0,0.1,0,0.2,0
				c1,0,1.6-0.4,2.2-0.8c0.3-0.2,0.5-0.3,0.7-0.4c0.6-0.2,1.1-0.5,1.5-0.9c0.1-0.1,0.1-0.1,0.2-0.2c0.2,0.8,0.5,1.7,0.8,2.5h3.9
				C51.7,24,50.8,22.6,50.8,20.8z M40,18.9L40,18.9c-0.1-1.2,0.5-2.1,1.2-2.2s1.4,0.9,1.5,2c0,0,0,0,0,0c0,0.1,0,0.1,0,0.2
				c-0.2,0.1-0.5,0.1-0.6,0.2c0,0,0,0,0,0v0C42,18.5,41.7,18,41.3,18c-0.4,0-0.6,0.6-0.6,1.3l0,0c0,0.3,0.1,0.5,0.2,0.7
				c0,0-0.1,0.1-0.2,0.1c-0.1,0.1-0.2,0.1-0.3,0.2C40.2,20,40.1,19.5,40,18.9z M47.6,21.8c0,0.6-0.8,1.2-1.6,1.4l0,0
				c-0.3,0.1-0.6,0.3-0.9,0.5c-0.5,0.3-1,0.6-1.7,0.6c0,0-0.1,0-0.1,0c-0.7,0-1-0.3-1.4-0.7c-0.2-0.2-0.4-0.4-0.7-0.5l0,0
				c-0.6-0.3-1-0.8-1-1.1c0-0.2,0.1-0.3,0.2-0.5c0.4-0.3,0.6-0.5,0.8-0.6c0.2-0.1,0.2-0.2,0.3-0.2c0,0,0.1-0.1,0.1-0.1
				c0.3-0.3,0.9-0.9,1.8-0.9c0.5,0,1.1,0.2,1.8,0.6c0.3,0.2,0.6,0.3,0.9,0.4c0.2,0.1,0.5,0.2,0.8,0.3l0,0
				C47.2,21.1,47.6,21.4,47.6,21.8L47.6,21.8z M47.4,20.3c-0.1,0-0.1-0.1-0.2-0.1c-0.3-0.1-0.6-0.2-0.8-0.3c0.1-0.2,0.2-0.5,0.2-0.8
				l0,0c0-0.7-0.4-1.3-0.8-1.3c-0.5,0-0.9,0.6-0.9,1.3l0,0c0,0,0,0,0,0.1c-0.3-0.1-0.6-0.2-0.9-0.3c0,0,0-0.1,0-0.1v0
				c0-1.3,0.8-2.4,1.8-2.5c1,0,1.9,1,1.9,2.4v0C47.9,19.3,47.7,19.9,47.4,20.3z"/>
		</g>
	</g>
</g>
</svg>
