<?xml version="1.0" encoding="utf-8"?>
<!-- Generator: Adobe Illustrator 25.2.0, SVG Export Plug-In . SVG Version: 6.00 Build 0)  -->
<svg version="1.1" id="Layer_1" xmlns="http://www.w3.org/2000/svg" xmlns:xlink="http://www.w3.org/1999/xlink" x="0px" y="0px"
	 viewBox="0 0 64 64" style="enable-background:new 0 0 64 64;" xml:space="preserve">
<style type="text/css">
	.st0{fill:#11111b;}
	.st1{clip-path:url(#SVGID_2_);}
	.st2{fill:#b4befe;}
</style>
<g>
	<path class="st0" d="M13,7h38c3.3,0,6,2.7,6,6v38c0,3.3-2.7,6-6,6H13c-3.3,0-6-2.7-6-6V13C7,9.7,9.7,7,13,7z"/>
	<g>
		<defs>
			<path id="SVGID_1_" d="M33,7h18c3.3,0,6,2.7,6,6v18H41c-4.4,0-8-3.6-8-8V7z"/>
		</defs>
		<clipPath id="SVGID_2_">
			<use xlink:href="#SVGID_1_"  style="overflow:visible;"/>
		</clipPath>
		<g class="st1">
			<path class="st2" d="M33,7h18c3.3,0,6,2.7,6,6v18H41c-4.4,0-8-3.6-8-8V7z"/>
			<g>
				<circle class="st2" cx="57.5" cy="30.5" r="7.5"/>
			</g>
			<path class="st0" d="M46.9,12.2c-1.9,0-3.6,1-4.4,2.7c-0.4-0.2-0.8-0.2-1.2-0.2c-1.6,0-2.9,1.1-3.1,2.7c-1.5,0.5-2.5,1.9-2.5,3.5
				c0,2.1,1.7,3.7,3.7,3.7h11.2c2.1,0,3.7-1.7,3.7-3.7c0-1.6-1-3-2.5-3.5c0-0.1,0-0.1,0-0.2C51.8,14.5,49.6,12.2,46.9,12.2z
				 M46.9,15.3c1.1,0,1.9,0.8,1.9,1.9c0,0,0,0,0,0c-0.1,1.4,0.8,2.7,2.1,3.1c0.3,0.1,0.4,0.3,0.4,0.6c0,0.4-0.2,0.6-0.6,0.6H39.4
				c-0.4,0-0.6-0.2-0.6-0.6v0c0-0.3,0.2-0.5,0.4-0.6c1.1-0.4,1.9-1.4,2.1-2.5c1.5,0.6,3.2,0,3.9-1.5C45.5,15.7,46.2,15.3,46.9,15.3z
				"/>
		</g>
	</g>
</g>
</svg>
