<?xml version="1.0" encoding="utf-8"?>
<!-- Generator: Adobe Illustrator 25.2.0, SVG Export Plug-In . SVG Version: 6.00 Build 0)  -->
<svg version="1.1" id="Layer_1" xmlns="http://www.w3.org/2000/svg" xmlns:xlink="http://www.w3.org/1999/xlink" x="0px" y="0px"
	 viewBox="0 0 64 64" style="enable-background:new 0 0 64 64;" xml:space="preserve">
<style type="text/css">
	.st0{fill:#11111b;}
	.st1{clip-path:url(#SVGID_2_);}
	.st2{fill:#b4befe;}
</style>
<g>
	<path class="st0" d="M13,7h38c3.3,0,6,2.7,6,6v38c0,3.3-2.7,6-6,6H13c-3.3,0-6-2.7-6-6V13C7,9.7,9.7,7,13,7z"/>
	<g>
		<defs>
			<path id="SVGID_1_" d="M33,7h18c3.3,0,6,2.7,6,6v18H41c-4.4,0-8-3.6-8-8V7z"/>
		</defs>
		<clipPath id="SVGID_2_">
			<use xlink:href="#SVGID_1_"  style="overflow:visible;"/>
		</clipPath>
		<g class="st1">
			<path class="st2" d="M33,7h18c3.3,0,6,2.7,6,6v18H41c-4.4,0-8-3.6-8-8V7z"/>
			<g>
				<circle class="st2" cx="57.5" cy="30.5" r="7.5"/>
			</g>
			<path class="st0" d="M45,11c-4.2,0-7.6,3.4-7.6,7.6c0,3.4,2.2,6.2,5.3,7.2v-1.3c-1.9,0.4-2.4-0.8-2.4-0.8
				c-0.3-0.8-0.8-0.9-0.8-0.9c-0.6-0.4,0-0.4,0-0.4c0.7,0,1.1,0.7,1.1,0.7c0.6,1.1,1.7,0.8,2,0.6c0.1-0.5,0.2-1.2,0.4-1.4
				c-1.5-0.2-2.7-1.2-2.7-3.8c0-0.8,0.5-1.8,0.9-2.3C41.3,16,41,15,41.4,14.1c0,0,0,0,0.1,0c0.2,0,0.7,0.3,1.7,1
				c0.6-0.2,1.3-0.3,1.8-0.3c0.5,0,1.1,0.1,1.6,0.3c1-0.7,1.6-1,1.8-1h0c0.1,0,0.1,0,0.1,0c0.4,1,0.1,2,0.1,2.2
				c0.4,0.5,0.9,1.5,0.9,2.3c0,2.7-1.7,3.7-3.3,3.8c0.2,0.2,0.3,0.6,0.3,1.3c0,0.8,0,1.3,0,1.6v0.7c3.3-0.8,6-3.8,6-7.3
				C52.6,14.4,49.2,11,45,11L45,11z"/>
		</g>
	</g>
</g>
</svg>
