<svg width="64" height="64" viewBox="0 0 64 64" fill="none" xmlns="http://www.w3.org/2000/svg">
<rect x="10" y="10" width="45" height="45" rx="4" fill="url(#paint0_linear)"/>
<g filter="url(#filter0_d)">
<rect x="18" y="18" width="30" height="30" rx="1" fill="#f5c2e7"/>
</g>
<rect x="19.7868" y="19.7868" width="21" height="1" fill="#C4C4C4"/>
<rect x="19.7868" y="31.7868" width="22" height="1" fill="#C4C4C4"/>
<rect x="19.7868" y="29.7868" width="17" height="1" fill="#C4C4C4"/>
<rect x="19.7868" y="27.7868" width="20" height="1" fill="#C4C4C4"/>
<rect x="19.7868" y="25.7868" width="26" height="1" fill="#C4C4C4"/>
<rect x="19.7868" y="23.7868" width="20" height="1" fill="#C4C4C4"/>
<rect x="19.7868" y="21.7868" width="24" height="1" fill="#C4C4C4"/>
<path d="M10 35H55V51C55 53.2091 53.2091 55 51 55H14C11.7909 55 10 53.2091 10 51V35Z" fill="#11111b"/>
<defs>
<filter id="filter0_d" x="13" y="13" width="40" height="40" filterUnits="userSpaceOnUse" color-interpolation-filters="sRGB">
<feFlood flood-opacity="0" result="BackgroundImageFix"/>
<feColorMatrix in="SourceAlpha" type="matrix" values="0 0 0 0 0 0 0 0 0 0 0 0 0 0 0 0 0 0 127 0" result="hardAlpha"/>
<feOffset/>
<feGaussianBlur stdDeviation="2.5"/>
<feColorMatrix type="matrix" values="0 0 0 0 0 0 0 0 0 0 0 0 0 0 0 0 0 0 0.11 0"/>
<feBlend mode="normal" in2="BackgroundImageFix" result="effect1_dropShadow"/>
<feBlend mode="normal" in="SourceGraphic" in2="effect1_dropShadow" result="shape"/>
</filter>
<linearGradient id="paint0_linear" x1="-15" y1="10" x2="82.5" y2="27" gradientUnits="userSpaceOnUse">
<stop stop-color="#FBAB7E"/>
<stop offset="1" stop-color="#EF5093"/>
</linearGradient>
</defs>
</svg>
