<?xml version="1.0" encoding="utf-8"?>
<!-- Generator: Adobe Illustrator 25.2.0, SVG Export Plug-In . SVG Version: 6.00 Build 0)  -->
<svg version="1.1" id="Layer_1" xmlns="http://www.w3.org/2000/svg" xmlns:xlink="http://www.w3.org/1999/xlink" x="0px" y="0px"
	 viewBox="0 0 64 64" style="enable-background:new 0 0 64 64;" xml:space="preserve">
<style type="text/css">
	.st0{fill:#11111b;}
	.st1{clip-path:url(#SVGID_2_);}
	.st2{fill:#b4befe;}
</style>
<g>
	<path class="st0" d="M13,7h38c3.3,0,6,2.7,6,6v38c0,3.3-2.7,6-6,6H13c-3.3,0-6-2.7-6-6V13C7,9.7,9.7,7,13,7z"/>
	<g>
		<defs>
			<path id="SVGID_1_" d="M33,7h18c3.3,0,6,2.7,6,6v18H41c-4.4,0-8-3.6-8-8V7z"/>
		</defs>
		<clipPath id="SVGID_2_">
			<use xlink:href="#SVGID_1_"  style="overflow:visible;"/>
		</clipPath>
		<g class="st1">
			<path class="st2" d="M33,7h18c3.3,0,6,2.7,6,6v18H41c-4.4,0-8-3.6-8-8V7z"/>
			<g>
				<circle class="st2" cx="57.5" cy="30.5" r="7.5"/>
			</g>
			<path class="st0" d="M40.9,15.5c-0.1,0-0.1,0-0.2,0.1c-0.5,0.2-0.6,1-0.3,1.7c0.3,0.6,0.8,0.9,1.2,0.9c0.3,1.9,1.7,3.3,3.3,3.3h0
				c1.6,0,3-1.4,3.3-3.3c0.5,0,1-0.3,1.2-0.9c0.4-0.7,0.2-1.5-0.3-1.7c-0.1,0-0.1,0-0.2-0.1c-0.1-2-1.9-3.7-4.1-3.7
				S40.9,13.4,40.9,15.5z M47.5,21.7c-0.2,0.3-0.5,0.5-0.8,0.7l0,0C46.2,22.8,45.6,23,45,23h0c-0.9,0-1.8-0.5-2.4-1.2
				c-2.6,0.4-5.4,0.9-5.6,1.6c0,0,0,0,0,0c0,0,0,0.1,0,0.1c0,0,0,0,0,0v0v2.2c0,0.2,0.2,0.4,0.4,0.4h15.2c0.2,0,0.4-0.2,0.4-0.4
				v-2.2v0c0-0.1,0-0.1,0-0.1C52.8,22.7,50.1,22.1,47.5,21.7z"/>
		</g>
	</g>
</g>
</svg>
