<?xml version="1.0" encoding="utf-8"?>
<!-- Generator: Adobe Illustrator 25.2.0, SVG Export Plug-In . SVG Version: 6.00 Build 0)  -->
<svg version="1.1" id="Layer_1" xmlns="http://www.w3.org/2000/svg" xmlns:xlink="http://www.w3.org/1999/xlink" x="0px" y="0px"
	 viewBox="0 0 64 64" style="enable-background:new 0 0 64 64;" xml:space="preserve">
<style type="text/css">
	.st0{fill:#11111b;}
	.st1{clip-path:url(#SVGID_2_);}
	.st2{fill:#b4befe;}
</style>
<g>
	<path class="st0" d="M13,7h38c3.3,0,6,2.7,6,6v38c0,3.3-2.7,6-6,6H13c-3.3,0-6-2.7-6-6V13C7,9.7,9.7,7,13,7z"/>
	<g>
		<defs>
			<path id="SVGID_1_" d="M33,7h18c3.3,0,6,2.7,6,6v18H41c-4.4,0-8-3.6-8-8V7z"/>
		</defs>
		<clipPath id="SVGID_2_">
			<use xlink:href="#SVGID_1_"  style="overflow:visible;"/>
		</clipPath>
		<g class="st1">
			<path class="st2" d="M33,7h18c3.3,0,6,2.7,6,6v18H41c-4.4,0-8-3.6-8-8V7z"/>
			<g>
				<circle class="st2" cx="57.5" cy="30.5" r="7.5"/>
			</g>
			<path class="st0" d="M45.5,11c-2.6,0-5,1.6-6,4c-2.6,0.3-4.5,2.4-4.5,5c0,2.8,2.2,5,5,5c0,0,0,0,0,0h11.8c1.8,0,3.3-1.5,3.3-3.3
				c0-1.2-0.7-2.3-1.7-2.8c0.4-0.5,0.7-1.2,0.7-1.9c0-1.7-1.3-3-3-3c0,0,0,0,0,0C49.8,12.1,47.7,11,45.5,11z M45.8,12.9
				c2.5,0,4.5,2,4.5,4.5l0,0c0,2.5-2,4.5-4.5,4.5l0,0c-2.5,0-4.5-2-4.5-4.5l0,0C41.3,14.9,43.4,12.9,45.8,12.9L45.8,12.9z
				 M45.8,14.2c-0.7,0-1.4,0.2-1.9,0.6h1.3h1c0.9,0,1.6,0.3,1.6,1.5c0,1.4-0.6,1.7-1.6,1.7h-1v1.9h-1.3c0.6,0.4,1.2,0.6,1.9,0.6
				c1.8,0,3.2-1.4,3.2-3.2C49,15.6,47.6,14.2,45.8,14.2z M43.9,14.8c-0.8,0.6-1.3,1.5-1.3,2.6c0,1,0.5,1.9,1.3,2.6v-2.1V14.8z
				 M45.2,16.1v0.6h0.6c0.4,0,0.6,0,0.6-0.3c0-0.3-0.2-0.3-0.6-0.3H45.2z"/>
		</g>
	</g>
</g>
</svg>
