<?xml version="1.0" encoding="utf-8"?>
<!-- Generator: Adobe Illustrator 25.2.0, SVG Export Plug-In . SVG Version: 6.00 Build 0)  -->
<svg version="1.1" id="Layer_1" xmlns="http://www.w3.org/2000/svg" xmlns:xlink="http://www.w3.org/1999/xlink" x="0px" y="0px"
	 viewBox="0 0 64 64" style="enable-background:new 0 0 64 64;" xml:space="preserve">
<style type="text/css">
	.st0{fill:#11111b;}
	.st1{clip-path:url(#SVGID_2_);}
	.st2{fill:#b4befe;}
</style>
<g>
	<path class="st0" d="M13,7h38c3.3,0,6,2.7,6,6v38c0,3.3-2.7,6-6,6H13c-3.3,0-6-2.7-6-6V13C7,9.7,9.7,7,13,7z"/>
	<g>
		<defs>
			<path id="SVGID_1_" d="M33,7h18c3.3,0,6,2.7,6,6v18H41c-4.4,0-8-3.6-8-8V7z"/>
		</defs>
		<clipPath id="SVGID_2_">
			<use xlink:href="#SVGID_1_"  style="overflow:visible;"/>
		</clipPath>
		<g class="st1">
			<path class="st2" d="M33,7h18c3.3,0,6,2.7,6,6v18H41c-4.4,0-8-3.6-8-8V7z"/>
			<g>
				<circle class="st2" cx="57.5" cy="30.5" r="7.5"/>
			</g>
			<path class="st0" d="M48.1,11.3c-0.7,0-1.6,0.4-2.1,0.9c-0.5,0.5-0.9,1.2-0.8,1.9c0.8,0.1,1.6-0.4,2.1-0.9
				C47.8,12.8,48.2,12,48.1,11.3z M47.6,14.2c-0.9,0.1-1.8,0.7-2.3,0.7c-0.6,0-1.4-0.7-2.3-0.7c-1.2,0-2.3,0.7-2.9,1.9
				c-1.2,2.3-0.3,5.8,0.9,7.6c0.6,0.9,1.3,1.9,2.2,1.9c0.9,0,1.2-0.6,2.3-0.6c1.1,0,1.4,0.6,2.3,0.6c1,0,1.6-1,2.2-1.9
				c0.7-1.1,1-2.1,1-2.2c0,0-1.9-0.8-1.9-3.1c0-1.9,1.5-2.8,1.5-2.9c-0.8-1.3-2.1-1.5-2.6-1.5C47.9,14.2,47.7,14.2,47.6,14.2
				L47.6,14.2z"/>
		</g>
	</g>
</g>
</svg>
