<?xml version="1.0" encoding="utf-8"?>
<!-- Generator: Adobe Illustrator 25.2.0, SVG Export Plug-In . SVG Version: 6.00 Build 0)  -->
<svg version="1.1" id="Layer_1" xmlns="http://www.w3.org/2000/svg" xmlns:xlink="http://www.w3.org/1999/xlink" x="0px" y="0px"
	 viewBox="0 0 64 64" style="enable-background:new 0 0 64 64;" xml:space="preserve">
<style type="text/css">
	.st0{fill:#11111b;}
	.st1{clip-path:url(#SVGID_2_);}
	.st2{fill:#b4befe;}
	.st3{fill-rule:evenodd;clip-rule:evenodd;fill:#11111b;}
</style>
<g>
	<path class="st0" d="M13,7h38c3.3,0,6,2.7,6,6v38c0,3.3-2.7,6-6,6H13c-3.3,0-6-2.7-6-6V13C7,9.7,9.7,7,13,7z"/>
	<g>
		<defs>
			<path id="SVGID_1_" d="M33,7h18c3.3,0,6,2.7,6,6v18H41c-4.4,0-8-3.6-8-8V7z"/>
		</defs>
		<clipPath id="SVGID_2_">
			<use xlink:href="#SVGID_1_"  style="overflow:visible;"/>
		</clipPath>
		<g class="st1">
			<path class="st2" d="M33,7h18c3.3,0,6,2.7,6,6v18H41c-4.4,0-8-3.6-8-8V7z"/>
			<g>
				<circle class="st2" cx="57.5" cy="30.5" r="7.5"/>
			</g>
			<path class="st3" d="M40.3,12.3c-0.1,0-0.2,0.1-0.3,0.2L38.6,17h3.7l-1.6-4.5C40.6,12.3,40.5,12.3,40.3,12.3z M42.3,17l2.7,8.8
				l2.7-8.8H42.3z M47.7,17h3.7l-1.5-4.5c-0.1-0.3-0.5-0.3-0.5,0L47.7,17z M51.4,17L45,25.8l7.2-5.2c0.2-0.1,0.3-0.4,0.2-0.6
				L51.4,17z M45,25.8L38.6,17l-1,3c-0.1,0.2,0,0.5,0.2,0.6L45,25.8z"/>
		</g>
	</g>
</g>
</svg>
