<svg width="64" height="64" viewBox="0 0 64 64" fill="none" xmlns="http://www.w3.org/2000/svg">
<rect x="7" y="7" width="50" height="50" rx="6" fill="#11111b"/>
<g clip-path="url(#clip0)">
<path d="M33 7H51C54.3137 7 57 9.68629 57 13V31H41C36.5817 31 33 27.4183 33 23V7Z" fill="#f5c2e7"/>
<g filter="url(#filter0_d)">
<circle cx="57.5" cy="30.5" r="7.5" fill="#f5c2e7"/>
</g>
<path fill-rule="evenodd" clip-rule="evenodd" d="M40.2 13.4C39.7756 13.4 39.3687 13.5686 39.0686 13.8686C38.7685 14.1687 38.6 14.5757 38.6 15V23C38.6 23.4243 38.7685 23.8313 39.0686 24.1314C39.3687 24.4314 39.7756 24.6 40.2 24.6H49.8C50.2243 24.6 50.6313 24.4314 50.9313 24.1314C51.2314 23.8313 51.4 23.4243 51.4 23V15C51.4 14.5757 51.2314 14.1687 50.9313 13.8686C50.6313 13.5686 50.2243 13.4 49.8 13.4H40.2ZM49.8 23H40.2L43.4 16.6L45.8 21.4L47.4 18.2L49.8 23Z" fill="#11111b"/>
</g>
<defs>
<filter id="filter0_d" x="34" y="11" width="47" height="47" filterUnits="userSpaceOnUse" color-interpolation-filters="sRGB">
<feFlood flood-opacity="0" result="BackgroundImageFix"/>
<feColorMatrix in="SourceAlpha" type="matrix" values="0 0 0 0 0 0 0 0 0 0 0 0 0 0 0 0 0 0 127 0" result="hardAlpha"/>
<feOffset dy="4"/>
<feGaussianBlur stdDeviation="8"/>
<feComposite in2="hardAlpha" operator="out"/>
<feColorMatrix type="matrix" values="0 0 0 0 0 0 0 0 0 0 0 0 0 0 0 0 0 0 0.3 0"/>
<feBlend mode="normal" in2="BackgroundImageFix" result="effect1_dropShadow"/>
<feBlend mode="normal" in="SourceGraphic" in2="effect1_dropShadow" result="shape"/>
</filter>
<clipPath id="clip0">
<path d="M33 7H51C54.3137 7 57 9.68629 57 13V31H41C36.5817 31 33 27.4183 33 23V7Z" fill="white"/>
</clipPath>
</defs>
</svg>
