<?xml version="1.0" encoding="utf-8"?>
<!-- Generator: Adobe Illustrator 25.2.0, SVG Export Plug-In . SVG Version: 6.00 Build 0)  -->
<svg version="1.1" id="Layer_1" xmlns="http://www.w3.org/2000/svg" xmlns:xlink="http://www.w3.org/1999/xlink" x="0px" y="0px"
	 viewBox="0 0 64 64" style="enable-background:new 0 0 64 64;" xml:space="preserve">
<style type="text/css">
	.st0{fill:#11111b;}
	.st1{clip-path:url(#SVGID_2_);}
	.st2{fill:#b4befe;}
</style>
<g>
	<path class="st0" d="M13,7h38c3.3,0,6,2.7,6,6v38c0,3.3-2.7,6-6,6H13c-3.3,0-6-2.7-6-6V13C7,9.7,9.7,7,13,7z"/>
	<g>
		<defs>
			<path id="SVGID_1_" d="M33,7h18c3.3,0,6,2.7,6,6v18H41c-4.4,0-8-3.6-8-8V7z"/>
		</defs>
		<clipPath id="SVGID_2_">
			<use xlink:href="#SVGID_1_"  style="overflow:visible;"/>
		</clipPath>
		<g class="st1">
			<path class="st2" d="M33,7h18c3.3,0,6,2.7,6,6v18H41c-4.4,0-8-3.6-8-8V7z"/>
			<g>
				<circle class="st2" cx="57.5" cy="30.5" r="7.5"/>
			</g>
			<g>
				<path class="st0" d="M38.7,11.7h4.5c0.6,0,1,0.5,1,1v4.5c0,0.6-0.5,1-1,1h-4.5c-0.6,0-1-0.5-1-1v-4.5
					C37.7,12.1,38.1,11.7,38.7,11.7z"/>
				<path class="st0" d="M46.8,11.7h4.5c0.6,0,1,0.5,1,1v4.5c0,0.6-0.5,1-1,1h-4.5c-0.6,0-1-0.5-1-1v-4.5
					C45.8,12.1,46.3,11.7,46.8,11.7z"/>
				<path class="st0" d="M46.8,19.8h4.5c0.6,0,1,0.5,1,1v4.5c0,0.6-0.5,1-1,1h-4.5c-0.6,0-1-0.5-1-1v-4.5
					C45.8,20.3,46.3,19.8,46.8,19.8z"/>
				<path class="st0" d="M38.7,19.8h4.5c0.6,0,1,0.5,1,1v4.5c0,0.6-0.5,1-1,1h-4.5c-0.6,0-1-0.5-1-1v-4.5
					C37.7,20.3,38.1,19.8,38.7,19.8z"/>
			</g>
		</g>
	</g>
</g>
</svg>
