<?xml version="1.0" encoding="utf-8"?>
<!-- Generator: Adobe Illustrator 25.2.0, SVG Export Plug-In . SVG Version: 6.00 Build 0)  -->
<svg version="1.1" id="Layer_1" xmlns="http://www.w3.org/2000/svg" xmlns:xlink="http://www.w3.org/1999/xlink" x="0px" y="0px"
	 viewBox="0 0 64 64" style="enable-background:new 0 0 64 64;" xml:space="preserve">
<style type="text/css">
	.st0{fill:#11111b;}
	.st1{clip-path:url(#SVGID_2_);}
	.st2{fill:#b4befe;}
</style>
<g>
	<path class="st0" d="M13,7h38c3.3,0,6,2.7,6,6v38c0,3.3-2.7,6-6,6H13c-3.3,0-6-2.7-6-6V13C7,9.7,9.7,7,13,7z"/>
	<g>
		<defs>
			<path id="SVGID_1_" d="M33,7h18c3.3,0,6,2.7,6,6v18H41c-4.4,0-8-3.6-8-8V7z"/>
		</defs>
		<clipPath id="SVGID_2_">
			<use xlink:href="#SVGID_1_"  style="overflow:visible;"/>
		</clipPath>
		<g class="st1">
			<path class="st2" d="M33,7h18c3.3,0,6,2.7,6,6v18H41c-4.4,0-8-3.6-8-8V7z"/>
			<g>
				<circle class="st2" cx="57.5" cy="30.5" r="7.5"/>
			</g>
			<path class="st0" d="M45,10c-5,0-9,4-9,9s4,9,9,9s9-4,9-9S50,10,45,10z M40.5,14.5h3l0,0L45,16l1.5-1.5h3v9h-3V19L45,20.5
				L43.5,19v4.5h-3V14.5z"/>
		</g>
	</g>
</g>
</svg>
