<?xml version="1.0" encoding="utf-8"?>
<!-- Generator: Adobe Illustrator 25.2.0, SVG Export Plug-In . SVG Version: 6.00 Build 0)  -->
<svg version="1.1" id="Layer_1" xmlns="http://www.w3.org/2000/svg" xmlns:xlink="http://www.w3.org/1999/xlink" x="0px" y="0px"
	 viewBox="0 0 64 64" style="enable-background:new 0 0 64 64;" xml:space="preserve">
<style type="text/css">
	.st0{fill:#11111b;}
	.st1{clip-path:url(#SVGID_2_);}
	.st2{fill:#b4befe;}
</style>
<g>
	<path class="st0" d="M13,7h38c3.3,0,6,2.7,6,6v38c0,3.3-2.7,6-6,6H13c-3.3,0-6-2.7-6-6V13C7,9.7,9.7,7,13,7z"/>
	<g>
		<defs>
			<path id="SVGID_1_" d="M33,7h18c3.3,0,6,2.7,6,6v18H41c-4.4,0-8-3.6-8-8V7z"/>
		</defs>
		<clipPath id="SVGID_2_">
			<use xlink:href="#SVGID_1_"  style="overflow:visible;"/>
		</clipPath>
		<g class="st1">
			<path class="st2" d="M33,7h18c3.3,0,6,2.7,6,6v18H41c-4.4,0-8-3.6-8-8V7z"/>
			<g>
				<circle class="st2" cx="57.5" cy="30.5" r="7.5"/>
			</g>
			<path class="st0" d="M44,12.3c-3.2,0-3.2,2.1-4.2,3.5c1.1-0.5,2.4-1,3.7-1.3c1.2-0.3,2.5-0.5,3.7-0.6
				C46.5,13.2,45.9,12.3,44,12.3z M48.3,15.3c-1.4,0-2.9,0.2-4.4,0.6c-4.9,1.3-8.4,4-7.9,6.2c0.3,1.2,2,2.3,4.5,2.5c0,0,0,0,0,0
				c0,0,0,0,0,0c0,0,0,0,0-0.1c-0.1-1.3,0.6-2.3,1.5-3c0.9-0.7,2-1.2,3.2-1.5c0.6-0.1,1.2-0.2,1.8-0.2h0c0.9,0,1.7,0.2,2.5,0.6
				c0.6,0.3,1.2,0.9,1.4,1.7c2.3-1.4,3.4-3.2,3.1-4.5C53.5,16.1,51.4,15.2,48.3,15.3z M47,21.2c-0.5,0-1,0-1.5,0.2
				c-2.1,0.5-3.6,1.8-3.5,2.9c0.1,1.2,1.9,1.7,4,1.3c2.1-0.5,3.6-1.8,3.5-2.9C49.4,21.8,48.4,21.3,47,21.2z"/>
		</g>
	</g>
</g>
</svg>
