<?xml version="1.0" encoding="utf-8"?>
<!-- Generator: Adobe Illustrator 25.2.0, SVG Export Plug-In . SVG Version: 6.00 Build 0)  -->
<svg version="1.1" id="Layer_1" xmlns="http://www.w3.org/2000/svg" xmlns:xlink="http://www.w3.org/1999/xlink" x="0px" y="0px"
	 viewBox="0 0 64 64" style="enable-background:new 0 0 64 64;" xml:space="preserve">
<style type="text/css">
	.st0{fill:#11111b;}
	.st1{clip-path:url(#SVGID_2_);}
	.st2{fill:#b4befe;}
</style>
<g>
	<path class="st0" d="M13,7h38c3.3,0,6,2.7,6,6v38c0,3.3-2.7,6-6,6H13c-3.3,0-6-2.7-6-6V13C7,9.7,9.7,7,13,7z"/>
	<g>
		<defs>
			<path id="SVGID_1_" d="M33,7h18c3.3,0,6,2.7,6,6v18H41c-4.4,0-8-3.6-8-8V7z"/>
		</defs>
		<clipPath id="SVGID_2_">
			<use xlink:href="#SVGID_1_"  style="overflow:visible;"/>
		</clipPath>
		<g class="st1">
			<path class="st2" d="M33,7h18c3.3,0,6,2.7,6,6v18H41c-4.4,0-8-3.6-8-8V7z"/>
			<g>
				<circle class="st2" cx="57.5" cy="30.5" r="7.5"/>
			</g>
			<path class="st0" d="M40.5,11.5c-0.6,0-1.1,0.5-1.1,1.1v8.6h0.8v-0.8h0.8V13h6v3h3v9v0.8h0.8V25h0.8v-9.8l-3.8-3.8H40.5z
				 M50.6,25.8v0.8h0.8v-0.8H50.6z M49.9,25.8h-0.8v0.8h0.8V25.8z M49.1,25.8V25h-0.8v0.8H49.1z M48.4,25.8h-0.8v0.8h0.8V25.8z
				 M47.6,25.8V25h-0.8v0.8H47.6z M46.9,25.8h-0.8v0.8h0.8V25.8z M46.1,25.8V25h-0.8v0.8H46.1z M45.4,25.8h-0.8v0.8h0.8V25.8z
				 M44.6,25.8V25h-0.8v0.8H44.6z M43.9,25.8h-0.8v0.8h0.8V25.8z M43.1,25.8V25h-0.8v0.8H43.1z M42.4,25.8h-0.8v0.8h0.8V25.8z
				 M41.6,25.8V25h-0.8v0.8H41.6z M40.9,25.8h-0.8v0.8h0.8V25.8z M40.1,25.8V25h-0.8v0.8H40.1z M40.1,25h0.8v-0.8h-0.8V25z
				 M40.1,24.2v-0.8h-0.8v0.8H40.1z M40.1,23.5h0.8v-0.8h-0.8V23.5z M40.1,22.8V22h-0.8v0.8H40.1z M40.1,22h0.8v-0.8h-0.8V22z"/>
		</g>
	</g>
</g>
</svg>
