<?xml version="1.0" encoding="utf-8"?>
<!-- Generator: Adobe Illustrator 25.2.0, SVG Export Plug-In . SVG Version: 6.00 Build 0)  -->
<svg version="1.1" id="Layer_1" xmlns="http://www.w3.org/2000/svg" xmlns:xlink="http://www.w3.org/1999/xlink" x="0px" y="0px"
	 viewBox="0 0 64 64" style="enable-background:new 0 0 64 64;" xml:space="preserve">
<style type="text/css">
	.st0{fill:#11111b;}
	.st1{clip-path:url(#SVGID_2_);}
	.st2{fill:#b4befe;}
</style>
<g>
	<path class="st0" d="M13,7h38c3.3,0,6,2.7,6,6v38c0,3.3-2.7,6-6,6H13c-3.3,0-6-2.7-6-6V13C7,9.7,9.7,7,13,7z"/>
	<g>
		<defs>
			<path id="SVGID_1_" d="M33,7h18c3.3,0,6,2.7,6,6v18H41c-4.4,0-8-3.6-8-8V7z"/>
		</defs>
		<clipPath id="SVGID_2_">
			<use xlink:href="#SVGID_1_"  style="overflow:visible;"/>
		</clipPath>
		<g class="st1">
			<path class="st2" d="M33,7h18c3.3,0,6,2.7,6,6v18H41c-4.4,0-8-3.6-8-8V7z"/>
			<g>
				<circle class="st2" cx="57.5" cy="30.5" r="7.5"/>
			</g>
			<path class="st0" d="M44.1,10.4c-4.4,0-7.9,3.5-7.9,7.9s3.5,7.9,7.9,7.9H49c0,0,0.9-0.4,1-1.4c0-1-1-1.2-1-1.2h-4.9
				c-0.3,0-0.5,0-0.8-0.1c-0.9-0.1-1.6-0.4-2.2-0.9l0,0c-1.4-1-2.3-2.6-2.3-4.3c0-2.9,2.4-5.3,5.3-5.3c2.9,0,5.3,2.4,5.3,5.3
				c0,0.6-0.1,1-0.3,1.3c0,0,0,0,0,0h-1.2c0.1-0.4,0.2-0.9,0.2-1.3c0-2.2-1.8-3.9-3.9-3.9c-2.2,0-3.9,1.8-3.9,3.9s1.8,3.9,3.9,3.9
				H49c0.7-0.1,1.2-0.5,1.7-0.8c1-0.7,1.3-1.7,1.3-3.2C52,13.9,48.5,10.4,44.1,10.4z M44.1,17c0.7,0,1.3,0.6,1.3,1.3
				c0,0.7-0.6,1.3-1.3,1.3c-0.7,0-1.3-0.6-1.3-1.3C42.8,17.6,43.4,17,44.1,17z"/>
		</g>
	</g>
</g>
</svg>
