<?xml version="1.0" encoding="utf-8"?>
<!-- Generator: Adobe Illustrator 25.2.0, SVG Export Plug-In . SVG Version: 6.00 Build 0)  -->
<svg version="1.1" id="Layer_1" xmlns="http://www.w3.org/2000/svg" xmlns:xlink="http://www.w3.org/1999/xlink" x="0px" y="0px"
	 viewBox="0 0 64 64" style="enable-background:new 0 0 64 64;" xml:space="preserve">
<style type="text/css">
	.st0{fill:#11111b;}
	.st1{clip-path:url(#SVGID_2_);}
	.st2{fill:#b4befe;}
</style>
<g>
	<path class="st0" d="M13,7h38c3.3,0,6,2.7,6,6v38c0,3.3-2.7,6-6,6H13c-3.3,0-6-2.7-6-6V13C7,9.7,9.7,7,13,7z"/>
	<g>
		<defs>
			<path id="SVGID_1_" d="M33,7h18c3.3,0,6,2.7,6,6v18H41c-4.4,0-8-3.6-8-8V7z"/>
		</defs>
		<clipPath id="SVGID_2_">
			<use xlink:href="#SVGID_1_"  style="overflow:visible;"/>
		</clipPath>
		<g class="st1">
			<path class="st2" d="M33,7h18c3.3,0,6,2.7,6,6v18H41c-4.4,0-8-3.6-8-8V7z"/>
			<g>
				<circle class="st2" cx="57.5" cy="30.5" r="7.5"/>
			</g>
			<path class="st0" d="M39.6,12.8c-3.1,0-3.1,1.5-3.1,1.5v6.2c0,0,0-1.5,3.1-1.5c3.1,0,4.6,3.1,4.6,3.1v-6.2
				C44.2,15.9,42.7,12.8,39.6,12.8z M50.4,12.8c-3.1,0-4.6,3.1-4.6,3.1v6.2c0,0,1.5-3.1,4.6-3.1c3.1,0,3.1,1.5,3.1,1.5v-6.2
				C53.5,14.4,53.5,12.8,50.4,12.8z M39.6,20.5c-3.1,0-3.1,1.5-3.1,1.5v1.5c0,0,0-1.5,3.1-1.5c3.1,0,4.6,3.1,4.6,3.1v-1.5
				C44.2,23.6,42.7,20.5,39.6,20.5z M50.4,20.5c-3.1,0-4.6,3.1-4.6,3.1v1.5c0,0,1.5-3.1,4.6-3.1c3.1,0,3.1,1.5,3.1,1.5v-1.5
				C53.5,22.1,53.5,20.5,50.4,20.5z"/>
		</g>
	</g>
</g>
</svg>
