<?xml version="1.0" encoding="utf-8"?>
<!-- Generator: Adobe Illustrator 25.2.0, SVG Export Plug-In . SVG Version: 6.00 Build 0)  -->
<svg version="1.1" id="Layer_1" xmlns="http://www.w3.org/2000/svg" xmlns:xlink="http://www.w3.org/1999/xlink" x="0px" y="0px"
	 viewBox="0 0 64 64" style="enable-background:new 0 0 64 64;" xml:space="preserve">
<style type="text/css">
	.st0{fill:#11111b;}
	.st1{clip-path:url(#SVGID_2_);}
	.st2{fill:#b4befe;}
</style>
<g>
	<path class="st0" d="M13,7h38c3.3,0,6,2.7,6,6v38c0,3.3-2.7,6-6,6H13c-3.3,0-6-2.7-6-6V13C7,9.7,9.7,7,13,7z"/>
	<g>
		<defs>
			<path id="SVGID_1_" d="M33,7h18c3.3,0,6,2.7,6,6v18H41c-4.4,0-8-3.6-8-8V7z"/>
		</defs>
		<clipPath id="SVGID_2_">
			<use xlink:href="#SVGID_1_"  style="overflow:visible;"/>
		</clipPath>
		<g class="st1">
			<path class="st2" d="M33,7h18c3.3,0,6,2.7,6,6v18H41c-4.4,0-8-3.6-8-8V7z"/>
			<g>
				<circle class="st2" cx="57.5" cy="30.5" r="7.5"/>
			</g>
			<g>
				<path class="st0" d="M40.5,14.9c-0.2,0-0.4,0.2-0.4,0.4c0,0.2,0.2,0.4,0.4,0.4h0.4v-0.8H40.5z"/>
				<path class="st0" d="M42.2,16.6h-0.4v0.8h0.4c0.2,0,0.4-0.2,0.4-0.4C42.6,16.7,42.4,16.6,42.2,16.6z"/>
				<path class="st0" d="M37.7,11.7v14.6h14.6V11.7H37.7z M42.2,18.2h-0.4V19h-0.8v-0.8h-0.4c-0.5,0-1-0.3-1.1-0.8h1.1h0.4v-0.8
					h-0.4c-0.7,0-1.2-0.5-1.2-1.2c0-0.7,0.5-1.2,1.2-1.2h0.4v-0.8h0.8v0.8h0.4c0.5,0,1,0.3,1.1,0.8h-1.1h-0.4v0.8h0.4
					c0.7,0,1.2,0.5,1.2,1.2C43.4,17.6,42.8,18.2,42.2,18.2z M47.4,19h-3.3v-0.8h3.3V19z"/>
			</g>
		</g>
	</g>
</g>
</svg>
