<svg width="64" height="64" viewBox="0 0 64 64" fill="none" xmlns="http://www.w3.org/2000/svg">
<rect x="7" y="7" width="50" height="50" rx="6" fill="#11111b"/>
<g clip-path="url(#clip0)">
<path d="M33 7H51C54.3137 7 57 9.68629 57 13V31H41C36.5817 31 33 27.4183 33 23V7Z" fill="#89dceb"/>
<g filter="url(#filter0_d)">
<circle cx="57.5" cy="30.5" r="7.5" fill="#89dceb"/>
</g>
<path fill-rule="evenodd" clip-rule="evenodd" d="M38.6 18.6C38.6 19.3426 38.895 20.0548 39.4201 20.5799C39.9452 21.105 40.6574 21.4 41.4 21.4H44.2V23.4688L43.1656 22.4344C43.0147 22.2887 42.8126 22.208 42.6029 22.2099C42.3931 22.2117 42.1924 22.2958 42.0441 22.4441C41.8958 22.5925 41.8117 22.7931 41.8098 23.0029C41.808 23.2126 41.8886 23.4147 42.0344 23.5656L44.4344 25.9656C44.5844 26.1156 44.7878 26.1998 45 26.1998C45.2121 26.1998 45.4156 26.1156 45.5656 25.9656L47.9656 23.5656C48.1113 23.4147 48.1919 23.2126 48.1901 23.0029C48.1883 22.7931 48.1042 22.5925 47.9558 22.4441C47.8075 22.2958 47.6069 22.2117 47.3971 22.2099C47.1873 22.208 46.9853 22.2887 46.8344 22.4344L45.8 23.4688V21.4H47.8C48.2934 21.3997 48.7814 21.298 49.2339 21.1012C49.6863 20.9044 50.0935 20.6167 50.43 20.2559C50.7666 19.8952 51.0255 19.4691 51.1905 19.0042C51.3555 18.5392 51.4232 18.0453 51.3894 17.553C51.3555 17.0608 51.2209 16.5808 50.9938 16.1428C50.7666 15.7048 50.4519 15.3181 50.0691 15.0069C49.6863 14.6956 49.2436 14.4663 48.7685 14.3333C48.2933 14.2003 47.796 14.1663 47.3072 14.2336C47.2127 13.8165 47.0356 13.4225 46.7863 13.0749C46.5371 12.7274 46.2207 12.4333 45.8559 12.21C45.4911 11.9868 45.0852 11.8389 44.6623 11.7751C44.2394 11.7113 43.808 11.7328 43.3936 11.8385C42.9791 11.9442 42.5901 12.1318 42.2494 12.3904C41.9087 12.6489 41.6232 12.9731 41.4098 13.3438C41.1965 13.7145 41.0596 14.1241 41.0072 14.5486C40.9548 14.9731 40.988 15.4038 41.1048 15.8152C40.4171 15.8881 39.7807 16.2129 39.3182 16.7271C38.8557 17.2413 38.5999 17.9084 38.6 18.6V18.6ZM45.8 21.4H44.2V17.4C44.2 17.1878 44.2843 16.9843 44.4343 16.8343C44.5843 16.6843 44.7878 16.6 45 16.6C45.2121 16.6 45.4156 16.6843 45.5657 16.8343C45.7157 16.9843 45.8 17.1878 45.8 17.4V21.4Z" fill="#11111b"/>
</g>
<defs>
<filter id="filter0_d" x="34" y="11" width="47" height="47" filterUnits="userSpaceOnUse" color-interpolation-filters="sRGB">
<feFlood flood-opacity="0" result="BackgroundImageFix"/>
<feColorMatrix in="SourceAlpha" type="matrix" values="0 0 0 0 0 0 0 0 0 0 0 0 0 0 0 0 0 0 127 0" result="hardAlpha"/>
<feOffset dy="4"/>
<feGaussianBlur stdDeviation="8"/>
<feComposite in2="hardAlpha" operator="out"/>
<feColorMatrix type="matrix" values="0 0 0 0 0 0 0 0 0 0 0 0 0 0 0 0 0 0 0.3 0"/>
<feBlend mode="normal" in2="BackgroundImageFix" result="effect1_dropShadow"/>
<feBlend mode="normal" in="SourceGraphic" in2="effect1_dropShadow" result="shape"/>
</filter>
<clipPath id="clip0">
<path d="M33 7H51C54.3137 7 57 9.68629 57 13V31H41C36.5817 31 33 27.4183 33 23V7Z" fill="white"/>
</clipPath>
</defs>
</svg>
