<?xml version="1.0" encoding="utf-8"?>
<!-- Generator: Adobe Illustrator 25.2.0, SVG Export Plug-In . SVG Version: 6.00 Build 0)  -->
<svg version="1.1" id="Layer_1" xmlns="http://www.w3.org/2000/svg" xmlns:xlink="http://www.w3.org/1999/xlink" x="0px" y="0px"
	 viewBox="0 0 64 64" style="enable-background:new 0 0 64 64;" xml:space="preserve">
<style type="text/css">
	.st0{fill:#11111b;}
	.st1{clip-path:url(#SVGID_2_);}
	.st2{fill:#b4befe;}
</style>
<g>
	<path class="st0" d="M13,7h38c3.3,0,6,2.7,6,6v38c0,3.3-2.7,6-6,6H13c-3.3,0-6-2.7-6-6V13C7,9.7,9.7,7,13,7z"/>
	<g>
		<defs>
			<path id="SVGID_1_" d="M33,7h18c3.3,0,6,2.7,6,6v18H41c-4.4,0-8-3.6-8-8V7z"/>
		</defs>
		<clipPath id="SVGID_2_">
			<use xlink:href="#SVGID_1_"  style="overflow:visible;"/>
		</clipPath>
		<g class="st1">
			<path class="st2" d="M33,7h18c3.3,0,6,2.7,6,6v18H41c-4.4,0-8-3.6-8-8V7z"/>
			<g>
				<circle class="st2" cx="57.5" cy="30.5" r="7.5"/>
			</g>
			<path class="st0" d="M43.5,11.7c-3.6,0-6.5,2.9-6.5,6.5s2.9,6.5,6.5,6.5H57v-1.1h-9.9h-3.6c-3,0-5.4-2.4-5.4-5.4s2.4-5.4,5.4-5.4
				V11.7z M43.5,13.3c-2.7,0-4.9,2.2-4.9,4.9s2.2,4.9,4.9,4.9H57V22H43.5c-2.1,0-3.8-1.7-3.8-3.8s1.7-3.8,3.8-3.8
				c0.6,0,1.1,0.1,1.6,0.4v-1.2C44.6,13.4,44.1,13.3,43.5,13.3z M43.5,14.9c-1.8,0-3.2,1.4-3.2,3.2c0,1.8,1.4,3.2,3.2,3.2H57v-1.1
				H43.5c-1.2,0-2.2-1-2.2-2.2c0-1.2,1-2.2,2.2-2.2c0.8,0,1.5,0.4,1.9,1.1h1.2C46.1,15.8,44.9,14.9,43.5,14.9z"/>
		</g>
	</g>
</g>
</svg>
