<svg width="64" height="64" viewBox="0 0 64 64" fill="none" xmlns="http://www.w3.org/2000/svg">
<rect x="7" y="7" width="50" height="50" rx="6" fill="#11111b"/>
<g clip-path="url(#clip0_38_589)">
<path d="M33 7H51C54.3137 7 57 9.68629 57 13V31H41C36.5817 31 33 27.4183 33 23V7Z" fill="#89b4fa"/>
<g filter="url(#filter0_d_38_589)">
<circle cx="57.5" cy="30.5" r="7.5" fill="#89b4fa"/>
</g>
<path d="M38.6 15.8C38.6 15.3757 38.7686 14.9687 39.0686 14.6686C39.3687 14.3686 39.7757 14.2 40.2 14.2H44.2L45.8 15.8H49.8C50.2244 15.8 50.6313 15.9686 50.9314 16.2686C51.2314 16.5687 51.4 16.9757 51.4 17.4V22.2C51.4 22.6243 51.2314 23.0313 50.9314 23.3314C50.6313 23.6314 50.2244 23.8 49.8 23.8H40.2C39.7757 23.8 39.3687 23.6314 39.0686 23.3314C38.7686 23.0313 38.6 22.6243 38.6 22.2V15.8Z" fill="#11111b"/>
</g>
<defs>
<filter id="filter0_d_38_589" x="34" y="11" width="47" height="47" filterUnits="userSpaceOnUse" color-interpolation-filters="sRGB">
<feFlood flood-opacity="0" result="BackgroundImageFix"/>
<feColorMatrix in="SourceAlpha" type="matrix" values="0 0 0 0 0 0 0 0 0 0 0 0 0 0 0 0 0 0 127 0" result="hardAlpha"/>
<feOffset dy="4"/>
<feGaussianBlur stdDeviation="8"/>
<feComposite in2="hardAlpha" operator="out"/>
<feColorMatrix type="matrix" values="0 0 0 0 0 0 0 0 0 0 0 0 0 0 0 0 0 0 0.3 0"/>
<feBlend mode="normal" in2="BackgroundImageFix" result="effect1_dropShadow_38_589"/>
<feBlend mode="normal" in="SourceGraphic" in2="effect1_dropShadow_38_589" result="shape"/>
</filter>
<clipPath id="clip0_38_589">
<path d="M33 7H51C54.3137 7 57 9.68629 57 13V31H41C36.5817 31 33 27.4183 33 23V7Z" fill="white"/>
</clipPath>
</defs>
</svg>
