<?xml version="1.0" encoding="utf-8"?>
<!-- Generator: Adobe Illustrator 25.2.0, SVG Export Plug-In . SVG Version: 6.00 Build 0)  -->
<svg version="1.1" id="Layer_1" xmlns="http://www.w3.org/2000/svg" xmlns:xlink="http://www.w3.org/1999/xlink" x="0px" y="0px"
	 viewBox="0 0 64 64" style="enable-background:new 0 0 64 64;" xml:space="preserve">
<style type="text/css">
	.st0{fill:#11111b;}
	.st1{clip-path:url(#SVGID_2_);}
	.st2{fill:#b4befe;}
</style>
<g>
	<path class="st0" d="M13,7h38c3.3,0,6,2.7,6,6v38c0,3.3-2.7,6-6,6H13c-3.3,0-6-2.7-6-6V13C7,9.7,9.7,7,13,7z"/>
	<g>
		<defs>
			<path id="SVGID_1_" d="M33,7h18c3.3,0,6,2.7,6,6v18H41c-4.4,0-8-3.6-8-8V7z"/>
		</defs>
		<clipPath id="SVGID_2_">
			<use xlink:href="#SVGID_1_"  style="overflow:visible;"/>
		</clipPath>
		<g class="st1">
			<path class="st2" d="M33,7h18c3.3,0,6,2.7,6,6v18H41c-4.4,0-8-3.6-8-8V7z"/>
			<g>
				<circle class="st2" cx="57.5" cy="30.5" r="7.5"/>
			</g>
			<path class="st0" d="M44,10c0,0,0.8,0.5,0.2,1.8c-0.9,2,0.8,2.5,0.8,2.5s-0.5-0.5,0.2-2.1C46,10.3,44,10,44,10z M47,12.8
				c0,0-1.5,0.7-0.5,2.5c0.6,1.2-0.1,1.8-0.1,1.8s1.8-0.6,0.9-2.3C46.6,13.3,47,12.8,47,12.8z M42.3,12.9c0,0-1.1,1.1,0,2.5
				c0.7,0.9,0.2,1.7,0.2,1.7s1.3-1.2,0.4-2.5C42.1,13.5,42.3,12.9,42.3,12.9z M42.6,17.1H39l2.1,8.6H49l0.5-1.4
				c0.2,0.1,0.5,0.1,0.7,0.1c1.7,0,3.1-1.1,3.1-2.8c0-1.4-1-2.6-2.3-3l0.3-1.5H42.6L42.6,17.1z M50.7,19.7
				C50.7,19.7,50.8,19.7,50.7,19.7c0.6,0.2,0.8,1.2,0.5,2.2c-0.3,1.1-0.9,1.8-1.5,1.7L50.7,19.7z"/>
		</g>
	</g>
</g>
</svg>
