<?xml version="1.0" encoding="utf-8"?>
<!-- Generator: Adobe Illustrator 25.2.0, SVG Export Plug-In . SVG Version: 6.00 Build 0)  -->
<svg version="1.1" id="Layer_1" xmlns="http://www.w3.org/2000/svg" xmlns:xlink="http://www.w3.org/1999/xlink" x="0px" y="0px"
	 viewBox="0 0 64 64" style="enable-background:new 0 0 64 64;" xml:space="preserve">
<style type="text/css">
	.st0{fill:#11111b;}
	.st1{clip-path:url(#SVGID_2_);}
	.st2{fill:#b4befe;}
</style>
<g>
	<path class="st0" d="M13,7h38c3.3,0,6,2.7,6,6v38c0,3.3-2.7,6-6,6H13c-3.3,0-6-2.7-6-6V13C7,9.7,9.7,7,13,7z"/>
	<g>
		<defs>
			<path id="SVGID_1_" d="M33,7h18c3.3,0,6,2.7,6,6v18H41c-4.4,0-8-3.6-8-8V7z"/>
		</defs>
		<clipPath id="SVGID_2_">
			<use xlink:href="#SVGID_1_"  style="overflow:visible;"/>
		</clipPath>
		<g class="st1">
			<path class="st2" d="M33,7h18c3.3,0,6,2.7,6,6v18H41c-4.4,0-8-3.6-8-8V7z"/>
			<g>
				<circle class="st2" cx="57.5" cy="30.5" r="7.5"/>
			</g>
			<path class="st0" d="M51.1,12l-3.5,5.9l2.3,1.2L51.1,12z M38.2,15.5L34.7,18l4.7-0.2l2.3,8.2l1.2-1.2L53.4,26l-3.5-5.9l-1.5-0.8
				l-5.7,3.3L40,16L38.2,15.5z M44.7,18l-2.7,1.7l1,2.3l4.7-2.7L46.1,18H44.7z"/>
		</g>
	</g>
</g>
</svg>
