<?xml version="1.0" encoding="utf-8"?>
<!-- Generator: Adobe Illustrator 25.2.0, SVG Export Plug-In . SVG Version: 6.00 Build 0)  -->
<svg version="1.1" id="Layer_1" xmlns="http://www.w3.org/2000/svg" xmlns:xlink="http://www.w3.org/1999/xlink" x="0px" y="0px"
	 viewBox="0 0 64 64" style="enable-background:new 0 0 64 64;" xml:space="preserve">
<style type="text/css">
	.st0{fill:#11111b;}
	.st1{clip-path:url(#SVGID_2_);}
	.st2{fill:#b4befe;}
</style>
<g>
	<path class="st0" d="M13,7h38c3.3,0,6,2.7,6,6v38c0,3.3-2.7,6-6,6H13c-3.3,0-6-2.7-6-6V13C7,9.7,9.7,7,13,7z"/>
	<g>
		<defs>
			<path id="SVGID_1_" d="M33,7h18c3.3,0,6,2.7,6,6v18H41c-4.4,0-8-3.6-8-8V7z"/>
		</defs>
		<clipPath id="SVGID_2_">
			<use xlink:href="#SVGID_1_"  style="overflow:visible;"/>
		</clipPath>
		<g class="st1">
			<path class="st2" d="M33,7h18c3.3,0,6,2.7,6,6v18H41c-4.4,0-8-3.6-8-8V7z"/>
			<g>
				<circle class="st2" cx="57.5" cy="30.5" r="7.5"/>
			</g>
			<path class="st0" d="M39.9,14c-0.6,0-1.3,0.1-1.9,0.4c-0.6,0.2-1.1,0.6-1.6,1.1c-0.5,0.5-0.8,1-1.1,1.6C35.1,17.7,35,18.3,35,19
				c0,0.7,0.1,1.3,0.4,1.9c0.2,0.6,0.6,1.2,1.1,1.6c0.5,0.5,1,0.8,1.6,1.1c0.6,0.2,1.2,0.4,1.8,0.4c0,0,0,0,0,0
				c1.5,0.1,2.7-0.5,3.6-1.4c0.6-0.6,1.1-1.3,1.5-2c0.4,0.7,0.9,1.4,1.5,2c0.9,0.9,2.1,1.5,3.6,1.4c0,0,0,0,0,0
				c0.6,0,1.2-0.1,1.8-0.4c0.6-0.2,1.1-0.6,1.6-1.1l0,0c0.5-0.5,0.8-1,1.1-1.6c0.2-0.6,0.4-1.3,0.4-1.9c0-0.7-0.1-1.3-0.4-1.9l0,0
				c-0.2-0.6-0.6-1.2-1.1-1.6c-0.5-0.5-1-0.8-1.6-1.1c-0.6-0.2-1.2-0.4-1.9-0.4c-1.6,0-2.8,0.7-3.8,1.6c-0.5,0.5-1,1.1-1.4,1.7
				c-0.4-0.6-0.8-1.2-1.4-1.7C42.7,14.7,41.4,14,39.9,14L39.9,14z M39.8,15.4c1.3,0,2.1,0.5,2.8,1.2c0.6,0.6,1.1,1.4,1.6,2.3
				c-0.6,1-1.1,2-1.8,2.6c-0.7,0.7-1.4,1.1-2.6,1h0c-0.5,0-0.9-0.1-1.3-0.3c-0.4-0.2-0.8-0.4-1.1-0.8l0,0c-0.3-0.3-0.6-0.7-0.7-1.2
				c-0.2-0.4-0.3-0.9-0.3-1.4c0-0.5,0.1-0.9,0.3-1.4c0.2-0.4,0.4-0.8,0.7-1.2l0,0c0.3-0.3,0.7-0.6,1.1-0.8
				C38.9,15.5,39.4,15.4,39.8,15.4L39.8,15.4z M50.1,15.4c0.5,0,0.9,0.1,1.3,0.3c0.4,0.2,0.8,0.4,1.1,0.8l0,0
				c0.3,0.3,0.6,0.7,0.7,1.2c0.2,0.4,0.3,0.9,0.3,1.4c0,0.5-0.1,0.9-0.3,1.4c-0.2,0.4-0.4,0.8-0.7,1.2l0,0c-0.3,0.3-0.7,0.6-1.1,0.8
				c-0.4,0.2-0.9,0.3-1.3,0.3h0c-1.2,0.1-1.9-0.3-2.6-1c-0.6-0.6-1.2-1.6-1.8-2.6c0.5-0.9,1-1.7,1.6-2.3
				C48.1,15.9,48.9,15.4,50.1,15.4L50.1,15.4z M49.3,16.9v1.4h-1.4v1.4h1.4v1.4h1.4v-1.4h1.4v-1.4h-1.4v-1.4H49.3z M37.8,18.3v1.4
				h4.3v-1.4H37.8z"/>
		</g>
	</g>
</g>
</svg>
