<?xml version="1.0" encoding="utf-8"?>
<!-- Generator: Adobe Illustrator 25.2.0, SVG Export Plug-In . SVG Version: 6.00 Build 0)  -->
<svg version="1.1" id="Layer_1" xmlns="http://www.w3.org/2000/svg" xmlns:xlink="http://www.w3.org/1999/xlink" x="0px" y="0px"
	 viewBox="0 0 64 64" style="enable-background:new 0 0 64 64;" xml:space="preserve">
<style type="text/css">
	.st0{fill:#11111b;}
	.st1{clip-path:url(#SVGID_2_);}
	.st2{fill:#b4befe;}
</style>
<g>
	<path class="st0" d="M13,7h38c3.3,0,6,2.7,6,6v38c0,3.3-2.7,6-6,6H13c-3.3,0-6-2.7-6-6V13C7,9.7,9.7,7,13,7z"/>
	<g>
		<defs>
			<path id="SVGID_1_" d="M33,7h18c3.3,0,6,2.7,6,6v18H41c-4.4,0-8-3.6-8-8V7z"/>
		</defs>
		<clipPath id="SVGID_2_">
			<use xlink:href="#SVGID_1_"  style="overflow:visible;"/>
		</clipPath>
		<g class="st1">
			<path class="st2" d="M33,7h18c3.3,0,6,2.7,6,6v18H41c-4.4,0-8-3.6-8-8V7z"/>
			<g>
				<circle class="st2" cx="57.5" cy="30.5" r="7.5"/>
			</g>
			<path class="st0" d="M41.5,11.6c-0.2,0-0.5,0.1-0.8,0.2c-1.1,0.6-2.1,2.6-2.6,5.1c-0.5,2.2-0.6,5.1-0.4,6.3
				c0.2,1,0.6,1.5,1.4,1.5c1.1,0,2.4-1.3,3.3-3c0.6-1,2.1-1.4,3.4-1.3c1.4-0.1,2.8,0.4,3.4,1.3c0.9,1.7,2.2,3,3.3,3
				c0.7,0,1.1-0.5,1.4-1.5c0.3-1.2,0.1-4.2-0.4-6.3c-0.5-2.6-1.5-4.5-2.6-5.1c-0.3-0.2-0.6-0.2-0.8-0.2c-0.2,0-0.5,0.1-0.7,0.2
				c-0.5,0.4-1.7,0.9-3.7,0.9c-2,0-3.1-0.4-3.7-0.9C41.9,11.7,41.7,11.6,41.5,11.6z M41.7,14.1h1.6v1.6H45v1.6h-1.6V19h-1.6v-1.6
				h-1.6v-1.6h1.6V14.1z M49.1,14.1c0.5,0,0.8,0.4,0.8,0.8c0,0.5-0.4,0.8-0.8,0.8c-0.5,0-0.8-0.4-0.8-0.8
				C48.3,14.4,48.7,14.1,49.1,14.1z M47.5,15.7c0.5,0,0.8,0.4,0.8,0.8s-0.4,0.8-0.8,0.8c-0.5,0-0.8-0.4-0.8-0.8S47,15.7,47.5,15.7z
				 M50.8,15.7c0.5,0,0.8,0.4,0.8,0.8s-0.4,0.8-0.8,0.8s-0.8-0.4-0.8-0.8S50.3,15.7,50.8,15.7z M49.1,17.4c0.5,0,0.8,0.4,0.8,0.8
				S49.6,19,49.1,19c-0.5,0-0.8-0.4-0.8-0.8S48.7,17.4,49.1,17.4z"/>
		</g>
	</g>
</g>
</svg>
