<svg width="22" height="22" viewBox="0 0 22 22" fill="none" xmlns="http://www.w3.org/2000/svg">
<path opacity="0.2" d="M21 2.5V20.5C21 21.0523 20.5523 21.5 20 21.5H2C1.44772 21.5 1 21.0523 1 20.5V2.5C1 1.94772 1.44772 1.5 2 1.5H20C20.5523 1.5 21 1.94772 21 2.5Z" fill="black"/>
<path d="M21 2V20C21 20.5523 20.5523 21 20 21H2C1.44772 21 1 20.5523 1 20V2C1 1.44772 1.44772 1 2 1H20C20.5523 1 21 1.44772 21 2Z" fill="#8E8E8E"/>
<path opacity="0.2" d="M2 1C1.446 1 1 1.446 1 2V2.5C1 1.946 1.446 1.5 2 1.5H20C20.554 1.5 21 1.946 21 2.5V2C21 1.446 20.554 1 20 1H2Z" fill="white"/>
<path opacity="0.5" d="M11 4C9.14348 4 7.36301 4.7375 6.05025 6.05025C4.7375 7.36301 4 9.14348 4 11C4 12.8565 4.7375 14.637 6.05025 15.9497C7.36301 17.2625 9.14348 18 11 18C12.8565 18 14.637 17.2625 15.9497 15.9497C17.2625 14.637 18 12.8565 18 11C18 9.14348 17.2625 7.36301 15.9497 6.05025C14.637 4.7375 12.8565 4 11 4V4ZM11 8.5C11.663 8.5 12.2989 8.76339 12.7678 9.23223C13.2366 9.70107 13.5 10.337 13.5 11C13.5 11.663 13.2366 12.2989 12.7678 12.7678C12.2989 13.2366 11.663 13.5 11 13.5C10.337 13.5 9.70107 13.2366 9.23223 12.7678C8.76339 12.2989 8.5 11.663 8.5 11C8.5 10.337 8.76339 9.70107 9.23223 9.23223C9.70107 8.76339 10.337 8.5 11 8.5V8.5Z" fill="black"/>
<rect x="1" y="1" width="20" height="20" rx="2" fill="url(#paint0_linear)"/>
<path d="M11 4C9.14348 4 7.36301 4.7375 6.05025 6.05025C4.7375 7.36301 4 9.14348 4 11C4 12.8565 4.7375 14.637 6.05025 15.9497C7.36301 17.2625 9.14348 18 11 18C12.8565 18 14.637 17.2625 15.9497 15.9497C17.2625 14.637 18 12.8565 18 11C18 9.14348 17.2625 7.36301 15.9497 6.05025C14.637 4.7375 12.8565 4 11 4V4ZM11 8.5C11.663 8.5 12.2989 8.76339 12.7678 9.23223C13.2366 9.70107 13.5 10.337 13.5 11C13.5 11.663 13.2366 12.2989 12.7678 12.7678C12.2989 13.2366 11.663 13.5 11 13.5C10.337 13.5 9.70107 13.2366 9.23223 12.7678C8.76339 12.2989 8.5 11.663 8.5 11C8.5 10.337 8.76339 9.70107 9.23223 9.23223C9.70107 8.76339 10.337 8.5 11 8.5V8.5Z" fill="#11111b"/>
<defs>
<linearGradient id="paint0_linear" x1="-16.3214" y1="34.5714" x2="40.2857" y2="-10.25" gradientUnits="userSpaceOnUse">
<stop stop-color="#fab387"/>

<stop offset="0.919448" stop-color="#fab387"/>
</linearGradient>
</defs>
</svg>
