<svg width="22" height="22" viewBox="0 0 22 22" fill="none" xmlns="http://www.w3.org/2000/svg">
<rect x="1" y="1" width="20" height="20" rx="2" fill="url(#paint0_linear)"/>
<path d="M12.7776 14.8666H8.59968V15.911H12.7776V14.8666Z" fill="#11111b"/>
<path d="M12.7776 16.9555H8.59968V18H12.7776V16.9555Z" fill="#11111b"/>
<path d="M10.6886 7.55521C9.8576 7.55521 9.0606 7.88533 8.47297 8.47297C7.88533 9.0606 7.55521 9.8576 7.55521 10.6886C7.55521 11.5197 7.88533 12.3167 8.47297 12.9043C9.0606 13.492 9.8576 13.8221 10.6886 13.8221C11.5197 13.8221 12.3167 13.492 12.9043 12.9043C13.492 12.3167 13.8221 11.5197 13.8221 10.6886C13.8221 9.8576 13.492 9.0606 12.9043 8.47297C12.3167 7.88533 11.5197 7.55521 10.6886 7.55521ZM10.6886 8.59968C11.2427 8.59968 11.774 8.81977 12.1658 9.21153C12.5575 9.60328 12.7776 10.1346 12.7776 10.6886C12.7776 11.2427 12.5575 11.774 12.1658 12.1658C11.774 12.5575 11.2427 12.7776 10.6886 12.7776C10.1346 12.7776 9.60328 12.5575 9.21153 12.1658C8.81977 11.774 8.59968 11.2427 8.59968 10.6886C8.59968 10.1346 8.81977 9.60328 9.21153 9.21153C9.60328 8.81977 10.1346 8.59968 10.6886 8.59968Z" fill="#11111b"/>
<path d="M6.21568 9.16991L9.16991 6.21568L8.43135 5.47712L5.47712 8.43135L6.21568 9.16991Z" fill="#11111b"/>
<path d="M4.73856 7.69279L7.69279 4.73856L6.95423 4L4 6.95423L4.73856 7.69279Z" fill="#11111b"/>
<path d="M12.1241 6.21568L15.0784 9.16991L17.2941 6.95423L14.3398 4L12.1241 6.21568Z" fill="#11111b"/>
<defs>
<linearGradient id="paint0_linear" x1="-16.3214" y1="34.5714" x2="40.2857" y2="-10.25" gradientUnits="userSpaceOnUse">
<stop stop-color="#fab387"/>

<stop offset="0.919448" stop-color="#fab387"/>
</linearGradient>
</defs>
</svg>
