<svg width="22" height="22" viewBox="0 0 22 22" fill="none" xmlns="http://www.w3.org/2000/svg">
<path d="M19 11C19 15.4183 15.4183 19 11 19C6.58172 19 3 15.4183 3 11C3 6.58172 6.58172 3 11 3C15.4183 3 19 6.58172 19 11ZM6.2 11C6.2 13.651 8.34903 15.8 11 15.8C13.651 15.8 15.8 13.651 15.8 11C15.8 8.34903 13.651 6.2 11 6.2C8.34903 6.2 6.2 8.34903 6.2 11Z" fill="#C091F2"/>
<path d="M15.6648 10.1214H13.1232L12.5849 9.05413C12.5193 8.92441 12.3788 8.85168 12.2345 8.87378C12.0909 8.89593 11.978 9.00805 11.9546 9.15136L11.4862 12.0357L10.9168 7.58895C10.8967 7.43256 10.7705 7.31147 10.6136 7.29769C10.4564 7.28542 10.3113 7.38132 10.2644 7.53165L8.96212 11.707L8.58258 9.36721C8.55874 9.22089 8.44173 9.10755 8.29475 9.08849C8.14794 9.07057 8.00564 9.14899 7.94549 9.28458L7.3872 10.5384H6.3352C6.15017 10.5384 6 10.6885 6 10.8736C6 11.0586 6.15017 11.2087 6.3352 11.2087H7.60495C7.73735 11.2087 7.85734 11.1308 7.9111 11.0098L8.10087 10.584L8.52786 13.2176C8.55264 13.3711 8.6799 13.4871 8.83506 13.4983C8.99022 13.5078 9.13236 13.4122 9.17879 13.2639L10.4471 9.19763L11.1144 14.4107C11.1355 14.5757 11.2747 14.7004 11.4412 14.7034H11.4469C11.6109 14.7034 11.7513 14.5844 11.7779 14.4217L12.4509 10.2773L12.61 10.5931L12.6172 10.6075C12.6741 10.7206 12.79 10.7919 12.9167 10.7919H15.6649C15.85 10.7919 16 10.6417 16 10.4567C16 10.2716 15.8499 10.1214 15.6648 10.1214Z" fill="#C091F2"/>
</svg>
