<svg width="22" height="22" viewBox="0 0 22 22" fill="none" xmlns="http://www.w3.org/2000/svg">
<path opacity="0.3" d="M19 11C19 15.4183 15.4183 19 11 19C6.58172 19 3 15.4183 3 11C3 6.58172 6.58172 3 11 3C15.4183 3 19 6.58172 19 11ZM6.2 11C6.2 13.651 8.34903 15.8 11 15.8C13.651 15.8 15.8 13.651 15.8 11C15.8 8.34903 13.651 6.2 11 6.2C8.34903 6.2 6.2 8.34903 6.2 11Z" fill="#f5c2e7"/>
<path d="M3 11C3 12.5822 3.46919 14.129 4.34824 15.4446C5.22729 16.7602 6.47672 17.7855 7.93853 18.391C9.40034 18.9965 11.0089 19.155 12.5607 18.8463C14.1126 18.5376 15.538 17.7757 16.6569 16.6569C17.7757 15.538 18.5376 14.1126 18.8463 12.5607C19.155 11.0089 18.9965 9.40034 18.391 7.93853C17.7855 6.47672 16.7602 5.22729 15.4446 4.34824C14.129 3.46919 12.5823 3 11 3L11 6.2C11.9494 6.2 12.8774 6.48152 13.6667 7.00895C14.4561 7.53638 15.0713 8.28603 15.4346 9.16312C15.7979 10.0402 15.893 11.0053 15.7078 11.9364C15.5226 12.8675 15.0654 13.7228 14.3941 14.3941C13.7228 15.0654 12.8675 15.5226 11.9364 15.7078C11.0053 15.893 10.0402 15.7979 9.16312 15.4346C8.28603 15.0713 7.53638 14.4561 7.00895 13.6667C6.48151 12.8774 6.2 11.9493 6.2 11L3 11Z" fill="#f5c2e7"/>
</svg>
