<svg width="22" height="22" viewBox="0 0 22 22" fill="none" xmlns="http://www.w3.org/2000/svg">
<path opacity="0.3" d="M19 11C19 15.4183 15.4183 19 11 19C6.58172 19 3 15.4183 3 11C3 6.58172 6.58172 3 11 3C15.4183 3 19 6.58172 19 11ZM6.2 11C6.2 13.651 8.34903 15.8 11 15.8C13.651 15.8 15.8 13.651 15.8 11C15.8 8.34903 13.651 6.2 11 6.2C8.34903 6.2 6.2 8.34903 6.2 11Z" fill="#f5c2e7"/>
<path d="M9.90388 13.2346H11.9645V13.0497C11.9754 11.9895 12.356 11.4948 13.215 10.9783C14.2317 10.3747 14.895 9.57551 14.895 8.29781C14.895 6.39486 13.3618 5.28571 11.2033 5.28571C9.2297 5.28571 7.62034 6.31874 7.57141 8.49354H9.78971C9.82233 7.60731 10.4802 7.13429 11.1925 7.13429C11.9264 7.13429 12.5191 7.62362 12.5191 8.37937C12.5191 9.09161 12.0026 9.56463 11.3338 9.98872C10.4204 10.565 9.90932 11.1468 9.90388 13.0497V13.2346ZM10.975 16.7143C11.6709 16.7143 12.2744 16.1325 12.2799 15.4094C12.2744 14.6972 11.6709 14.1154 10.975 14.1154C10.2573 14.1154 9.66466 14.6972 9.67009 15.4094C9.66466 16.1325 10.2573 16.7143 10.975 16.7143Z" fill="#f5c2e7"/>
</svg>
