<svg width="22" height="22" viewBox="0 0 22 22" fill="none" xmlns="http://www.w3.org/2000/svg">
<path opacity="0.3" d="M19 11C19 15.4183 15.4183 19 11 19C6.58172 19 3 15.4183 3 11C3 6.58172 6.58172 3 11 3C15.4183 3 19 6.58172 19 11ZM6.2 11C6.2 13.651 8.34903 15.8 11 15.8C13.651 15.8 15.8 13.651 15.8 11C15.8 8.34903 13.651 6.2 11 6.2C8.34903 6.2 6.2 8.34903 6.2 11Z" fill="#f5c2e7"/>
<path d="M19 11C19 9.94943 18.7931 8.90914 18.391 7.93853C17.989 6.96793 17.3997 6.08601 16.6569 5.34315C15.914 4.60028 15.0321 4.011 14.0615 3.60896C13.0909 3.20693 12.0506 3 11 3L11 6.2C11.6303 6.2 12.2545 6.32416 12.8369 6.56538C13.4192 6.8066 13.9484 7.16017 14.3941 7.60589C14.8398 8.05161 15.1934 8.58076 15.4346 9.16312C15.6758 9.74548 15.8 10.3697 15.8 11H19Z" fill="#f5c2e7"/>
</svg>
