<svg width="22" height="22" viewBox="0 0 22 22" fill="none" xmlns="http://www.w3.org/2000/svg">
<path opacity="0.3" d="M19 11C19 15.4183 15.4183 19 11 19C6.58172 19 3 15.4183 3 11C3 6.58172 6.58172 3 11 3C15.4183 3 19 6.58172 19 11ZM6.2 11C6.2 13.651 8.34903 15.8 11 15.8C13.651 15.8 15.8 13.651 15.8 11C15.8 8.34903 13.651 6.2 11 6.2C8.34903 6.2 6.2 8.34903 6.2 11Z" fill="#f5c2e7"/>
<path d="M19 11C19 15.4183 15.4183 19 11 19C6.58172 19 3 15.4183 3 11C3 6.58172 6.58172 3 11 3C15.4183 3 19 6.58172 19 11ZM6.2 11C6.2 13.651 8.34903 15.8 11 15.8C13.651 15.8 15.8 13.651 15.8 11C15.8 8.34903 13.651 6.2 11 6.2C8.34903 6.2 6.2 8.34903 6.2 11Z" fill="#f5c2e7"/>
<path d="M9.58775 16.7143C9.51133 16.7143 9.43347 16.6979 9.36062 16.6636C9.12919 16.555 9.00634 16.2979 9.06776 16.0493L10.1006 11.8929H8.10707C7.90707 11.8929 7.7235 11.7815 7.63136 11.6037C7.53922 11.4258 7.55422 11.2115 7.66993 11.048L11.5863 5.51236C11.7291 5.31093 11.9899 5.23308 12.2177 5.32236C12.447 5.41164 12.5863 5.64521 12.5548 5.88878L12.1084 9.393H14.1784C14.3805 9.393 14.5655 9.50657 14.6562 9.68656C14.7477 9.86656 14.7298 10.083 14.6105 10.2458L10.0199 16.4957C9.91632 16.6371 9.75418 16.7143 9.58775 16.7143Z" fill="#f5c2e7"/>
</svg>
