<svg width="22" height="22" viewBox="0 0 22 22" fill="none" xmlns="http://www.w3.org/2000/svg">
<path opacity="0.3" d="M19 11C19 15.4183 15.4183 19 11 19C6.58172 19 3 15.4183 3 11C3 6.58172 6.58172 3 11 3C15.4183 3 19 6.58172 19 11ZM6.2 11C6.2 13.651 8.34903 15.8 11 15.8C13.651 15.8 15.8 13.651 15.8 11C15.8 8.34903 13.651 6.2 11 6.2C8.34903 6.2 6.2 8.34903 6.2 11Z" fill="#f5c2e7"/>
<path d="M19 11C19 15.4183 15.4183 19 11 19C6.58172 19 3 15.4183 3 11C3 6.58172 6.58172 3 11 3C15.4183 3 19 6.58172 19 11ZM6.2 11C6.2 13.651 8.34903 15.8 11 15.8C13.651 15.8 15.8 13.651 15.8 11C15.8 8.34903 13.651 6.2 11 6.2C8.34903 6.2 6.2 8.34903 6.2 11Z" fill="#f5c2e7"/>
</svg>
