<svg width="32" height="32" viewBox="0 0 32 32" fill="none" xmlns="http://www.w3.org/2000/svg">
<path opacity="0.2" d="M27 5V29C27 30.1046 26.1046 31 25 31H7C5.89543 31 5 30.1046 5 29V5C5 3.89543 5.89543 3 7 3H25C26.1046 3 27 3.89543 27 5Z" fill="black"/>
<path d="M27 4V28C27 29.1046 26.1046 30 25 30H7C5.89543 30 5 29.1046 5 28V4C5 2.89543 5.89543 2 7 2H25C26.1046 2 27 2.89543 27 4Z" fill="#8E8E8E"/>
<path opacity="0.5" d="M16 6C12.134 6 9 9.134 9 13V20H16C19.866 20 23 16.866 23 13C23 9.134 19.866 6 16 6ZM16 10C16.7956 10 17.5587 10.3161 18.1213 10.8787C18.6839 11.4413 19 12.2044 19 13C19 13.7956 18.6839 14.5587 18.1213 15.1213C17.5587 15.6839 16.7956 16 16 16C15.2044 16 14.4413 15.6839 13.8787 15.1213C13.3161 14.5587 13 13.7956 13 13C13 12.2044 13.3161 11.4413 13.8787 10.8787C14.4413 10.3161 15.2044 10 16 10V10Z" fill="black"/>
<path opacity="0.2" d="M7 2C5.892 2 5 2.892 5 4V5C5 3.892 5.892 3 7 3H25C26.108 3 27 3.892 27 5V4C27 2.892 26.108 2 25 2H7Z" fill="white"/>
<rect x="2" y="2" width="28" height="28" rx="2" fill="url(#paint0_linear)"/>
<path d="M16 6C10.4771 6 6 10.4771 6 16V26H16C21.5229 26 26 21.5229 26 16C26 10.4771 21.5229 6 16 6ZM16 11.7143C17.1366 11.7143 18.2267 12.1658 19.0305 12.9695C19.8342 13.7733 20.2857 14.8634 20.2857 16C20.2857 17.1366 19.8342 18.2267 19.0305 19.0305C18.2267 19.8342 17.1366 20.2857 16 20.2857C14.8634 20.2857 13.7733 19.8342 12.9695 19.0305C12.1658 18.2267 11.7143 17.1366 11.7143 16C11.7143 14.8634 12.1658 13.7733 12.9695 12.9695C13.7733 12.1658 14.8634 11.7143 16 11.7143V11.7143Z" fill="#11111b"/>
<defs>
<linearGradient id="paint0_linear" x1="-22.25" y1="49" x2="57" y2="-13.75" gradientUnits="userSpaceOnUse">
<stop stop-color="#fab387"/>

<stop offset="0.919448" stop-color="#fab387"/>
</linearGradient>
</defs>
</svg>
