<svg width="32" height="32" viewBox="0 0 32 32" fill="none" xmlns="http://www.w3.org/2000/svg">
<path opacity="0.2" d="M27 5V29C27 30.1046 26.1046 31 25 31H7C5.89543 31 5 30.1046 5 29V5C5 3.89543 5.89543 3 7 3H25C26.1046 3 27 3.89543 27 5Z" fill="black"/>
<path d="M27 4V28C27 29.1046 26.1046 30 25 30H7C5.89543 30 5 29.1046 5 28V4C5 2.89543 5.89543 2 7 2H25C26.1046 2 27 2.89543 27 4Z" fill="#8E8E8E"/>
<path opacity="0.2" d="M7 2C5.892 2 5 2.892 5 4V5C5 3.892 5.892 3 7 3H25C26.108 3 27 3.892 27 5V4C27 2.892 26.108 2 25 2H7Z" fill="white"/>
<g opacity="0.5">
<path opacity="0.5" d="M18 20H14V21.5H18V20Z" fill="black"/>
<path opacity="0.5" d="M18 22.5H14V24H18V22.5Z" fill="black"/>
<path opacity="0.5" d="M16 12C15.0717 12 14.1815 12.3687 13.5251 13.0251C12.8687 13.6815 12.5 14.5717 12.5 15.5C12.5 16.4283 12.8687 17.3185 13.5251 17.9749C14.1815 18.6313 15.0717 19 16 19C16.9283 19 17.8185 18.6313 18.4749 17.9749C19.1313 17.3185 19.5 16.4283 19.5 15.5C19.5 14.5717 19.1313 13.6815 18.4749 13.0251C17.8185 12.3687 16.9283 12 16 12ZM16 14C16.3978 14 16.7794 14.158 17.0607 14.4393C17.342 14.7206 17.5 15.1022 17.5 15.5C17.5 15.8978 17.342 16.2794 17.0607 16.5607C16.7794 16.842 16.3978 17 16 17C15.6022 17 15.2206 16.842 14.9393 16.5607C14.658 16.2794 14.5 15.8978 14.5 15.5C14.5 15.1022 14.658 14.7206 14.9393 14.4393C15.2206 14.158 15.6022 14 16 14V14Z" fill="black"/>
<path opacity="0.5" d="M17.7484 10.8894L20.5768 13.7179L23.4052 10.8894L20.5768 8.06102L17.7484 10.8894Z" fill="black"/>
<path opacity="0.5" d="M11.3844 13.7179L14.2128 10.8895L13.1522 9.82879L10.3238 12.6572L11.3844 13.7179Z" fill="black"/>
<path opacity="0.5" d="M9.61665 11.9501L12.4451 9.12168L11.3844 8.06102L8.55599 10.8894L9.61665 11.9501Z" fill="black"/>
</g>
<rect x="2" y="2" width="28" height="28" rx="2" fill="url(#paint0_linear)"/>
<path d="M18.7199 21.0803H13.3324V23.1006H18.7199V21.0803Z" fill="#11111b"/>
<path d="M18.7199 24.4474H13.3324V26.4677H18.7199V24.4474Z" fill="#11111b"/>
<path d="M16.0261 10.3053C14.7759 10.3053 13.5768 10.802 12.6928 11.686C11.8087 12.5701 11.3121 13.7691 11.3121 15.0193C11.3121 16.2696 11.8087 17.4686 12.6928 18.3527C13.5768 19.2367 14.7759 19.7334 16.0261 19.7334C17.2764 19.7334 18.4754 19.2367 19.3594 18.3527C20.2435 17.4686 20.7402 16.2696 20.7402 15.0193C20.7402 13.7691 20.2435 12.5701 19.3594 11.686C18.4754 10.802 17.2764 10.3053 16.0261 10.3053ZM16.0261 12.999C16.5619 12.999 17.0758 13.2119 17.4547 13.5908C17.8336 13.9697 18.0464 14.4835 18.0464 15.0193C18.0464 15.5552 17.8336 16.069 17.4547 16.4479C17.0758 16.8268 16.5619 17.0396 16.0261 17.0396C15.4903 17.0396 14.9764 16.8268 14.5975 16.4479C14.2187 16.069 14.0058 15.5552 14.0058 15.0193C14.0058 14.4835 14.2187 13.9697 14.5975 13.5908C14.9764 13.2119 15.4903 12.999 16.0261 12.999Z" fill="#11111b"/>
<path d="M18.381 8.80952L22.1905 12.619L26 8.80952L22.1905 5L18.381 8.80952Z" fill="#11111b"/>
<path d="M9.80952 12.619L13.619 8.80952L12.1905 7.38095L8.38095 11.1905L9.80952 12.619Z" fill="#11111b"/>
<path d="M7.42857 10.2381L11.2381 6.42857L9.80952 5L6 8.80952L7.42857 10.2381Z" fill="#11111b"/>
<defs>
<linearGradient id="paint0_linear" x1="-22.25" y1="49" x2="57" y2="-13.75" gradientUnits="userSpaceOnUse">
<stop stop-color="#fab387"/>

<stop offset="0.919448" stop-color="#fab387"/>
</linearGradient>
</defs>
</svg>
