<svg width="32" height="32" viewBox="0 0 32 32" fill="none" xmlns="http://www.w3.org/2000/svg">
<path opacity="0.2" d="M30 4.25V29.75C30 30.4404 29.4404 31 28.75 31H3.25C2.55964 31 2 30.4404 2 29.75V4.25C2 3.55964 2.55964 3 3.25 3H28.75C29.4404 3 30 3.55964 30 4.25Z" fill="black"/>
<path d="M30 3.25V28.75C30 29.4404 29.4404 30 28.75 30H3.25C2.55964 30 2 29.4404 2 28.75V3.25C2 2.55964 2.55964 2 3.25 2H28.75C29.4404 2 30 2.55964 30 3.25Z" fill="#8E8E8E"/>
<path opacity="0.5" d="M16 6C13.3478 6 10.8043 7.05357 8.92893 8.92893C7.05357 10.8043 6 13.3478 6 16C6 18.6522 7.05357 21.1957 8.92893 23.0711C10.8043 24.9464 13.3478 26 16 26C18.6522 26 21.1957 24.9464 23.0711 23.0711C24.9464 21.1957 26 18.6522 26 16C26 13.3478 24.9464 10.8043 23.0711 8.92893C21.1957 7.05357 18.6522 6 16 6V6ZM16 12C16.5253 12 17.0454 12.1035 17.5307 12.3045C18.016 12.5055 18.457 12.8001 18.8284 13.1716C19.1999 13.543 19.4945 13.984 19.6955 14.4693C19.8965 14.9546 20 15.4747 20 16C20 16.5253 19.8965 17.0454 19.6955 17.5307C19.4945 18.016 19.1999 18.457 18.8284 18.8284C18.457 19.1999 18.016 19.4945 17.5307 19.6955C17.0454 19.8965 16.5253 20 16 20C15.4747 20 14.9546 19.8965 14.4693 19.6955C13.984 19.4945 13.543 19.1999 13.1716 18.8284C12.8001 18.457 12.5055 18.016 12.3045 17.5307C12.1035 17.0454 12 16.5253 12 16C12 15.4747 12.1035 14.9546 12.3045 14.4693C12.5055 13.984 12.8001 13.543 13.1716 13.1716C13.543 12.8001 13.984 12.5055 14.4693 12.3045C14.9546 12.1035 15.4747 12 16 12V12Z" fill="black"/>
<path opacity="0.2" d="M3.25 2C2.5575 2 2 2.5575 2 3.25V4.25C2 3.5575 2.5575 3 3.25 3H28.75C29.442 3 30 3.5575 30 4.25V3.25C30 2.5575 29.442 2 28.75 2H3.25Z" fill="white"/>
<rect x="2" y="2" width="28" height="28" rx="2" fill="url(#paint0_linear)"/>
<path d="M16 6C13.3478 6 10.8043 7.05357 8.92893 8.92893C7.05357 10.8043 6 13.3478 6 16C6 18.6522 7.05357 21.1957 8.92893 23.0711C10.8043 24.9464 13.3478 26 16 26C18.6522 26 21.1957 24.9464 23.0711 23.0711C24.9464 21.1957 26 18.6522 26 16C26 13.3478 24.9464 10.8043 23.0711 8.92893C21.1957 7.05357 18.6522 6 16 6V6ZM16 12C16.5253 12 17.0454 12.1035 17.5307 12.3045C18.016 12.5055 18.457 12.8001 18.8284 13.1716C19.1999 13.543 19.4945 13.984 19.6955 14.4693C19.8965 14.9546 20 15.4747 20 16C20 16.5253 19.8965 17.0454 19.6955 17.5307C19.4945 18.016 19.1999 18.457 18.8284 18.8284C18.457 19.1999 18.016 19.4945 17.5307 19.6955C17.0454 19.8965 16.5253 20 16 20C15.4747 20 14.9546 19.8965 14.4693 19.6955C13.984 19.4945 13.543 19.1999 13.1716 18.8284C12.8001 18.457 12.5055 18.016 12.3045 17.5307C12.1035 17.0454 12 16.5253 12 16C12 15.4747 12.1035 14.9546 12.3045 14.4693C12.5055 13.984 12.8001 13.543 13.1716 13.1716C13.543 12.8001 13.984 12.5055 14.4693 12.3045C14.9546 12.1035 15.4747 12 16 12V12Z" fill="#11111b"/>
<defs>
<linearGradient id="paint0_linear" x1="-22.25" y1="49" x2="57" y2="-13.75" gradientUnits="userSpaceOnUse">
<stop stop-color="#fab387"/>

<stop offset="0.919448" stop-color="#fab387"/>
</linearGradient>
</defs>
</svg>
